<?xml version="1.0" encoding="UTF-8" standalone="no"?>
<svg
   xmlns:dc="http://purl.org/dc/elements/1.1/"
   xmlns:cc="http://creativecommons.org/ns#"
   xmlns:rdf="http://www.w3.org/1999/02/22-rdf-syntax-ns#"
   xmlns:svg="http://www.w3.org/2000/svg"
   xmlns="http://www.w3.org/2000/svg"
   xmlns:sodipodi="http://sodipodi.sourceforge.net/DTD/sodipodi-0.dtd"
   xmlns:inkscape="http://www.inkscape.org/namespaces/inkscape"
   id="svg6022"
   version="1.1"
   viewBox="0 0 862.39233 179.50418"
   height="179.50418mm"
   width="862.39233mm"
   sodipodi:docname="GES Lighting Showroom Header 8-15-2019.svg"
   inkscape:export-filename="D:\DOCUMENTS\000 STORE\Luther\Luther\GES LOGO\NEK LOGO 0320\GES BM 041519.png"
   inkscape:export-xdpi="299.98184"
   inkscape:export-ydpi="299.98184"
   inkscape:version="0.92.4 (5da689c313, 2019-01-14)">
  <sodipodi:namedview
     pagecolor="#ffffff"
     bordercolor="#666666"
     borderopacity="1"
     objecttolerance="10"
     gridtolerance="10"
     guidetolerance="10"
     inkscape:pageopacity="0"
     inkscape:pageshadow="2"
     inkscape:window-width="1920"
     inkscape:window-height="1017"
     id="namedview36"
     showgrid="false"
     inkscape:zoom="0.53543896"
     inkscape:cx="1046.5962"
     inkscape:cy="408.29846"
     inkscape:window-x="-8"
     inkscape:window-y="-8"
     inkscape:window-maximized="1"
     inkscape:current-layer="text869-2" />
  <defs
     id="defs6016">
    <marker
       id="DistanceX"
       orient="auto"
       refX="0"
       refY="0"
       style="overflow:visible">
      <path
         d="M 3,-3 -3,3 M 0,-5 V 5"
         style="stroke:#000000;stroke-width:0.5"
         id="path6026"
         inkscape:connector-curvature="0" />
    </marker>
    <pattern
       height="8"
       id="Hatch"
       patternUnits="userSpaceOnUse"
       width="8"
       x="0"
       y="0">
      <path
         d="M8 4 l-4,4"
         linecap="square"
         stroke="#000000"
         stroke-width="0.25"
         id="path6029" />
      <path
         d="M6 2 l-4,4"
         linecap="square"
         stroke="#000000"
         stroke-width="0.25"
         id="path6031" />
      <path
         d="M4 0 l-4,4"
         linecap="square"
         stroke="#000000"
         stroke-width="0.25"
         id="path6033" />
    </pattern>
    <symbol
       id="*Model_Space" />
    <symbol
       id="*Paper_Space" />
    <symbol
       id="*Paper_Space0" />
  </defs>
  <metadata
     id="metadata6019">
    <rdf:RDF>
      <cc:Work
         rdf:about="">
        <dc:format>image/svg+xml</dc:format>
        <dc:type
           rdf:resource="http://purl.org/dc/dcmitype/StillImage" />
        <dc:title></dc:title>
      </cc:Work>
    </rdf:RDF>
  </metadata>
  <g
     style="fill:#7ec142;fill-opacity:1"
     id="g6041"
     transform="matrix(5.2189826,0,0,5.2189826,-656.42927,-5673.7626)" />
  <g
     id="layer5"
     transform="translate(-672.5271,-96.833786)" />
  <path
     style="fill:#7ec142;fill-opacity:1;stroke:#000000;stroke-width:1.32061136;stroke-linejoin:round;stroke-miterlimit:4;stroke-dasharray:none;stroke-opacity:1"
     d=""
     id="path1590"
     inkscape:connector-curvature="0" />
  <path
     inkscape:connector-curvature="0"
     id="path6043-7-3"
     style="fill:#7ec142;fill-opacity:1;stroke:#1a1a1a;stroke-width:0.52916664;stroke-miterlimit:4;stroke-dasharray:none"
     d="m 111.00188,96.489624 a 27.214859,27.214859 0 0 1 -3.47043,-6.95273 47.819366,47.819366 0 0 0 -5.34984,-11.10443 10.019424,10.019424 0 0 0 0.002,-3.96538 2.5606729,2.5606729 0 0 0 -0.61913,-1.14556 27.119927,27.119927 0 0 0 -3.879975,-3.42105 39.095857,39.095857 0 0 0 -2.19491,-1.4801 0.4745673,0.4745673 0 0 1 -0.12416,-0.69152 1.8586258,1.8586258 0 0 0 0.3323,-0.69047 18.082767,18.082767 0 0 1 0.74847,-2.34332 27.892357,27.892357 0 0 0 1.14488,-3.57605 3.2109738,3.2109738 0 0 1 0.3932,-0.9295 0.30469986,0.30469986 0 0 1 0.40076,-0.1096 6.4935468,6.4935468 0 0 0 1.924515,0.65604 100.87424,100.87424 0 0 1 2.94333,0.55477 14.389586,14.389586 0 0 0 3.29916,0.28182 195.97992,195.97992 0 0 0 2.26154,-0.0783 1.1130681,1.1130681 0 0 0 0.65628,-0.25051 6.7666719,6.7666719 0 0 0 1.62197,-1.91902 1.489602,1.489602 0 0 0 0.17029,-0.99318 6.2277961,6.2277961 0 0 1 -0.0954,-1.12051 212.26829,212.26829 0 0 0 0,-2.32141 2.029678,2.029678 0 0 1 0.35161,-1.15286 5.0105469,5.0105469 0 0 1 0.90904,-1.00883 0.77437697,0.77437697 0 0 0 0.26587,-0.7077 2.0927337,2.0927337 0 0 1 -0.0344,-0.64767 1.3935884,1.3935884 0 0 0 -0.19445,-0.75415 1.1720113,1.1720113 0 0 0 -0.52787,-0.46971 0.10577312,0.10577312 0 0 1 0,-0.19309 17.728232,17.728232 0 0 1 0.74976,-0.31836 1.6837169,1.6837169 0 0 0 0.84501,-0.73328 0.76206017,0.76206017 0 0 0 0.0851,-0.52502 3.7698746,3.7698746 0 0 1 -0.0529,-1.11165 8.6082262,8.6082262 0 0 0 0,-1.72748 0.22305932,0.22305932 0 0 1 0.1706,-0.24007 1.1598145,1.1598145 0 0 1 0.32911,0 5.1426237,5.1426237 0 0 0 2.29266,-0.31836 4.8584866,4.8584866 0 0 0 1.63456,-1.04014 1.392482,1.392482 0 0 0 0.0496,-1.85952 40.727506,40.727506 0 0 1 -1.88072,-2.38613 47.284727,47.284727 0 0 1 -3.43497,-5.45539 24.871375,24.871375 0 0 0 -0.29476,-0.53183 0.2892099,0.2892099 0 0 1 0.10896,-0.39663 1.8007995,1.8007995 0 0 0 0.83223,-1.02814 3.6424688,3.6424688 0 0 0 -0.41016,-3.05989 10.804192,10.804192 0 0 1 -1.30432,-2.89392 204.12014,204.12014 0 0 1 -0.77236,-2.80312 3.4371748,3.4371748 0 0 1 -0.10344,-1.19567 0.86097555,0.86097555 0 0 0 -0.19958,-0.63202 5.5292824,5.5292824 0 0 1 -0.95096,-1.6231 1.1585933,1.1585933 0 0 1 0,-0.86896 0.90923547,0.90923547 0 0 1 0.2683,-0.36533 6.8008196,6.8008196 0 0 0 2.41966,-4.20754 6.8888949,6.8888949 0 0 0 0.0836,-1.2082 1.15804,1.15804 0 0 0 -0.94901,-1.11686 2.7503829,2.7503829 0 0 0 -0.99184,0 2.2413286,2.2413286 0 0 1 -0.80826,0 110.98887,110.98887 0 0 0 -1.22601,-0.2192 13.823436,13.823436 0 0 1 -3.58206,-1.13356 3.1412064,3.1412064 0 0 0 -1.0004,-0.28183 5.056573,5.056573 0 0 1 -2.16689,-0.7645798 2.2023585,2.2023585 0 0 0 -1.2056,-0.34445 2.4233876,2.4233876 0 0 1 -1.247175,-0.33401 3.3266682,3.3266682 0 0 0 -1.38574,-0.44362 5.9062025,5.9062025 0 0 1 -2.07861,-0.58191 8.7863969,8.7863969 0 0 1 -1.36797,0.002 8.1834011,8.1834011 0 0 1 1.34035,-3.38294 0.71201013,0.71201013 0 0 1 0.30003,-0.50625 13.131743,13.131743 0 0 1 2.37309,-1.316741 28.253166,28.253166 0 0 1 11.396355,-2.26087005 12.648377,12.648377 0 0 1 8.80582,0.71866005 11.031546,11.031546 0 0 1 3.77616,0.67533 7.9198163,7.9198163 0 0 0 2.73684,0.48537 3.3630444,3.3630444 0 0 1 2.21717,0.831381 5.4208945,5.4208945 0 0 0 2.25183,1.17793 1.6281086,1.6281086 0 0 1 1.17788,1.16018 5.4050602,5.4050602 0 0 1 0.17944,1.55264 7.4548675,7.4548675 0 0 1 -0.54848,2.59123 2.0698746,2.0698746 0 0 0 0,1.5630798 4.8409559,4.8409559 0 0 1 0.35329,1.60641 8.7099704,8.7099704 0 0 0 1.17559,3.9873 8.3994567,8.3994567 0 0 1 0.9733,5.90684 0.24328809,0.24328809 0 0 0 0.20434,0.29227 2.099889,2.099889 0 0 0 0.84908,-0.0522 6.6415468,6.6415468 0 0 1 -0.6319,0.94202 0.55796664,0.55796664 0 0 0 0,0.69882 9.1280528,9.1280528 0 0 1 0.51897,0.71501 13.486509,13.486509 0 0 0 1.8521,2.25406 35.287598,35.287598 0 0 1 1.82316,1.92373 1.6250659,1.6250659 0 0 1 0.31872,1.59335 1.6495325,1.6495325 0 0 1 -0.69286,0.87313 10.054213,10.054213 0 0 1 -1.87251,0.90863 0.71054881,0.71054881 0 0 0 -0.46827,0.66647 7.0584235,7.0584235 0 0 1 -0.0809,1.05579 2.0433308,2.0433308 0 0 0 0.26606,1.35642 18.016434,18.016434 0 0 0 0.65101,1.01091 0.6512142,0.6512142 0 0 1 -0.1206,0.87262 4.546527,4.546527 0 0 0 -0.58158,0.57617 0.27492034,0.27492034 0 0 0 0,0.35489 4.8565919,4.8565919 0 0 0 0.39316,0.4123 1.038254,1.038254 0 0 1 0.0433,1.47177 6.2855756,6.2855756 0 0 0 -0.8358,0.94462 3.0964275,3.0964275 0 0 0 -0.49532,2.54008 3.911455,3.911455 0 0 1 -0.17345,2.38769 3.2636907,3.2636907 0 0 1 -1.63185,1.72957 6.7946455,6.7946455 0 0 1 -2.16775,0.61167 38.01723,38.01723 0 0 1 -6.44369,0.15134 1.8750917,1.8750917 0 0 0 -1.77376,0.99788 43.852658,43.852658 0 0 1 -2.40615,4.02904 8.3581222,8.3581222 0 0 0 -0.97555,1.9686 11.063257,11.063257 0 0 1 -1.04214,2.21859 4.3281545,4.3281545 0 0 0 -0.62337,2.62725 1.8034508,1.8034508 0 0 1 -0.10234,0.76876 2.9627068,2.9627068 0 0 0 -0.16565,1.29064 2.7083388,2.7083388 0 0 0 0.47278,1.29274 27.312099,27.312099 0 0 1 1.80948,2.99519 4.3697549,4.3697549 0 0 0 1.95417,1.90805 4.3887364,4.3887364 0 0 1 1.98136,1.95347 95.452843,95.452843 0 0 0 8.07289,13.13982 23.243292,23.243292 0 0 1 4.42429,12.02611 z"
     inkscape:export-xdpi="299.98184"
     inkscape:export-ydpi="299.98184" />
  <path
     inkscape:connector-curvature="0"
     id="path6045-1-8"
     style="fill:#7ec142;fill-opacity:1;stroke:#1a1a1a;stroke-width:0.52916664;stroke-miterlimit:4;stroke-dasharray:none"
     d="m 60.732695,156.13111 a 27.084875,27.084875 0 1 1 -0.0928,-29.11461 0.81562782,0.81562782 0 0 0 1.10671,0.26094 l 7.60492,-4.57287 a 0.81562782,0.81562782 0 0 0 0.2692,-1.1346 37.587227,37.587227 0 1 0 0.12739,39.956 0.81562782,0.81562782 0 0 0 -0.27639,-1.13304 l -7.63393,-4.52433 a 0.81562782,0.81562782 0 0 0 -1.10504,0.26617 z"
     inkscape:export-xdpi="299.98184"
     inkscape:export-ydpi="299.98184" />
  <path
     inkscape:connector-curvature="0"
     id="path6047-1-2"
     style="fill:#7ec142;fill-opacity:1;stroke:#1a1a1a;stroke-width:0.52916664;stroke-miterlimit:4;stroke-dasharray:none"
     d="m 40.836005,135.98949 h 39.31085 v 10.50216 h -39.31085 a 0.81562782,0.81562782 0 0 1 -0.81562,-0.81573 v -8.8707 a 0.81562782,0.81562782 0 0 1 0.81562,-0.81573 z"
     inkscape:export-xdpi="299.98184"
     inkscape:export-ydpi="299.98184" />
  <path
     inkscape:connector-curvature="0"
     id="path6051-0-5"
     style="fill:#767474;fill-opacity:1;stroke:#1a1a1a;stroke-width:0.52916664;stroke-miterlimit:4;stroke-dasharray:none"
     d="m 111.00188,96.489624 a 27.214859,27.214859 0 0 1 -3.47043,-6.95273 47.819366,47.819366 0 0 0 -5.34984,-11.10443 10.019424,10.019424 0 0 0 0.002,-3.96538 2.5606729,2.5606729 0 0 0 -0.61913,-1.14556 27.119927,27.119927 0 0 0 -3.879975,-3.42105 39.095857,39.095857 0 0 0 -2.19491,-1.4801 0.4745673,0.4745673 0 0 1 -0.12416,-0.69152 1.8586258,1.8586258 0 0 0 0.3323,-0.69047 18.082767,18.082767 0 0 1 0.74847,-2.34332 27.892357,27.892357 0 0 0 1.14488,-3.57605 3.2109738,3.2109738 0 0 1 0.3932,-0.9295 0.30469986,0.30469986 0 0 1 0.40076,-0.1096 6.4935468,6.4935468 0 0 0 1.924515,0.65604 100.87424,100.87424 0 0 1 2.94333,0.55477 14.389586,14.389586 0 0 0 3.29916,0.28182 195.97992,195.97992 0 0 0 2.26154,-0.0783 1.1130681,1.1130681 0 0 0 0.65628,-0.25051 6.7666719,6.7666719 0 0 0 1.62197,-1.91902 1.489602,1.489602 0 0 0 0.17029,-0.99318 6.2277961,6.2277961 0 0 1 -0.0954,-1.12051 212.26829,212.26829 0 0 0 0,-2.32141 2.029678,2.029678 0 0 1 0.35161,-1.15286 5.0105469,5.0105469 0 0 1 0.90904,-1.00883 0.77437697,0.77437697 0 0 0 0.26587,-0.7077 2.0927337,2.0927337 0 0 1 -0.0344,-0.64767 1.3935884,1.3935884 0 0 0 -0.19445,-0.75415 1.1720113,1.1720113 0 0 0 -0.52787,-0.46971 0.10577312,0.10577312 0 0 1 0,-0.19309 17.728232,17.728232 0 0 1 0.74976,-0.31836 1.6837169,1.6837169 0 0 0 0.84501,-0.73328 0.76206017,0.76206017 0 0 0 0.0851,-0.52502 3.7698746,3.7698746 0 0 1 -0.0529,-1.11165 8.6082262,8.6082262 0 0 0 0,-1.72748 0.22305932,0.22305932 0 0 1 0.1706,-0.24007 1.1598145,1.1598145 0 0 1 0.32911,0 5.1426237,5.1426237 0 0 0 2.29266,-0.31836 4.8584866,4.8584866 0 0 0 1.63456,-1.04014 1.392482,1.392482 0 0 0 0.0496,-1.85952 40.727506,40.727506 0 0 1 -1.88072,-2.38613 47.284727,47.284727 0 0 1 -3.43497,-5.45539 24.871375,24.871375 0 0 0 -0.29476,-0.53183 0.2892099,0.2892099 0 0 1 0.10896,-0.39663 1.8007995,1.8007995 0 0 0 0.83223,-1.02814 3.6424688,3.6424688 0 0 0 -0.41016,-3.05989 10.804192,10.804192 0 0 1 -1.30432,-2.89392 204.12014,204.12014 0 0 1 -0.77236,-2.80312 3.4371748,3.4371748 0 0 1 -0.10344,-1.19567 0.86097555,0.86097555 0 0 0 -0.19958,-0.63202 5.5292824,5.5292824 0 0 1 -0.95096,-1.6231 1.1585933,1.1585933 0 0 1 0,-0.86896 0.90923547,0.90923547 0 0 1 0.2683,-0.36533 6.8008196,6.8008196 0 0 0 2.41966,-4.20754 6.8888949,6.8888949 0 0 0 0.0836,-1.2082 1.15804,1.15804 0 0 0 -0.94901,-1.11686 2.7503829,2.7503829 0 0 0 -0.99184,0 2.2413286,2.2413286 0 0 1 -0.80826,0 110.98887,110.98887 0 0 0 -1.22601,-0.2192 13.823436,13.823436 0 0 1 -3.58206,-1.13356 3.1412064,3.1412064 0 0 0 -1.0004,-0.28183 5.056573,5.056573 0 0 1 -2.16689,-0.7645798 2.2023585,2.2023585 0 0 0 -1.2056,-0.34445 2.4233876,2.4233876 0 0 1 -1.247175,-0.33401 3.3266682,3.3266682 0 0 0 -1.38574,-0.44362 5.9062025,5.9062025 0 0 1 -2.07861,-0.58191 8.7863969,8.7863969 0 0 1 -2.77429,-0.22442 15.691377,15.691377 0 0 0 -4.15058,-0.4384 30.007531,30.007531 0 0 1 -1.66842,0 10.271709,10.271709 0 0 0 -3.30965,0.44884 20.044369,20.044369 0 0 1 -1.63961,0.42795 19.49565,19.49565 0 0 1 -2.43359,1.17793 13.918338,13.918338 0 0 0 -1.25445,1.1653998 42.523611,42.523611 0 0 0 -0.76431,0.82512 1.7016493,1.7016493 0 0 1 -0.96719,0.53599 4.0752112,4.0752112 0 0 0 -1.53024,0.60853 35.319674,35.319674 0 0 1 -2.20636,1.33867 9.9207691,9.9207691 0 0 0 -3.53364,3.33232 116.90232,116.90232 0 0 0 -1.10816,1.77393 14.180038,14.180038 0 0 0 -1.73951,4.28479 26.900936,26.900936 0 0 1 1.85614,0 4.8978376,4.8978376 0 0 1 1.19455,0.1931 16.930468,16.930468 0 0 0 3.79312,0.65916 3.7291978,3.7291978 0 0 1 2.51651,1.18627 3.4891194,3.4891194 0 0 0 2.1158,1.08764 5.5958558,5.5958558 0 0 0 1.85135,0.99786 2.2312716,2.2312716 0 0 0 1.89569,1.11948 5.9987977,5.9987977 0 0 0 2.07813,1.77131 0.86883013,0.86883013 0 0 1 0.46825,0.70979 0.77150651,0.77150651 0 0 0 0.41861,0.6315 7.5685425,7.5685425 0 0 1 1.3165,0.85486 3.3514271,3.3514271 0 0 0 2.01019,0.74424 0.71578867,0.71578867 0 0 1 0.68904,0.80788 0.86432089,0.86432089 0 0 0 -0.49664,0.2714 3.1327307,3.1327307 0 0 1 -0.41418,0.37576 0.76714869,0.76714869 0 0 1 -0.5747,0.15135 0.44422936,0.44422936 0 0 0 -0.43996,0.67535 2.2884665,2.2884665 0 0 1 0.14337,2.16535 1.7762024,1.7762024 0 0 0 -0.78045,-0.37055 0.17484636,0.17484636 0 0 0 -0.16075,0.29227 3.1801348,3.1801348 0 0 1 0.87304,2.04948 52.39189,52.39189 0 0 1 0,4.70284 1.5939608,1.5939608 0 0 1 -0.46694,1.05736 0.96218725,0.96218725 0 0 0 -0.27713,0.57669 10.188503,10.188503 0 0 0 0,2.2118 2.0678183,2.0678183 0 0 0 0.79652,1.4154 1.5017257,1.5017257 0 0 1 0.5829,1.30683 4.769983,4.769983 0 0 1 -0.38329,1.5396 1.0168718,1.0168718 0 0 1 -0.96314,0.6101 0.45278847,0.45278847 0 0 0 -0.46475,0.4123 2.2247844,2.2247844 0 0 0 0.13303,0.98429 0.74806286,0.74806286 0 0 1 -0.16852,0.78912 1.2994432,1.2994432 0 0 0 -0.36507,0.74787 1.5664463,1.5664463 0 0 1 -0.0926,0.97335 2.2607589,2.2607589 0 0 1 -0.78119,0.9509 0.52460689,0.52460689 0 0 0 -0.21889,0.34967 4.651888,4.651888 0 0 0 0,1.44096 1.9412684,1.9412684 0 0 1 -1.81809,2.23895 51.691286,51.691286 0 0 1 -6.2303,-0.0574 2.6591657,2.6591657 0 0 1 -0.57937,1.32093 0.70925452,0.70925452 0 0 0 0,0.90078 178.4971,178.4971 0 0 0 1.82918,2.18938 4.7394313,4.7394313 0 0 1 1.05847,2.26659 0.56862903,0.56862903 0 0 0 0.26878,0.39143 3.1199183,3.1199183 0 0 1 0.97215,0.98796 2.8534109,2.8534109 0 0 0 0.89796,0.90914 3.3013248,3.3013248 0 0 1 1.48343,2.22433 13.403814,13.403814 0 0 1 0.19614,2.29583 4.8578447,4.8578447 0 0 0 0.47226,2.09333 17.12392,17.12392 0 0 1 1.62764,6.2372 121.49429,121.49429 0 0 1 0.1776,12.58037 z"
     inkscape:export-xdpi="299.98184"
     inkscape:export-ydpi="299.98184" />
  <path
     inkscape:connector-curvature="0"
     id="path6053-8-1"
     style="fill:#767474;fill-opacity:1;stroke:#1a1a1a;stroke-width:0.52916664;stroke-miterlimit:4;stroke-dasharray:none"
     d="M 165.04884,174.41477 H 84.826395 v -10.55852 h 81.198135 a 6.3066184,6.3066184 0 0 0 3.75911,-3.32658 12.034812,12.034812 0 0 0 -0.79276,-11.62215 4.9276955,4.9276955 0 0 0 -4.13987,-2.2546 h -23.19364 a 15.911044,15.911044 0 0 1 -15.58078,-12.68631 31.882226,31.882226 0 0 1 0,-12.92428 15.911044,15.911044 0 0 1 15.58078,-12.68578 h 35.74795 l -11.47096,10.46667 h -24.27699 a 5.4440982,5.4440982 0 0 0 -5.3311,4.34062 21.415281,21.415281 0 0 0 0,8.68126 5.4440982,5.4440982 0 0 0 5.3311,4.34063 h 23.18641 a 16.784457,16.784457 0 0 1 15.14912,9.55804 22.469134,22.469134 0 0 1 0,19.34781 16.493827,16.493827 0 0 1 -14.88681,9.39261"
     inkscape:export-xdpi="299.98184"
     inkscape:export-ydpi="299.98184" />
  <path
     inkscape:connector-curvature="0"
     id="path6055-0-6"
     style="fill:#767474;fill-opacity:1;stroke:#1a1a1a;stroke-width:0.52916664;stroke-linecap:round;stroke-miterlimit:4;stroke-dasharray:none"
     d="m 125.16084,146.65292 a 22.91935,22.91935 0 0 1 -5.76686,-10.46719 H 84.819735 v 10.46719 z"
     inkscape:export-xdpi="299.98184"
     inkscape:export-ydpi="299.98184" />
  <path
     inkscape:connector-curvature="0"
     id="path6057-1-3"
     style="fill:#767474;fill-opacity:1;stroke:#1a1a1a;stroke-width:0.52916664;stroke-linecap:round;stroke-miterlimit:4;stroke-dasharray:none"
     d="m 84.819735,118.82322 v -10.46667 h 40.341105 a 22.91935,22.91935 0 0 0 -5.76686,10.46667 z"
     inkscape:export-xdpi="299.98184"
     inkscape:export-ydpi="299.98184" />
  <g
     transform="matrix(-0.99999999,0,0,0.99999999,195.88098,-102.248)"
     id="layer7-6-7"
     inkscape:export-xdpi="299.98184"
     inkscape:export-ydpi="299.98184"
     style="stroke:#1a1a1a;stroke-width:0.5291667;stroke-miterlimit:4;stroke-dasharray:none">
    <g
       style="fill:none;stroke:#1a1a1a;stroke-width:0.10139268;stroke-miterlimit:4;stroke-dasharray:none"
       transform="matrix(5.2189827,0,0,5.2189827,16.097833,-5576.9288)"
       id="g6063-2-7">
      <path
         inkscape:connector-curvature="0"
         id="path6061-2-6"
         style="fill:#ffffff;stroke:#1a1a1a;stroke-width:0.10139268;stroke-miterlimit:4;stroke-dasharray:none"
         d="m 25.464559,1106.4944 a 0.085658,0.085658 0 0 1 -0.03067,-0.066 0.120342,0.120342 0 0 0 -0.02936,-0.079 0.06978,0.06978 0 0 1 0,-0.091 0.119946,0.119946 0 0 0 0.02877,-0.089 2.054412,2.054412 0 0 1 0,-0.3747 0.412247,0.412247 0 0 0 -0.01902,-0.1666 0.899522,0.899522 0 0 1 -0.04486,-0.2556 13.823404,13.823404 0 0 1 0.01579,-1.1738 1.486712,1.486712 0 0 0 -0.204844,-0.8401 4.422374,4.422374 0 0 1 -0.373868,-0.8079 0.652709,0.652709 0 0 0 -0.278795,-0.3452 0.787613,0.787613 0 0 1 -0.378238,-0.7197 1.142892,1.142892 0 0 1 -0.136902,-0.3709 0.694016,0.694016 0 0 1 -0.22351,-0.2242 0.87258,0.87258 0 0 1 -0.130105,-0.4351 0.306953,0.306953 0 0 1 0.126616,-0.2569 0.134691,0.134691 0 0 0 0.0556,-0.1104 25.140282,25.140282 0 0 1 0,-0.532 0.150439,0.150439 0 0 0 -0.162859,-0.1515 1.563214,1.563214 0 0 1 -0.258298,0 0.316962,0.316962 0 0 0 -0.137305,0.019 0.943345,0.943345 0 0 0 -0.154978,0.075 0.110472,0.110472 0 0 1 -0.166619,-0.1074 1.09157,1.09157 0 0 0 0,-0.2508 0.064356,0.064356 0 0 1 0.04707,-0.07 0.564344,0.564344 0 0 0 0.191174,-0.093 0.467741,0.467741 0 0 1 0.236246,-0.092 0.579141,0.579141 0 0 0 0.02761,-0.2995 1.004724,1.004724 0 0 0 0.188652,-0.2843 3.535073,3.535073 0 0 1 0.391096,-0.6744 2.066605,2.066605 0 0 0 0.403945,-1.2002 53.83343,53.83343 0 0 1 0.02365,-1.0348 1.566902,1.566902 0 0 0 -0.110833,-0.6318 4.853697,4.853697 0 0 1 -0.214135,-0.6762 0.410244,0.410244 0 0 0 -0.125047,-0.2104 6.055947,6.055947 0 0 0 -0.220381,-0.1885 1.10048,1.10048 0 0 1 -0.207105,-0.223 0.988296,0.988296 0 0 0 -0.517778,-0.3782 0.290855,0.290855 0 0 1 -0.195403,-0.024 0.54577,0.54577 0 0 0 -0.299081,-0.2566 1.27052,1.27052 0 0 1 -0.370453,-0.01 0.192473,0.192473 0 0 0 -0.146142,-0.095 5.154441,5.154441 0 0 0 -0.748234,-0.026 0.938466,0.938466 0 0 0 -0.228886,0.037 3.244017,3.244017 0 0 1 -0.726793,0.1263 0.714545,0.714545 0 0 0 -0.482183,0.2273 0.668544,0.668544 0 0 1 -0.405405,0.2084 1.072212,1.072212 0 0 1 -0.354734,0.1912 0.42753,0.42753 0 0 1 -0.36323,0.2145 1.149419,1.149419 0 0 1 -0.398187,0.3394 0.166475,0.166475 0 0 0 -0.08972,0.136 0.147827,0.147827 0 0 1 -0.08021,0.121 1.450195,1.450195 0 0 0 -0.252251,0.1638 0.642161,0.642161 0 0 1 -0.385168,0.1426 0.137151,0.137151 0 0 0 -0.132025,0.1548 0.165611,0.165611 0 0 1 0.09516,0.052 0.600257,0.600257 0 0 0 0.07936,0.072 0.146992,0.146992 0 0 0 0.110117,0.029 0.085118,0.085118 0 0 1 0.0843,0.1294 0.438489,0.438489 0 0 0 -0.02747,0.4149 0.340335,0.340335 0 0 1 0.149541,-0.071 0.033502,0.033502 0 0 1 0.0308,0.056 0.60934,0.60934 0 0 0 -0.167281,0.3927 10.038717,10.038717 0 0 0 0,0.9011 0.305416,0.305416 0 0 0 0.08947,0.2026 0.184363,0.184363 0 0 1 0.0531,0.1105 1.952201,1.952201 0 0 1 0,0.4238 0.396211,0.396211 0 0 1 -0.15262,0.2712 0.287743,0.287743 0 0 0 -0.111688,0.2504 0.913968,0.913968 0 0 0 0.07344,0.295 0.194841,0.194841 0 0 0 0.184547,0.1169 0.086758,0.086758 0 0 1 0.08905,0.079 0.426287,0.426287 0 0 1 -0.02549,0.1886 0.143335,0.143335 0 0 0 0.03229,0.1512 0.248984,0.248984 0 0 1 0.06995,0.1433 0.300144,0.300144 0 0 0 0.01774,0.1865 0.43318,0.43318 0 0 0 0.149685,0.1822 0.100519,0.100519 0 0 1 0.04194,0.067 0.89134,0.89134 0 0 1 0,0.2761 0.371963,0.371963 0 0 0 0.348361,0.429 9.904476,9.904476 0 0 0 1.193776,-0.011 0.509518,0.509518 0 0 0 0.111012,0.2531 0.135899,0.135899 0 0 1 0,0.1726 34.201512,34.201512 0 0 1 -0.350486,0.4195 0.908114,0.908114 0 0 0 -0.202812,0.4343 0.108954,0.108954 0 0 1 -0.0515,0.075 0.597802,0.597802 0 0 0 -0.186271,0.1893 0.546737,0.546737 0 0 1 -0.172056,0.1742 0.632561,0.632561 0 0 0 -0.284239,0.4262 2.568281,2.568281 0 0 0 -0.03758,0.4399 0.930803,0.930803 0 0 1 -0.09049,0.4011 3.281084,3.281084 0 0 0 -0.311869,1.1951 23.279306,23.279306 0 0 0 -0.03403,2.4105 h 7.249644 z" />
    </g>
  </g>
  <g
     aria-label="Generation Electrical Supply &amp; Lighting"
     style="font-style:normal;font-variant:normal;font-weight:normal;font-stretch:normal;font-size:72.46376038px;line-height:1.25;font-family:Tahoma;-inkscape-font-specification:Tahoma;letter-spacing:0px;word-spacing:0px;fill:#767474;fill-opacity:1;stroke:#000000;stroke-width:1.28309155;stroke-miterlimit:4;stroke-dasharray:none"
     id="text869-2">
    <path
       d="m 203.92754,318.29391 q -5.59046,0 -10.2256,-1.69837 -4.63513,-1.69836 -7.9611,-5.16587 -3.32598,-3.50289 -5.09511,-8.66876 -1.76913,-5.16587 -1.76913,-11.88859 0,-6.36888 1.76913,-11.39322 1.80452,-5.05973 5.13049,-8.63338 3.21983,-3.46751 7.92572,-5.34279 4.7059,-1.87528 10.29637,-1.87528 2.6537,0 5.09511,0.38921 2.4414,0.38921 4.67051,1.06148 1.76914,0.53074 3.92748,1.48607 2.19373,0.91995 3.53827,1.59222 v 8.45647 h -0.6015 q -1.30916,-1.16763 -2.72447,-2.19373 -1.37993,-1.06148 -3.92748,-2.26449 -2.12296,-1.06148 -4.88281,-1.76914 -2.75985,-0.70765 -5.9443,-0.70765 -7.60728,0 -12.31317,5.732 -4.67052,5.73199 -4.67052,15.24994 0,5.3074 1.23839,9.27026 1.2384,3.96287 3.57366,6.72272 2.26449,2.72446 5.44893,4.17516 3.21983,1.4153 7.21807,1.4153 2.97215,0 5.90891,-0.42459 2.93677,-0.42459 4.95358,-1.27378 v -13.62233 h -12.17165 v -6.15659 h 19.10666 v 22.99875 q -1.34454,0.6015 -3.60904,1.52145 -2.22911,0.91995 -4.17516,1.4507 -2.58293,0.77841 -4.67051,1.16762 -2.08758,0.38921 -5.05973,0.38921 z"
       style="font-size:72.46376038px;line-height:1.25;text-align:center;text-anchor:middle;fill:#767474;fill-opacity:1;stroke:#000000;stroke-width:1.28296459;stroke-miterlimit:4;stroke-dasharray:none"
       id="path1665"
       inkscape:connector-curvature="0" />
    <path
       d="m 246.91752,318.18777 q -9.44718,0 -14.68382,-5.30741 -5.20126,-5.34279 -5.20126,-15.14379 0,-9.65948 5.05973,-15.35609 5.05972,-5.732 13.23313,-5.732 3.6798,0 6.51041,1.06148 2.83062,1.06148 4.95358,3.32598 2.12296,2.26449 3.25521,5.55508 1.13224,3.25521 1.13224,7.99649 v 3.60903 h -27.3862 q 0,6.89963 3.4675,10.54405 3.46751,3.64441 9.58871,3.64441 2.19373,0 4.28131,-0.49535 2.12296,-0.49536 3.82133,-1.27378 1.80452,-0.8138 3.04291,-1.55684 1.2384,-0.77842 2.0522,-1.45069 h 0.38921 v 7.25345 q -1.16763,0.45998 -2.90138,1.16763 -1.73376,0.67227 -3.11368,1.06148 -1.94605,0.53074 -3.53827,0.8138 -1.55684,0.28307 -3.96286,0.28307 z m 7.78419,-25.08634 q -0.0708,-2.68908 -0.63689,-4.63513 -0.56612,-1.94605 -1.6276,-3.29059 -1.16763,-1.48607 -3.00753,-2.26449 -1.80452,-0.77842 -4.4936,-0.77842 -2.65371,0 -4.52899,0.8138 -1.8399,0.77842 -3.36135,2.29988 -1.48608,1.55683 -2.2645,3.4675 -0.77842,1.87528 -0.99071,4.38745 z"
       style="font-size:72.46376038px;line-height:1.25;text-align:center;text-anchor:middle;fill:#767474;fill-opacity:1;stroke:#000000;stroke-width:1.28309155;stroke-miterlimit:4;stroke-dasharray:none"
       id="path1667"
       inkscape:connector-curvature="0" />
    <path
       d="m 299.03623,317.26782 h -6.65195 v -22.5034 q 0,-2.72447 -0.28306,-5.05972 -0.24768,-2.37064 -0.99072,-3.78595 -0.8138,-1.48608 -2.26449,-2.19373 -1.45069,-0.74304 -3.96286,-0.74304 -2.47679,0 -5.13049,1.34455 -2.61832,1.30916 -5.13049,3.43212 v 29.50917 h -6.65195 v -39.52248 h 6.65195 v 4.38746 q 2.97214,-2.6537 5.87352,-4.06901 2.90139,-1.41531 6.12121,-1.41531 5.83815,0 9.12874,3.85671 3.29059,3.82134 3.29059,11.11017 z"
       style="font-size:72.46376038px;line-height:1.25;text-align:center;text-anchor:middle;fill:#767474;fill-opacity:1;stroke:#000000;stroke-width:1.28309155;stroke-miterlimit:4;stroke-dasharray:none"
       id="path1669"
       inkscape:connector-curvature="0" />
    <path
       d="m 325.60863,318.18777 q -9.44718,0 -14.68382,-5.30741 -5.20126,-5.34279 -5.20126,-15.14379 0,-9.65948 5.05973,-15.35609 5.05972,-5.732 13.23312,-5.732 3.67981,0 6.51042,1.06148 2.83062,1.06148 4.95358,3.32598 2.12296,2.26449 3.25521,5.55508 1.13224,3.25521 1.13224,7.99649 v 3.60903 h -27.3862 q 0,6.89963 3.4675,10.54405 3.4675,3.64441 9.58871,3.64441 2.19373,0 4.28131,-0.49535 2.12296,-0.49536 3.82133,-1.27378 1.80452,-0.8138 3.04291,-1.55684 1.23839,-0.77842 2.0522,-1.45069 h 0.38921 v 7.25345 q -1.16763,0.45998 -2.90139,1.16763 -1.73375,0.67227 -3.11367,1.06148 -1.94605,0.53074 -3.53827,0.8138 -1.55684,0.28307 -3.96286,0.28307 z m 7.78419,-25.08634 q -0.0708,-2.68908 -0.63689,-4.63513 -0.56612,-1.94605 -1.6276,-3.29059 -1.16763,-1.48607 -3.00753,-2.26449 -1.80452,-0.77842 -4.4936,-0.77842 -2.65371,0 -4.52899,0.8138 -1.8399,0.77842 -3.36136,2.29988 -1.48607,1.55683 -2.26449,3.4675 -0.77842,1.87528 -0.99071,4.38745 z"
       style="font-size:72.46376038px;line-height:1.25;text-align:center;text-anchor:middle;fill:#767474;fill-opacity:1;stroke:#000000;stroke-width:1.28309155;stroke-miterlimit:4;stroke-dasharray:none"
       id="path1671"
       inkscape:connector-curvature="0" />
    <path
       d="m 367.60789,284.89265 h -0.35382 q -0.74304,-0.2123 -1.59223,-0.24768 -0.8138,-0.0708 -1.98143,-0.0708 -2.68908,0 -5.34278,1.16763 -2.65371,1.16763 -5.02435,3.4675 v 28.05848 h -6.65194 v -39.52244 h 6.65194 v 5.87353 q 3.64442,-3.21982 6.33351,-4.52898 2.72446,-1.34455 5.27202,-1.34455 1.0261,0 1.52145,0.0708 0.53074,0.0354 1.16763,0.14153 z"
       style="font-size:72.46376038px;line-height:1.25;text-align:center;text-anchor:middle;fill:#767474;fill-opacity:1;stroke:#000000;stroke-width:1.28309155;stroke-miterlimit:4;stroke-dasharray:none"
       id="path1673"
       inkscape:connector-curvature="0" />
    <path
       d="m 394.92334,307.53757 v -10.96863 q -2.37064,0.21229 -6.01506,0.6015 -3.60904,0.35383 -5.83815,1.0261 -2.6537,0.8138 -4.38745,2.51217 -1.73375,1.66299 -1.73375,4.67052 0,3.39674 1.91066,5.13049 1.91067,1.73375 5.59047,1.73375 3.14906,0 5.69661,-1.34454 2.54756,-1.37992 4.77667,-3.36136 z m 0,5.5197 q -0.81381,0.60151 -2.19373,1.69837 -1.34454,1.06149 -2.61832,1.69837 -1.76914,0.91995 -3.43212,1.41531 -1.62761,0.49536 -4.59975,0.49536 -2.44141,0 -4.63514,-0.91995 -2.19372,-0.91995 -3.85671,-2.58294 -1.59222,-1.6276 -2.54755,-3.99824 -0.95534,-2.40603 -0.95534,-5.05973 0,-4.10439 1.73376,-6.97039 1.73375,-2.90138 5.48431,-4.59975 3.32598,-1.52146 7.85496,-2.08758 4.52899,-0.6015 9.76563,-0.88457 v -1.27377 q 0,-2.33526 -0.70766,-3.75057 -0.70765,-1.45069 -1.98143,-2.22911 -1.27378,-0.8138 -3.11368,-1.06148 -1.8399,-0.28306 -3.78594,-0.28306 -2.29988,0 -5.41356,0.70765 -3.11367,0.67227 -6.22735,1.98143 h -0.38921 v -6.75809 q 1.8399,-0.53074 5.27202,-1.16763 3.43212,-0.63689 6.79348,-0.63689 4.06901,0 6.86424,0.63689 2.79523,0.63689 5.02434,2.29988 2.15835,1.6276 3.21983,4.21054 1.06148,2.58293 1.06148,6.29812 v 27.03238 h -6.61656 z"
       style="font-size:72.46376038px;line-height:1.25;text-align:center;text-anchor:middle;fill:#767474;fill-opacity:1;stroke:#000000;stroke-width:1.28309155;stroke-miterlimit:4;stroke-dasharray:none"
       id="path1675"
       inkscape:connector-curvature="0" />
    <path
       d="m 422.87566,318.04623 q -5.44893,0 -8.49184,-3.07829 -3.04292,-3.11368 -3.04292,-9.80101 v -21.90188 h -4.4936 v -5.51971 h 4.4936 V 266.3875 h 6.65195 v 11.35784 h 12.24241 v 5.51971 h -12.24241 v 18.78821 q 0,3.00753 0.10615,4.63513 0.10615,1.6276 0.8138,3.04291 0.60151,1.2384 1.94605,1.87528 1.34454,0.60151 3.64442,0.60151 1.6276,0 3.14906,-0.45997 1.52145,-0.49536 2.19372,-0.81381 h 0.38921 v 5.97968 q -1.87528,0.53074 -3.82133,0.8138 -1.91066,0.31844 -3.53827,0.31844 z"
       style="font-size:72.46376038px;line-height:1.25;text-align:center;text-anchor:middle;fill:#767474;fill-opacity:1;stroke:#000000;stroke-width:1.28309155;stroke-miterlimit:4;stroke-dasharray:none"
       id="path1677"
       inkscape:connector-curvature="0" />
    <path
       d="m 441.91156,317.26782 h -6.65195 v -39.52248 h 6.65195 z m 0.45997,-46.13904 h -7.5719 v -6.89962 h 7.5719 z"
       style="font-size:72.46376038px;line-height:1.25;text-align:center;text-anchor:middle;fill:#767474;fill-opacity:1;stroke:#000000;stroke-width:1.28309155;stroke-miterlimit:4;stroke-dasharray:none"
       id="path1679"
       inkscape:connector-curvature="0" />
    <path
       d="m 484.19387,297.52427 q 0,9.97792 -4.81204,15.42686 -4.81205,5.41355 -12.80854,5.41355 -8.24417,0 -12.98545,-5.59047 -4.7059,-5.62585 -4.7059,-15.24994 0,-9.90715 4.84743,-15.39147 4.88281,-5.48432 12.84392,-5.48432 7.99649,0 12.80854,5.48432 4.81204,5.44893 4.81204,15.39147 z m -6.86424,0 q 0,-7.67804 -2.79523,-11.39323 -2.79524,-3.75056 -7.96111,-3.75056 -5.20126,0 -8.03187,3.75056 -2.79523,3.71519 -2.79523,11.39323 0,7.43037 2.79523,11.28708 2.83061,3.82133 8.03187,3.82133 5.13049,0 7.92572,-3.75056 2.83062,-3.78595 2.83062,-11.35785 z"
       style="font-size:72.46376038px;line-height:1.25;text-align:center;text-anchor:middle;fill:#767474;fill-opacity:1;stroke:#000000;stroke-width:1.28309155;stroke-miterlimit:4;stroke-dasharray:none"
       id="path1681"
       inkscape:connector-curvature="0" />
    <path
       d="m 522.08873,317.26782 h -6.65194 v -22.5034 q 0,-2.72447 -0.28307,-5.05972 -0.24767,-2.37064 -0.99071,-3.78595 -0.8138,-1.48608 -2.26449,-2.19373 -1.45069,-0.74304 -3.96287,-0.74304 -2.47678,0 -5.13049,1.34455 -2.61832,1.30916 -5.13049,3.43212 v 29.50917 h -6.65194 v -39.52248 h 6.65194 v 4.38746 q 2.97215,-2.6537 5.87353,-4.06901 2.90138,-1.41531 6.12121,-1.41531 5.83814,0 9.12873,3.85671 3.29059,3.82134 3.29059,11.11017 z"
       style="font-size:72.46376038px;line-height:1.25;text-align:center;text-anchor:middle;fill:#767474;fill-opacity:1;stroke:#000000;stroke-width:1.28309155;stroke-miterlimit:4;stroke-dasharray:none"
       id="path1683"
       inkscape:connector-curvature="0" />
    <path
       d="m 554.67621,317.26782 v -52.68484 h 32.94129 v 6.22736 h -25.93552 v 14.43614 h 24.16638 v 6.22735 h -24.16638 v 19.56663 h 25.93552 v 6.22736 z"
       style="font-size:72.46376038px;line-height:1.25;text-align:center;text-anchor:middle;fill:#767474;fill-opacity:1;stroke:#000000;stroke-width:1.28309155;stroke-miterlimit:4;stroke-dasharray:none"
       id="path1685"
       inkscape:connector-curvature="0" />
    <path
       d="m 601.55827,317.26782 h -6.65195 v -55.05548 h 6.65195 z"
       style="font-size:72.46376038px;line-height:1.25;text-align:center;text-anchor:middle;fill:#767474;fill-opacity:1;stroke:#000000;stroke-width:1.28309155;stroke-miterlimit:4;stroke-dasharray:none"
       id="path1687"
       inkscape:connector-curvature="0" />
    <path
       d="m 628.48451,318.18777 q -9.44718,0 -14.68382,-5.30741 -5.20125,-5.34279 -5.20125,-15.14379 0,-9.65948 5.05972,-15.35609 5.05973,-5.732 13.23313,-5.732 3.6798,0 6.51042,1.06148 2.83061,1.06148 4.95357,3.32598 2.12296,2.26449 3.25521,5.55508 1.13225,3.25521 1.13225,7.99649 v 3.60903 h -27.38621 q 0,6.89963 3.46751,10.54405 3.4675,3.64441 9.58871,3.64441 2.19372,0 4.2813,-0.49535 2.12296,-0.49536 3.82133,-1.27378 1.80452,-0.8138 3.04291,-1.55684 1.2384,-0.77842 2.0522,-1.45069 h 0.38921 v 7.25345 q -1.16763,0.45998 -2.90138,1.16763 -1.73375,0.67227 -3.11368,1.06148 -1.94605,0.53074 -3.53827,0.8138 -1.55684,0.28307 -3.96286,0.28307 z m 7.78419,-25.08634 q -0.0708,-2.68908 -0.63688,-4.63513 -0.56613,-1.94605 -1.62761,-3.29059 -1.16763,-1.48607 -3.00753,-2.26449 -1.80451,-0.77842 -4.4936,-0.77842 -2.6537,0 -4.52898,0.8138 -1.8399,0.77842 -3.36136,2.29988 -1.48607,1.55683 -2.26449,3.4675 -0.77842,1.87528 -0.99072,4.38745 z"
       style="font-size:72.46376038px;line-height:1.25;text-align:center;text-anchor:middle;fill:#767474;fill-opacity:1;stroke:#000000;stroke-width:1.28309155;stroke-miterlimit:4;stroke-dasharray:none"
       id="path1689"
       inkscape:connector-curvature="0" />
    <path
       d="m 665.24711,318.15238 q -4.06901,0 -7.46575,-1.23839 -3.39674,-1.27378 -5.83815,-3.82133 -2.4414,-2.54756 -3.78594,-6.40427 -1.34455,-3.8921 -1.34455,-9.12874 0,-5.20125 1.37993,-8.9872 1.41531,-3.78595 3.75056,-6.36889 2.33526,-2.58293 5.80277,-3.96286 3.50288,-1.41531 7.50113,-1.41531 3.25521,0 6.26274,0.91995 3.04291,0.91995 5.41355,2.12297 v 7.46575 h -0.38921 q -0.70766,-0.60151 -1.8399,-1.37993 -1.09687,-0.77842 -2.68909,-1.59222 -1.37992,-0.70766 -3.25521,-1.2384 -1.87528,-0.53074 -3.60903,-0.53074 -5.16587,0 -8.31493,3.92748 -3.11368,3.8921 -3.11368,11.0394 0,7.00578 3.00753,10.93326 3.04291,3.89209 8.42108,3.89209 3.25521,0 6.19197,-1.34454 2.93677,-1.34454 5.20126,-3.4675 h 0.38921 v 7.46575 q -0.99072,0.45997 -2.47679,1.13224 -1.48607,0.63689 -2.68909,0.95533 -1.69837,0.49536 -3.04291,0.74304 -1.34454,0.28306 -3.4675,0.28306 z"
       style="font-size:72.46376038px;line-height:1.25;text-align:center;text-anchor:middle;fill:#767474;fill-opacity:1;stroke:#000000;stroke-width:1.28309155;stroke-miterlimit:4;stroke-dasharray:none"
       id="path1691"
       inkscape:connector-curvature="0" />
    <path
       d="m 694.89782,318.04623 q -5.44894,0 -8.49185,-3.07829 -3.04291,-3.11368 -3.04291,-9.80101 v -21.90188 h -4.4936 v -5.51971 h 4.4936 V 266.3875 h 6.65195 v 11.35784 h 12.24241 v 5.51971 h -12.24241 v 18.78821 q 0,3.00753 0.10614,4.63513 0.10615,1.6276 0.81381,3.04291 0.6015,1.2384 1.94604,1.87528 1.34455,0.60151 3.64442,0.60151 1.62761,0 3.14906,-0.45997 1.52146,-0.49536 2.19373,-0.81381 h 0.38921 v 5.97968 q -1.87528,0.53074 -3.82133,0.8138 -1.91067,0.31844 -3.53827,0.31844 z"
       style="font-size:72.46376038px;line-height:1.25;text-align:center;text-anchor:middle;fill:#767474;fill-opacity:1;stroke:#000000;stroke-width:1.28309155;stroke-miterlimit:4;stroke-dasharray:none"
       id="path1693"
       inkscape:connector-curvature="0" />
    <path
       d="m 728.0868,284.89265 h -0.35382 q -0.74304,-0.2123 -1.59222,-0.24768 -0.81381,-0.0708 -1.98143,-0.0708 -2.68909,0 -5.34279,1.16763 -2.6537,1.16763 -5.02434,3.4675 v 28.05848 h -6.65195 v -39.52244 h 6.65195 v 5.87353 q 3.64441,-3.21982 6.3335,-4.52898 2.72447,-1.34455 5.27202,-1.34455 1.0261,0 1.52146,0.0708 0.53074,0.0354 1.16762,0.14153 z"
       style="font-size:72.46376038px;line-height:1.25;text-align:center;text-anchor:middle;fill:#767474;fill-opacity:1;stroke:#000000;stroke-width:1.28309155;stroke-miterlimit:4;stroke-dasharray:none"
       id="path1695"
       inkscape:connector-curvature="0" />
    <path
       d="m 740.11689,317.26782 h -6.65194 v -39.52248 h 6.65194 z m 0.45998,-46.13904 h -7.5719 v -6.89962 h 7.5719 z"
       style="font-size:72.46376038px;line-height:1.25;text-align:center;text-anchor:middle;fill:#767474;fill-opacity:1;stroke:#000000;stroke-width:1.28309155;stroke-miterlimit:4;stroke-dasharray:none"
       id="path1697"
       inkscape:connector-curvature="0" />
    <path
       d="m 765.59248,318.15238 q -4.06901,0 -7.46575,-1.23839 -3.39674,-1.27378 -5.83815,-3.82133 -2.4414,-2.54756 -3.78595,-6.40427 -1.34454,-3.8921 -1.34454,-9.12874 0,-5.20125 1.37993,-8.9872 1.4153,-3.78595 3.75056,-6.36889 2.33526,-2.58293 5.80276,-3.96286 3.50289,-1.41531 7.50114,-1.41531 3.2552,0 6.26273,0.91995 3.04291,0.91995 5.41355,2.12297 v 7.46575 h -0.3892 q -0.70766,-0.60151 -1.8399,-1.37993 -1.09687,-0.77842 -2.68909,-1.59222 -1.37992,-0.70766 -3.25521,-1.2384 -1.87528,-0.53074 -3.60903,-0.53074 -5.16588,0 -8.31494,3.92748 -3.11367,3.8921 -3.11367,11.0394 0,7.00578 3.00753,10.93326 3.04291,3.89209 8.42108,3.89209 3.25521,0 6.19197,-1.34454 2.93676,-1.34454 5.20126,-3.4675 h 0.3892 v 7.46575 q -0.99071,0.45997 -2.47678,1.13224 -1.48608,0.63689 -2.68909,0.95533 -1.69837,0.49536 -3.04291,0.74304 -1.34454,0.28306 -3.4675,0.28306 z"
       style="font-size:72.46376038px;line-height:1.25;text-align:center;text-anchor:middle;fill:#767474;fill-opacity:1;stroke:#000000;stroke-width:1.28309155;stroke-miterlimit:4;stroke-dasharray:none"
       id="path1699"
       inkscape:connector-curvature="0" />
    <path
       d="m 805.36261,307.53757 v -10.96863 q -2.37064,0.21229 -6.01506,0.6015 -3.60904,0.35383 -5.83815,1.0261 -2.6537,0.8138 -4.38745,2.51217 -1.73375,1.66299 -1.73375,4.67052 0,3.39674 1.91066,5.13049 1.91067,1.73375 5.59047,1.73375 3.14906,0 5.69661,-1.34454 2.54756,-1.37992 4.77667,-3.36136 z m 0,5.5197 q -0.81381,0.60151 -2.19373,1.69837 -1.34454,1.06149 -2.61832,1.69837 -1.76914,0.91995 -3.43212,1.41531 -1.62761,0.49536 -4.59975,0.49536 -2.44141,0 -4.63514,-0.91995 -2.19372,-0.91995 -3.85671,-2.58294 -1.59222,-1.6276 -2.54755,-3.99824 -0.95534,-2.40603 -0.95534,-5.05973 0,-4.10439 1.73376,-6.97039 1.73375,-2.90138 5.48431,-4.59975 3.32598,-1.52146 7.85496,-2.08758 4.52899,-0.6015 9.76563,-0.88457 v -1.27377 q 0,-2.33526 -0.70766,-3.75057 -0.70765,-1.45069 -1.98143,-2.22911 -1.27378,-0.8138 -3.11368,-1.06148 -1.8399,-0.28306 -3.78594,-0.28306 -2.29988,0 -5.41356,0.70765 -3.11367,0.67227 -6.22735,1.98143 h -0.38921 v -6.75809 q 1.8399,-0.53074 5.27202,-1.16763 3.43212,-0.63689 6.79348,-0.63689 4.06901,0 6.86424,0.63689 2.79523,0.63689 5.02434,2.29988 2.15835,1.6276 3.21983,4.21054 1.06148,2.58293 1.06148,6.29812 v 27.03238 h -6.61656 z"
       style="font-size:72.46376038px;line-height:1.25;text-align:center;text-anchor:middle;fill:#767474;fill-opacity:1;stroke:#000000;stroke-width:1.28309155;stroke-miterlimit:4;stroke-dasharray:none"
       id="path1701"
       inkscape:connector-curvature="0" />
    <path
       d="m 828.14906,317.26782 h -6.65195 v -55.05548 h 6.65195 z"
       style="font-size:72.46376038px;line-height:1.25;text-align:center;text-anchor:middle;fill:#767474;fill-opacity:1;stroke:#000000;stroke-width:1.28309155;stroke-miterlimit:4;stroke-dasharray:none"
       id="path1703"
       inkscape:connector-curvature="0" />
    <path
       d="m 243.76846,408.80285 q -5.732,0 -9.76563,-1.16763 -3.99824,-1.20301 -7.53651,-2.93676 v -8.77491 h 0.49536 q 3.4675,3.25521 7.85496,5.05973 4.38745,1.76913 8.45646,1.76913 5.80276,0 8.77491,-2.40602 2.97215,-2.44141 2.97215,-6.40427 0,-3.14906 -1.55684,-5.13049 -1.55684,-1.98143 -4.95358,-2.93677 -2.44141,-0.70765 -4.45822,-1.16762 -2.01681,-0.45998 -5.05973,-1.2384 -2.72446,-0.70765 -4.88281,-1.80452 -2.15834,-1.09686 -3.82133,-2.86599 -1.6276,-1.73376 -2.54755,-4.06901 -0.88457,-2.37064 -0.88457,-5.44894 0,-6.40427 4.98896,-10.72096 4.98896,-4.35207 12.73777,-4.35207 4.42284,0 8.35032,0.88457 3.96286,0.88457 7.32421,2.51217 v 8.3857 h -0.53074 q -2.51217,-2.29988 -6.43965,-3.99824 -3.92748,-1.73376 -8.24416,-1.73376 -4.88282,0 -7.89035,2.29988 -3.00752,2.26449 -3.00752,5.97967 0,3.36136 1.76913,5.34279 1.76914,1.98143 5.13049,2.90138 2.22911,0.60151 5.44894,1.37993 3.21982,0.74303 5.34278,1.37992 5.44894,1.66299 7.96111,5.02434 2.51217,3.36136 2.51217,8.27956 0,3.07829 -1.27378,6.08582 -1.23839,3.00753 -3.50288,5.09511 -2.54756,2.29987 -5.76738,3.53827 -3.18444,1.23839 -7.99649,1.23839 z"
       style="font-size:72.46376038px;line-height:1.25;text-align:center;text-anchor:middle;fill:#767474;fill-opacity:1;stroke:#000000;stroke-width:1.28309155;stroke-miterlimit:4;stroke-dasharray:none"
       id="path1705"
       inkscape:connector-curvature="0" />
    <path
       d="m 299.67312,407.84752 h -6.65195 v -4.38746 q -3.07829,2.68909 -5.83814,4.1044 -2.75985,1.37992 -6.15659,1.37992 -2.58294,0 -4.88281,-0.84918 -2.2645,-0.84919 -3.96287,-2.68909 -1.69837,-1.8399 -2.6537,-4.63513 -0.91995,-2.79523 -0.91995,-6.79348 v -25.65245 h 6.65195 v 22.50339 q 0,3.14906 0.21229,5.23664 0.24768,2.0522 1.06149,3.60904 0.8138,1.52145 2.19372,2.22911 1.41531,0.70765 4.03363,0.70765 2.44141,0 5.20126,-1.37993 2.75985,-1.37992 5.05972,-3.39673 v -29.50917 h 6.65195 z"
       style="font-size:72.46376038px;line-height:1.25;text-align:center;text-anchor:middle;fill:#767474;fill-opacity:1;stroke:#000000;stroke-width:1.28309155;stroke-miterlimit:4;stroke-dasharray:none"
       id="path1707"
       inkscape:connector-curvature="0" />
    <path
       d="m 342.52156,387.04249 q 0,9.87178 -4.74128,15.7453 -4.7059,5.83815 -11.92397,5.83815 -2.93677,0 -5.20126,-0.67227 -2.26449,-0.67227 -4.63513,-2.08758 v 16.5591 h -6.65195 v -54.10014 h 6.65195 v 4.13977 q 2.47679,-2.22911 5.48432,-3.71518 3.04291,-1.52146 6.61656,-1.52146 6.79348,0 10.57943,5.37817 3.82133,5.37817 3.82133,14.43614 z m -6.86425,0.74304 q 0,-6.75809 -2.15834,-10.47328 -2.15834,-3.75056 -7.00577,-3.75056 -2.83062,0 -5.48432,1.27377 -2.61832,1.2384 -4.98896,3.21983 v 22.39725 q 2.61832,1.27377 4.45822,1.73375 1.87528,0.45997 4.2813,0.45997 5.16588,0 8.03188,-3.78595 2.86599,-3.78594 2.86599,-11.07478 z"
       style="font-size:72.46376038px;line-height:1.25;text-align:center;text-anchor:middle;fill:#767474;fill-opacity:1;stroke:#000000;stroke-width:1.28309155;stroke-miterlimit:4;stroke-dasharray:none"
       id="path1709"
       inkscape:connector-curvature="0" />
    <path
       d="m 382.57477,387.04249 q 0,9.87178 -4.74128,15.7453 -4.7059,5.83815 -11.92397,5.83815 -2.93676,0 -5.20125,-0.67227 -2.2645,-0.67227 -4.63514,-2.08758 v 16.5591 h -6.65194 v -54.10014 h 6.65194 v 4.13977 q 2.47679,-2.22911 5.48432,-3.71518 3.04291,-1.52146 6.61656,-1.52146 6.79348,0 10.57943,5.37817 3.82133,5.37817 3.82133,14.43614 z m -6.86424,0.74304 q 0,-6.75809 -2.15835,-10.47328 -2.15834,-3.75056 -7.00577,-3.75056 -2.83061,0 -5.48432,1.27377 -2.61832,1.2384 -4.98896,3.21983 v 22.39725 q 2.61832,1.27377 4.45822,1.73375 1.87529,0.45997 4.28131,0.45997 5.16587,0 8.03187,-3.78595 2.866,-3.78594 2.866,-11.07478 z"
       style="font-size:72.46376038px;line-height:1.25;text-align:center;text-anchor:middle;fill:#767474;fill-opacity:1;stroke:#000000;stroke-width:1.28309155;stroke-miterlimit:4;stroke-dasharray:none"
       id="path1711"
       inkscape:connector-curvature="0" />
    <path
       d="m 396.26788,407.84752 h -6.65195 v -55.05548 h 6.65195 z"
       style="font-size:72.46376038px;line-height:1.25;text-align:center;text-anchor:middle;fill:#767474;fill-opacity:1;stroke:#000000;stroke-width:1.28309155;stroke-miterlimit:4;stroke-dasharray:none"
       id="path1713"
       inkscape:connector-curvature="0" />
    <path
       d="m 437.09951,368.32505 -21.265,54.10014 h -7.11193 l 7.07654,-16.48834 -14.36537,-37.6118 h 7.18269 l 10.79172,29.26149 10.75634,-29.26149 z"
       style="font-size:72.46376038px;line-height:1.25;text-align:center;text-anchor:middle;fill:#767474;fill-opacity:1;stroke:#000000;stroke-width:1.28309155;stroke-miterlimit:4;stroke-dasharray:none"
       id="path1715"
       inkscape:connector-curvature="0" />
    <path
       d="m 511.08472,407.84752 h -9.05797 l -7.21807,-7.53652 q -3.60903,4.59975 -7.43036,6.61657 -3.78595,2.01681 -8.598,2.01681 -7.1473,0 -11.81782,-4.2813 -4.63513,-4.31669 -4.63513,-11.28708 0,-3.04292 0.84918,-5.41356 0.84919,-2.37064 2.2645,-4.2813 1.37992,-1.8399 3.18444,-3.21983 1.80452,-1.41531 3.4675,-2.4414 -3.57365,-2.40603 -5.34279,-5.05973 -1.76913,-2.6537 -1.76913,-6.68733 0,-2.51217 0.99072,-4.63513 1.02609,-2.15835 2.6537,-3.78595 1.69837,-1.66299 4.38745,-2.72447 2.72447,-1.06148 5.94429,-1.06148 5.87353,0 9.58872,3.11368 3.71518,3.07829 3.71518,7.81957 0,1.73376 -0.45998,3.60904 -0.42459,1.8399 -1.59222,3.57365 -1.16763,1.73375 -3.07829,3.25521 -1.87529,1.52146 -5.02435,2.6537 l 12.45471,12.80854 q 0.49536,-2.90138 0.60151,-6.29812 0.10615,-3.43212 0.10615,-8.91644 h 6.89962 v 3.39674 q 0,3.39674 -0.88456,7.67804 -0.84919,4.24593 -2.83062,8.06726 z m -19.35433,-10.65019 -16.27604,-16.66525 q -0.88457,0.56612 -1.76914,1.34454 -0.88456,0.77842 -1.94605,2.33526 -0.84918,1.23839 -1.52145,3.25521 -0.63689,1.98143 -0.63689,4.21054 0,5.02434 2.97215,8.27955 3.00753,3.21982 8.10263,3.21982 3.39674,0 6.12121,-1.41531 2.72447,-1.45069 4.95358,-4.56436 z M 478.78032,375.5785 q 1.98143,-0.67227 3.25521,-1.80452 1.30916,-1.13224 2.01681,-2.47679 0.63689,-1.23839 0.95534,-2.61832 0.31844,-1.37992 0.31844,-2.97214 0,-3.43212 -2.01681,-5.30741 -1.98143,-1.87528 -4.63514,-1.87528 -3.14906,0 -4.95357,2.12296 -1.80452,2.12296 -1.80452,5.30741 0,1.4153 0.24768,2.4414 0.28306,0.99072 1.13224,2.33526 0.74304,1.09686 2.0522,2.33526 1.34454,1.23839 3.43212,2.51217 z"
       style="font-size:72.46376038px;line-height:1.25;text-align:center;text-anchor:middle;fill:#767474;fill-opacity:1;stroke:#000000;stroke-width:1.28309155;stroke-miterlimit:4;stroke-dasharray:none"
       id="path1717"
       inkscape:connector-curvature="0" />
    <path
       d="m 567.30783,407.84752 h -30.53526 v -52.68484 h 7.00577 v 46.45748 h 23.52949 z"
       style="font-size:72.46376038px;line-height:1.25;text-align:center;text-anchor:middle;fill:#767474;fill-opacity:1;stroke:#000000;stroke-width:1.28309155;stroke-miterlimit:4;stroke-dasharray:none"
       id="path1719"
       inkscape:connector-curvature="0" />
    <path
       d="m 579.12564,407.84752 h -6.65195 v -39.52247 h 6.65195 z m 0.45997,-46.13904 h -7.5719 v -6.89962 h 7.5719 z"
       style="font-size:72.46376038px;line-height:1.25;text-align:center;text-anchor:middle;fill:#767474;fill-opacity:1;stroke:#000000;stroke-width:1.28309155;stroke-miterlimit:4;stroke-dasharray:none"
       id="path1721"
       inkscape:connector-curvature="0" />
    <path
       d="m 612.66844,397.12656 v -21.68959 q -2.47679,-1.20301 -4.59975,-1.69837 -2.08758,-0.53074 -4.17516,-0.53074 -5.05972,0 -7.9611,3.71518 -2.90138,3.71519 -2.90138,10.65019 0,6.58119 2.19372,10.01331 2.22911,3.43212 7.18269,3.43212 2.58294,0 5.30741,-1.0261 2.75985,-1.0261 4.95357,-2.866 z m -22.36186,17.05446 q 0.67227,0.28306 1.98143,0.74304 1.30916,0.49536 2.97215,0.91995 1.8399,0.45997 3.39674,0.74303 1.55683,0.28307 3.39673,0.28307 3.0783,0 5.20126,-0.81381 2.15834,-0.8138 3.36136,-2.26449 1.13224,-1.45069 1.59222,-3.36135 0.45997,-1.91067 0.45997,-4.35208 v -3.4675 q -2.68908,2.33526 -5.27202,3.4675 -2.58294,1.09687 -6.47503,1.09687 -6.7581,0 -10.75634,-5.02435 -3.99825,-5.02434 -3.99825,-14.43614 0,-4.91819 1.37993,-8.70414 1.37992,-3.82133 3.71518,-6.47503 2.22911,-2.54756 5.27202,-3.92748 3.04292,-1.37993 6.29812,-1.37993 3.0783,0 5.30741,0.74304 2.26449,0.70765 4.52898,2.0522 l 0.38921,-1.69837 h 6.26274 v 35.02887 q 0,10.04868 -4.38745,14.75458 -4.38746,4.7059 -13.41005,4.7059 -2.90138,0 -5.94429,-0.45998 -3.00753,-0.45997 -5.62585,-1.23839 v -6.93501 z"
       style="font-size:72.46376038px;line-height:1.25;text-align:center;text-anchor:middle;fill:#767474;fill-opacity:1;stroke:#000000;stroke-width:1.28309155;stroke-miterlimit:4;stroke-dasharray:none"
       id="path1723"
       inkscape:connector-curvature="0" />
    <path
       d="m 660.0105,407.84752 h -6.65195 v -22.5034 q 0,-2.72446 -0.28306,-5.05972 -0.24768,-2.37064 -0.99071,-3.78595 -0.81381,-1.48607 -2.2645,-2.19373 -1.45069,-0.74303 -3.96286,-0.74303 -2.47679,0 -5.13049,1.34454 -2.61832,1.30916 -5.13049,3.43212 v 29.50917 h -6.65195 v -55.05548 h 6.65195 v 19.92046 q 2.97215,-2.6537 5.87353,-4.06901 2.90138,-1.41531 6.1212,-1.41531 5.83815,0 9.12874,3.85672 3.29059,3.82133 3.29059,11.11016 z"
       style="font-size:72.46376038px;line-height:1.25;text-align:center;text-anchor:middle;fill:#767474;fill-opacity:1;stroke:#000000;stroke-width:1.28309155;stroke-miterlimit:4;stroke-dasharray:none"
       id="path1725"
       inkscape:connector-curvature="0" />
    <path
       d="m 681.38163,408.62594 q -5.44894,0 -8.49185,-3.0783 -3.04291,-3.11367 -3.04291,-9.801 v -21.90189 h -4.4936 v -5.5197 h 4.4936 V 356.9672 h 6.65195 v 11.35785 h 12.24241 v 5.5197 h -12.24241 v 18.78821 q 0,3.00753 0.10614,4.63513 0.10615,1.62761 0.81381,3.04291 0.6015,1.2384 1.94604,1.87529 1.34455,0.6015 3.64442,0.6015 1.62761,0 3.14906,-0.45997 1.52146,-0.49536 2.19373,-0.8138 h 0.38921 v 5.97967 q -1.87528,0.53074 -3.82133,0.8138 -1.91067,0.31845 -3.53827,0.31845 z"
       style="font-size:72.46376038px;line-height:1.25;text-align:center;text-anchor:middle;fill:#767474;fill-opacity:1;stroke:#000000;stroke-width:1.28309155;stroke-miterlimit:4;stroke-dasharray:none"
       id="path1727"
       inkscape:connector-curvature="0" />
    <path
       d="m 700.41754,407.84752 h -6.65195 v -39.52247 h 6.65195 z m 0.45997,-46.13904 h -7.57189 v -6.89962 h 7.57189 z"
       style="font-size:72.46376038px;line-height:1.25;text-align:center;text-anchor:middle;fill:#767474;fill-opacity:1;stroke:#000000;stroke-width:1.28309155;stroke-miterlimit:4;stroke-dasharray:none"
       id="path1729"
       inkscape:connector-curvature="0" />
    <path
       d="m 741.24915,407.84752 h -6.65195 v -22.5034 q 0,-2.72446 -0.28306,-5.05972 -0.24768,-2.37064 -0.99072,-3.78595 -0.8138,-1.48607 -2.26449,-2.19373 -1.45069,-0.74303 -3.96286,-0.74303 -2.47679,0 -5.13049,1.34454 -2.61832,1.30916 -5.13049,3.43212 v 29.50917 h -6.65195 v -39.52247 h 6.65195 v 4.38745 q 2.97214,-2.6537 5.87353,-4.06901 2.90138,-1.41531 6.1212,-1.41531 5.83815,0 9.12874,3.85672 3.29059,3.82133 3.29059,11.11016 z"
       style="font-size:72.46376038px;line-height:1.25;text-align:center;text-anchor:middle;fill:#767474;fill-opacity:1;stroke:#000000;stroke-width:1.28309155;stroke-miterlimit:4;stroke-dasharray:none"
       id="path1731"
       inkscape:connector-curvature="0" />
    <path
       d="m 774.43813,397.12656 v -21.68959 q -2.47679,-1.20301 -4.59975,-1.69837 -2.08758,-0.53074 -4.17516,-0.53074 -5.05973,0 -7.96111,3.71518 -2.90138,3.71519 -2.90138,10.65019 0,6.58119 2.19373,10.01331 2.22911,3.43212 7.18268,3.43212 2.58294,0 5.30741,-1.0261 2.75985,-1.0261 4.95358,-2.866 z m -22.36187,17.05446 q 0.67227,0.28306 1.98143,0.74304 1.30916,0.49536 2.97215,0.91995 1.8399,0.45997 3.39674,0.74303 1.55684,0.28307 3.39674,0.28307 3.07829,0 5.20125,-0.81381 2.15835,-0.8138 3.36136,-2.26449 1.13225,-1.45069 1.59222,-3.36135 0.45998,-1.91067 0.45998,-4.35208 v -3.4675 q -2.68909,2.33526 -5.27202,3.4675 -2.58294,1.09687 -6.47504,1.09687 -6.75809,0 -10.75634,-5.02435 -3.99824,-5.02434 -3.99824,-14.43614 0,-4.91819 1.37992,-8.70414 1.37993,-3.82133 3.71519,-6.47503 2.22911,-2.54756 5.27202,-3.92748 3.04291,-1.37993 6.29812,-1.37993 3.07829,0 5.3074,0.74304 2.26449,0.70765 4.52899,2.0522 l 0.38921,-1.69837 h 6.26273 v 35.02887 q 0,10.04868 -4.38745,14.75458 -4.38746,4.7059 -13.41004,4.7059 -2.90138,0 -5.9443,-0.45998 -3.00752,-0.45997 -5.62584,-1.23839 v -6.93501 z"
       style="font-size:72.46376038px;line-height:1.25;text-align:center;text-anchor:middle;fill:#767474;fill-opacity:1;stroke:#000000;stroke-width:1.28309155;stroke-miterlimit:4;stroke-dasharray:none"
       id="path1733"
       inkscape:connector-curvature="0" />
    <path
       inkscape:connector-curvature="0"
       id="path6043-7-3-9"
       style="fill:#7ec142;fill-opacity:1;stroke:#1a1a1a;stroke-width:0.52916664;stroke-miterlimit:4;stroke-dasharray:none"
       d="m -403.20769,95.319427 a 27.21486,27.21486 0 0 1 -3.47043,-6.952732 47.819366,47.819366 0 0 0 -5.34984,-11.10443 10.019424,10.019424 0 0 0 0.002,-3.965379 2.5606729,2.5606729 0 0 0 -0.61913,-1.145559 27.119927,27.119927 0 0 0 -3.87998,-3.421052 39.095858,39.095858 0 0 0 -2.19491,-1.480098 0.47456731,0.47456731 0 0 1 -0.12416,-0.69152 1.8586258,1.8586258 0 0 0 0.3323,-0.69047 18.082767,18.082767 0 0 1 0.74847,-2.343322 27.892357,27.892357 0 0 0 1.14488,-3.57605 3.2109739,3.2109739 0 0 1 0.3932,-0.9295 0.30469986,0.30469986 0 0 1 0.40076,-0.109598 6.4935469,6.4935469 0 0 0 1.92452,0.656039 100.87424,100.87424 0 0 1 2.94333,0.554771 14.389586,14.389586 0 0 0 3.29916,0.281818 195.97992,195.97992 0 0 0 2.26154,-0.0783 1.1130681,1.1130681 0 0 0 0.65628,-0.25051 6.766672,6.766672 0 0 0 1.62197,-1.91902 1.489602,1.489602 0 0 0 0.17029,-0.99318 6.2277962,6.2277962 0 0 1 -0.0954,-1.120511 212.26829,212.26829 0 0 0 0,-2.321409 2.029678,2.029678 0 0 1 0.35161,-1.152861 5.010547,5.010547 0 0 1 0.90904,-1.00883 0.77437698,0.77437698 0 0 0 0.26587,-0.707699 2.0927337,2.0927337 0 0 1 -0.0344,-0.647671 1.3935884,1.3935884 0 0 0 -0.19445,-0.75415 1.1720113,1.1720113 0 0 0 -0.52787,-0.469709 0.10577312,0.10577312 0 0 1 0,-0.193091 17.728232,17.728232 0 0 1 0.74976,-0.31836 1.6837169,1.6837169 0 0 0 0.84501,-0.733279 0.76206018,0.76206018 0 0 0 0.0851,-0.525021 3.7698747,3.7698747 0 0 1 -0.0529,-1.111649 8.6082263,8.6082263 0 0 0 0,-1.727481 0.22305932,0.22305932 0 0 1 0.1706,-0.240069 1.1598145,1.1598145 0 0 1 0.32911,0 5.1426238,5.1426238 0 0 0 2.29266,-0.31836 4.8584867,4.8584867 0 0 0 1.63456,-1.040141 1.392482,1.392482 0 0 0 0.0496,-1.859521 40.727506,40.727506 0 0 1 -1.88072,-2.386129 47.284728,47.284728 0 0 1 -3.43497,-5.455391 24.871375,24.871375 0 0 0 -0.29476,-0.531828 0.28920991,0.28920991 0 0 1 0.10896,-0.396632 1.8007995,1.8007995 0 0 0 0.83223,-1.028139 3.6424688,3.6424688 0 0 0 -0.41016,-3.05989 10.804192,10.804192 0 0 1 -1.30432,-2.89392 204.12014,204.12014 0 0 1 -0.77236,-2.80312 3.4371749,3.4371749 0 0 1 -0.10344,-1.19567 0.86097556,0.86097556 0 0 0 -0.19958,-0.63202 5.5292824,5.5292824 0 0 1 -0.95096,-1.6231 1.1585933,1.1585933 0 0 1 0,-0.86896 0.90923548,0.90923548 0 0 1 0.2683,-0.36533 6.8008197,6.8008197 0 0 0 2.41966,-4.20754 6.888895,6.888895 0 0 0 0.0836,-1.2082 1.15804,1.15804 0 0 0 -0.94901,-1.11686 2.750383,2.750383 0 0 0 -0.99184,0 2.2413286,2.2413286 0 0 1 -0.80826,0 110.98887,110.98887 0 0 0 -1.22601,-0.2192 13.823436,13.823436 0 0 1 -3.58206,-1.13356 3.1412064,3.1412064 0 0 0 -1.0004,-0.28183 5.0565731,5.0565731 0 0 1 -2.16689,-0.764579 2.2023585,2.2023585 0 0 0 -1.2056,-0.34445 2.4233876,2.4233876 0 0 1 -1.24718,-0.33401 3.3266682,3.3266682 0 0 0 -1.38574,-0.44362 5.9062026,5.9062026 0 0 1 -2.07861,-0.58191 8.786397,8.786397 0 0 1 -1.36797,0.002 8.1834012,8.1834012 0 0 1 1.34035,-3.38294 0.71201014,0.71201014 0 0 1 0.30003,-0.50625 13.131743,13.131743 0 0 1 2.37309,-1.316741 28.253167,28.253167 0 0 1 11.39636,-2.26086997 12.648377,12.648377 0 0 1 8.80582,0.71866 11.031546,11.031546 0 0 1 3.77616,0.67533 7.9198164,7.9198164 0 0 0 2.73684,0.48536997 3.3630445,3.3630445 0 0 1 2.21717,0.831381 5.4208945,5.4208945 0 0 0 2.25183,1.17793 1.6281086,1.6281086 0 0 1 1.17788,1.16018 5.4050603,5.4050603 0 0 1 0.17944,1.55264 7.4548676,7.4548676 0 0 1 -0.54848,2.59123 2.0698746,2.0698746 0 0 0 0,1.563079 4.8409559,4.8409559 0 0 1 0.35329,1.60641 8.7099705,8.7099705 0 0 0 1.17559,3.9873 8.3994568,8.3994568 0 0 1 0.9733,5.90684 0.24328809,0.24328809 0 0 0 0.20434,0.29227 2.099889,2.099889 0 0 0 0.84908,-0.0522 6.6415469,6.6415469 0 0 1 -0.6319,0.94202 0.55796665,0.55796665 0 0 0 0,0.69882 9.1280529,9.1280529 0 0 1 0.51897,0.71501 13.486509,13.486509 0 0 0 1.8521,2.25406 35.287599,35.287599 0 0 1 1.82316,1.92373 1.6250659,1.6250659 0 0 1 0.31872,1.59335 1.6495325,1.6495325 0 0 1 -0.69286,0.87313 10.054213,10.054213 0 0 1 -1.87251,0.90863 0.71054882,0.71054882 0 0 0 -0.46827,0.666469 7.0584236,7.0584236 0 0 1 -0.0809,1.055791 2.0433308,2.0433308 0 0 0 0.26606,1.356421 18.016434,18.016434 0 0 0 0.65101,1.010909 0.65121421,0.65121421 0 0 1 -0.1206,0.87262 4.5465271,4.5465271 0 0 0 -0.58158,0.57617 0.27492034,0.27492034 0 0 0 0,0.354891 4.856592,4.856592 0 0 0 0.39316,0.412297 1.038254,1.038254 0 0 1 0.0433,1.471772 6.2855757,6.2855757 0 0 0 -0.8358,0.94462 3.0964275,3.0964275 0 0 0 -0.49532,2.54008 3.9114551,3.9114551 0 0 1 -0.17345,2.38769 3.2636908,3.2636908 0 0 1 -1.63185,1.72957 6.7946456,6.7946456 0 0 1 -2.16775,0.61167 38.017231,38.017231 0 0 1 -6.44369,0.151339 1.8750917,1.8750917 0 0 0 -1.77376,0.997881 43.852659,43.852659 0 0 1 -2.40615,4.029041 8.3581223,8.3581223 0 0 0 -0.97555,1.968598 11.063257,11.063257 0 0 1 -1.04214,2.218592 4.3281545,4.3281545 0 0 0 -0.62337,2.627249 1.8034508,1.8034508 0 0 1 -0.10234,0.76876 2.9627068,2.9627068 0 0 0 -0.16565,1.29064 2.7083388,2.7083388 0 0 0 0.47278,1.292741 27.312099,27.312099 0 0 1 1.80948,2.995189 4.369755,4.369755 0 0 0 1.95417,1.908051 4.3887364,4.3887364 0 0 1 1.98136,1.953469 95.452844,95.452844 0 0 0 8.07289,13.13982 23.243292,23.243292 0 0 1 4.42429,12.026109 z"
       inkscape:export-xdpi="299.98184"
       inkscape:export-ydpi="299.98184" />
    <path
       inkscape:connector-curvature="0"
       id="path6045-1-8-4"
       style="fill:#7ec142;fill-opacity:1;stroke:#1a1a1a;stroke-width:0.52916664;stroke-miterlimit:4;stroke-dasharray:none"
       d="m -453.47688,154.96091 a 27.084875,27.084875 0 1 1 -0.0928,-29.11461 0.81562783,0.81562783 0 0 0 1.10671,0.26094 l 7.60492,-4.57287 a 0.81562783,0.81562783 0 0 0 0.2692,-1.1346 37.587228,37.587228 0 1 0 0.12739,39.956 0.81562783,0.81562783 0 0 0 -0.27639,-1.13304 l -7.63393,-4.52433 a 0.81562783,0.81562783 0 0 0 -1.10504,0.26617 z"
       inkscape:export-xdpi="299.98184"
       inkscape:export-ydpi="299.98184" />
    <path
       inkscape:connector-curvature="0"
       id="path6047-1-2-4"
       style="fill:#7ec142;fill-opacity:1;stroke:#1a1a1a;stroke-width:0.52916664;stroke-miterlimit:4;stroke-dasharray:none"
       d="m -473.37357,134.81929 h 39.31085 v 10.50216 h -39.31085 a 0.81562783,0.81562783 0 0 1 -0.81562,-0.81573 v -8.8707 a 0.81562783,0.81562783 0 0 1 0.81562,-0.81573 z"
       inkscape:export-xdpi="299.98184"
       inkscape:export-ydpi="299.98184" />
    <path
       inkscape:connector-curvature="0"
       id="path6051-0-5-4"
       style="fill:#767474;fill-opacity:1;stroke:#1a1a1a;stroke-width:0.52916664;stroke-miterlimit:4;stroke-dasharray:none"
       d="m -403.20769,95.319427 a 27.21486,27.21486 0 0 1 -3.47043,-6.952732 47.819366,47.819366 0 0 0 -5.34984,-11.10443 10.019424,10.019424 0 0 0 0.002,-3.965379 2.5606729,2.5606729 0 0 0 -0.61913,-1.145559 27.119927,27.119927 0 0 0 -3.87998,-3.421052 39.095858,39.095858 0 0 0 -2.19491,-1.480098 0.47456731,0.47456731 0 0 1 -0.12416,-0.69152 1.8586258,1.8586258 0 0 0 0.3323,-0.69047 18.082767,18.082767 0 0 1 0.74847,-2.343322 27.892357,27.892357 0 0 0 1.14488,-3.57605 3.2109739,3.2109739 0 0 1 0.3932,-0.9295 0.30469986,0.30469986 0 0 1 0.40076,-0.109598 6.4935469,6.4935469 0 0 0 1.92452,0.656039 100.87424,100.87424 0 0 1 2.94333,0.554771 14.389586,14.389586 0 0 0 3.29916,0.281818 195.97992,195.97992 0 0 0 2.26154,-0.0783 1.1130681,1.1130681 0 0 0 0.65628,-0.25051 6.766672,6.766672 0 0 0 1.62197,-1.91902 1.489602,1.489602 0 0 0 0.17029,-0.99318 6.2277962,6.2277962 0 0 1 -0.0954,-1.120511 212.26829,212.26829 0 0 0 0,-2.321409 2.029678,2.029678 0 0 1 0.35161,-1.152861 5.010547,5.010547 0 0 1 0.90904,-1.00883 0.77437698,0.77437698 0 0 0 0.26587,-0.707699 2.0927337,2.0927337 0 0 1 -0.0344,-0.647671 1.3935884,1.3935884 0 0 0 -0.19445,-0.75415 1.1720113,1.1720113 0 0 0 -0.52787,-0.469709 0.10577312,0.10577312 0 0 1 0,-0.193091 17.728232,17.728232 0 0 1 0.74976,-0.31836 1.6837169,1.6837169 0 0 0 0.84501,-0.733279 0.76206018,0.76206018 0 0 0 0.0851,-0.525021 3.7698747,3.7698747 0 0 1 -0.0529,-1.111649 8.6082263,8.6082263 0 0 0 0,-1.727481 0.22305932,0.22305932 0 0 1 0.1706,-0.240069 1.1598145,1.1598145 0 0 1 0.32911,0 5.1426238,5.1426238 0 0 0 2.29266,-0.31836 4.8584867,4.8584867 0 0 0 1.63456,-1.040141 1.392482,1.392482 0 0 0 0.0496,-1.859521 40.727506,40.727506 0 0 1 -1.88072,-2.386129 47.284728,47.284728 0 0 1 -3.43497,-5.455391 24.871375,24.871375 0 0 0 -0.29476,-0.531828 0.28920991,0.28920991 0 0 1 0.10896,-0.396632 1.8007995,1.8007995 0 0 0 0.83223,-1.028139 3.6424688,3.6424688 0 0 0 -0.41016,-3.05989 10.804192,10.804192 0 0 1 -1.30432,-2.89392 204.12014,204.12014 0 0 1 -0.77236,-2.80312 3.4371749,3.4371749 0 0 1 -0.10344,-1.19567 0.86097556,0.86097556 0 0 0 -0.19958,-0.63202 5.5292824,5.5292824 0 0 1 -0.95096,-1.6231 1.1585933,1.1585933 0 0 1 0,-0.86896 0.90923548,0.90923548 0 0 1 0.2683,-0.36533 6.8008197,6.8008197 0 0 0 2.41966,-4.20754 6.888895,6.888895 0 0 0 0.0836,-1.2082 1.15804,1.15804 0 0 0 -0.94901,-1.11686 2.750383,2.750383 0 0 0 -0.99184,0 2.2413286,2.2413286 0 0 1 -0.80826,0 110.98887,110.98887 0 0 0 -1.22601,-0.2192 13.823436,13.823436 0 0 1 -3.58206,-1.13356 3.1412064,3.1412064 0 0 0 -1.0004,-0.28183 5.0565731,5.0565731 0 0 1 -2.16689,-0.764579 2.2023585,2.2023585 0 0 0 -1.2056,-0.34445 2.4233876,2.4233876 0 0 1 -1.24718,-0.33401 3.3266682,3.3266682 0 0 0 -1.38574,-0.44362 5.9062026,5.9062026 0 0 1 -2.07861,-0.58191 8.786397,8.786397 0 0 1 -2.77429,-0.22442 15.691377,15.691377 0 0 0 -4.15058,-0.4384 30.007531,30.007531 0 0 1 -1.66842,0 10.271709,10.271709 0 0 0 -3.30965,0.44884 20.044369,20.044369 0 0 1 -1.63961,0.42795 19.49565,19.49565 0 0 1 -2.43359,1.17793 13.918338,13.918338 0 0 0 -1.25445,1.165399 42.523612,42.523612 0 0 0 -0.76431,0.82512 1.7016493,1.7016493 0 0 1 -0.96719,0.53599 4.0752113,4.0752113 0 0 0 -1.53024,0.60853 35.319674,35.319674 0 0 1 -2.20636,1.33867 9.9207692,9.9207692 0 0 0 -3.53364,3.33232 116.90232,116.90232 0 0 0 -1.10816,1.77393 14.180038,14.180038 0 0 0 -1.73951,4.28479 26.900937,26.900937 0 0 1 1.85614,0 4.8978376,4.8978376 0 0 1 1.19455,0.1931 16.930468,16.930468 0 0 0 3.79312,0.65916 3.7291979,3.7291979 0 0 1 2.51651,1.18627 3.4891195,3.4891195 0 0 0 2.1158,1.08764 5.5958558,5.5958558 0 0 0 1.85135,0.99786 2.2312716,2.2312716 0 0 0 1.89569,1.119479 5.9987977,5.9987977 0 0 0 2.07813,1.771311 0.86883014,0.86883014 0 0 1 0.46825,0.70979 0.77150652,0.77150652 0 0 0 0.41861,0.6315 7.5685426,7.5685426 0 0 1 1.3165,0.854861 3.3514271,3.3514271 0 0 0 2.01019,0.744238 0.71578868,0.71578868 0 0 1 0.68904,0.807882 0.8643209,0.8643209 0 0 0 -0.49664,0.271399 3.1327307,3.1327307 0 0 1 -0.41418,0.375761 0.7671487,0.7671487 0 0 1 -0.5747,0.151349 0.44422937,0.44422937 0 0 0 -0.43996,0.675349 2.2884665,2.2884665 0 0 1 0.14337,2.16535 1.7762024,1.7762024 0 0 0 -0.78045,-0.370549 0.17484636,0.17484636 0 0 0 -0.16075,0.29227 3.1801348,3.1801348 0 0 1 0.87304,2.049481 52.39189,52.39189 0 0 1 0,4.702839 1.5939608,1.5939608 0 0 1 -0.46694,1.05736 0.96218726,0.96218726 0 0 0 -0.27713,0.576691 10.188503,10.188503 0 0 0 0,2.2118 2.0678183,2.0678183 0 0 0 0.79652,1.415399 1.5017257,1.5017257 0 0 1 0.5829,1.30683 4.769983,4.769983 0 0 1 -0.38329,1.5396 1.0168718,1.0168718 0 0 1 -0.96314,0.6101 0.45278848,0.45278848 0 0 0 -0.46475,0.4123 2.2247844,2.2247844 0 0 0 0.13303,0.98429 0.74806287,0.74806287 0 0 1 -0.16852,0.78912 1.2994432,1.2994432 0 0 0 -0.36507,0.747871 1.5664463,1.5664463 0 0 1 -0.0926,0.973349 2.2607589,2.2607589 0 0 1 -0.78119,0.9509 0.5246069,0.5246069 0 0 0 -0.21889,0.34967 4.6518881,4.6518881 0 0 0 0,1.440961 1.9412684,1.9412684 0 0 1 -1.81809,2.238949 51.691287,51.691287 0 0 1 -6.2303,-0.0574 2.6591657,2.6591657 0 0 1 -0.57937,1.320932 0.70925453,0.70925453 0 0 0 0,0.900779 178.4971,178.4971 0 0 0 1.82918,2.18938 4.7394313,4.7394313 0 0 1 1.05847,2.26659 0.56862904,0.56862904 0 0 0 0.26878,0.39143 3.1199183,3.1199183 0 0 1 0.97215,0.987959 2.8534109,2.8534109 0 0 0 0.89796,0.90914 3.3013248,3.3013248 0 0 1 1.48343,2.224331 13.403814,13.403814 0 0 1 0.19614,2.29583 4.8578448,4.8578448 0 0 0 0.47226,2.09333 17.12392,17.12392 0 0 1 1.62764,6.2372 121.49429,121.49429 0 0 1 0.1776,12.580369 z"
       inkscape:export-xdpi="299.98184"
       inkscape:export-ydpi="299.98184" />
    <path
       inkscape:connector-curvature="0"
       id="path6053-8-1-1"
       style="fill:#767474;fill-opacity:1;stroke:#1a1a1a;stroke-width:0.52916664;stroke-miterlimit:4;stroke-dasharray:none"
       d="m -349.16073,173.24457 h -80.22245 v -10.55852 h 81.19814 a 6.3066185,6.3066185 0 0 0 3.75911,-3.32658 12.034812,12.034812 0 0 0 -0.79276,-11.62215 4.9276956,4.9276956 0 0 0 -4.13987,-2.2546 h -23.19364 a 15.911044,15.911044 0 0 1 -15.58078,-12.68631 31.882226,31.882226 0 0 1 0,-12.92428 15.911044,15.911044 0 0 1 15.58078,-12.68578 h 35.74795 l -11.47096,10.46667 h -24.27699 a 5.4440982,5.4440982 0 0 0 -5.3311,4.34062 21.415281,21.415281 0 0 0 0,8.68126 5.4440982,5.4440982 0 0 0 5.3311,4.34063 h 23.18641 a 16.784457,16.784457 0 0 1 15.14912,9.55804 22.469134,22.469134 0 0 1 0,19.34781 16.493827,16.493827 0 0 1 -14.88681,9.39261"
       inkscape:export-xdpi="299.98184"
       inkscape:export-ydpi="299.98184" />
    <path
       inkscape:connector-curvature="0"
       id="path6055-0-6-8"
       style="fill:#767474;fill-opacity:1;stroke:#1a1a1a;stroke-width:0.52916664;stroke-linecap:round;stroke-miterlimit:4;stroke-dasharray:none"
       d="m -389.04873,145.48272 a 22.91935,22.91935 0 0 1 -5.76686,-10.46719 h -34.57425 v 10.46719 z"
       inkscape:export-xdpi="299.98184"
       inkscape:export-ydpi="299.98184" />
    <path
       inkscape:connector-curvature="0"
       id="path6057-1-3-1"
       style="fill:#767474;fill-opacity:1;stroke:#1a1a1a;stroke-width:0.52916664;stroke-linecap:round;stroke-miterlimit:4;stroke-dasharray:none"
       d="m -429.38984,117.65302 v -10.46667 h 40.34111 a 22.91935,22.91935 0 0 0 -5.76686,10.46667 z"
       inkscape:export-xdpi="299.98184"
       inkscape:export-ydpi="299.98184" />
    <g
       transform="matrix(-1,0,0,1,-318.32859,-103.4182)"
       id="layer7-6-7-3"
       inkscape:export-xdpi="299.98184"
       inkscape:export-ydpi="299.98184"
       style="stroke:#1a1a1a;stroke-width:0.5291667;stroke-miterlimit:4;stroke-dasharray:none">
      <g
         style="fill:none;stroke:#1a1a1a;stroke-width:0.10139268;stroke-miterlimit:4;stroke-dasharray:none"
         transform="matrix(5.2189827,0,0,5.2189827,16.097833,-5576.9288)"
         id="g6063-2-7-0">
        <path
           inkscape:connector-curvature="0"
           id="path6061-2-6-1"
           style="fill:#ffffff;stroke:#1a1a1a;stroke-width:0.10139268;stroke-miterlimit:4;stroke-dasharray:none"
           d="m 25.464559,1106.4944 a 0.085658,0.085658 0 0 1 -0.03067,-0.066 0.120342,0.120342 0 0 0 -0.02936,-0.079 0.06978,0.06978 0 0 1 0,-0.091 0.119946,0.119946 0 0 0 0.02877,-0.089 2.054412,2.054412 0 0 1 0,-0.3747 0.412247,0.412247 0 0 0 -0.01902,-0.1666 0.899522,0.899522 0 0 1 -0.04486,-0.2556 13.823404,13.823404 0 0 1 0.01579,-1.1738 1.486712,1.486712 0 0 0 -0.204844,-0.8401 4.422374,4.422374 0 0 1 -0.373868,-0.8079 0.652709,0.652709 0 0 0 -0.278795,-0.3452 0.787613,0.787613 0 0 1 -0.378238,-0.7197 1.142892,1.142892 0 0 1 -0.136902,-0.3709 0.694016,0.694016 0 0 1 -0.22351,-0.2242 0.87258,0.87258 0 0 1 -0.130105,-0.4351 0.306953,0.306953 0 0 1 0.126616,-0.2569 0.134691,0.134691 0 0 0 0.0556,-0.1104 25.140282,25.140282 0 0 1 0,-0.532 0.150439,0.150439 0 0 0 -0.162859,-0.1515 1.563214,1.563214 0 0 1 -0.258298,0 0.316962,0.316962 0 0 0 -0.137305,0.019 0.943345,0.943345 0 0 0 -0.154978,0.075 0.110472,0.110472 0 0 1 -0.166619,-0.1074 1.09157,1.09157 0 0 0 0,-0.2508 0.064356,0.064356 0 0 1 0.04707,-0.07 0.564344,0.564344 0 0 0 0.191174,-0.093 0.467741,0.467741 0 0 1 0.236246,-0.092 0.579141,0.579141 0 0 0 0.02761,-0.2995 1.004724,1.004724 0 0 0 0.188652,-0.2843 3.535073,3.535073 0 0 1 0.391096,-0.6744 2.066605,2.066605 0 0 0 0.403945,-1.2002 53.83343,53.83343 0 0 1 0.02365,-1.0348 1.566902,1.566902 0 0 0 -0.110833,-0.6318 4.853697,4.853697 0 0 1 -0.214135,-0.6762 0.410244,0.410244 0 0 0 -0.125047,-0.2104 6.055947,6.055947 0 0 0 -0.220381,-0.1885 1.10048,1.10048 0 0 1 -0.207105,-0.223 0.988296,0.988296 0 0 0 -0.517778,-0.3782 0.290855,0.290855 0 0 1 -0.195403,-0.024 0.54577,0.54577 0 0 0 -0.299081,-0.2566 1.27052,1.27052 0 0 1 -0.370453,-0.01 0.192473,0.192473 0 0 0 -0.146142,-0.095 5.154441,5.154441 0 0 0 -0.748234,-0.026 0.938466,0.938466 0 0 0 -0.228886,0.037 3.244017,3.244017 0 0 1 -0.726793,0.1263 0.714545,0.714545 0 0 0 -0.482183,0.2273 0.668544,0.668544 0 0 1 -0.405405,0.2084 1.072212,1.072212 0 0 1 -0.354734,0.1912 0.42753,0.42753 0 0 1 -0.36323,0.2145 1.149419,1.149419 0 0 1 -0.398187,0.3394 0.166475,0.166475 0 0 0 -0.08972,0.136 0.147827,0.147827 0 0 1 -0.08021,0.121 1.450195,1.450195 0 0 0 -0.252251,0.1638 0.642161,0.642161 0 0 1 -0.385168,0.1426 0.137151,0.137151 0 0 0 -0.132025,0.1548 0.165611,0.165611 0 0 1 0.09516,0.052 0.600257,0.600257 0 0 0 0.07936,0.072 0.146992,0.146992 0 0 0 0.110117,0.029 0.085118,0.085118 0 0 1 0.0843,0.1294 0.438489,0.438489 0 0 0 -0.02747,0.4149 0.340335,0.340335 0 0 1 0.149541,-0.071 0.033502,0.033502 0 0 1 0.0308,0.056 0.60934,0.60934 0 0 0 -0.167281,0.3927 10.038717,10.038717 0 0 0 0,0.9011 0.305416,0.305416 0 0 0 0.08947,0.2026 0.184363,0.184363 0 0 1 0.0531,0.1105 1.952201,1.952201 0 0 1 0,0.4238 0.396211,0.396211 0 0 1 -0.15262,0.2712 0.287743,0.287743 0 0 0 -0.111688,0.2504 0.913968,0.913968 0 0 0 0.07344,0.295 0.194841,0.194841 0 0 0 0.184547,0.1169 0.086758,0.086758 0 0 1 0.08905,0.079 0.426287,0.426287 0 0 1 -0.02549,0.1886 0.143335,0.143335 0 0 0 0.03229,0.1512 0.248984,0.248984 0 0 1 0.06995,0.1433 0.300144,0.300144 0 0 0 0.01774,0.1865 0.43318,0.43318 0 0 0 0.149685,0.1822 0.100519,0.100519 0 0 1 0.04194,0.067 0.89134,0.89134 0 0 1 0,0.2761 0.371963,0.371963 0 0 0 0.348361,0.429 9.904476,9.904476 0 0 0 1.193776,-0.011 0.509518,0.509518 0 0 0 0.111012,0.2531 0.135899,0.135899 0 0 1 0,0.1726 34.201512,34.201512 0 0 1 -0.350486,0.4195 0.908114,0.908114 0 0 0 -0.202812,0.4343 0.108954,0.108954 0 0 1 -0.0515,0.075 0.597802,0.597802 0 0 0 -0.186271,0.1893 0.546737,0.546737 0 0 1 -0.172056,0.1742 0.632561,0.632561 0 0 0 -0.284239,0.4262 2.568281,2.568281 0 0 0 -0.03758,0.4399 0.930803,0.930803 0 0 1 -0.09049,0.4011 3.281084,3.281084 0 0 0 -0.311869,1.1951 23.279306,23.279306 0 0 0 -0.03403,2.4105 h 7.249644 z" />
      </g>
    </g>
    <text
       xml:space="preserve"
       style="font-style:normal;font-weight:normal;font-size:10.58333397px;line-height:55.95620346px;font-family:sans-serif;letter-spacing:0px;word-spacing:0px;fill:#000000;fill-opacity:1;stroke:none;stroke-width:0.33948463"
       x="224.67177"
       y="-84.651108"
       id="text80"><tspan
         sodipodi:role="line"
         id="tspan78"
         x="224.67177"
         y="-53.92382"
         style="stroke-width:0.33948463" /></text>
    <text
       xml:space="preserve"
       style="font-style:normal;font-variant:normal;font-weight:normal;font-stretch:normal;font-size:75.19454193px;line-height:90.23343658px;font-family:Tahoma;-inkscape-font-specification:Tahoma;letter-spacing:0px;word-spacing:0px;fill:#767474;fill-opacity:1;stroke:#000000;stroke-width:1.66824722;stroke-miterlimit:4;stroke-dasharray:none"
       x="206.11711"
       y="83.17971"
       id="text84"><tspan
         sodipodi:role="line"
         x="206.11711"
         y="83.17971"
         style="line-height:90.23343658px;fill:#767474;fill-opacity:1;stroke:#000000;stroke-width:1.66824722;stroke-miterlimit:4;stroke-dasharray:none"
         id="tspan90">Lighting</tspan><tspan
         sodipodi:role="line"
         x="206.11711"
         y="173.41315"
         style="line-height:90.23343658px;fill:#767474;fill-opacity:1;stroke:#000000;stroke-width:1.66824722;stroke-miterlimit:4;stroke-dasharray:none"
         id="tspan94">Showroom</tspan></text>
  </g>
  <text
     xml:space="preserve"
     style="font-style:normal;font-variant:normal;font-weight:normal;font-stretch:normal;font-size:7.05555534px;line-height:1.25;font-family:Tahoma;-inkscape-font-specification:Tahoma;letter-spacing:0px;word-spacing:0px;fill:#000000;fill-opacity:1;stroke:none;stroke-width:0.26458335"
     x="-276.72"
     y="-11.23496"
     id="text1653"><tspan
       sodipodi:role="line"
       id="tspan1651"
       x="-276.72"
       y="-11.23496"
       style="stroke-width:0.26458335"> </tspan></text>
  <text
     xml:space="preserve"
     style="font-style:normal;font-variant:normal;font-weight:normal;font-stretch:normal;font-size:7.05555534px;line-height:1.25;font-family:Tahoma;-inkscape-font-specification:Tahoma;letter-spacing:0px;word-spacing:0px;fill:#000000;fill-opacity:1;stroke:none;stroke-width:0.26458335"
     x="432.86914"
     y="290.19217"
     id="text1663"><tspan
       sodipodi:role="line"
       id="tspan1661"
       x="432.86914"
       y="290.19217"
       style="stroke-width:0.26458335"> </tspan></text>
</svg>
