<?xml version="1.0" encoding="UTF-8" standalone="no"?>
<svg
   xmlns:osb="http://www.openswatchbook.org/uri/2009/osb"
   xmlns:dc="http://purl.org/dc/elements/1.1/"
   xmlns:cc="http://creativecommons.org/ns#"
   xmlns:rdf="http://www.w3.org/1999/02/22-rdf-syntax-ns#"
   xmlns:svg="http://www.w3.org/2000/svg"
   xmlns="http://www.w3.org/2000/svg"
   xmlns:xlink="http://www.w3.org/1999/xlink"
   id="svg1995"
   version="1.1"
   viewBox="0 0 32.39867 16.02046"
   height="16.02046mm"
   width="32.39867mm">
  <defs
     id="defs1989">
    <linearGradient
       gradientTransform="translate(-4.5)"
       y2="38.391376"
       x2="596.6767"
       y1="38.391376"
       x1="504.83792"
       gradientUnits="userSpaceOnUse"
       id="linearGradient7353"
       xlink:href="#linearGradient7260" />
    <linearGradient
       osb:paint="solid"
       id="linearGradient7260">
      <stop
         id="stop7258"
         offset="0"
         style="stop-color:#7ec142;stop-opacity:1;" />
    </linearGradient>
    <linearGradient
       y2="43.238213"
       x2="515.20532"
       y1="43.238213"
       x1="462.83377"
       gradientTransform="translate(-5.6334448,-0.83143256)"
       gradientUnits="userSpaceOnUse"
       id="linearGradient1126"
       xlink:href="#linearGradient7294" />
    <linearGradient
       osb:paint="solid"
       id="linearGradient7294">
      <stop
         id="stop7292"
         offset="0"
         style="stop-color:#ffffff;stop-opacity:1;" />
    </linearGradient>
    <linearGradient
       y2="43.238213"
       x2="514.72522"
       y1="43.238213"
       x1="463.31387"
       gradientTransform="translate(-5.6334448,-0.83143256)"
       gradientUnits="userSpaceOnUse"
       id="linearGradient1128"
       xlink:href="#linearGradient7306" />
    <linearGradient
       osb:paint="solid"
       id="linearGradient7306">
      <stop
         id="stop7304"
         offset="0"
         style="stop-color:#000000;stop-opacity:1;" />
    </linearGradient>
    <linearGradient
       y2="43.238213"
       x2="515.20532"
       y1="43.238213"
       x1="462.83377"
       gradientTransform="translate(-5.6334448,-0.83143256)"
       gradientUnits="userSpaceOnUse"
       id="linearGradient2135"
       xlink:href="#linearGradient7294" />
    <linearGradient
       y2="43.238213"
       x2="514.72522"
       y1="43.238213"
       x1="463.31387"
       gradientTransform="translate(-5.6334448,-0.83143256)"
       gradientUnits="userSpaceOnUse"
       id="linearGradient2137"
       xlink:href="#linearGradient7306" />
    <linearGradient
       y2="43.238213"
       x2="515.20532"
       y1="43.238213"
       x1="462.83377"
       gradientTransform="translate(-5.6334448,-0.83143256)"
       gradientUnits="userSpaceOnUse"
       id="linearGradient2139"
       xlink:href="#linearGradient7294" />
    <linearGradient
       y2="43.238213"
       x2="514.72522"
       y1="43.238213"
       x1="463.31387"
       gradientTransform="translate(-5.6334448,-0.83143256)"
       gradientUnits="userSpaceOnUse"
       id="linearGradient2141"
       xlink:href="#linearGradient7306" />
    <linearGradient
       y2="43.238213"
       x2="515.20532"
       y1="43.238213"
       x1="462.83377"
       gradientTransform="translate(-5.6334448,-0.83143256)"
       gradientUnits="userSpaceOnUse"
       id="linearGradient2143"
       xlink:href="#linearGradient7294" />
    <linearGradient
       y2="43.238213"
       x2="514.72522"
       y1="43.238213"
       x1="463.31387"
       gradientTransform="translate(-5.6334448,-0.83143256)"
       gradientUnits="userSpaceOnUse"
       id="linearGradient2145"
       xlink:href="#linearGradient7306" />
  </defs>
  <metadata
     id="metadata1992">
    <rdf:RDF>
      <cc:Work
         rdf:about="">
        <dc:format>image/svg+xml</dc:format>
        <dc:type
           rdf:resource="http://purl.org/dc/dcmitype/StillImage" />
        <dc:title></dc:title>
      </cc:Work>
    </rdf:RDF>
  </metadata>
  <g
     transform="translate(-63.175664,-211.88263)"
     id="layer1">
    <g
       id="g1876"
       transform="matrix(0.35277777,0,0,0.35277777,-60.405256,183.11578)">
      <g
         id="g7351"
         transform="translate(-150.0298,65.858621)">
        <path
           style="fill:url(#linearGradient7353);fill-opacity:1;stroke:#1a1a1a;stroke-width:0.28252459;stroke-miterlimit:4;stroke-dasharray:none;stroke-opacity:1"
           d="m 504.0489,15.826473 h 84.41681 c 1.97762,0 3.56971,1.592092 3.56971,3.569712 v 37.990379 c 0,1.977621 -1.59209,3.569712 -3.56971,3.569712 H 504.0489 c -1.97762,0 -3.56971,-1.592091 -3.56971,-3.569712 V 19.396185 c 0,-1.97762 1.59209,-3.569712 3.56971,-3.569712 z"
           id="rect7333" />
        <path
           style="fill:#ffffff;fill-opacity:1;stroke:#000000;stroke-width:0.28125;stroke-linejoin:round;stroke-miterlimit:4;stroke-dasharray:none;stroke-opacity:1"
           d="m 504.09442,16.907534 h 84.30426 c 1.42675,0 2.57535,1.148604 2.57535,2.575346 v 5.863855 c 0,1.426742 -1.1486,2.575347 -2.57535,2.575347 h -84.30426 c -1.42674,0 -2.57535,-1.148605 -2.57535,-2.575347 V 19.48288 c 0,-1.426742 1.14861,-2.575346 2.57535,-2.575346 z"
           id="rect7335" />
        <g
           aria-label="Certified"
           style="font-style:normal;font-variant:normal;font-weight:normal;font-stretch:normal;font-size:10px;line-height:1.25;font-family:Tahoma;-inkscape-font-specification:Tahoma;letter-spacing:0px;word-spacing:0px;fill:#000000;fill-opacity:1;stroke:none;stroke-width:0.75"
           id="text7339">
          <path
             d="m 531.59814,26.294203 q -0.71289,0 -1.31347,-0.239258 -0.59571,-0.239258 -1.03028,-0.712891 -0.43457,-0.473632 -0.67382,-1.18164 -0.23926,-0.708008 -0.23926,-1.625977 0,-0.913086 0.22949,-1.591797 0.23438,-0.678711 0.67871,-1.18164 0.43457,-0.488282 1.03028,-0.742188 0.5957,-0.258789 1.333,-0.258789 0.36621,0 0.6836,0.05371 0.32226,0.05371 0.5957,0.136719 0.23437,0.07324 0.47852,0.185547 0.24902,0.107422 0.48828,0.239257 v 1.166993 h -0.0781 q -0.12695,-0.117188 -0.32715,-0.283203 -0.20019,-0.166016 -0.48828,-0.327149 -0.27832,-0.151367 -0.60547,-0.249023 -0.32715,-0.09766 -0.75683,-0.09766 -0.46387,0 -0.87891,0.19043 -0.41504,0.19043 -0.72754,0.561524 -0.30762,0.371093 -0.47851,0.932617 -0.1709,0.561523 -0.1709,1.264648 0,0.74707 0.18066,1.289063 0.18067,0.537109 0.49317,0.908203 0.30273,0.361328 0.71289,0.546875 0.41015,0.180664 0.86914,0.180664 0.41992,0 0.77636,-0.102539 0.35645,-0.102539 0.63477,-0.258789 0.26855,-0.151367 0.46387,-0.307617 0.19531,-0.161133 0.30761,-0.273438 h 0.0733 v 1.152344 q -0.23926,0.112304 -0.4541,0.214844 -0.20997,0.102539 -0.5127,0.200195 -0.31738,0.102539 -0.59082,0.15625 -0.26856,0.05371 -0.70313,0.05371 z"
             style="stroke-width:0.75"
             id="path1319" />
          <path
             d="m 537.06689,26.28932 q -1.30371,0 -2.02636,-0.732422 -0.71778,-0.737305 -0.71778,-2.089844 0,-1.333007 0.69825,-2.11914 0.69824,-0.791016 1.82617,-0.791016 0.50781,0 0.89844,0.146484 0.39062,0.146485 0.68359,0.458985 0.29297,0.3125 0.44922,0.766601 0.15625,0.449219 0.15625,1.103516 v 0.498047 h -3.7793 q 0,0.952148 0.47852,1.455078 0.47851,0.50293 1.32324,0.50293 0.30273,0 0.59082,-0.06836 0.29297,-0.06836 0.52734,-0.175781 0.24903,-0.112305 0.41992,-0.214844 0.1709,-0.107422 0.28321,-0.200195 h 0.0537 v 1.000977 q -0.16113,0.06348 -0.40039,0.161132 -0.23926,0.09277 -0.42969,0.146485 -0.26855,0.07324 -0.48828,0.112304 -0.21484,0.03906 -0.54688,0.03906 z m 1.07422,-3.461914 q -0.01,-0.371094 -0.0879,-0.639649 -0.0781,-0.268554 -0.22461,-0.454101 -0.16113,-0.205078 -0.41504,-0.3125 -0.24902,-0.107422 -0.62011,-0.107422 -0.36621,0 -0.625,0.112305 -0.25391,0.107422 -0.46387,0.317383 -0.20508,0.214843 -0.3125,0.478515 -0.10742,0.258789 -0.13672,0.605469 z"
             style="stroke-width:0.75"
             id="path1321" />
          <path
             d="m 542.86279,21.694593 h -0.0488 q -0.10253,-0.0293 -0.21972,-0.03418 -0.11231,-0.0098 -0.27344,-0.0098 -0.37109,0 -0.7373,0.161133 -0.36621,0.161133 -0.69336,0.478516 v 3.87207 H 539.9722 V 20.70823 h 0.91797 v 0.810547 q 0.50293,-0.444336 0.87402,-0.625 0.37598,-0.185547 0.72754,-0.185547 0.1416,0 0.20996,0.0098 0.0732,0.0049 0.16113,0.01953 z"
             style="stroke-width:0.75"
             id="path1323" />
          <path
             d="m 545.23584,26.269789 q -0.75195,0 -1.17188,-0.424805 -0.41992,-0.429687 -0.41992,-1.352539 v -3.022461 h -0.62011 v -0.761719 h 0.62011 v -1.567383 h 0.91797 v 1.567383 h 1.68945 v 0.761719 h -1.68945 v 2.592773 q 0,0.41504 0.0146,0.639649 0.0147,0.224609 0.1123,0.419922 0.083,0.170898 0.26856,0.258789 0.18555,0.08301 0.50293,0.08301 0.22461,0 0.43457,-0.06348 0.20996,-0.06836 0.30273,-0.112305 h 0.0537 v 0.825196 q -0.25878,0.07324 -0.52734,0.112304 -0.26367,0.04395 -0.48828,0.04395 z"
             style="stroke-width:0.75"
             id="path1325" />
          <path
             d="m 547.86279,26.162367 h -0.91797 v -5.454102 h 0.91797 z m 0.0635,-6.367188 h -1.04492 v -0.952148 h 1.04492 z"
             style="stroke-width:0.75"
             id="path1327" />
          <path
             d="m 552.08154,19.443617 h -0.0488 q -0.12207,-0.04395 -0.35156,-0.08301 -0.22949,-0.04395 -0.41015,-0.04395 -0.58106,0 -0.83008,0.263672 -0.24414,0.258789 -0.24414,0.942382 v 0.185547 h 1.51855 v 0.761719 h -1.48926 v 4.692383 h -0.91796 v -4.692383 h -0.62012 v -0.761719 h 0.62012 v -0.180664 q 0,-0.986328 0.47363,-1.499023 0.47363,-0.512696 1.35742,-0.512696 0.25391,0 0.49805,0.0293 0.24414,0.02441 0.44433,0.05859 z"
             style="stroke-width:0.75"
             id="path1329" />
          <path
             d="m 553.33154,26.162367 h -0.91797 v -5.454102 h 0.91797 z m 0.0635,-6.367188 h -1.04492 v -0.952148 h 1.04492 z"
             style="stroke-width:0.75"
             id="path1331" />
          <path
             d="m 557.04736,26.28932 q -1.30371,0 -2.02636,-0.732422 -0.71778,-0.737305 -0.71778,-2.089844 0,-1.333007 0.69824,-2.11914 0.69825,-0.791016 1.82618,-0.791016 0.50781,0 0.89843,0.146484 0.39063,0.146485 0.6836,0.458985 0.29297,0.3125 0.44922,0.766601 0.15625,0.449219 0.15625,1.103516 v 0.498047 h -3.7793 q 0,0.952148 0.47852,1.455078 0.47851,0.50293 1.32324,0.50293 0.30273,0 0.59082,-0.06836 0.29297,-0.06836 0.52734,-0.175781 0.24903,-0.112305 0.41992,-0.214844 0.1709,-0.107422 0.28321,-0.200195 h 0.0537 v 1.000977 q -0.16114,0.06348 -0.40039,0.161132 -0.23926,0.09277 -0.42969,0.146485 -0.26856,0.07324 -0.48828,0.112304 -0.21485,0.03906 -0.54688,0.03906 z m 1.07422,-3.461914 q -0.01,-0.371094 -0.0879,-0.639649 -0.0781,-0.268554 -0.22461,-0.454101 -0.16113,-0.205078 -0.41504,-0.3125 -0.24902,-0.107422 -0.62011,-0.107422 -0.36622,0 -0.625,0.112305 -0.25391,0.107422 -0.46387,0.317383 -0.20508,0.214843 -0.3125,0.478515 -0.10742,0.258789 -0.13672,0.605469 z"
             style="stroke-width:0.75"
             id="path1333" />
          <path
             d="m 564.15186,26.162367 h -0.91797 v -0.556641 q -0.21485,0.180664 -0.3711,0.297852 -0.15625,0.117187 -0.36621,0.214844 -0.19531,0.09277 -0.40527,0.141601 -0.20996,0.05371 -0.48828,0.05371 -0.44434,0 -0.8252,-0.185547 -0.37597,-0.185547 -0.63965,-0.541992 -0.26855,-0.361328 -0.41504,-0.888672 -0.14648,-0.532226 -0.14648,-1.220703 0,-0.717773 0.18555,-1.240234 0.18554,-0.527344 0.51269,-0.917969 0.29785,-0.356445 0.71778,-0.556641 0.4248,-0.205078 0.88867,-0.205078 0.41015,0 0.71289,0.09277 0.30273,0.08789 0.63965,0.27832 v -2.363281 h 0.91797 z m -0.91797,-1.328125 v -3.144531 q -0.3418,-0.166016 -0.61524,-0.229493 -0.26855,-0.06348 -0.58594,-0.06348 -0.708,0 -1.10839,0.532226 -0.40039,0.527344 -0.40039,1.528321 0,0.961914 0.30761,1.474609 0.30762,0.507813 0.98633,0.507813 0.36133,0 0.72754,-0.161133 0.36621,-0.166016 0.68848,-0.444336 z"
             style="stroke-width:0.75"
             id="path1335" />
        </g>
        <path
           style="fill:#ffffff;fill-opacity:1;stroke:#000000;stroke-width:0.28125;stroke-linejoin:round;stroke-miterlimit:4;stroke-dasharray:none;stroke-opacity:1"
           d="m 504.09442,48.921356 h 84.30426 c 1.42675,0 2.57535,1.148605 2.57535,2.575347 v 5.863855 c 0,1.426742 -1.1486,2.575347 -2.57535,2.575347 h -84.30426 c -1.42674,0 -2.57535,-1.148605 -2.57535,-2.575347 v -5.863855 c 0,-1.426742 1.14861,-2.575347 2.57535,-2.575347 z"
           id="rect7341" />
        <g
           aria-label="Minority Business Enterprise"
           style="font-style:normal;font-variant:normal;font-weight:normal;font-stretch:normal;font-size:6.72106028px;line-height:1.25;font-family:Tahoma;-inkscape-font-specification:Tahoma;letter-spacing:0px;word-spacing:0px;fill:#000000;fill-opacity:1;stroke:none;stroke-width:0.50407952"
           id="text7345">
          <path
             d="m 509.06248,56.212273 h -0.64979 v -4.210508 l -1.27333,2.864983 h -0.39381 l -1.26348,-2.864983 v 4.210508 h -0.60713 v -4.886552 h 0.88608 l 1.22082,2.720585 1.17815,-2.720585 h 0.90249 z"
             style="stroke-width:0.50407952"
             id="path1339" />
          <path
             d="m 510.64101,56.212273 h -0.61697 v -3.665735 h 0.61697 z m 0.0427,-4.279425 h -0.7023 v -0.639945 h 0.7023 z"
             style="stroke-width:0.50407952"
             id="path1341" />
          <path
             d="m 514.42817,56.212273 h -0.61698 v -2.087205 q 0,-0.252696 -0.0263,-0.469292 -0.023,-0.219879 -0.0919,-0.35115 -0.0755,-0.137834 -0.21003,-0.203469 -0.13455,-0.06892 -0.36756,-0.06892 -0.22972,0 -0.47586,0.124707 -0.24285,0.121425 -0.47585,0.318331 v 2.736995 h -0.61697 v -3.665735 h 0.61697 v 0.406939 q 0.27567,-0.246132 0.54477,-0.377403 0.26911,-0.131271 0.56775,-0.131271 0.54149,0 0.84669,0.357713 0.30521,0.354431 0.30521,1.030475 z"
             style="stroke-width:0.50407952"
             id="path1343" />
          <path
             d="m 518.31706,54.381046 q 0,0.925459 -0.44632,1.430851 -0.44632,0.50211 -1.188,0.50211 -0.76465,0 -1.20441,-0.518519 -0.43647,-0.521801 -0.43647,-1.414442 0,-0.918895 0.4496,-1.427569 0.45288,-0.508674 1.19128,-0.508674 0.74168,0 1.188,0.508674 0.44632,0.505393 0.44632,1.427569 z m -0.63666,0 q 0,-0.712143 -0.25926,-1.056729 -0.25926,-0.347867 -0.7384,-0.347867 -0.48242,0 -0.74496,0.347867 -0.25926,0.344586 -0.25926,1.056729 0,0.689171 0.25926,1.046884 0.26254,0.354431 0.74496,0.354431 0.47586,0 0.73512,-0.347867 0.26254,-0.351149 0.26254,-1.053448 z"
             style="stroke-width:0.50407952"
             id="path1345" />
          <path
             d="m 520.89325,53.209455 h -0.0328 q -0.0689,-0.01969 -0.14768,-0.02297 -0.0755,-0.0066 -0.18378,-0.0066 -0.24941,0 -0.49554,0.108299 -0.24614,0.108298 -0.46601,0.321613 v 2.602442 h -0.61698 v -3.665735 h 0.61698 v 0.544774 q 0.33802,-0.298641 0.58743,-0.420067 0.2527,-0.124707 0.48899,-0.124707 0.0952,0 0.14111,0.0066 0.0492,0.0033 0.1083,0.01313 z"
             style="stroke-width:0.50407952"
             id="path1347" />
          <path
             d="m 522.00905,56.212273 h -0.61697 v -3.665735 h 0.61697 z m 0.0427,-4.279425 h -0.70229 v -0.639945 h 0.70229 z"
             style="stroke-width:0.50407952"
             id="path1349" />
          <path
             d="m 524.02406,56.284472 q -0.5054,0 -0.78763,-0.285514 -0.28223,-0.288796 -0.28223,-0.90905 v -2.031414 h -0.41678 v -0.511956 h 0.41678 v -1.053447 h 0.61697 v 1.053447 h 1.13549 v 0.511956 h -1.13549 v 1.742619 q 0,0.27895 0.01,0.429911 0.01,0.150961 0.0755,0.282232 0.0558,0.114862 0.1805,0.173934 0.1247,0.05579 0.33802,0.05579 0.15096,0 0.29207,-0.04266 0.14112,-0.04594 0.20347,-0.07548 h 0.0361 v 0.554619 q -0.17393,0.04923 -0.35443,0.07548 -0.17721,0.02954 -0.32817,0.02954 z"
             style="stroke-width:0.50407952"
             id="path1351" />
          <path
             d="m 528.04094,52.546538 -1.97234,5.017823 h -0.65964 l 0.65635,-1.529304 -1.33239,-3.488519 h 0.6662 l 1.00093,2.714022 0.99766,-2.714022 z"
             style="stroke-width:0.50407952"
             id="path1353" />
          <path
             d="m 533.97109,54.712505 q 0,0.364276 -0.13783,0.643226 -0.13784,0.278951 -0.37084,0.459448 -0.27567,0.216596 -0.59072,0.308486 -0.31505,0.08861 -0.81388,0.08861 h -1.40131 v -4.886552 h 1.2963 q 0.5218,0 0.78106,0.0361 0.26254,0.03282 0.50211,0.160807 0.26254,0.141116 0.38396,0.370839 0.12143,0.226442 0.12143,0.534928 0,0.344586 -0.18378,0.616973 -0.1805,0.272387 -0.50211,0.42663 v 0.02625 q 0.43648,0.118143 0.67604,0.433193 0.23957,0.311768 0.23957,0.781062 z m -0.90576,-2.192221 q 0,-0.177215 -0.0591,-0.305204 -0.0591,-0.131271 -0.19034,-0.206752 -0.15752,-0.08861 -0.35115,-0.108298 -0.19362,-0.01969 -0.53493,-0.01969 h -0.62353 v 1.430851 h 0.7384 q 0.3052,0 0.4496,-0.02954 0.1444,-0.03282 0.29864,-0.131271 0.14768,-0.09517 0.21003,-0.249414 0.0624,-0.154243 0.0624,-0.380685 z m 0.22972,2.218475 q 0,-0.275669 -0.0788,-0.452884 -0.0788,-0.180497 -0.31833,-0.305204 -0.15425,-0.08205 -0.33803,-0.105017 -0.18049,-0.02297 -0.51523,-0.02297 h -0.7384 v 1.804972 h 0.52836 q 0.42663,0 0.67277,-0.03938 0.24613,-0.03938 0.43319,-0.16737 0.18378,-0.127989 0.2691,-0.288796 0.0853,-0.164088 0.0853,-0.423348 z"
             style="stroke-width:0.50407952"
             id="path1355" />
          <path
             d="m 537.4268,56.212273 h -0.61698 v -0.40694 q -0.28551,0.249415 -0.54149,0.380686 -0.25598,0.127988 -0.57103,0.127988 -0.23956,0 -0.45288,-0.07876 -0.21003,-0.07876 -0.36756,-0.249414 -0.15752,-0.170652 -0.24613,-0.429912 -0.0853,-0.25926 -0.0853,-0.630099 V 52.54654 h 0.61698 v 2.087204 q 0,0.292078 0.0197,0.485702 0.023,0.190343 0.0985,0.33474 0.0755,0.141116 0.20347,0.206752 0.13127,0.06564 0.37412,0.06564 0.22644,0 0.48242,-0.127989 0.25598,-0.127989 0.46929,-0.31505 v -2.736994 h 0.61698 z"
             style="stroke-width:0.50407952"
             id="path1357" />
          <path
             d="m 539.31709,56.30088 q -0.36755,0 -0.68917,-0.09845 -0.31833,-0.09845 -0.52836,-0.210033 v -0.692453 h 0.0328 q 0.0788,0.06235 0.18378,0.137834 0.10829,0.07548 0.28551,0.157525 0.15752,0.0722 0.34459,0.127989 0.19034,0.05579 0.39381,0.05579 0.14768,0 0.31505,-0.03282 0.16737,-0.0361 0.24941,-0.08861 0.11486,-0.07548 0.16409,-0.160807 0.0525,-0.08533 0.0525,-0.255978 0,-0.219878 -0.12143,-0.331458 -0.11814,-0.11158 -0.42335,-0.187061 -0.11814,-0.02954 -0.30848,-0.06892 -0.19034,-0.03938 -0.35115,-0.08533 -0.42007,-0.121425 -0.61041,-0.374121 -0.19034,-0.255978 -0.19034,-0.616973 0,-0.495547 0.37412,-0.807315 0.37412,-0.311768 0.99438,-0.311768 0.3052,0 0.61369,0.07548 0.30848,0.07548 0.51851,0.190343 v 0.659635 h -0.0328 q -0.23629,-0.187061 -0.52837,-0.295359 -0.28879,-0.108299 -0.58415,-0.108299 -0.30521,0 -0.51524,0.127989 -0.21003,0.127989 -0.21003,0.387249 0,0.229724 0.1247,0.344586 0.12471,0.11158 0.40038,0.183779 0.13783,0.0361 0.3052,0.0722 0.17066,0.03282 0.35772,0.07876 0.40694,0.101735 0.61041,0.338022 0.20675,0.236287 0.20675,0.643226 0,0.236288 -0.0952,0.449603 -0.0919,0.210033 -0.27239,0.360994 -0.19691,0.164088 -0.44632,0.249414 -0.24613,0.08533 -0.62026,0.08533 z"
             style="stroke-width:0.50407952"
             id="path1359" />
          <path
             d="m 541.9622,56.212273 h -0.61697 v -3.665735 h 0.61697 z m 0.0427,-4.279425 h -0.7023 v -0.639945 h 0.7023 z"
             style="stroke-width:0.50407952"
             id="path1361" />
          <path
             d="m 545.74936,56.212273 h -0.61697 v -2.087205 q 0,-0.252696 -0.0263,-0.469292 -0.023,-0.219879 -0.0919,-0.35115 -0.0755,-0.137834 -0.21003,-0.203469 -0.13455,-0.06892 -0.36756,-0.06892 -0.22972,0 -0.47585,0.124707 -0.24286,0.121425 -0.47586,0.318331 v 2.736995 h -0.61697 v -3.665735 h 0.61697 v 0.406939 q 0.27567,-0.246132 0.54477,-0.377403 0.26911,-0.131271 0.56775,-0.131271 0.54149,0 0.84669,0.357713 0.30521,0.354431 0.30521,1.030475 z"
             style="stroke-width:0.50407952"
             id="path1363" />
          <path
             d="m 548.21396,56.297599 q -0.87623,0 -1.36193,-0.492266 -0.48242,-0.495546 -0.48242,-1.404596 0,-0.895923 0.46929,-1.424287 0.4693,-0.531647 1.22739,-0.531647 0.3413,0 0.60384,0.09845 0.26254,0.09845 0.45945,0.308487 0.1969,0.210033 0.30192,0.515237 0.10502,0.301923 0.10502,0.74168 v 0.33474 h -2.54009 q 0,0.639945 0.32161,0.977967 0.32162,0.338022 0.88936,0.338022 0.20347,0 0.3971,-0.04594 0.1969,-0.04595 0.35443,-0.118144 0.16737,-0.07548 0.28223,-0.144397 0.11486,-0.0722 0.19034,-0.134553 h 0.0361 v 0.672762 q -0.1083,0.04266 -0.2691,0.108299 -0.16081,0.06235 -0.2888,0.09845 -0.1805,0.04923 -0.32818,0.07548 -0.14439,0.02625 -0.36756,0.02625 z m 0.72199,-2.326774 q -0.007,-0.249414 -0.0591,-0.429911 -0.0525,-0.180497 -0.15096,-0.305205 -0.1083,-0.137834 -0.27895,-0.210033 -0.16737,-0.0722 -0.41678,-0.0722 -0.24614,0 -0.42007,0.07548 -0.17065,0.0722 -0.31177,0.213315 -0.13783,0.144398 -0.21003,0.321613 -0.0722,0.173934 -0.0919,0.406939 z"
             style="stroke-width:0.50407952"
             id="path1365" />
          <path
             d="m 551.15771,56.30088 q -0.36755,0 -0.68917,-0.09845 -0.31833,-0.09845 -0.52836,-0.210033 v -0.692453 h 0.0328 q 0.0788,0.06235 0.18378,0.137834 0.1083,0.07548 0.28552,0.157525 0.15752,0.0722 0.34458,0.127989 0.19035,0.05579 0.39382,0.05579 0.14767,0 0.31505,-0.03282 0.16737,-0.0361 0.24941,-0.08861 0.11486,-0.07548 0.16409,-0.160807 0.0525,-0.08533 0.0525,-0.255978 0,-0.219878 -0.12143,-0.331458 -0.11814,-0.11158 -0.42335,-0.187061 -0.11814,-0.02954 -0.30848,-0.06892 -0.19035,-0.03938 -0.35115,-0.08533 -0.42007,-0.121425 -0.61041,-0.374121 -0.19034,-0.255978 -0.19034,-0.616973 0,-0.495547 0.37412,-0.807315 0.37412,-0.311768 0.99437,-0.311768 0.30521,0 0.61369,0.07548 0.30849,0.07548 0.51852,0.190343 v 0.659635 h -0.0328 q -0.23629,-0.187061 -0.52837,-0.295359 -0.28879,-0.108299 -0.58415,-0.108299 -0.30521,0 -0.51524,0.127989 -0.21003,0.127989 -0.21003,0.387249 0,0.229724 0.1247,0.344586 0.12471,0.11158 0.40038,0.183779 0.13783,0.0361 0.3052,0.0722 0.17065,0.03282 0.35772,0.07876 0.40693,0.101735 0.6104,0.338022 0.20676,0.236287 0.20676,0.643226 0,0.236288 -0.0952,0.449603 -0.0919,0.210033 -0.27238,0.360994 -0.19691,0.164088 -0.44632,0.249414 -0.24614,0.08533 -0.62026,0.08533 z"
             style="stroke-width:0.50407952"
             id="path1367" />
          <path
             d="m 554.16381,56.30088 q -0.36756,0 -0.68917,-0.09845 -0.31833,-0.09845 -0.52836,-0.210033 v -0.692453 h 0.0328 q 0.0788,0.06235 0.18378,0.137834 0.1083,0.07548 0.28552,0.157525 0.15752,0.0722 0.34458,0.127989 0.19035,0.05579 0.39382,0.05579 0.14767,0 0.31504,-0.03282 0.16737,-0.0361 0.24942,-0.08861 0.11486,-0.07548 0.16409,-0.160807 0.0525,-0.08533 0.0525,-0.255978 0,-0.219878 -0.12143,-0.331458 -0.11814,-0.11158 -0.42335,-0.187061 -0.11814,-0.02954 -0.30848,-0.06892 -0.19035,-0.03938 -0.35115,-0.08533 -0.42007,-0.121425 -0.61041,-0.374121 -0.19034,-0.255978 -0.19034,-0.616973 0,-0.495547 0.37412,-0.807315 0.37412,-0.311768 0.99437,-0.311768 0.30521,0 0.61369,0.07548 0.30849,0.07548 0.51852,0.190343 v 0.659635 h -0.0328 q -0.23629,-0.187061 -0.52837,-0.295359 -0.2888,-0.108299 -0.58415,-0.108299 -0.30521,0 -0.51524,0.127989 -0.21003,0.127989 -0.21003,0.387249 0,0.229724 0.1247,0.344586 0.12471,0.11158 0.40038,0.183779 0.13783,0.0361 0.3052,0.0722 0.17065,0.03282 0.35772,0.07876 0.40693,0.101735 0.6104,0.338022 0.20676,0.236287 0.20676,0.643226 0,0.236288 -0.0952,0.449603 -0.0919,0.210033 -0.27238,0.360994 -0.19691,0.164088 -0.44632,0.249414 -0.24614,0.08533 -0.62026,0.08533 z"
             style="stroke-width:0.50407952"
             id="path1369" />
          <path
             d="m 558.32838,56.212273 v -4.886552 h 3.05532 v 0.577591 h -2.40553 v 1.338961 h 2.24144 v 0.577591 h -2.24144 v 1.814818 h 2.40553 v 0.577591 z"
             style="stroke-width:0.50407952"
             id="path1371" />
          <path
             d="m 564.92801,56.212273 h -0.61697 v -2.087205 q 0,-0.252696 -0.0263,-0.469292 -0.023,-0.219879 -0.0919,-0.35115 -0.0755,-0.137834 -0.21003,-0.203469 -0.13455,-0.06892 -0.36756,-0.06892 -0.22972,0 -0.47585,0.124707 -0.24286,0.121425 -0.47586,0.318331 v 2.736995 h -0.61697 v -3.665735 h 0.61697 v 0.406939 q 0.27567,-0.246132 0.54477,-0.377403 0.26911,-0.131271 0.56775,-0.131271 0.54149,0 0.84669,0.357713 0.30521,0.354431 0.30521,1.030475 z"
             style="stroke-width:0.50407952"
             id="path1373" />
          <path
             d="m 566.9102,56.284472 q -0.5054,0 -0.78763,-0.285514 -0.28223,-0.288796 -0.28223,-0.90905 v -2.031414 h -0.41679 v -0.511956 h 0.41679 v -1.053447 h 0.61697 v 1.053447 h 1.13549 v 0.511956 h -1.13549 v 1.742619 q 0,0.27895 0.01,0.429911 0.01,0.150961 0.0755,0.282232 0.0558,0.114862 0.18049,0.173934 0.12471,0.05579 0.33803,0.05579 0.15096,0 0.29207,-0.04266 0.14112,-0.04594 0.20347,-0.07548 h 0.0361 v 0.554619 q -0.17393,0.04923 -0.35443,0.07548 -0.17721,0.02954 -0.32817,0.02954 z"
             style="stroke-width:0.50407952"
             id="path1375" />
          <path
             d="m 569.63735,56.297599 q -0.87624,0 -1.36194,-0.492266 -0.48242,-0.495546 -0.48242,-1.404596 0,-0.895923 0.4693,-1.424287 0.46929,-0.531647 1.22738,-0.531647 0.3413,0 0.60384,0.09845 0.26254,0.09845 0.45945,0.308487 0.19691,0.210033 0.30192,0.515237 0.10502,0.301923 0.10502,0.74168 v 0.33474 h -2.54009 q 0,0.639945 0.32161,0.977967 0.32162,0.338022 0.88936,0.338022 0.20347,0 0.3971,-0.04594 0.1969,-0.04595 0.35443,-0.118144 0.16737,-0.07548 0.28223,-0.144397 0.11486,-0.0722 0.19034,-0.134553 h 0.0361 v 0.672762 q -0.1083,0.04266 -0.2691,0.108299 -0.16081,0.06235 -0.2888,0.09845 -0.1805,0.04923 -0.32818,0.07548 -0.14439,0.02625 -0.36755,0.02625 z m 0.72199,-2.326774 q -0.007,-0.249414 -0.0591,-0.429911 -0.0525,-0.180497 -0.15096,-0.305205 -0.1083,-0.137834 -0.27895,-0.210033 -0.16737,-0.0722 -0.41678,-0.0722 -0.24613,0 -0.42007,0.07548 -0.17065,0.0722 -0.31177,0.213315 -0.13783,0.144398 -0.21003,0.321613 -0.0722,0.173934 -0.0919,0.406939 z"
             style="stroke-width:0.50407952"
             id="path1377" />
          <path
             d="M 573.5328,53.209455 H 573.5 q -0.0689,-0.01969 -0.14768,-0.02297 -0.0755,-0.0066 -0.18378,-0.0066 -0.24942,0 -0.49555,0.108299 -0.24613,0.108298 -0.46601,0.321613 v 2.602442 H 571.59 v -3.665735 h 0.61697 v 0.544774 q 0.33802,-0.298641 0.58744,-0.420067 0.25269,-0.124707 0.48898,-0.124707 0.0952,0 0.14112,0.0066 0.0492,0.0033 0.10829,0.01313 z"
             style="stroke-width:0.50407952"
             id="path1379" />
          <path
             d="m 577.09352,54.282593 q 0,0.915613 -0.43976,1.460387 -0.43647,0.541492 -1.10595,0.541492 -0.27239,0 -0.48242,-0.06235 -0.21004,-0.06235 -0.42992,-0.193624 v 1.535867 h -0.61697 v -5.017823 h 0.61697 v 0.383967 q 0.22973,-0.206751 0.50868,-0.344586 0.28223,-0.141116 0.61369,-0.141116 0.6301,0 0.98125,0.498829 0.35443,0.498829 0.35443,1.338961 z m -0.63666,0.06892 q 0,-0.626817 -0.20019,-0.971403 -0.20019,-0.347867 -0.64979,-0.347867 -0.26254,0 -0.50868,0.118143 -0.24285,0.114862 -0.46273,0.298641 v 2.077359 q 0.24286,0.118144 0.41351,0.160807 0.17393,0.04266 0.39709,0.04266 0.47914,0 0.74496,-0.351149 0.26583,-0.35115 0.26583,-1.027194 z"
             style="stroke-width:0.50407952"
             id="path1381" />
          <path
             d="m 579.67627,53.209455 h -0.0328 q -0.0689,-0.01969 -0.14768,-0.02297 -0.0755,-0.0066 -0.18378,-0.0066 -0.24942,0 -0.49555,0.108299 -0.24613,0.108298 -0.46601,0.321613 v 2.602442 h -0.61697 v -3.665735 h 0.61697 v 0.544774 q 0.33802,-0.298641 0.58744,-0.420067 0.25269,-0.124707 0.48898,-0.124707 0.0952,0 0.14112,0.0066 0.0492,0.0033 0.10829,0.01313 z"
             style="stroke-width:0.50407952"
             id="path1383" />
          <path
             d="m 580.79207,56.212273 h -0.61697 v -3.665735 h 0.61697 z m 0.0427,-4.279425 h -0.7023 v -0.639945 h 0.7023 z"
             style="stroke-width:0.50407952"
             id="path1385" />
          <path
             d="m 582.68893,56.30088 q -0.36756,0 -0.68917,-0.09845 -0.31833,-0.09845 -0.52836,-0.210033 v -0.692453 h 0.0328 q 0.0788,0.06235 0.18378,0.137834 0.1083,0.07548 0.28552,0.157525 0.15752,0.0722 0.34458,0.127989 0.19035,0.05579 0.39381,0.05579 0.14768,0 0.31505,-0.03282 0.16737,-0.0361 0.24942,-0.08861 0.11486,-0.07548 0.16409,-0.160807 0.0525,-0.08533 0.0525,-0.255978 0,-0.219878 -0.12143,-0.331458 -0.11814,-0.11158 -0.42335,-0.187061 -0.11814,-0.02954 -0.30848,-0.06892 -0.19035,-0.03938 -0.35115,-0.08533 -0.42007,-0.121425 -0.61041,-0.374121 -0.19034,-0.255978 -0.19034,-0.616973 0,-0.495547 0.37412,-0.807315 0.37412,-0.311768 0.99437,-0.311768 0.30521,0 0.61369,0.07548 0.30849,0.07548 0.51852,0.190343 v 0.659635 h -0.0328 q -0.23628,-0.187061 -0.52836,-0.295359 -0.2888,-0.108299 -0.58415,-0.108299 -0.30521,0 -0.51524,0.127989 -0.21004,0.127989 -0.21004,0.387249 0,0.229724 0.12471,0.344586 0.12471,0.11158 0.40038,0.183779 0.13783,0.0361 0.3052,0.0722 0.17065,0.03282 0.35771,0.07876 0.40694,0.101735 0.61041,0.338022 0.20675,0.236287 0.20675,0.643226 0,0.236288 -0.0952,0.449603 -0.0919,0.210033 -0.27238,0.360994 -0.19691,0.164088 -0.44632,0.249414 -0.24614,0.08533 -0.62026,0.08533 z"
             style="stroke-width:0.50407952"
             id="path1387" />
          <path
             d="m 586.2956,56.297599 q -0.87623,0 -1.36193,-0.492266 -0.48242,-0.495546 -0.48242,-1.404596 0,-0.895923 0.46929,-1.424287 0.46929,-0.531647 1.22738,-0.531647 0.3413,0 0.60385,0.09845 0.26254,0.09845 0.45944,0.308487 0.19691,0.210033 0.30193,0.515237 0.10501,0.301923 0.10501,0.74168 v 0.33474 h -2.54009 q 0,0.639945 0.32162,0.977967 0.32161,0.338022 0.88936,0.338022 0.20347,0 0.39709,-0.04594 0.19691,-0.04595 0.35443,-0.118144 0.16737,-0.07548 0.28223,-0.144397 0.11486,-0.0722 0.19035,-0.134553 h 0.0361 v 0.672762 q -0.10829,0.04266 -0.2691,0.108299 -0.16081,0.06235 -0.2888,0.09845 -0.18049,0.04923 -0.32817,0.07548 -0.1444,0.02625 -0.36756,0.02625 z m 0.72199,-2.326774 q -0.007,-0.249414 -0.0591,-0.429911 -0.0525,-0.180497 -0.15096,-0.305205 -0.1083,-0.137834 -0.27895,-0.210033 -0.16738,-0.0722 -0.41679,-0.0722 -0.24613,0 -0.42007,0.07548 -0.17065,0.0722 -0.31176,0.213315 -0.13784,0.144398 -0.21004,0.321613 -0.0722,0.173934 -0.0919,0.406939 z"
             style="stroke-width:0.50407952"
             id="path1389" />
        </g>
        <g
           aria-label="MBE"
           transform="scale(1.1262481,0.88790383)"
           style="font-style:normal;font-variant:normal;font-weight:normal;font-stretch:normal;font-size:25.60564232px;line-height:1.25;font-family:Tahoma;-inkscape-font-specification:Tahoma;letter-spacing:0px;word-spacing:0px;fill:url(#linearGradient1126);fill-opacity:1;stroke:url(#linearGradient1128);stroke-width:0.27900001;stroke-miterlimit:4;stroke-dasharray:none"
           id="text7349">
          <path
             d="m 467.83269,51.71508 -6.55145,-14.265643 v 11.327496 q 0,1.562844 0.33758,1.95043 0.4626,0.525115 1.46282,0.525115 h 0.60013 v 0.462602 h -5.9013 v -0.462602 h 0.60013 q 1.07524,0 1.52534,-0.650143 0.27506,-0.400088 0.27506,-1.825402 V 37.699492 q 0,-1.125248 -0.25006,-1.625358 -0.17503,-0.36258 -0.65014,-0.600133 -0.4626,-0.250055 -1.50033,-0.250055 v -0.462602 h 4.80106 l 6.15135,13.265424 6.05134,-13.265424 h 4.80106 v 0.462602 h -0.58763 q -1.08774,0 -1.53784,0.650144 -0.27506,0.400088 -0.27506,1.825402 v 11.077441 q 0,1.562844 0.35007,1.95043 0.46261,0.525115 1.46283,0.525115 h 0.58763 v 0.462602 h -7.20159 v -0.462602 h 0.60013 q 1.08774,0 1.52534,-0.650143 0.27506,-0.400088 0.27506,-1.825402 V 37.449437 l -6.53894,14.265643 z"
             style="font-style:normal;font-variant:normal;font-weight:normal;font-stretch:normal;font-family:'Times New Roman';-inkscape-font-specification:'Times New Roman, ';fill:url(#linearGradient2135);fill-opacity:1;stroke:url(#linearGradient2137);stroke-width:0.27900001;stroke-miterlimit:4;stroke-dasharray:none"
             id="path1392" />
          <path
             d="m 491.938,43.063174 q 1.76289,0.375082 2.63808,1.200264 1.21277,1.150254 1.21277,2.81312 0,1.262778 -0.80018,2.425535 -0.80018,1.150253 -2.20048,1.687872 -1.38781,0.525115 -4.25094,0.525115 h -8.00176 v -0.462602 h 0.63764 q 1.06273,0 1.52533,-0.675148 0.28757,-0.437597 0.28757,-1.862911 V 37.762006 q 0,-1.575347 -0.36258,-1.987938 -0.48761,-0.550122 -1.45032,-0.550122 h -0.63764 v -0.462602 h 7.32661 q 2.05045,0 3.28822,0.300067 1.87542,0.450099 2.86314,1.600352 0.98771,1.137751 0.98771,2.625579 0,1.275281 -0.77517,2.288004 -0.77517,1.00022 -2.288,1.487828 z m -6.55145,-0.675149 q 0.46261,0.08752 1.05024,0.13753 0.60013,0.03751 1.31278,0.03751 1.82541,0 2.73811,-0.387586 0.9252,-0.400088 1.41281,-1.212767 0.48761,-0.812679 0.48761,-1.775391 0,-1.487828 -1.21277,-2.53806 -1.21277,-1.050231 -3.53828,-1.050231 -1.25028,0 -2.2505,0.275061 z m 0,8.101785 q 1.45032,0.337575 2.86314,0.337575 2.26299,0 3.45076,-1.012724 1.18776,-1.025225 1.18776,-2.525556 0,-0.987718 -0.53762,-1.900419 -0.53762,-0.912701 -1.75039,-1.437817 -1.21276,-0.525115 -3.00066,-0.525115 -0.77517,0 -1.32529,0.02501 -0.55012,0.02501 -0.8877,0.08752 z"
             style="font-style:normal;font-variant:normal;font-weight:normal;font-stretch:normal;font-family:'Times New Roman';-inkscape-font-specification:'Times New Roman, ';fill:url(#linearGradient2139);fill-opacity:1;stroke:url(#linearGradient2141);stroke-width:0.27900001;stroke-miterlimit:4;stroke-dasharray:none"
             id="path1394" />
          <path
             d="m 502.56534,35.686548 v 6.701477 h 3.72582 q 1.45032,0 1.93793,-0.437596 0.65014,-0.575127 0.72516,-2.025447 h 0.4626 v 5.901301 h -0.4626 q -0.17504,-1.237773 -0.35008,-1.58785 -0.22505,-0.437597 -0.73766,-0.687652 -0.51261,-0.250055 -1.57535,-0.250055 h -3.72582 v 5.588732 q 0,1.125248 0.10002,1.375303 0.10002,0.237552 0.35008,0.387585 0.25005,0.13753 0.95021,0.13753 h 2.87563 q 1.43782,0 2.08796,-0.200044 0.65015,-0.200044 1.25028,-0.787673 0.77517,-0.775171 1.58785,-2.338015 h 0.50011 l -1.46282,4.250936 h -13.06538 v -0.462602 h 0.60013 q 0.60013,0 1.13775,-0.287563 0.40009,-0.200044 0.53762,-0.600132 0.15003,-0.400088 0.15003,-1.637861 V 37.711995 q 0,-1.612856 -0.32507,-1.987938 -0.4501,-0.500111 -1.50033,-0.500111 h -0.60013 v -0.462602 h 13.06538 l 0.18754,3.713319 h -0.48761 q -0.26256,-1.337795 -0.58763,-1.837905 -0.31257,-0.500111 -0.93771,-0.762668 -0.50011,-0.187542 -1.76289,-0.187542 z"
             style="font-style:normal;font-variant:normal;font-weight:normal;font-stretch:normal;font-family:'Times New Roman';-inkscape-font-specification:'Times New Roman, ';fill:url(#linearGradient2143);fill-opacity:1;stroke:url(#linearGradient2145);stroke-width:0.27900001;stroke-miterlimit:4;stroke-dasharray:none"
             id="path1396" />
        </g>
      </g>
    </g>
  </g>
</svg>
