  0
SECTION
  2
HEADER
  9
$ACADVER
  1
AC1014
  9
$HANDSEED
  5
FFFF
  9
$MEASUREMENT
 70
     1
  0
ENDSEC
  0
SECTION
  2
TABLES
  0
TABLE
  2
VPORT
  5
8
330
0
100
AcDbSymbolTable
 70
     4
  0
VPORT
  5
2E
330
8
100
AcDbSymbolTableRecord
100
AcDbViewportTableRecord
  2
*ACTIVE
 70
     0
 10
0.0
 20
0.0
 11
1.0
 21
1.0
 12
210.0
 22
148.5
 13
0.0
 23
0.0
 14
10.0
 24
10.0
 15
10.0
 25
10.0
 16
0.0
 26
0.0
 36
1.0
 17
0.0
 27
0.0
 37
0.0
 40
341.0
 41
1.24
 42
50.0
 43
0.0
 44
0.0
 50
0.0
 51
0.0
 71
     0
 72
   100
 73
     1
 74
     3
 75
     0
 76
     0
 77
     0
 78
     0
  0
ENDTAB
  0
TABLE
  2
LTYPE
  5
5
330
0
100
AcDbSymbolTable
 70
     1
  0
LTYPE
  5
14
330
5
100
AcDbSymbolTableRecord
100
AcDbLinetypeTableRecord
  2
BYBLOCK
 70
     0
  3

 72
    65
 73
     0
 40
0.0
  0
LTYPE
  5
15
330
5
100
AcDbSymbolTableRecord
100
AcDbLinetypeTableRecord
  2
BYLAYER
 70
     0
  3

 72
    65
 73
     0
 40
0.0
  0
LTYPE
  5
16
330
5
100
AcDbSymbolTableRecord
100
AcDbLinetypeTableRecord
  2
CONTINUOUS
 70
     0
  3
Solid line
 72
    65
 73
     0
 40
0.0
  0
ENDTAB
  0
TABLE
  2
LAYER
  5
2
100
AcDbSymbolTable
 70
1
  0
LAYER
  5
50
100
AcDbSymbolTableRecord
100
AcDbLayerTableRecord
  2
0
 70
0
  6
CONTINUOUS
  0
ENDTAB
  0
TABLE
  2
STYLE
  5
3
330
0
100
AcDbSymbolTable
 70
     1
  0
STYLE
  5
11
330
3
100
AcDbSymbolTableRecord
100
AcDbTextStyleTableRecord
  2
STANDARD
 70
     0
 40
0.0
 41
1.0
 50
0.0
 71
     0
 42
2.5
  3
txt
  4

  0
ENDTAB
  0
TABLE
  2
VIEW
  5
6
330
0
100
AcDbSymbolTable
 70
     0
  0
ENDTAB
  0
TABLE
  2
UCS
  5
7
330
0
100
AcDbSymbolTable
 70
     0
  0
ENDTAB
  0
TABLE
  2
APPID
  5
9
330
0
100
AcDbSymbolTable
 70
     2
  0
APPID
  5
12
330
9
100
AcDbSymbolTableRecord
100
AcDbRegAppTableRecord
  2
ACAD
 70
     0
  0
ENDTAB
  0
TABLE
  2
DIMSTYLE
  5
A
330
0
100
AcDbSymbolTable
 70
     1
  0
DIMSTYLE
105
27
330
A
100
AcDbSymbolTableRecord
100
AcDbDimStyleTableRecord
  2
ISO-25
 70
     0
  3

  4

  5

  6

  7

 40
1.0
 41
2.5
 42
0.625
 43
3.75
 44
1.25
 45
0.0
 46
0.0
 47
0.0
 48
0.0
140
2.5
141
2.5
142
0.0
143
0.03937007874016
144
1.0
145
0.0
146
1.0
147
0.625
 71
     0
 72
     0
 73
     0
 74
     0
 75
     0
 76
     0
 77
     1
 78
     8
170
     0
171
     3
172
     1
173
     0
174
     0
175
     0
176
     0
177
     0
178
     0
270
     2
271
     2
272
     2
273
     2
274
     3
340
11
275
     0
280
     0
281
     0
282
     0
283
     0
284
     8
285
     0
286
     0
287
     3
288
     0
  0
ENDTAB
  0
TABLE
  2
BLOCK_RECORD
  5
1
330
0
100
AcDbSymbolTable
 70
     1
  0
BLOCK_RECORD
  5
1F
330
1
100
AcDbSymbolTableRecord
100
AcDbBlockTableRecord
  2
*MODEL_SPACE
  0
BLOCK_RECORD
  5
1B
330
1
100
AcDbSymbolTableRecord
100
AcDbBlockTableRecord
  2
*PAPER_SPACE
  0
ENDTAB
  0
ENDSEC
  0
SECTION
  2
BLOCKS
  0
BLOCK
  5
20
330
1F
100
AcDbEntity
  8
0
100
AcDbBlockBegin
  2
*MODEL_SPACE
 70
     0
 10
0.0
 20
0.0
 30
0.0
  3
*MODEL_SPACE
  1

  0
ENDBLK
  5
21
330
1F
100
AcDbEntity
  8
0
100
AcDbBlockEnd
  0
BLOCK
  5
1C
330
1B
100
AcDbEntity
 67
     1
  8
0
100
AcDbBlockBegin
  2
*PAPER_SPACE
  1

  0
ENDBLK
  5
1D
330
1B
100
AcDbEntity
 67
     1
  8
0
100
AcDbBlockEnd
  0
ENDSEC
  0
SECTION
  2
ENTITIES
  0
SPLINE
  5
100
100
AcDbEntity
  8
0
 62
1
100
AcDbSpline
 70
8
 71
3
 72
8
 73
4
 74
0
 40
0
 40
0
 40
0
 40
0
 40
1
 40
1
 40
1
 40
1
 10
314.650998
 20
235.316852
 30
0.0
 10
310.446000
 20
241.381977
 30
0.0
 10
307.133090
 20
248.019128
 30
0.0
 10
304.813559
 20
255.025378
 30
0.0
  0
SPLINE
  5
101
100
AcDbEntity
  8
0
 62
1
100
AcDbSpline
 70
8
 71
3
 72
8
 73
4
 74
0
 40
0
 40
0
 40
0
 40
0
 40
1
 40
1
 40
1
 40
1
 10
304.813559
 20
255.025378
 30
0.0
 10
301.137683
 20
266.128031
 30
0.0
 10
296.040382
 20
276.708277
 30
0.0
 10
289.648658
 20
286.502502
 30
0.0
  0
SPLINE
  5
102
100
AcDbEntity
  8
0
 62
1
100
AcDbSpline
 70
8
 71
3
 72
8
 73
4
 74
0
 40
0
 40
0
 40
0
 40
0
 40
1
 40
1
 40
1
 40
1
 10
289.648658
 20
286.502502
 30
0.0
 10
290.399371
 20
290.211524
 30
0.0
 10
290.401298
 20
294.033172
 30
0.0
 10
289.654328
 20
297.742949
 30
0.0
  0
SPLINE
  5
103
100
AcDbEntity
  8
0
 62
1
100
AcDbSpline
 70
8
 71
3
 72
8
 73
4
 74
0
 40
0
 40
0
 40
0
 40
0
 40
1
 40
1
 40
1
 40
1
 10
289.654328
 20
297.742949
 30
0.0
 10
289.358912
 20
298.958514
 30
0.0
 10
288.754361
 20
300.077100
 30
0.0
 10
287.899313
 20
300.990206
 30
0.0
  0
SPLINE
  5
104
100
AcDbEntity
  8
0
 62
1
100
AcDbSpline
 70
8
 71
3
 72
8
 73
4
 74
0
 40
0
 40
0
 40
0
 40
0
 40
1
 40
1
 40
1
 40
1
 10
287.899313
 20
300.990206
 30
0.0
 10
284.550552
 20
304.565743
 30
0.0
 10
280.867686
 20
307.812998
 30
0.0
 10
276.900959
 20
310.687671
 30
0.0
  0
SPLINE
  5
105
100
AcDbEntity
  8
0
 62
1
100
AcDbSpline
 70
8
 71
3
 72
8
 73
4
 74
0
 40
0
 40
0
 40
0
 40
0
 40
1
 40
1
 40
1
 40
1
 10
276.900959
 20
310.687671
 30
0.0
 10
274.874986
 20
312.156026
 30
0.0
 10
272.799866
 20
313.555348
 30
0.0
 10
270.679167
 20
314.883230
 30
0.0
  0
SPLINE
  5
106
100
AcDbEntity
  8
0
 62
1
100
AcDbSpline
 70
8
 71
3
 72
8
 73
4
 74
0
 40
0
 40
0
 40
0
 40
0
 40
1
 40
1
 40
1
 40
1
 10
270.679167
 20
314.883230
 30
0.0
 10
270.357822
 20
315.084576
 30
0.0
 10
270.136385
 20
315.412200
 30
0.0
 10
270.069370
 20
315.785445
 30
0.0
  0
SPLINE
  5
107
100
AcDbEntity
  8
0
 62
1
100
AcDbSpline
 70
8
 71
3
 72
8
 73
4
 74
0
 40
0
 40
0
 40
0
 40
0
 40
1
 40
1
 40
1
 40
1
 10
270.069370
 20
315.785445
 30
0.0
 10
270.002355
 20
316.158691
 30
0.0
 10
270.095988
 20
316.542884
 30
0.0
 10
270.327217
 20
316.843444
 30
0.0
  0
SPLINE
  5
108
100
AcDbEntity
  8
0
 62
1
100
AcDbSpline
 70
8
 71
3
 72
8
 73
4
 74
0
 40
0
 40
0
 40
0
 40
0
 40
1
 40
1
 40
1
 40
1
 10
270.327217
 20
316.843444
 30
0.0
 10
270.773741
 20
317.423347
 30
0.0
 10
271.094542
 20
318.089924
 30
0.0
 10
271.269170
 20
318.800682
 30
0.0
  0
SPLINE
  5
109
100
AcDbEntity
  8
0
 62
1
100
AcDbSpline
 70
8
 71
3
 72
8
 73
4
 74
0
 40
0
 40
0
 40
0
 40
0
 40
1
 40
1
 40
1
 40
1
 10
271.269170
 20
318.800682
 30
0.0
 10
271.824786
 20
321.060435
 30
0.0
 10
272.533641
 20
323.279730
 30
0.0
 10
273.390817
 20
325.443163
 30
0.0
  0
SPLINE
  5
10a
100
AcDbEntity
  8
0
 62
1
100
AcDbSpline
 70
8
 71
3
 72
8
 73
4
 74
0
 40
0
 40
0
 40
0
 40
0
 40
1
 40
1
 40
1
 40
1
 10
273.390817
 20
325.443163
 30
0.0
 10
274.699059
 20
328.745376
 30
0.0
 10
275.783292
 20
332.131992
 30
0.0
 10
276.636146
 20
335.579998
 30
0.0
  0
SPLINE
  5
10b
100
AcDbEntity
  8
0
 62
1
100
AcDbSpline
 70
8
 71
3
 72
8
 73
4
 74
0
 40
0
 40
0
 40
0
 40
0
 40
1
 40
1
 40
1
 40
1
 10
276.636146
 20
335.579998
 30
0.0
 10
276.866464
 20
336.511528
 30
0.0
 10
277.242637
 20
337.400777
 30
0.0
 10
277.750729
 20
338.214801
 30
0.0
  0
SPLINE
  5
10c
100
AcDbEntity
  8
0
 62
1
100
AcDbSpline
 70
8
 71
3
 72
8
 73
4
 74
0
 40
0
 40
0
 40
0
 40
0
 40
1
 40
1
 40
1
 40
1
 10
277.750729
 20
338.214801
 30
0.0
 10
277.989145
 20
338.600500
 30
0.0
 10
278.485226
 20
338.736168
 30
0.0
 10
278.886742
 20
338.525478
 30
0.0
  0
SPLINE
  5
10d
100
AcDbEntity
  8
0
 62
1
100
AcDbSpline
 70
8
 71
3
 72
8
 73
4
 74
0
 40
0
 40
0
 40
0
 40
0
 40
1
 40
1
 40
1
 40
1
 10
278.886742
 20
338.525478
 30
0.0
 10
280.596249
 20
337.622983
 30
0.0
 10
282.437252
 20
336.995411
 30
0.0
 10
284.342060
 20
336.665837
 30
0.0
  0
SPLINE
  5
10e
100
AcDbEntity
  8
0
 62
1
100
AcDbSpline
 70
8
 71
3
 72
8
 73
4
 74
0
 40
0
 40
0
 40
0
 40
0
 40
1
 40
1
 40
1
 40
1
 10
284.342060
 20
336.665837
 30
0.0
 10
287.130788
 20
336.182965
 30
0.0
 10
289.912194
 20
335.658715
 30
0.0
 10
292.685357
 20
335.093261
 30
0.0
  0
SPLINE
  5
10f
100
AcDbEntity
  8
0
 62
1
100
AcDbSpline
 70
8
 71
3
 72
8
 73
4
 74
0
 40
0
 40
0
 40
0
 40
0
 40
1
 40
1
 40
1
 40
1
 10
292.685357
 20
335.093261
 30
0.0
 10
295.761549
 20
334.468005
 30
0.0
 10
298.899636
 20
334.199944
 30
0.0
 10
302.037307
 20
334.294401
 30
0.0
  0
SPLINE
  5
110
100
AcDbEntity
  8
0
 62
1
100
AcDbSpline
 70
8
 71
3
 72
8
 73
4
 74
0
 40
0
 40
0
 40
0
 40
0
 40
1
 40
1
 40
1
 40
1
 10
302.037307
 20
334.294401
 30
0.0
 10
304.174605
 20
334.356048
 30
0.0
 10
306.311528
 20
334.430033
 30
0.0
 10
308.447972
 20
334.516354
 30
0.0
  0
SPLINE
  5
111
100
AcDbEntity
  8
0
 62
1
100
AcDbSpline
 70
8
 71
3
 72
8
 73
4
 74
0
 40
0
 40
0
 40
0
 40
0
 40
1
 40
1
 40
1
 40
1
 10
308.447972
 20
334.516354
 30
0.0
 10
309.128473
 20
334.546044
 30
0.0
 10
309.781093
 20
334.795157
 30
0.0
 10
310.308293
 20
335.226461
 30
0.0
  0
SPLINE
  5
112
100
AcDbEntity
  8
0
 62
1
100
AcDbSpline
 70
8
 71
3
 72
8
 73
4
 74
0
 40
0
 40
0
 40
0
 40
0
 40
1
 40
1
 40
1
 40
1
 10
310.308293
 20
335.226461
 30
0.0
 10
312.167030
 20
336.736769
 30
0.0
 10
313.726480
 20
338.581819
 30
0.0
 10
314.906003
 20
340.666203
 30
0.0
  0
SPLINE
  5
113
100
AcDbEntity
  8
0
 62
1
100
AcDbSpline
 70
8
 71
3
 72
8
 73
4
 74
0
 40
0
 40
0
 40
0
 40
0
 40
1
 40
1
 40
1
 40
1
 10
314.906003
 20
340.666203
 30
0.0
 10
315.389073
 20
341.520070
 30
0.0
 10
315.559748
 20
342.515497
 30
0.0
 10
315.388715
 20
343.481516
 30
0.0
  0
SPLINE
  5
114
100
AcDbEntity
  8
0
 62
1
100
AcDbSpline
 70
8
 71
3
 72
8
 73
4
 74
0
 40
0
 40
0
 40
0
 40
0
 40
1
 40
1
 40
1
 40
1
 10
315.388715
 20
343.481516
 30
0.0
 10
315.202972
 20
344.529944
 30
0.0
 10
315.112461
 20
345.593027
 30
0.0
 10
315.118290
 20
346.657765
 30
0.0
  0
SPLINE
  5
115
100
AcDbEntity
  8
0
 62
1
100
AcDbSpline
 70
8
 71
3
 72
8
 73
4
 74
0
 40
0
 40
0
 40
0
 40
0
 40
1
 40
1
 40
1
 40
1
 10
315.118290
 20
346.657765
 30
0.0
 10
315.130284
 20
348.851207
 30
0.0
 10
315.130284
 20
351.044698
 30
0.0
 10
315.118290
 20
353.238140
 30
0.0
  0
SPLINE
  5
116
100
AcDbEntity
  8
0
 62
1
100
AcDbSpline
 70
8
 71
3
 72
8
 73
4
 74
0
 40
0
 40
0
 40
0
 40
0
 40
1
 40
1
 40
1
 40
1
 10
315.118290
 20
353.238140
 30
0.0
 10
315.111959
 20
354.403248
 30
0.0
 10
315.459517
 20
355.542821
 30
0.0
 10
316.114980
 20
356.506089
 30
0.0
  0
SPLINE
  5
117
100
AcDbEntity
  8
0
 62
1
100
AcDbSpline
 70
8
 71
3
 72
8
 73
4
 74
0
 40
0
 40
0
 40
0
 40
0
 40
1
 40
1
 40
1
 40
1
 10
316.114980
 20
356.506089
 30
0.0
 10
316.840164
 20
357.571833
 30
0.0
 10
317.707059
 20
358.533892
 30
0.0
 10
318.691786
 20
359.365765
 30
0.0
  0
SPLINE
  5
118
100
AcDbEntity
  8
0
 62
1
100
AcDbSpline
 70
8
 71
3
 72
8
 73
4
 74
0
 40
0
 40
0
 40
0
 40
0
 40
1
 40
1
 40
1
 40
1
 10
318.691786
 20
359.365765
 30
0.0
 10
319.274519
 20
359.858073
 30
0.0
 10
319.559868
 20
360.617623
 30
0.0
 10
319.445433
 20
361.371844
 30
0.0
  0
SPLINE
  5
119
100
AcDbEntity
  8
0
 62
1
100
AcDbSpline
 70
8
 71
3
 72
8
 73
4
 74
0
 40
0
 40
0
 40
0
 40
0
 40
1
 40
1
 40
1
 40
1
 10
319.445433
 20
361.371844
 30
0.0
 10
319.317719
 20
361.975029
 30
0.0
 10
319.284820
 20
362.594438
 30
0.0
 10
319.347921
 20
363.207759
 30
0.0
  0
SPLINE
  5
11a
100
AcDbEntity
  8
0
 62
1
100
AcDbSpline
 70
8
 71
3
 72
8
 73
4
 74
0
 40
0
 40
0
 40
0
 40
0
 40
1
 40
1
 40
1
 40
1
 10
319.347921
 20
363.207759
 30
0.0
 10
319.371085
 20
363.958244
 30
0.0
 10
319.179885
 20
364.699788
 30
0.0
 10
318.796724
 20
365.345507
 30
0.0
  0
SPLINE
  5
11b
100
AcDbEntity
  8
0
 62
1
100
AcDbSpline
 70
8
 71
3
 72
8
 73
4
 74
0
 40
0
 40
0
 40
0
 40
0
 40
1
 40
1
 40
1
 40
1
 10
318.796724
 20
365.345507
 30
0.0
 10
318.446800
 20
365.932692
 30
0.0
 10
317.924271
 20
366.397649
 30
0.0
 10
317.300400
 20
366.676968
 30
0.0
  0
SPLINE
  5
11c
100
AcDbEntity
  8
0
 62
1
100
AcDbSpline
 70
8
 71
3
 72
8
 73
4
 74
0
 40
0
 40
0
 40
0
 40
0
 40
1
 40
1
 40
1
 40
1
 10
317.300400
 20
366.676968
 30
0.0
 10
317.192506
 20
366.725257
 30
0.0
 10
317.123053
 20
366.832432
 30
0.0
 10
317.123053
 20
366.950639
 30
0.0
  0
SPLINE
  5
11d
100
AcDbEntity
  8
0
 62
1
100
AcDbSpline
 70
8
 71
3
 72
8
 73
4
 74
0
 40
0
 40
0
 40
0
 40
0
 40
1
 40
1
 40
1
 40
1
 10
317.123053
 20
366.950639
 30
0.0
 10
317.123053
 20
367.068846
 30
0.0
 10
317.192506
 20
367.176021
 30
0.0
 10
317.300400
 20
367.224310
 30
0.0
  0
SPLINE
  5
11e
100
AcDbEntity
  8
0
 62
1
100
AcDbSpline
 70
8
 71
3
 72
8
 73
4
 74
0
 40
0
 40
0
 40
0
 40
0
 40
1
 40
1
 40
1
 40
1
 10
317.300400
 20
367.224310
 30
0.0
 10
318.001830
 20
367.541360
 30
0.0
 10
318.710451
 20
367.842252
 30
0.0
 10
319.425704
 20
368.126748
 30
0.0
  0
SPLINE
  5
11f
100
AcDbEntity
  8
0
 62
1
100
AcDbSpline
 70
8
 71
3
 72
8
 73
4
 74
0
 40
0
 40
0
 40
0
 40
0
 40
1
 40
1
 40
1
 40
1
 10
319.425704
 20
368.126748
 30
0.0
 10
320.437727
 20
368.526325
 30
0.0
 10
321.282844
 20
369.259698
 30
0.0
 10
321.821008
 20
370.205337
 30
0.0
  0
SPLINE
  5
120
100
AcDbEntity
  8
0
 62
1
100
AcDbSpline
 70
8
 71
3
 72
8
 73
4
 74
0
 40
0
 40
0
 40
0
 40
0
 40
1
 40
1
 40
1
 40
1
 10
321.821008
 20
370.205337
 30
0.0
 10
322.077544
 20
370.656348
 30
0.0
 10
322.163172
 20
371.184629
 30
0.0
 10
322.062236
 20
371.693582
 30
0.0
  0
SPLINE
  5
121
100
AcDbEntity
  8
0
 62
1
100
AcDbSpline
 70
8
 71
3
 72
8
 73
4
 74
0
 40
0
 40
0
 40
0
 40
0
 40
1
 40
1
 40
1
 40
1
 10
322.062236
 20
371.693582
 30
0.0
 10
321.856632
 20
372.730757
 30
0.0
 10
321.806097
 20
373.792704
 30
0.0
 10
321.912283
 20
374.844716
 30
0.0
  0
SPLINE
  5
122
100
AcDbEntity
  8
0
 62
1
100
AcDbSpline
 70
8
 71
3
 72
8
 73
4
 74
0
 40
0
 40
0
 40
0
 40
0
 40
1
 40
1
 40
1
 40
1
 10
321.912283
 20
374.844716
 30
0.0
 10
322.076477
 20
376.472852
 30
0.0
 10
322.076477
 20
378.113375
 30
0.0
 10
321.912283
 20
379.741510
 30
0.0
  0
SPLINE
  5
123
100
AcDbEntity
  8
0
 62
1
100
AcDbSpline
 70
8
 71
3
 72
8
 73
4
 74
0
 40
0
 40
0
 40
0
 40
0
 40
1
 40
1
 40
1
 40
1
 10
321.912283
 20
379.741510
 30
0.0
 10
321.879535
 20
380.057650
 30
0.0
 10
322.086553
 20
380.348967
 30
0.0
 10
322.395874
 20
380.422023
 30
0.0
  0
SPLINE
  5
124
100
AcDbEntity
  8
0
 62
1
100
AcDbSpline
 70
8
 71
3
 72
8
 73
4
 74
0
 40
0
 40
0
 40
0
 40
0
 40
1
 40
1
 40
1
 40
1
 10
322.395874
 20
380.422023
 30
0.0
 10
322.705263
 20
380.466368
 30
0.0
 10
323.019395
 20
380.466368
 30
0.0
 10
323.328784
 20
380.422023
 30
0.0
  0
SPLINE
  5
125
100
AcDbEntity
  8
0
 62
1
100
AcDbSpline
 70
8
 71
3
 72
8
 73
4
 74
0
 40
0
 40
0
 40
0
 40
0
 40
1
 40
1
 40
1
 40
1
 10
323.328784
 20
380.422023
 30
0.0
 10
325.535508
 20
380.225077
 30
0.0
 10
327.758092
 20
380.533706
 30
0.0
 10
329.827663
 20
381.324461
 30
0.0
  0
SPLINE
  5
126
100
AcDbEntity
  8
0
 62
1
100
AcDbSpline
 70
8
 71
3
 72
8
 73
4
 74
0
 40
0
 40
0
 40
0
 40
0
 40
1
 40
1
 40
1
 40
1
 10
329.827663
 20
381.324461
 30
0.0
 10
331.554413
 20
381.986234
 30
0.0
 10
333.130205
 20
382.988977
 30
0.0
 10
334.461061
 20
384.272889
 30
0.0
  0
SPLINE
  5
127
100
AcDbEntity
  8
0
 62
1
100
AcDbSpline
 70
8
 71
3
 72
8
 73
4
 74
0
 40
0
 40
0
 40
0
 40
0
 40
1
 40
1
 40
1
 40
1
 10
334.461061
 20
384.272889
 30
0.0
 10
335.846740
 20
385.736361
 30
0.0
 10
335.907352
 20
388.008710
 30
0.0
 10
334.601660
 20
389.543970
 30
0.0
  0
SPLINE
  5
128
100
AcDbEntity
  8
0
 62
1
100
AcDbSpline
 70
8
 71
3
 72
8
 73
4
 74
0
 40
0
 40
0
 40
0
 40
0
 40
1
 40
1
 40
1
 40
1
 10
334.601660
 20
389.543970
 30
0.0
 10
332.741096
 20
391.731490
 30
0.0
 10
330.962800
 20
393.987671
 30
0.0
 10
329.270485
 20
396.307803
 30
0.0
  0
SPLINE
  5
129
100
AcDbEntity
  8
0
 62
1
100
AcDbSpline
 70
8
 71
3
 72
8
 73
4
 74
0
 40
0
 40
0
 40
0
 40
0
 40
1
 40
1
 40
1
 40
1
 10
329.270485
 20
396.307803
 30
0.0
 10
325.676822
 20
401.234989
 30
0.0
 10
322.423623
 20
406.401693
 30
0.0
 10
319.533562
 20
411.771900
 30
0.0
  0
SPLINE
  5
12a
100
AcDbEntity
  8
0
 62
1
100
AcDbSpline
 70
8
 71
3
 72
8
 73
4
 74
0
 40
0
 40
0
 40
0
 40
0
 40
1
 40
1
 40
1
 40
1
 10
319.533562
 20
411.771900
 30
0.0
 10
319.261202
 20
412.277803
 30
0.0
 10
318.982668
 20
412.780357
 30
0.0
 10
318.698022
 20
413.279450
 30
0.0
  0
SPLINE
  5
12b
100
AcDbEntity
  8
0
 62
1
100
AcDbSpline
 70
8
 71
3
 72
8
 73
4
 74
0
 40
0
 40
0
 40
0
 40
0
 40
1
 40
1
 40
1
 40
1
 10
318.698022
 20
413.279450
 30
0.0
 10
318.588617
 20
413.469214
 30
0.0
 10
318.559703
 20
413.694868
 30
0.0
 10
318.617727
 20
413.906086
 30
0.0
  0
SPLINE
  5
12c
100
AcDbEntity
  8
0
 62
1
100
AcDbSpline
 70
8
 71
3
 72
8
 73
4
 74
0
 40
0
 40
0
 40
0
 40
0
 40
1
 40
1
 40
1
 40
1
 10
318.617727
 20
413.906086
 30
0.0
 10
318.675752
 20
414.117303
 30
0.0
 10
318.815889
 20
414.296516
 30
0.0
 10
319.006885
 20
414.403756
 30
0.0
  0
SPLINE
  5
12d
100
AcDbEntity
  8
0
 62
1
100
AcDbSpline
 70
8
 71
3
 72
8
 73
4
 74
0
 40
0
 40
0
 40
0
 40
0
 40
1
 40
1
 40
1
 40
1
 10
319.006885
 20
414.403756
 30
0.0
 10
320.134481
 20
415.040790
 30
0.0
 10
320.977785
 20
416.082610
 30
0.0
 10
321.365962
 20
417.318168
 30
0.0
  0
SPLINE
  5
12e
100
AcDbEntity
  8
0
 62
1
100
AcDbSpline
 70
8
 71
3
 72
8
 73
4
 74
0
 40
0
 40
0
 40
0
 40
0
 40
1
 40
1
 40
1
 40
1
 10
321.365962
 20
417.318168
 30
0.0
 10
322.283427
 20
420.238796
 30
0.0
 10
321.857547
 20
423.415967
 30
0.0
 10
320.203304
 20
425.991872
 30
0.0
  0
SPLINE
  5
12f
100
AcDbEntity
  8
0
 62
1
100
AcDbSpline
 70
8
 71
3
 72
8
 73
4
 74
0
 40
0
 40
0
 40
0
 40
0
 40
1
 40
1
 40
1
 40
1
 10
320.203304
 20
425.991872
 30
0.0
 10
318.573721
 20
428.529340
 30
0.0
 10
317.327849
 20
431.293579
 30
0.0
 10
316.506019
 20
434.195110
 30
0.0
  0
SPLINE
  5
130
100
AcDbEntity
  8
0
 62
1
100
AcDbSpline
 70
8
 71
3
 72
8
 73
4
 74
0
 40
0
 40
0
 40
0
 40
0
 40
1
 40
1
 40
1
 40
1
 10
316.506019
 20
434.195110
 30
0.0
 10
315.757375
 20
436.838496
 30
0.0
 10
315.027567
 20
439.487180
 30
0.0
 10
314.316652
 20
442.140962
 30
0.0
  0
SPLINE
  5
131
100
AcDbEntity
  8
0
 62
1
100
AcDbSpline
 70
8
 71
3
 72
8
 73
4
 74
0
 40
0
 40
0
 40
0
 40
0
 40
1
 40
1
 40
1
 40
1
 10
314.316652
 20
442.140962
 30
0.0
 10
314.020907
 20
443.244791
 30
0.0
 10
313.921656
 20
444.392043
 30
0.0
 10
314.023436
 20
445.530263
 30
0.0
  0
SPLINE
  5
132
100
AcDbEntity
  8
0
 62
1
100
AcDbSpline
 70
8
 71
3
 72
8
 73
4
 74
0
 40
0
 40
0
 40
0
 40
0
 40
1
 40
1
 40
1
 40
1
 10
314.023436
 20
445.530263
 30
0.0
 10
314.081479
 20
446.179014
 30
0.0
 10
313.877789
 20
446.824050
 30
0.0
 10
313.457698
 20
447.321815
 30
0.0
  0
SPLINE
  5
133
100
AcDbEntity
  8
0
 62
1
100
AcDbSpline
 70
8
 71
3
 72
8
 73
4
 74
0
 40
0
 40
0
 40
0
 40
0
 40
1
 40
1
 40
1
 40
1
 10
313.457698
 20
447.321815
 30
0.0
 10
312.302948
 20
448.690222
 30
0.0
 10
311.391211
 20
450.246376
 30
0.0
 10
310.762063
 20
451.922729
 30
0.0
  0
SPLINE
  5
134
100
AcDbEntity
  8
0
 62
1
100
AcDbSpline
 70
8
 71
3
 72
8
 73
4
 74
0
 40
0
 40
0
 40
0
 40
0
 40
1
 40
1
 40
1
 40
1
 10
310.762063
 20
451.922729
 30
0.0
 10
310.442498
 20
452.712699
 30
0.0
 10
310.442498
 20
453.595952
 30
0.0
 10
310.762063
 20
454.385923
 30
0.0
  0
SPLINE
  5
135
100
AcDbEntity
  8
0
 62
1
100
AcDbSpline
 70
8
 71
3
 72
8
 73
4
 74
0
 40
0
 40
0
 40
0
 40
0
 40
1
 40
1
 40
1
 40
1
 10
310.762063
 20
454.385923
 30
0.0
 10
310.924088
 20
454.789784
 30
0.0
 10
311.185730
 20
455.146048
 30
0.0
 10
311.522598
 20
455.421504
 30
0.0
  0
SPLINE
  5
136
100
AcDbEntity
  8
0
 62
1
100
AcDbSpline
 70
8
 71
3
 72
8
 73
4
 74
0
 40
0
 40
0
 40
0
 40
0
 40
1
 40
1
 40
1
 40
1
 10
311.522598
 20
455.421504
 30
0.0
 10
315.198041
 20
458.418185
 30
0.0
 10
317.639979
 20
462.664463
 30
0.0
 10
318.381477
 20
467.348389
 30
0.0
  0
SPLINE
  5
137
100
AcDbEntity
  8
0
 62
1
100
AcDbSpline
 70
8
 71
3
 72
8
 73
4
 74
0
 40
0
 40
0
 40
0
 40
0
 40
1
 40
1
 40
1
 40
1
 10
318.381477
 20
467.348389
 30
0.0
 10
318.560860
 20
468.480824
 30
0.0
 10
318.640158
 20
469.626858
 30
0.0
 10
318.618454
 20
470.773208
 30
0.0
  0
SPLINE
  5
138
100
AcDbEntity
  8
0
 62
1
100
AcDbSpline
 70
8
 71
3
 72
8
 73
4
 74
0
 40
0
 40
0
 40
0
 40
0
 40
1
 40
1
 40
1
 40
1
 10
318.618454
 20
470.773208
 30
0.0
 10
318.588533
 20
472.333884
 30
0.0
 10
317.463722
 20
473.657638
 30
0.0
 10
315.928346
 20
473.939110
 30
0.0
  0
SPLINE
  5
139
100
AcDbEntity
  8
0
 62
1
100
AcDbSpline
 70
8
 71
3
 72
8
 73
4
 74
0
 40
0
 40
0
 40
0
 40
0
 40
1
 40
1
 40
1
 40
1
 10
315.928346
 20
473.939110
 30
0.0
 10
314.998918
 20
474.109487
 30
0.0
 10
314.046260
 20
474.109487
 30
0.0
 10
313.116832
 20
473.939110
 30
0.0
  0
SPLINE
  5
13a
100
AcDbEntity
  8
0
 62
1
100
AcDbSpline
 70
8
 71
3
 72
8
 73
4
 74
0
 40
0
 40
0
 40
0
 40
0
 40
1
 40
1
 40
1
 40
1
 10
313.116832
 20
473.939110
 30
0.0
 10
312.359432
 20
473.800269
 30
0.0
 10
311.583101
 20
473.800269
 30
0.0
 10
310.825701
 20
473.939110
 30
0.0
  0
SPLINE
  5
13b
100
AcDbEntity
  8
0
 62
1
100
AcDbSpline
 70
8
 71
3
 72
8
 73
4
 74
0
 40
0
 40
0
 40
0
 40
0
 40
1
 40
1
 40
1
 40
1
 10
310.825701
 20
473.939110
 30
0.0
 10
309.668437
 20
474.152726
 30
0.0
 10
308.509984
 20
474.359847
 30
0.0
 10
307.350397
 20
474.560464
 30
0.0
  0
SPLINE
  5
13c
100
AcDbEntity
  8
0
 62
1
100
AcDbSpline
 70
8
 71
3
 72
8
 73
4
 74
0
 40
0
 40
0
 40
0
 40
0
 40
1
 40
1
 40
1
 40
1
 10
307.350397
 20
474.560464
 30
0.0
 10
303.835311
 20
475.164448
 30
0.0
 10
300.419141
 20
476.245511
 30
0.0
 10
297.196526
 20
477.773705
 30
0.0
  0
SPLINE
  5
13d
100
AcDbEntity
  8
0
 62
1
100
AcDbSpline
 70
8
 71
3
 72
8
 73
4
 74
0
 40
0
 40
0
 40
0
 40
0
 40
1
 40
1
 40
1
 40
1
 10
297.196526
 20
477.773705
 30
0.0
 10
296.302185
 20
478.195619
 30
0.0
 10
295.343809
 20
478.465610
 30
0.0
 10
294.360746
 20
478.572593
 30
0.0
  0
SPLINE
  5
13e
100
AcDbEntity
  8
0
 62
1
100
AcDbSpline
 70
8
 71
3
 72
8
 73
4
 74
0
 40
0
 40
0
 40
0
 40
0
 40
1
 40
1
 40
1
 40
1
 10
294.360746
 20
478.572593
 30
0.0
 10
292.174100
 20
478.814089
 30
0.0
 10
290.072385
 20
479.555672
 30
0.0
 10
288.218381
 20
480.739906
 30
0.0
  0
SPLINE
  5
13f
100
AcDbEntity
  8
0
 62
1
100
AcDbSpline
 70
8
 71
3
 72
8
 73
4
 74
0
 40
0
 40
0
 40
0
 40
0
 40
1
 40
1
 40
1
 40
1
 10
288.218381
 20
480.739906
 30
0.0
 10
287.197896
 20
481.389614
 30
0.0
 10
286.010623
 20
481.728828
 30
0.0
 10
284.800932
 20
481.716300
 30
0.0
  0
SPLINE
  5
140
100
AcDbEntity
  8
0
 62
1
100
AcDbSpline
 70
8
 71
3
 72
8
 73
4
 74
0
 40
0
 40
0
 40
0
 40
0
 40
1
 40
1
 40
1
 40
1
 10
284.800932
 20
481.716300
 30
0.0
 10
283.558563
 20
481.706396
 30
0.0
 10
282.336764
 20
482.033609
 30
0.0
 10
281.265633
 20
482.663100
 30
0.0
  0
SPLINE
  5
141
100
AcDbEntity
  8
0
 62
1
100
AcDbSpline
 70
8
 71
3
 72
8
 73
4
 74
0
 40
0
 40
0
 40
0
 40
0
 40
1
 40
1
 40
1
 40
1
 10
281.265633
 20
482.663100
 30
0.0
 10
280.065104
 20
483.366985
 30
0.0
 10
278.723662
 20
483.796424
 30
0.0
 10
277.337551
 20
483.920605
 30
0.0
  0
SPLINE
  5
142
100
AcDbEntity
  8
0
 62
1
100
AcDbSpline
 70
8
 71
3
 72
8
 73
4
 74
0
 40
0
 40
0
 40
0
 40
0
 40
1
 40
1
 40
1
 40
1
 10
277.337551
 20
483.920605
 30
0.0
 10
275.288859
 20
484.103829
 30
0.0
 10
273.291467
 20
484.663002
 30
0.0
 10
271.445428
 20
485.570114
 30
0.0
  0
SPLINE
  5
143
100
AcDbEntity
  8
0
 62
1
100
AcDbSpline
 70
8
 71
3
 72
8
 73
4
 74
0
 40
0
 40
0
 40
0
 40
0
 40
1
 40
1
 40
1
 40
1
 10
271.445428
 20
485.570114
 30
0.0
 10
270.154970
 20
485.467453
 30
0.0
 10
268.858471
 20
485.465557
 30
0.0
 10
267.567718
 20
485.564445
 30
0.0
  0
SPLINE
  5
144
100
AcDbEntity
  8
0
 62
1
100
AcDbSpline
 70
8
 71
3
 72
8
 73
4
 74
0
 40
0
 40
0
 40
0
 40
0
 40
1
 40
1
 40
1
 40
1
 10
267.567718
 20
485.564445
 30
0.0
 10
268.098469
 20
489.005556
 30
0.0
 10
269.397041
 20
492.283050
 30
0.0
 10
271.367135
 20
495.153881
 30
0.0
  0
SPLINE
  5
145
100
AcDbEntity
  8
0
 62
1
100
AcDbSpline
 70
8
 71
3
 72
8
 73
4
 74
0
 40
0
 40
0
 40
0
 40
0
 40
1
 40
1
 40
1
 40
1
 10
271.367135
 20
495.153881
 30
0.0
 10
271.430441
 20
495.732484
 30
0.0
 10
271.740458
 20
496.255587
 30
0.0
 10
272.217614
 20
496.588920
 30
0.0
  0
SPLINE
  5
146
100
AcDbEntity
  8
0
 62
1
100
AcDbSpline
 70
8
 71
3
 72
8
 73
4
 74
0
 40
0
 40
0
 40
0
 40
0
 40
1
 40
1
 40
1
 40
1
 10
272.217614
 20
496.588920
 30
0.0
 10
274.324976
 20
498.062073
 30
0.0
 10
276.579302
 20
499.312916
 30
0.0
 10
278.944483
 20
500.321415
 30
0.0
  0
SPLINE
  5
147
100
AcDbEntity
  8
0
 62
1
100
AcDbSpline
 70
8
 71
3
 72
8
 73
4
 74
0
 40
0
 40
0
 40
0
 40
0
 40
1
 40
1
 40
1
 40
1
 10
278.944483
 20
500.321415
 30
0.0
 10
289.152424
 20
504.672597
 30
0.0
 10
300.153199
 20
506.854990
 30
0.0
 10
311.249112
 20
506.730180
 30
0.0
  0
SPLINE
  5
148
100
AcDbEntity
  8
0
 62
1
100
AcDbSpline
 70
8
 71
3
 72
8
 73
4
 74
0
 40
0
 40
0
 40
0
 40
0
 40
1
 40
1
 40
1
 40
1
 10
311.249112
 20
506.730180
 30
0.0
 10
319.543944
 20
509.073670
 30
0.0
 10
328.405406
 20
508.350469
 30
0.0
 10
336.210491
 20
504.693033
 30
0.0
  0
SPLINE
  5
149
100
AcDbEntity
  8
0
 62
1
100
AcDbSpline
 70
8
 71
3
 72
8
 73
4
 74
0
 40
0
 40
0
 40
0
 40
0
 40
1
 40
1
 40
1
 40
1
 10
336.210491
 20
504.693033
 30
0.0
 10
339.862934
 20
504.684950
 30
0.0
 10
343.485721
 20
504.037050
 30
0.0
 10
346.914567
 20
502.778712
 30
0.0
  0
SPLINE
  5
14a
100
AcDbEntity
  8
0
 62
1
100
AcDbSpline
 70
8
 71
3
 72
8
 73
4
 74
0
 40
0
 40
0
 40
0
 40
0
 40
1
 40
1
 40
1
 40
1
 10
346.914567
 20
502.778712
 30
0.0
 10
349.399229
 20
501.866342
 30
0.0
 10
352.025661
 20
501.400552
 30
0.0
 10
354.672539
 20
501.402860
 30
0.0
  0
SPLINE
  5
14b
100
AcDbEntity
  8
0
 62
1
100
AcDbSpline
 70
8
 71
3
 72
8
 73
4
 74
0
 40
0
 40
0
 40
0
 40
0
 40
1
 40
1
 40
1
 40
1
 10
354.672539
 20
501.402860
 30
0.0
 10
356.983927
 20
501.405200
 30
0.0
 10
359.217442
 20
500.567690
 30
0.0
 10
360.957430
 20
499.046190
 30
0.0
  0
SPLINE
  5
14c
100
AcDbEntity
  8
0
 62
1
100
AcDbSpline
 70
8
 71
3
 72
8
 73
4
 74
0
 40
0
 40
0
 40
0
 40
0
 40
1
 40
1
 40
1
 40
1
 10
360.957430
 20
499.046190
 30
0.0
 10
362.790513
 20
497.443127
 30
0.0
 10
364.978341
 20
496.298677
 30
0.0
 10
367.340570
 20
495.707176
 30
0.0
  0
SPLINE
  5
14d
100
AcDbEntity
  8
0
 62
1
100
AcDbSpline
 70
8
 71
3
 72
8
 73
4
 74
0
 40
0
 40
0
 40
0
 40
0
 40
1
 40
1
 40
1
 40
1
 10
367.340570
 20
495.707176
 30
0.0
 10
368.968736
 20
495.299629
 30
0.0
 10
370.247292
 20
494.040286
 30
0.0
 10
370.679443
 20
492.418476
 30
0.0
  0
SPLINE
  5
14e
100
AcDbEntity
  8
0
 62
1
100
AcDbSpline
 70
8
 71
3
 72
8
 73
4
 74
0
 40
0
 40
0
 40
0
 40
0
 40
1
 40
1
 40
1
 40
1
 10
370.679443
 20
492.418476
 30
0.0
 10
371.061331
 20
490.983807
 30
0.0
 10
371.232672
 20
489.501249
 30
0.0
 10
371.188091
 20
488.017292
 30
0.0
  0
SPLINE
  5
14f
100
AcDbEntity
  8
0
 62
1
100
AcDbSpline
 70
8
 71
3
 72
8
 73
4
 74
0
 40
0
 40
0
 40
0
 40
0
 40
1
 40
1
 40
1
 40
1
 10
371.188091
 20
488.017292
 30
0.0
 10
371.112431
 20
485.495711
 30
0.0
 10
370.585873
 20
483.008050
 30
0.0
 10
369.633345
 20
480.672073
 30
0.0
  0
SPLINE
  5
150
100
AcDbEntity
  8
0
 62
1
100
AcDbSpline
 70
8
 71
3
 72
8
 73
4
 74
0
 40
0
 40
0
 40
0
 40
0
 40
1
 40
1
 40
1
 40
1
 10
369.633345
 20
480.672073
 30
0.0
 10
369.054257
 20
479.251911
 30
0.0
 10
369.054257
 20
477.661458
 30
0.0
 10
369.633345
 20
476.241296
 30
0.0
  0
SPLINE
  5
151
100
AcDbEntity
  8
0
 62
1
100
AcDbSpline
 70
8
 71
3
 72
8
 73
4
 74
0
 40
0
 40
0
 40
0
 40
0
 40
1
 40
1
 40
1
 40
1
 10
369.633345
 20
476.241296
 30
0.0
 10
370.224467
 20
474.791666
 30
0.0
 10
370.563172
 20
473.251573
 30
0.0
 10
370.634797
 20
471.687693
 30
0.0
  0
SPLINE
  5
152
100
AcDbEntity
  8
0
 62
1
100
AcDbSpline
 70
8
 71
3
 72
8
 73
4
 74
0
 40
0
 40
0
 40
0
 40
0
 40
1
 40
1
 40
1
 40
1
 10
370.634797
 20
471.687693
 30
0.0
 10
370.817072
 20
467.706427
 30
0.0
 10
371.960427
 20
463.828459
 30
0.0
 10
373.967178
 20
460.385110
 30
0.0
  0
SPLINE
  5
153
100
AcDbEntity
  8
0
 62
1
100
AcDbSpline
 70
8
 71
3
 72
8
 73
4
 74
0
 40
0
 40
0
 40
0
 40
0
 40
1
 40
1
 40
1
 40
1
 10
373.967178
 20
460.385110
 30
0.0
 10
376.912073
 20
455.332125
 30
0.0
 10
377.894153
 20
449.372002
 30
0.0
 10
376.726139
 20
443.641312
 30
0.0
  0
SPLINE
  5
154
100
AcDbEntity
  8
0
 62
1
100
AcDbSpline
 70
8
 71
3
 72
8
 73
4
 74
0
 40
0
 40
0
 40
0
 40
0
 40
1
 40
1
 40
1
 40
1
 10
376.726139
 20
443.641312
 30
0.0
 10
376.685696
 20
443.453815
 30
0.0
 10
376.725168
 20
443.257946
 30
0.0
 10
376.835073
 20
443.100748
 30
0.0
  0
SPLINE
  5
155
100
AcDbEntity
  8
0
 62
1
100
AcDbSpline
 70
8
 71
3
 72
8
 73
4
 74
0
 40
0
 40
0
 40
0
 40
0
 40
1
 40
1
 40
1
 40
1
 10
376.835073
 20
443.100748
 30
0.0
 10
376.944978
 20
442.943549
 30
0.0
 10
377.115386
 20
442.839224
 30
0.0
 10
377.305370
 20
442.812830
 30
0.0
  0
SPLINE
  5
156
100
AcDbEntity
  8
0
 62
1
100
AcDbSpline
 70
8
 71
3
 72
8
 73
4
 74
0
 40
0
 40
0
 40
0
 40
0
 40
1
 40
1
 40
1
 40
1
 10
377.305370
 20
442.812830
 30
0.0
 10
378.109343
 20
442.697429
 30
0.0
 10
378.928428
 20
442.747785
 30
0.0
 10
379.712211
 20
442.960798
 30
0.0
  0
SPLINE
  5
157
100
AcDbEntity
  8
0
 62
1
100
AcDbSpline
 70
8
 71
3
 72
8
 73
4
 74
0
 40
0
 40
0
 40
0
 40
0
 40
1
 40
1
 40
1
 40
1
 10
379.712211
 20
442.960798
 30
0.0
 10
379.192383
 20
442.021248
 30
0.0
 10
378.593127
 20
441.127893
 30
0.0
 10
377.920998
 20
440.290505
 30
0.0
  0
SPLINE
  5
158
100
AcDbEntity
  8
0
 62
1
100
AcDbSpline
 70
8
 71
3
 72
8
 73
4
 74
0
 40
0
 40
0
 40
0
 40
0
 40
1
 40
1
 40
1
 40
1
 10
377.920998
 20
440.290505
 30
0.0
 10
377.456305
 20
439.711961
 30
0.0
 10
377.456305
 20
438.888143
 30
0.0
 10
377.920998
 20
438.309598
 30
0.0
  0
SPLINE
  5
159
100
AcDbEntity
  8
0
 62
1
100
AcDbSpline
 70
8
 71
3
 72
8
 73
4
 74
0
 40
0
 40
0
 40
0
 40
0
 40
1
 40
1
 40
1
 40
1
 10
377.920998
 20
438.309598
 30
0.0
 10
378.443791
 20
437.658139
 30
0.0
 10
378.934731
 20
436.981747
 30
0.0
 10
379.392094
 20
436.282798
 30
0.0
  0
SPLINE
  5
15a
100
AcDbEntity
  8
0
 62
1
100
AcDbSpline
 70
8
 71
3
 72
8
 73
4
 74
0
 40
0
 40
0
 40
0
 40
0
 40
1
 40
1
 40
1
 40
1
 10
379.392094
 20
436.282798
 30
0.0
 10
380.905925
 20
433.969407
 30
0.0
 10
382.666237
 20
431.827055
 30
0.0
 10
384.642142
 20
429.893337
 30
0.0
  0
SPLINE
  5
15b
100
AcDbEntity
  8
0
 62
1
100
AcDbSpline
 70
8
 71
3
 72
8
 73
4
 74
0
 40
0
 40
0
 40
0
 40
0
 40
1
 40
1
 40
1
 40
1
 10
384.642142
 20
429.893337
 30
0.0
 10
386.432491
 20
428.140997
 30
0.0
 10
388.156378
 20
426.322017
 30
0.0
 10
389.810154
 20
424.440244
 30
0.0
  0
SPLINE
  5
15c
100
AcDbEntity
  8
0
 62
1
100
AcDbSpline
 70
8
 71
3
 72
8
 73
4
 74
0
 40
0
 40
0
 40
0
 40
0
 40
1
 40
1
 40
1
 40
1
 10
389.810154
 20
424.440244
 30
0.0
 10
390.896413
 20
423.204155
 30
0.0
 10
391.240800
 20
421.482490
 30
0.0
 10
390.713613
 20
419.923661
 30
0.0
  0
SPLINE
  5
15d
100
AcDbEntity
  8
0
 62
1
100
AcDbSpline
 70
8
 71
3
 72
8
 73
4
 74
0
 40
0
 40
0
 40
0
 40
0
 40
1
 40
1
 40
1
 40
1
 10
390.713613
 20
419.923661
 30
0.0
 10
390.365957
 20
418.895758
 30
0.0
 10
389.671622
 20
418.020769
 30
0.0
 10
388.749600
 20
417.448647
 30
0.0
  0
SPLINE
  5
15e
100
AcDbEntity
  8
0
 62
1
100
AcDbSpline
 70
8
 71
3
 72
8
 73
4
 74
0
 40
0
 40
0
 40
0
 40
0
 40
1
 40
1
 40
1
 40
1
 10
388.749600
 20
417.448647
 30
0.0
 10
387.074167
 20
416.408786
 30
0.0
 10
385.295337
 20
415.545614
 30
0.0
 10
383.441698
 20
414.873003
 30
0.0
  0
SPLINE
  5
15f
100
AcDbEntity
  8
0
 62
1
100
AcDbSpline
 70
8
 71
3
 72
8
 73
4
 74
0
 40
0
 40
0
 40
0
 40
0
 40
1
 40
1
 40
1
 40
1
 10
383.441698
 20
414.873003
 30
0.0
 10
382.646382
 20
414.584536
 30
0.0
 10
382.116102
 20
413.829809
 30
0.0
 10
382.114318
 20
412.983797
 30
0.0
  0
SPLINE
  5
160
100
AcDbEntity
  8
0
 62
1
100
AcDbSpline
 70
8
 71
3
 72
8
 73
4
 74
0
 40
0
 40
0
 40
0
 40
0
 40
1
 40
1
 40
1
 40
1
 10
382.114318
 20
412.983797
 30
0.0
 10
382.112919
 20
411.981865
 30
0.0
 10
382.036262
 20
410.981454
 30
0.0
 10
381.884995
 20
409.991006
 30
0.0
  0
SPLINE
  5
161
100
AcDbEntity
  8
0
 62
1
100
AcDbSpline
 70
8
 71
3
 72
8
 73
4
 74
0
 40
0
 40
0
 40
0
 40
0
 40
1
 40
1
 40
1
 40
1
 10
381.884995
 20
409.991006
 30
0.0
 10
381.682088
 20
408.660653
 30
0.0
 10
381.948750
 20
407.301162
 30
0.0
 10
382.639181
 20
406.146036
 30
0.0
  0
SPLINE
  5
162
100
AcDbEntity
  8
0
 62
1
100
AcDbSpline
 70
8
 71
3
 72
8
 73
4
 74
0
 40
0
 40
0
 40
0
 40
0
 40
1
 40
1
 40
1
 40
1
 10
382.639181
 20
406.146036
 30
0.0
 10
383.222254
 20
405.170579
 30
0.0
 10
383.837725
 20
404.214857
 30
0.0
 10
384.484564
 20
403.280464
 30
0.0
  0
SPLINE
  5
163
100
AcDbEntity
  8
0
 62
1
100
AcDbSpline
 70
8
 71
3
 72
8
 73
4
 74
0
 40
0
 40
0
 40
0
 40
0
 40
1
 40
1
 40
1
 40
1
 10
384.484564
 20
403.280464
 30
0.0
 10
385.030172
 20
402.492254
 30
0.0
 10
384.881646
 20
401.417576
 30
0.0
 10
384.142706
 20
400.806896
 30
0.0
  0
SPLINE
  5
164
100
AcDbEntity
  8
0
 62
1
100
AcDbSpline
 70
8
 71
3
 72
8
 73
4
 74
0
 40
0
 40
0
 40
0
 40
0
 40
1
 40
1
 40
1
 40
1
 10
384.142706
 20
400.806896
 30
0.0
 10
383.545185
 20
400.313166
 30
0.0
 10
382.993425
 20
399.766538
 30
0.0
 10
382.494132
 20
399.173658
 30
0.0
  0
SPLINE
  5
165
100
AcDbEntity
  8
0
 62
1
100
AcDbSpline
 70
8
 71
3
 72
8
 73
4
 74
0
 40
0
 40
0
 40
0
 40
0
 40
1
 40
1
 40
1
 40
1
 10
382.494132
 20
399.173658
 30
0.0
 10
382.248714
 20
398.883232
 30
0.0
 10
382.248714
 20
398.458096
 30
0.0
 10
382.494132
 20
398.167671
 30
0.0
  0
SPLINE
  5
166
100
AcDbEntity
  8
0
 62
1
100
AcDbSpline
 70
8
 71
3
 72
8
 73
4
 74
0
 40
0
 40
0
 40
0
 40
0
 40
1
 40
1
 40
1
 40
1
 10
382.494132
 20
398.167671
 30
0.0
 10
382.842433
 20
397.756624
 30
0.0
 10
383.214562
 20
397.366378
 30
0.0
 10
383.608602
 20
396.998946
 30
0.0
  0
SPLINE
  5
167
100
AcDbEntity
  8
0
 62
1
100
AcDbSpline
 70
8
 71
3
 72
8
 73
4
 74
0
 40
0
 40
0
 40
0
 40
0
 40
1
 40
1
 40
1
 40
1
 10
383.608602
 20
396.998946
 30
0.0
 10
384.180099
 20
396.463121
 30
0.0
 10
384.514386
 20
395.721557
 30
0.0
 10
384.537424
 20
394.938494
 30
0.0
  0
SPLINE
  5
168
100
AcDbEntity
  8
0
 62
1
100
AcDbSpline
 70
8
 71
3
 72
8
 73
4
 74
0
 40
0
 40
0
 40
0
 40
0
 40
1
 40
1
 40
1
 40
1
 10
384.537424
 20
394.938494
 30
0.0
 10
384.560462
 20
394.155431
 30
0.0
 10
384.270350
 20
393.395496
 30
0.0
 10
383.731342
 20
392.827000
 30
0.0
  0
SPLINE
  5
169
100
AcDbEntity
  8
0
 62
1
100
AcDbSpline
 70
8
 71
3
 72
8
 73
4
 74
0
 40
0
 40
0
 40
0
 40
0
 40
1
 40
1
 40
1
 40
1
 10
383.731342
 20
392.827000
 30
0.0
 10
382.853828
 20
392.016139
 30
0.0
 10
382.060101
 20
391.119070
 30
0.0
 10
381.362145
 20
390.149337
 30
0.0
  0
SPLINE
  5
16a
100
AcDbEntity
  8
0
 62
1
100
AcDbSpline
 70
8
 71
3
 72
8
 73
4
 74
0
 40
0
 40
0
 40
0
 40
0
 40
1
 40
1
 40
1
 40
1
 10
381.362145
 20
390.149337
 30
0.0
 10
379.865514
 20
388.069288
 30
0.0
 10
379.352618
 20
385.439072
 30
0.0
 10
379.958088
 20
382.949110
 30
0.0
  0
SPLINE
  5
16b
100
AcDbEntity
  8
0
 62
1
100
AcDbSpline
 70
8
 71
3
 72
8
 73
4
 74
0
 40
0
 40
0
 40
0
 40
0
 40
1
 40
1
 40
1
 40
1
 10
379.958088
 20
382.949110
 30
0.0
 10
380.505606
 20
380.697087
 30
0.0
 10
380.333661
 20
378.330105
 30
0.0
 10
379.466419
 20
376.180855
 30
0.0
  0
SPLINE
  5
16c
100
AcDbEntity
  8
0
 62
1
100
AcDbSpline
 70
8
 71
3
 72
8
 73
4
 74
0
 40
0
 40
0
 40
0
 40
0
 40
1
 40
1
 40
1
 40
1
 10
379.466419
 20
376.180855
 30
0.0
 10
378.595902
 20
374.023069
 30
0.0
 10
376.944273
 20
372.272536
 30
0.0
 10
374.840702
 20
371.278137
 30
0.0
  0
SPLINE
  5
16d
100
AcDbEntity
  8
0
 62
1
100
AcDbSpline
 70
8
 71
3
 72
8
 73
4
 74
0
 40
0
 40
0
 40
0
 40
0
 40
1
 40
1
 40
1
 40
1
 10
374.840702
 20
371.278137
 30
0.0
 10
372.903161
 20
370.362346
 30
0.0
 10
370.826365
 20
369.776340
 30
0.0
 10
368.695899
 20
369.544269
 30
0.0
  0
SPLINE
  5
16e
100
AcDbEntity
  8
0
 62
1
100
AcDbSpline
 70
8
 71
3
 72
8
 73
4
 74
0
 40
0
 40
0
 40
0
 40
0
 40
1
 40
1
 40
1
 40
1
 10
368.695899
 20
369.544269
 30
0.0
 10
362.630495
 20
368.884471
 30
0.0
 10
356.520014
 20
368.740957
 30
0.0
 10
350.430321
 20
369.115274
 30
0.0
  0
SPLINE
  5
16f
100
AcDbEntity
  8
0
 62
1
100
AcDbSpline
 70
8
 71
3
 72
8
 73
4
 74
0
 40
0
 40
0
 40
0
 40
0
 40
1
 40
1
 40
1
 40
1
 10
350.430321
 20
369.115274
 30
0.0
 10
348.343926
 20
369.243094
 30
0.0
 10
346.376323
 20
368.136162
 30
0.0
 10
345.402340
 20
366.286637
 30
0.0
  0
SPLINE
  5
170
100
AcDbEntity
  8
0
 62
1
100
AcDbSpline
 70
8
 71
3
 72
8
 73
4
 74
0
 40
0
 40
0
 40
0
 40
0
 40
1
 40
1
 40
1
 40
1
 10
345.402340
 20
366.286637
 30
0.0
 10
343.334287
 20
362.360663
 30
0.0
 10
341.057500
 20
358.548238
 30
0.0
 10
338.581757
 20
354.865737
 30
0.0
  0
SPLINE
  5
171
100
AcDbEntity
  8
0
 62
1
100
AcDbSpline
 70
8
 71
3
 72
8
 73
4
 74
0
 40
0
 40
0
 40
0
 40
0
 40
1
 40
1
 40
1
 40
1
 10
338.581757
 20
354.865737
 30
0.0
 10
337.418451
 20
353.135425
 30
0.0
 10
336.488640
 20
351.259124
 30
0.0
 10
335.816419
 20
349.285453
 30
0.0
  0
SPLINE
  5
172
100
AcDbEntity
  8
0
 62
1
100
AcDbSpline
 70
8
 71
3
 72
8
 73
4
 74
0
 40
0
 40
0
 40
0
 40
0
 40
1
 40
1
 40
1
 40
1
 10
335.816419
 20
349.285453
 30
0.0
 10
335.067704
 20
347.086198
 30
0.0
 10
334.076925
 20
344.976950
 30
0.0
 10
332.862321
 20
342.996537
 30
0.0
  0
SPLINE
  5
173
100
AcDbEntity
  8
0
 62
1
100
AcDbSpline
 70
8
 71
3
 72
8
 73
4
 74
0
 40
0
 40
0
 40
0
 40
0
 40
1
 40
1
 40
1
 40
1
 10
332.862321
 20
342.996537
 30
0.0
 10
331.494212
 20
340.766046
 30
0.0
 10
330.875060
 20
338.156571
 30
0.0
 10
331.095288
 20
335.549214
 30
0.0
  0
SPLINE
  5
174
100
AcDbEntity
  8
0
 62
1
100
AcDbSpline
 70
8
 71
3
 72
8
 73
4
 74
0
 40
0
 40
0
 40
0
 40
0
 40
1
 40
1
 40
1
 40
1
 10
331.095288
 20
335.549214
 30
0.0
 10
331.157766
 20
334.810384
 30
0.0
 10
331.058779
 20
334.066806
 30
0.0
 10
330.805191
 20
333.370052
 30
0.0
  0
SPLINE
  5
175
100
AcDbEntity
  8
0
 62
1
100
AcDbSpline
 70
8
 71
3
 72
8
 73
4
 74
0
 40
0
 40
0
 40
0
 40
0
 40
1
 40
1
 40
1
 40
1
 10
330.805191
 20
333.370052
 30
0.0
 10
330.379492
 20
332.200414
 30
0.0
 10
330.219104
 20
330.950775
 30
0.0
 10
330.335632
 20
329.711545
 30
0.0
  0
SPLINE
  5
176
100
AcDbEntity
  8
0
 62
1
100
AcDbSpline
 70
8
 71
3
 72
8
 73
4
 74
0
 40
0
 40
0
 40
0
 40
0
 40
1
 40
1
 40
1
 40
1
 10
330.335632
 20
329.711545
 30
0.0
 10
330.459315
 20
328.395027
 30
0.0
 10
330.920946
 20
327.132773
 30
0.0
 10
331.675795
 20
326.047085
 30
0.0
  0
SPLINE
  5
177
100
AcDbEntity
  8
0
 62
1
100
AcDbSpline
 70
8
 71
3
 72
8
 73
4
 74
0
 40
0
 40
0
 40
0
 40
0
 40
1
 40
1
 40
1
 40
1
 10
331.675795
 20
326.047085
 30
0.0
 10
333.565271
 20
323.329536
 30
0.0
 10
335.278531
 20
320.493616
 30
0.0
 10
336.805030
 20
317.556782
 30
0.0
  0
SPLINE
  5
178
100
AcDbEntity
  8
0
 62
1
100
AcDbSpline
 70
8
 71
3
 72
8
 73
4
 74
0
 40
0
 40
0
 40
0
 40
0
 40
1
 40
1
 40
1
 40
1
 10
336.805030
 20
317.556782
 30
0.0
 10
338.026168
 20
315.208348
 30
0.0
 10
339.967485
 20
313.312848
 30
0.0
 10
342.344409
 20
312.148137
 30
0.0
  0
SPLINE
  5
179
100
AcDbEntity
  8
0
 62
1
100
AcDbSpline
 70
8
 71
3
 72
8
 73
4
 74
0
 40
0
 40
0
 40
0
 40
0
 40
1
 40
1
 40
1
 40
1
 10
342.344409
 20
312.148137
 30
0.0
 10
344.767603
 20
310.960365
 30
0.0
 10
346.738862
 20
309.016854
 30
0.0
 10
347.960863
 20
306.610741
 30
0.0
  0
SPLINE
  5
17a
100
AcDbEntity
  8
0
 62
1
100
AcDbSpline
 70
8
 71
3
 72
8
 73
4
 74
0
 40
0
 40
0
 40
0
 40
0
 40
1
 40
1
 40
1
 40
1
 10
347.960863
 20
306.610741
 30
0.0
 10
354.571717
 20
293.598282
 30
0.0
 10
362.224614
 20
281.142061
 30
0.0
 10
370.844646
 20
269.364008
 30
0.0
  0
SPLINE
  5
17b
100
AcDbEntity
  8
0
 62
1
100
AcDbSpline
 70
8
 71
3
 72
8
 73
4
 74
0
 40
0
 40
0
 40
0
 40
0
 40
1
 40
1
 40
1
 40
1
 10
370.844646
 20
269.364008
 30
0.0
 10
378.136676
 20
259.400330
 30
0.0
 10
382.482267
 20
247.588139
 30
0.0
 10
383.385940
 20
235.274247
 30
0.0
  0
SPLINE
  5
17c
100
AcDbEntity
  8
0
 62
1
100
AcDbSpline
 70
8
 71
3
 72
8
 73
4
 74
0
 40
0
 40
0
 40
0
 40
0
 40
1
 40
1
 40
1
 40
1
 10
172.155671
 20
66.254372
 30
0.0
 10
153.906328
 20
37.419234
 30
0.0
 10
118.814850
 20
24.090068
 30
0.0
 10
86.024016
 20
33.538076
 30
0.0
  0
SPLINE
  5
17d
100
AcDbEntity
  8
0
 62
1
100
AcDbSpline
 70
8
 71
3
 72
8
 73
4
 74
0
 40
0
 40
0
 40
0
 40
0
 40
1
 40
1
 40
1
 40
1
 10
86.024016
 20
33.538076
 30
0.0
 10
53.233182
 20
42.986083
 30
0.0
 10
30.613831
 20
72.943443
 30
0.0
 10
30.505062
 20
107.068095
 30
0.0
  0
SPLINE
  5
17e
100
AcDbEntity
  8
0
 62
1
100
AcDbSpline
 70
8
 71
3
 72
8
 73
4
 74
0
 40
0
 40
0
 40
0
 40
0
 40
1
 40
1
 40
1
 40
1
 10
30.505062
 20
107.068095
 30
0.0
 10
30.396293
 20
141.192746
 30
0.0
 10
52.824213
 20
171.293690
 30
0.0
 10
85.554153
 20
180.950539
 30
0.0
  0
SPLINE
  5
17f
100
AcDbEntity
  8
0
 62
1
100
AcDbSpline
 70
8
 71
3
 72
8
 73
4
 74
0
 40
0
 40
0
 40
0
 40
0
 40
1
 40
1
 40
1
 40
1
 10
85.554153
 20
180.950539
 30
0.0
 10
118.284092
 20
190.607388
 30
0.0
 10
153.459827
 20
177.502191
 30
0.0
 10
171.892616
 20
148.783975
 30
0.0
  0
SPLINE
  5
180
100
AcDbEntity
  8
0
 62
1
100
AcDbSpline
 70
8
 71
3
 72
8
 73
4
 74
0
 40
0
 40
0
 40
0
 40
0
 40
1
 40
1
 40
1
 40
1
 10
171.892616
 20
148.783975
 30
0.0
 10
172.565805
 20
147.729019
 30
0.0
 10
173.956188
 20
147.401195
 30
0.0
 10
175.029746
 20
148.044302
 30
0.0
  0
LWPOLYLINE
  5
181
100
AcDbEntity
  8
0
 62
1
100
AcDbPolyline
 90
2
 70
0
 10
383.385940
 20
235.274247
 30
0.0
 10
314.650998
 20
235.316852
 30
0.0
  0
SPLINE
  5
182
100
AcDbEntity
  8
0
 62
1
100
AcDbSpline
 70
8
 71
3
 72
8
 73
4
 74
0
 40
0
 40
0
 40
0
 40
0
 40
1
 40
1
 40
1
 40
1
 10
196.587000
 20
161.006769
 30
0.0
 10
197.120043
 20
161.327330
 30
0.0
 10
197.501437
 20
161.849150
 30
0.0
 10
197.645031
 20
162.454357
 30
0.0
  0
SPLINE
  5
183
100
AcDbEntity
  8
0
 62
1
100
AcDbSpline
 70
8
 71
3
 72
8
 73
4
 74
0
 40
0
 40
0
 40
0
 40
0
 40
1
 40
1
 40
1
 40
1
 10
197.645031
 20
162.454357
 30
0.0
 10
197.788625
 20
163.059563
 30
0.0
 10
197.682304
 20
163.697100
 30
0.0
 10
197.350087
 20
164.222957
 30
0.0
  0
SPLINE
  5
184
100
AcDbEntity
  8
0
 62
1
100
AcDbSpline
 70
8
 71
3
 72
8
 73
4
 74
0
 40
0
 40
0
 40
0
 40
0
 40
1
 40
1
 40
1
 40
1
 10
197.350087
 20
164.222957
 30
0.0
 10
171.977129
 20
204.373876
 30
0.0
 10
123.091910
 20
222.881678
 30
0.0
 10
77.490129
 20
209.601589
 30
0.0
  0
SPLINE
  5
185
100
AcDbEntity
  8
0
 62
1
100
AcDbSpline
 70
8
 71
3
 72
8
 73
4
 74
0
 40
0
 40
0
 40
0
 40
0
 40
1
 40
1
 40
1
 40
1
 10
77.490129
 20
209.601589
 30
0.0
 10
31.888348
 20
196.321501
 30
0.0
 10
0.583541
 20
154.460868
 30
0.0
 10
0.734970
 20
106.964971
 30
0.0
  0
SPLINE
  5
186
100
AcDbEntity
  8
0
 62
1
100
AcDbSpline
 70
8
 71
3
 72
8
 73
4
 74
0
 40
0
 40
0
 40
0
 40
0
 40
1
 40
1
 40
1
 40
1
 10
0.734970
 20
106.964971
 30
0.0
 10
0.886400
 20
59.469074
 30
0.0
 10
32.457492
 20
17.808906
 30
0.0
 10
78.143026
 20
4.819865
 30
0.0
  0
SPLINE
  5
187
100
AcDbEntity
  8
0
 62
1
100
AcDbSpline
 70
8
 71
3
 72
8
 73
4
 74
0
 40
0
 40
0
 40
0
 40
0
 40
1
 40
1
 40
1
 40
1
 10
78.143026
 20
4.819865
 30
0.0
 10
123.828559
 20
-8.169176
 30
0.0
 10
172.594771
 20
10.649964
 30
0.0
 10
197.711192
 20
50.961855
 30
0.0
  0
SPLINE
  5
188
100
AcDbEntity
  8
0
 62
1
100
AcDbSpline
 70
8
 71
3
 72
8
 73
4
 74
0
 40
0
 40
0
 40
0
 40
0
 40
1
 40
1
 40
1
 40
1
 10
197.711192
 20
50.961855
 30
0.0
 10
198.040225
 20
51.489848
 30
0.0
 10
198.142588
 20
52.128163
 30
0.0
 10
197.995152
 20
52.732565
 30
0.0
  0
SPLINE
  5
189
100
AcDbEntity
  8
0
 62
1
100
AcDbSpline
 70
8
 71
3
 72
8
 73
4
 74
0
 40
0
 40
0
 40
0
 40
0
 40
1
 40
1
 40
1
 40
1
 10
197.995152
 20
52.732565
 30
0.0
 10
197.847717
 20
53.336967
 30
0.0
 10
197.462924
 20
53.856447
 30
0.0
 10
196.927724
 20
54.173622
 30
0.0
  0
LWPOLYLINE
  5
18a
100
AcDbEntity
  8
0
 62
1
100
AcDbPolyline
 90
2
 70
0
 10
175.029746
 20
148.044302
 30
0.0
 10
196.587000
 20
161.006769
 30
0.0
  0
SPLINE
  5
18b
100
AcDbEntity
  8
0
 62
1
100
AcDbSpline
 70
8
 71
3
 72
8
 73
4
 74
0
 40
0
 40
0
 40
0
 40
0
 40
1
 40
1
 40
1
 40
1
 10
175.288238
 20
66.998494
 30
0.0
 10
174.211914
 20
67.635723
 30
0.0
 10
172.823978
 20
67.301412
 30
0.0
 10
172.155841
 20
66.243997
 30
0.0
  0
LWPOLYLINE
  5
18c
100
AcDbEntity
  8
0
 62
1
100
AcDbPolyline
 90
2
 70
0
 10
196.927724
 20
54.173622
 30
0.0
 10
175.288238
 20
66.998494
 30
0.0
  0
LWPOLYLINE
  5
18d
100
AcDbEntity
  8
0
 62
1
100
AcDbPolyline
 90
2
 70
0
 10
172.155841
 20
66.243997
 30
0.0
 10
172.155671
 20
66.254372
 30
0.0
  0
SPLINE
  5
18e
100
AcDbEntity
  8
0
 62
1
100
AcDbSpline
 70
8
 71
3
 72
8
 73
4
 74
0
 40
0
 40
0
 40
0
 40
0
 40
1
 40
1
 40
1
 40
1
 10
115.755605
 20
93.578825
 30
0.0
 10
115.142374
 20
93.578831
 30
0.0
 10
114.554265
 20
93.822460
 30
0.0
 10
114.120675
 20
94.256109
 30
0.0
  0
SPLINE
  5
18f
100
AcDbEntity
  8
0
 62
1
100
AcDbSpline
 70
8
 71
3
 72
8
 73
4
 74
0
 40
0
 40
0
 40
0
 40
0
 40
1
 40
1
 40
1
 40
1
 10
114.120675
 20
94.256109
 30
0.0
 10
113.687084
 20
94.689758
 30
0.0
 10
113.443534
 20
95.277900
 30
0.0
 10
113.443611
 20
95.891131
 30
0.0
  0
SPLINE
  5
190
100
AcDbEntity
  8
0
 62
1
100
AcDbSpline
 70
8
 71
3
 72
8
 73
4
 74
0
 40
0
 40
0
 40
0
 40
0
 40
1
 40
1
 40
1
 40
1
 10
113.443611
 20
95.891131
 30
0.0
 10
113.443611
 20
95.891131
 30
0.0
 10
113.443611
 20
121.036422
 30
0.0
 10
113.443611
 20
121.036422
 30
0.0
  0
SPLINE
  5
191
100
AcDbEntity
  8
0
 62
1
100
AcDbSpline
 70
8
 71
3
 72
8
 73
4
 74
0
 40
0
 40
0
 40
0
 40
0
 40
1
 40
1
 40
1
 40
1
 10
113.443611
 20
121.036422
 30
0.0
 10
113.443534
 20
121.649653
 30
0.0
 10
113.687084
 20
122.237794
 30
0.0
 10
114.120675
 20
122.671444
 30
0.0
  0
SPLINE
  5
192
100
AcDbEntity
  8
0
 62
1
100
AcDbSpline
 70
8
 71
3
 72
8
 73
4
 74
0
 40
0
 40
0
 40
0
 40
0
 40
1
 40
1
 40
1
 40
1
 10
114.120675
 20
122.671444
 30
0.0
 10
114.554265
 20
123.105093
 30
0.0
 10
115.142374
 20
123.348722
 30
0.0
 10
115.755605
 20
123.348728
 30
0.0
  0
LWPOLYLINE
  5
193
100
AcDbEntity
  8
0
 62
1
100
AcDbPolyline
 90
4
 70
0
 10
115.755605
 20
123.348728
 30
0.0
 10
227.187935
 20
123.348728
 30
0.0
 10
227.187935
 20
93.578825
 30
0.0
 10
115.755605
 20
93.578825
 30
0.0
  0
SPLINE
  5
194
100
AcDbEntity
  8
0
 62
1
100
AcDbSpline
 70
8
 71
3
 72
8
 73
4
 74
0
 40
0
 40
0
 40
0
 40
0
 40
1
 40
1
 40
1
 40
1
 10
314.650998
 20
235.316852
 30
0.0
 10
310.446000
 20
241.381977
 30
0.0
 10
307.133090
 20
248.019128
 30
0.0
 10
304.813559
 20
255.025378
 30
0.0
  0
SPLINE
  5
195
100
AcDbEntity
  8
0
 62
1
100
AcDbSpline
 70
8
 71
3
 72
8
 73
4
 74
0
 40
0
 40
0
 40
0
 40
0
 40
1
 40
1
 40
1
 40
1
 10
304.813559
 20
255.025378
 30
0.0
 10
301.137683
 20
266.128031
 30
0.0
 10
296.040382
 20
276.708277
 30
0.0
 10
289.648658
 20
286.502502
 30
0.0
  0
SPLINE
  5
196
100
AcDbEntity
  8
0
 62
1
100
AcDbSpline
 70
8
 71
3
 72
8
 73
4
 74
0
 40
0
 40
0
 40
0
 40
0
 40
1
 40
1
 40
1
 40
1
 10
289.648658
 20
286.502502
 30
0.0
 10
290.399371
 20
290.211524
 30
0.0
 10
290.401298
 20
294.033172
 30
0.0
 10
289.654328
 20
297.742949
 30
0.0
  0
SPLINE
  5
197
100
AcDbEntity
  8
0
 62
1
100
AcDbSpline
 70
8
 71
3
 72
8
 73
4
 74
0
 40
0
 40
0
 40
0
 40
0
 40
1
 40
1
 40
1
 40
1
 10
289.654328
 20
297.742949
 30
0.0
 10
289.358912
 20
298.958514
 30
0.0
 10
288.754361
 20
300.077100
 30
0.0
 10
287.899313
 20
300.990206
 30
0.0
  0
SPLINE
  5
198
100
AcDbEntity
  8
0
 62
1
100
AcDbSpline
 70
8
 71
3
 72
8
 73
4
 74
0
 40
0
 40
0
 40
0
 40
0
 40
1
 40
1
 40
1
 40
1
 10
287.899313
 20
300.990206
 30
0.0
 10
284.550552
 20
304.565743
 30
0.0
 10
280.867686
 20
307.812998
 30
0.0
 10
276.900959
 20
310.687671
 30
0.0
  0
SPLINE
  5
199
100
AcDbEntity
  8
0
 62
1
100
AcDbSpline
 70
8
 71
3
 72
8
 73
4
 74
0
 40
0
 40
0
 40
0
 40
0
 40
1
 40
1
 40
1
 40
1
 10
276.900959
 20
310.687671
 30
0.0
 10
274.874986
 20
312.156026
 30
0.0
 10
272.799866
 20
313.555348
 30
0.0
 10
270.679167
 20
314.883230
 30
0.0
  0
SPLINE
  5
19a
100
AcDbEntity
  8
0
 62
1
100
AcDbSpline
 70
8
 71
3
 72
8
 73
4
 74
0
 40
0
 40
0
 40
0
 40
0
 40
1
 40
1
 40
1
 40
1
 10
270.679167
 20
314.883230
 30
0.0
 10
270.357822
 20
315.084576
 30
0.0
 10
270.136385
 20
315.412200
 30
0.0
 10
270.069370
 20
315.785445
 30
0.0
  0
SPLINE
  5
19b
100
AcDbEntity
  8
0
 62
1
100
AcDbSpline
 70
8
 71
3
 72
8
 73
4
 74
0
 40
0
 40
0
 40
0
 40
0
 40
1
 40
1
 40
1
 40
1
 10
270.069370
 20
315.785445
 30
0.0
 10
270.002355
 20
316.158691
 30
0.0
 10
270.095988
 20
316.542884
 30
0.0
 10
270.327217
 20
316.843444
 30
0.0
  0
SPLINE
  5
19c
100
AcDbEntity
  8
0
 62
1
100
AcDbSpline
 70
8
 71
3
 72
8
 73
4
 74
0
 40
0
 40
0
 40
0
 40
0
 40
1
 40
1
 40
1
 40
1
 10
270.327217
 20
316.843444
 30
0.0
 10
270.773741
 20
317.423347
 30
0.0
 10
271.094542
 20
318.089924
 30
0.0
 10
271.269170
 20
318.800682
 30
0.0
  0
SPLINE
  5
19d
100
AcDbEntity
  8
0
 62
1
100
AcDbSpline
 70
8
 71
3
 72
8
 73
4
 74
0
 40
0
 40
0
 40
0
 40
0
 40
1
 40
1
 40
1
 40
1
 10
271.269170
 20
318.800682
 30
0.0
 10
271.824786
 20
321.060435
 30
0.0
 10
272.533641
 20
323.279730
 30
0.0
 10
273.390817
 20
325.443163
 30
0.0
  0
SPLINE
  5
19e
100
AcDbEntity
  8
0
 62
1
100
AcDbSpline
 70
8
 71
3
 72
8
 73
4
 74
0
 40
0
 40
0
 40
0
 40
0
 40
1
 40
1
 40
1
 40
1
 10
273.390817
 20
325.443163
 30
0.0
 10
274.699059
 20
328.745376
 30
0.0
 10
275.783292
 20
332.131992
 30
0.0
 10
276.636146
 20
335.579998
 30
0.0
  0
SPLINE
  5
19f
100
AcDbEntity
  8
0
 62
1
100
AcDbSpline
 70
8
 71
3
 72
8
 73
4
 74
0
 40
0
 40
0
 40
0
 40
0
 40
1
 40
1
 40
1
 40
1
 10
276.636146
 20
335.579998
 30
0.0
 10
276.866464
 20
336.511528
 30
0.0
 10
277.242637
 20
337.400777
 30
0.0
 10
277.750729
 20
338.214801
 30
0.0
  0
SPLINE
  5
1a0
100
AcDbEntity
  8
0
 62
1
100
AcDbSpline
 70
8
 71
3
 72
8
 73
4
 74
0
 40
0
 40
0
 40
0
 40
0
 40
1
 40
1
 40
1
 40
1
 10
277.750729
 20
338.214801
 30
0.0
 10
277.989145
 20
338.600500
 30
0.0
 10
278.485226
 20
338.736168
 30
0.0
 10
278.886742
 20
338.525478
 30
0.0
  0
SPLINE
  5
1a1
100
AcDbEntity
  8
0
 62
1
100
AcDbSpline
 70
8
 71
3
 72
8
 73
4
 74
0
 40
0
 40
0
 40
0
 40
0
 40
1
 40
1
 40
1
 40
1
 10
278.886742
 20
338.525478
 30
0.0
 10
280.596249
 20
337.622983
 30
0.0
 10
282.437252
 20
336.995411
 30
0.0
 10
284.342060
 20
336.665837
 30
0.0
  0
SPLINE
  5
1a2
100
AcDbEntity
  8
0
 62
1
100
AcDbSpline
 70
8
 71
3
 72
8
 73
4
 74
0
 40
0
 40
0
 40
0
 40
0
 40
1
 40
1
 40
1
 40
1
 10
284.342060
 20
336.665837
 30
0.0
 10
287.130788
 20
336.182965
 30
0.0
 10
289.912194
 20
335.658715
 30
0.0
 10
292.685357
 20
335.093261
 30
0.0
  0
SPLINE
  5
1a3
100
AcDbEntity
  8
0
 62
1
100
AcDbSpline
 70
8
 71
3
 72
8
 73
4
 74
0
 40
0
 40
0
 40
0
 40
0
 40
1
 40
1
 40
1
 40
1
 10
292.685357
 20
335.093261
 30
0.0
 10
295.761549
 20
334.468005
 30
0.0
 10
298.899636
 20
334.199944
 30
0.0
 10
302.037307
 20
334.294401
 30
0.0
  0
SPLINE
  5
1a4
100
AcDbEntity
  8
0
 62
1
100
AcDbSpline
 70
8
 71
3
 72
8
 73
4
 74
0
 40
0
 40
0
 40
0
 40
0
 40
1
 40
1
 40
1
 40
1
 10
302.037307
 20
334.294401
 30
0.0
 10
304.174605
 20
334.356048
 30
0.0
 10
306.311528
 20
334.430033
 30
0.0
 10
308.447972
 20
334.516354
 30
0.0
  0
SPLINE
  5
1a5
100
AcDbEntity
  8
0
 62
1
100
AcDbSpline
 70
8
 71
3
 72
8
 73
4
 74
0
 40
0
 40
0
 40
0
 40
0
 40
1
 40
1
 40
1
 40
1
 10
308.447972
 20
334.516354
 30
0.0
 10
309.128473
 20
334.546044
 30
0.0
 10
309.781093
 20
334.795157
 30
0.0
 10
310.308293
 20
335.226461
 30
0.0
  0
SPLINE
  5
1a6
100
AcDbEntity
  8
0
 62
1
100
AcDbSpline
 70
8
 71
3
 72
8
 73
4
 74
0
 40
0
 40
0
 40
0
 40
0
 40
1
 40
1
 40
1
 40
1
 10
310.308293
 20
335.226461
 30
0.0
 10
312.167030
 20
336.736769
 30
0.0
 10
313.726480
 20
338.581819
 30
0.0
 10
314.906003
 20
340.666203
 30
0.0
  0
SPLINE
  5
1a7
100
AcDbEntity
  8
0
 62
1
100
AcDbSpline
 70
8
 71
3
 72
8
 73
4
 74
0
 40
0
 40
0
 40
0
 40
0
 40
1
 40
1
 40
1
 40
1
 10
314.906003
 20
340.666203
 30
0.0
 10
315.389073
 20
341.520070
 30
0.0
 10
315.559748
 20
342.515497
 30
0.0
 10
315.388715
 20
343.481516
 30
0.0
  0
SPLINE
  5
1a8
100
AcDbEntity
  8
0
 62
1
100
AcDbSpline
 70
8
 71
3
 72
8
 73
4
 74
0
 40
0
 40
0
 40
0
 40
0
 40
1
 40
1
 40
1
 40
1
 10
315.388715
 20
343.481516
 30
0.0
 10
315.202972
 20
344.529944
 30
0.0
 10
315.112461
 20
345.593027
 30
0.0
 10
315.118290
 20
346.657765
 30
0.0
  0
SPLINE
  5
1a9
100
AcDbEntity
  8
0
 62
1
100
AcDbSpline
 70
8
 71
3
 72
8
 73
4
 74
0
 40
0
 40
0
 40
0
 40
0
 40
1
 40
1
 40
1
 40
1
 10
315.118290
 20
346.657765
 30
0.0
 10
315.130284
 20
348.851207
 30
0.0
 10
315.130284
 20
351.044698
 30
0.0
 10
315.118290
 20
353.238140
 30
0.0
  0
SPLINE
  5
1aa
100
AcDbEntity
  8
0
 62
1
100
AcDbSpline
 70
8
 71
3
 72
8
 73
4
 74
0
 40
0
 40
0
 40
0
 40
0
 40
1
 40
1
 40
1
 40
1
 10
315.118290
 20
353.238140
 30
0.0
 10
315.111959
 20
354.403248
 30
0.0
 10
315.459517
 20
355.542821
 30
0.0
 10
316.114980
 20
356.506089
 30
0.0
  0
SPLINE
  5
1ab
100
AcDbEntity
  8
0
 62
1
100
AcDbSpline
 70
8
 71
3
 72
8
 73
4
 74
0
 40
0
 40
0
 40
0
 40
0
 40
1
 40
1
 40
1
 40
1
 10
316.114980
 20
356.506089
 30
0.0
 10
316.840164
 20
357.571833
 30
0.0
 10
317.707059
 20
358.533892
 30
0.0
 10
318.691786
 20
359.365765
 30
0.0
  0
SPLINE
  5
1ac
100
AcDbEntity
  8
0
 62
1
100
AcDbSpline
 70
8
 71
3
 72
8
 73
4
 74
0
 40
0
 40
0
 40
0
 40
0
 40
1
 40
1
 40
1
 40
1
 10
318.691786
 20
359.365765
 30
0.0
 10
319.274519
 20
359.858073
 30
0.0
 10
319.559868
 20
360.617623
 30
0.0
 10
319.445433
 20
361.371844
 30
0.0
  0
SPLINE
  5
1ad
100
AcDbEntity
  8
0
 62
1
100
AcDbSpline
 70
8
 71
3
 72
8
 73
4
 74
0
 40
0
 40
0
 40
0
 40
0
 40
1
 40
1
 40
1
 40
1
 10
319.445433
 20
361.371844
 30
0.0
 10
319.317719
 20
361.975029
 30
0.0
 10
319.284820
 20
362.594438
 30
0.0
 10
319.347921
 20
363.207759
 30
0.0
  0
SPLINE
  5
1ae
100
AcDbEntity
  8
0
 62
1
100
AcDbSpline
 70
8
 71
3
 72
8
 73
4
 74
0
 40
0
 40
0
 40
0
 40
0
 40
1
 40
1
 40
1
 40
1
 10
319.347921
 20
363.207759
 30
0.0
 10
319.371085
 20
363.958244
 30
0.0
 10
319.179885
 20
364.699788
 30
0.0
 10
318.796724
 20
365.345507
 30
0.0
  0
SPLINE
  5
1af
100
AcDbEntity
  8
0
 62
1
100
AcDbSpline
 70
8
 71
3
 72
8
 73
4
 74
0
 40
0
 40
0
 40
0
 40
0
 40
1
 40
1
 40
1
 40
1
 10
318.796724
 20
365.345507
 30
0.0
 10
318.446800
 20
365.932692
 30
0.0
 10
317.924271
 20
366.397649
 30
0.0
 10
317.300400
 20
366.676968
 30
0.0
  0
SPLINE
  5
1b0
100
AcDbEntity
  8
0
 62
1
100
AcDbSpline
 70
8
 71
3
 72
8
 73
4
 74
0
 40
0
 40
0
 40
0
 40
0
 40
1
 40
1
 40
1
 40
1
 10
317.300400
 20
366.676968
 30
0.0
 10
317.192506
 20
366.725257
 30
0.0
 10
317.123053
 20
366.832432
 30
0.0
 10
317.123053
 20
366.950639
 30
0.0
  0
SPLINE
  5
1b1
100
AcDbEntity
  8
0
 62
1
100
AcDbSpline
 70
8
 71
3
 72
8
 73
4
 74
0
 40
0
 40
0
 40
0
 40
0
 40
1
 40
1
 40
1
 40
1
 10
317.123053
 20
366.950639
 30
0.0
 10
317.123053
 20
367.068846
 30
0.0
 10
317.192506
 20
367.176021
 30
0.0
 10
317.300400
 20
367.224310
 30
0.0
  0
SPLINE
  5
1b2
100
AcDbEntity
  8
0
 62
1
100
AcDbSpline
 70
8
 71
3
 72
8
 73
4
 74
0
 40
0
 40
0
 40
0
 40
0
 40
1
 40
1
 40
1
 40
1
 10
317.300400
 20
367.224310
 30
0.0
 10
318.001830
 20
367.541360
 30
0.0
 10
318.710451
 20
367.842252
 30
0.0
 10
319.425704
 20
368.126748
 30
0.0
  0
SPLINE
  5
1b3
100
AcDbEntity
  8
0
 62
1
100
AcDbSpline
 70
8
 71
3
 72
8
 73
4
 74
0
 40
0
 40
0
 40
0
 40
0
 40
1
 40
1
 40
1
 40
1
 10
319.425704
 20
368.126748
 30
0.0
 10
320.437727
 20
368.526325
 30
0.0
 10
321.282844
 20
369.259698
 30
0.0
 10
321.821008
 20
370.205337
 30
0.0
  0
SPLINE
  5
1b4
100
AcDbEntity
  8
0
 62
1
100
AcDbSpline
 70
8
 71
3
 72
8
 73
4
 74
0
 40
0
 40
0
 40
0
 40
0
 40
1
 40
1
 40
1
 40
1
 10
321.821008
 20
370.205337
 30
0.0
 10
322.077544
 20
370.656348
 30
0.0
 10
322.163172
 20
371.184629
 30
0.0
 10
322.062236
 20
371.693582
 30
0.0
  0
SPLINE
  5
1b5
100
AcDbEntity
  8
0
 62
1
100
AcDbSpline
 70
8
 71
3
 72
8
 73
4
 74
0
 40
0
 40
0
 40
0
 40
0
 40
1
 40
1
 40
1
 40
1
 10
322.062236
 20
371.693582
 30
0.0
 10
321.856632
 20
372.730757
 30
0.0
 10
321.806097
 20
373.792704
 30
0.0
 10
321.912283
 20
374.844716
 30
0.0
  0
SPLINE
  5
1b6
100
AcDbEntity
  8
0
 62
1
100
AcDbSpline
 70
8
 71
3
 72
8
 73
4
 74
0
 40
0
 40
0
 40
0
 40
0
 40
1
 40
1
 40
1
 40
1
 10
321.912283
 20
374.844716
 30
0.0
 10
322.076477
 20
376.472852
 30
0.0
 10
322.076477
 20
378.113375
 30
0.0
 10
321.912283
 20
379.741510
 30
0.0
  0
SPLINE
  5
1b7
100
AcDbEntity
  8
0
 62
1
100
AcDbSpline
 70
8
 71
3
 72
8
 73
4
 74
0
 40
0
 40
0
 40
0
 40
0
 40
1
 40
1
 40
1
 40
1
 10
321.912283
 20
379.741510
 30
0.0
 10
321.879535
 20
380.057650
 30
0.0
 10
322.086553
 20
380.348967
 30
0.0
 10
322.395874
 20
380.422023
 30
0.0
  0
SPLINE
  5
1b8
100
AcDbEntity
  8
0
 62
1
100
AcDbSpline
 70
8
 71
3
 72
8
 73
4
 74
0
 40
0
 40
0
 40
0
 40
0
 40
1
 40
1
 40
1
 40
1
 10
322.395874
 20
380.422023
 30
0.0
 10
322.705263
 20
380.466368
 30
0.0
 10
323.019395
 20
380.466368
 30
0.0
 10
323.328784
 20
380.422023
 30
0.0
  0
SPLINE
  5
1b9
100
AcDbEntity
  8
0
 62
1
100
AcDbSpline
 70
8
 71
3
 72
8
 73
4
 74
0
 40
0
 40
0
 40
0
 40
0
 40
1
 40
1
 40
1
 40
1
 10
323.328784
 20
380.422023
 30
0.0
 10
325.535508
 20
380.225077
 30
0.0
 10
327.758092
 20
380.533706
 30
0.0
 10
329.827663
 20
381.324461
 30
0.0
  0
SPLINE
  5
1ba
100
AcDbEntity
  8
0
 62
1
100
AcDbSpline
 70
8
 71
3
 72
8
 73
4
 74
0
 40
0
 40
0
 40
0
 40
0
 40
1
 40
1
 40
1
 40
1
 10
329.827663
 20
381.324461
 30
0.0
 10
331.554413
 20
381.986234
 30
0.0
 10
333.130205
 20
382.988977
 30
0.0
 10
334.461061
 20
384.272889
 30
0.0
  0
SPLINE
  5
1bb
100
AcDbEntity
  8
0
 62
1
100
AcDbSpline
 70
8
 71
3
 72
8
 73
4
 74
0
 40
0
 40
0
 40
0
 40
0
 40
1
 40
1
 40
1
 40
1
 10
334.461061
 20
384.272889
 30
0.0
 10
335.846740
 20
385.736361
 30
0.0
 10
335.907352
 20
388.008710
 30
0.0
 10
334.601660
 20
389.543970
 30
0.0
  0
SPLINE
  5
1bc
100
AcDbEntity
  8
0
 62
1
100
AcDbSpline
 70
8
 71
3
 72
8
 73
4
 74
0
 40
0
 40
0
 40
0
 40
0
 40
1
 40
1
 40
1
 40
1
 10
334.601660
 20
389.543970
 30
0.0
 10
332.741096
 20
391.731490
 30
0.0
 10
330.962800
 20
393.987671
 30
0.0
 10
329.270485
 20
396.307803
 30
0.0
  0
SPLINE
  5
1bd
100
AcDbEntity
  8
0
 62
1
100
AcDbSpline
 70
8
 71
3
 72
8
 73
4
 74
0
 40
0
 40
0
 40
0
 40
0
 40
1
 40
1
 40
1
 40
1
 10
329.270485
 20
396.307803
 30
0.0
 10
325.676822
 20
401.234989
 30
0.0
 10
322.423623
 20
406.401693
 30
0.0
 10
319.533562
 20
411.771900
 30
0.0
  0
SPLINE
  5
1be
100
AcDbEntity
  8
0
 62
1
100
AcDbSpline
 70
8
 71
3
 72
8
 73
4
 74
0
 40
0
 40
0
 40
0
 40
0
 40
1
 40
1
 40
1
 40
1
 10
319.533562
 20
411.771900
 30
0.0
 10
319.261202
 20
412.277803
 30
0.0
 10
318.982668
 20
412.780357
 30
0.0
 10
318.698022
 20
413.279450
 30
0.0
  0
SPLINE
  5
1bf
100
AcDbEntity
  8
0
 62
1
100
AcDbSpline
 70
8
 71
3
 72
8
 73
4
 74
0
 40
0
 40
0
 40
0
 40
0
 40
1
 40
1
 40
1
 40
1
 10
318.698022
 20
413.279450
 30
0.0
 10
318.588617
 20
413.469214
 30
0.0
 10
318.559703
 20
413.694868
 30
0.0
 10
318.617727
 20
413.906086
 30
0.0
  0
SPLINE
  5
1c0
100
AcDbEntity
  8
0
 62
1
100
AcDbSpline
 70
8
 71
3
 72
8
 73
4
 74
0
 40
0
 40
0
 40
0
 40
0
 40
1
 40
1
 40
1
 40
1
 10
318.617727
 20
413.906086
 30
0.0
 10
318.675752
 20
414.117303
 30
0.0
 10
318.815889
 20
414.296516
 30
0.0
 10
319.006885
 20
414.403756
 30
0.0
  0
SPLINE
  5
1c1
100
AcDbEntity
  8
0
 62
1
100
AcDbSpline
 70
8
 71
3
 72
8
 73
4
 74
0
 40
0
 40
0
 40
0
 40
0
 40
1
 40
1
 40
1
 40
1
 10
319.006885
 20
414.403756
 30
0.0
 10
320.134481
 20
415.040790
 30
0.0
 10
320.977785
 20
416.082610
 30
0.0
 10
321.365962
 20
417.318168
 30
0.0
  0
SPLINE
  5
1c2
100
AcDbEntity
  8
0
 62
1
100
AcDbSpline
 70
8
 71
3
 72
8
 73
4
 74
0
 40
0
 40
0
 40
0
 40
0
 40
1
 40
1
 40
1
 40
1
 10
321.365962
 20
417.318168
 30
0.0
 10
322.283427
 20
420.238796
 30
0.0
 10
321.857547
 20
423.415967
 30
0.0
 10
320.203304
 20
425.991872
 30
0.0
  0
SPLINE
  5
1c3
100
AcDbEntity
  8
0
 62
1
100
AcDbSpline
 70
8
 71
3
 72
8
 73
4
 74
0
 40
0
 40
0
 40
0
 40
0
 40
1
 40
1
 40
1
 40
1
 10
320.203304
 20
425.991872
 30
0.0
 10
318.573721
 20
428.529340
 30
0.0
 10
317.327849
 20
431.293579
 30
0.0
 10
316.506019
 20
434.195110
 30
0.0
  0
SPLINE
  5
1c4
100
AcDbEntity
  8
0
 62
1
100
AcDbSpline
 70
8
 71
3
 72
8
 73
4
 74
0
 40
0
 40
0
 40
0
 40
0
 40
1
 40
1
 40
1
 40
1
 10
316.506019
 20
434.195110
 30
0.0
 10
315.757375
 20
436.838496
 30
0.0
 10
315.027567
 20
439.487180
 30
0.0
 10
314.316652
 20
442.140962
 30
0.0
  0
SPLINE
  5
1c5
100
AcDbEntity
  8
0
 62
1
100
AcDbSpline
 70
8
 71
3
 72
8
 73
4
 74
0
 40
0
 40
0
 40
0
 40
0
 40
1
 40
1
 40
1
 40
1
 10
314.316652
 20
442.140962
 30
0.0
 10
314.020907
 20
443.244791
 30
0.0
 10
313.921656
 20
444.392043
 30
0.0
 10
314.023436
 20
445.530263
 30
0.0
  0
SPLINE
  5
1c6
100
AcDbEntity
  8
0
 62
1
100
AcDbSpline
 70
8
 71
3
 72
8
 73
4
 74
0
 40
0
 40
0
 40
0
 40
0
 40
1
 40
1
 40
1
 40
1
 10
314.023436
 20
445.530263
 30
0.0
 10
314.081479
 20
446.179014
 30
0.0
 10
313.877789
 20
446.824050
 30
0.0
 10
313.457698
 20
447.321815
 30
0.0
  0
SPLINE
  5
1c7
100
AcDbEntity
  8
0
 62
1
100
AcDbSpline
 70
8
 71
3
 72
8
 73
4
 74
0
 40
0
 40
0
 40
0
 40
0
 40
1
 40
1
 40
1
 40
1
 10
313.457698
 20
447.321815
 30
0.0
 10
312.302948
 20
448.690222
 30
0.0
 10
311.391211
 20
450.246376
 30
0.0
 10
310.762063
 20
451.922729
 30
0.0
  0
SPLINE
  5
1c8
100
AcDbEntity
  8
0
 62
1
100
AcDbSpline
 70
8
 71
3
 72
8
 73
4
 74
0
 40
0
 40
0
 40
0
 40
0
 40
1
 40
1
 40
1
 40
1
 10
310.762063
 20
451.922729
 30
0.0
 10
310.442498
 20
452.712699
 30
0.0
 10
310.442498
 20
453.595952
 30
0.0
 10
310.762063
 20
454.385923
 30
0.0
  0
SPLINE
  5
1c9
100
AcDbEntity
  8
0
 62
1
100
AcDbSpline
 70
8
 71
3
 72
8
 73
4
 74
0
 40
0
 40
0
 40
0
 40
0
 40
1
 40
1
 40
1
 40
1
 10
310.762063
 20
454.385923
 30
0.0
 10
310.924088
 20
454.789784
 30
0.0
 10
311.185730
 20
455.146048
 30
0.0
 10
311.522598
 20
455.421504
 30
0.0
  0
SPLINE
  5
1ca
100
AcDbEntity
  8
0
 62
1
100
AcDbSpline
 70
8
 71
3
 72
8
 73
4
 74
0
 40
0
 40
0
 40
0
 40
0
 40
1
 40
1
 40
1
 40
1
 10
311.522598
 20
455.421504
 30
0.0
 10
315.198041
 20
458.418185
 30
0.0
 10
317.639979
 20
462.664463
 30
0.0
 10
318.381477
 20
467.348389
 30
0.0
  0
SPLINE
  5
1cb
100
AcDbEntity
  8
0
 62
1
100
AcDbSpline
 70
8
 71
3
 72
8
 73
4
 74
0
 40
0
 40
0
 40
0
 40
0
 40
1
 40
1
 40
1
 40
1
 10
318.381477
 20
467.348389
 30
0.0
 10
318.560860
 20
468.480824
 30
0.0
 10
318.640158
 20
469.626858
 30
0.0
 10
318.618454
 20
470.773208
 30
0.0
  0
SPLINE
  5
1cc
100
AcDbEntity
  8
0
 62
1
100
AcDbSpline
 70
8
 71
3
 72
8
 73
4
 74
0
 40
0
 40
0
 40
0
 40
0
 40
1
 40
1
 40
1
 40
1
 10
318.618454
 20
470.773208
 30
0.0
 10
318.588533
 20
472.333884
 30
0.0
 10
317.463722
 20
473.657638
 30
0.0
 10
315.928346
 20
473.939110
 30
0.0
  0
SPLINE
  5
1cd
100
AcDbEntity
  8
0
 62
1
100
AcDbSpline
 70
8
 71
3
 72
8
 73
4
 74
0
 40
0
 40
0
 40
0
 40
0
 40
1
 40
1
 40
1
 40
1
 10
315.928346
 20
473.939110
 30
0.0
 10
314.998918
 20
474.109487
 30
0.0
 10
314.046260
 20
474.109487
 30
0.0
 10
313.116832
 20
473.939110
 30
0.0
  0
SPLINE
  5
1ce
100
AcDbEntity
  8
0
 62
1
100
AcDbSpline
 70
8
 71
3
 72
8
 73
4
 74
0
 40
0
 40
0
 40
0
 40
0
 40
1
 40
1
 40
1
 40
1
 10
313.116832
 20
473.939110
 30
0.0
 10
312.359432
 20
473.800269
 30
0.0
 10
311.583101
 20
473.800269
 30
0.0
 10
310.825701
 20
473.939110
 30
0.0
  0
SPLINE
  5
1cf
100
AcDbEntity
  8
0
 62
1
100
AcDbSpline
 70
8
 71
3
 72
8
 73
4
 74
0
 40
0
 40
0
 40
0
 40
0
 40
1
 40
1
 40
1
 40
1
 10
310.825701
 20
473.939110
 30
0.0
 10
309.668437
 20
474.152726
 30
0.0
 10
308.509984
 20
474.359847
 30
0.0
 10
307.350397
 20
474.560464
 30
0.0
  0
SPLINE
  5
1d0
100
AcDbEntity
  8
0
 62
1
100
AcDbSpline
 70
8
 71
3
 72
8
 73
4
 74
0
 40
0
 40
0
 40
0
 40
0
 40
1
 40
1
 40
1
 40
1
 10
307.350397
 20
474.560464
 30
0.0
 10
303.835311
 20
475.164448
 30
0.0
 10
300.419141
 20
476.245511
 30
0.0
 10
297.196526
 20
477.773705
 30
0.0
  0
SPLINE
  5
1d1
100
AcDbEntity
  8
0
 62
1
100
AcDbSpline
 70
8
 71
3
 72
8
 73
4
 74
0
 40
0
 40
0
 40
0
 40
0
 40
1
 40
1
 40
1
 40
1
 10
297.196526
 20
477.773705
 30
0.0
 10
296.302185
 20
478.195619
 30
0.0
 10
295.343809
 20
478.465610
 30
0.0
 10
294.360746
 20
478.572593
 30
0.0
  0
SPLINE
  5
1d2
100
AcDbEntity
  8
0
 62
1
100
AcDbSpline
 70
8
 71
3
 72
8
 73
4
 74
0
 40
0
 40
0
 40
0
 40
0
 40
1
 40
1
 40
1
 40
1
 10
294.360746
 20
478.572593
 30
0.0
 10
292.174100
 20
478.814089
 30
0.0
 10
290.072385
 20
479.555672
 30
0.0
 10
288.218381
 20
480.739906
 30
0.0
  0
SPLINE
  5
1d3
100
AcDbEntity
  8
0
 62
1
100
AcDbSpline
 70
8
 71
3
 72
8
 73
4
 74
0
 40
0
 40
0
 40
0
 40
0
 40
1
 40
1
 40
1
 40
1
 10
288.218381
 20
480.739906
 30
0.0
 10
287.197896
 20
481.389614
 30
0.0
 10
286.010623
 20
481.728828
 30
0.0
 10
284.800932
 20
481.716300
 30
0.0
  0
SPLINE
  5
1d4
100
AcDbEntity
  8
0
 62
1
100
AcDbSpline
 70
8
 71
3
 72
8
 73
4
 74
0
 40
0
 40
0
 40
0
 40
0
 40
1
 40
1
 40
1
 40
1
 10
284.800932
 20
481.716300
 30
0.0
 10
283.558563
 20
481.706396
 30
0.0
 10
282.336764
 20
482.033609
 30
0.0
 10
281.265633
 20
482.663100
 30
0.0
  0
SPLINE
  5
1d5
100
AcDbEntity
  8
0
 62
1
100
AcDbSpline
 70
8
 71
3
 72
8
 73
4
 74
0
 40
0
 40
0
 40
0
 40
0
 40
1
 40
1
 40
1
 40
1
 10
281.265633
 20
482.663100
 30
0.0
 10
280.065104
 20
483.366985
 30
0.0
 10
278.723662
 20
483.796424
 30
0.0
 10
277.337551
 20
483.920605
 30
0.0
  0
SPLINE
  5
1d6
100
AcDbEntity
  8
0
 62
1
100
AcDbSpline
 70
8
 71
3
 72
8
 73
4
 74
0
 40
0
 40
0
 40
0
 40
0
 40
1
 40
1
 40
1
 40
1
 10
277.337551
 20
483.920605
 30
0.0
 10
275.288859
 20
484.103829
 30
0.0
 10
273.291467
 20
484.663002
 30
0.0
 10
271.445428
 20
485.570114
 30
0.0
  0
SPLINE
  5
1d7
100
AcDbEntity
  8
0
 62
1
100
AcDbSpline
 70
8
 71
3
 72
8
 73
4
 74
0
 40
0
 40
0
 40
0
 40
0
 40
1
 40
1
 40
1
 40
1
 10
271.445428
 20
485.570114
 30
0.0
 10
268.806902
 20
485.362981
 30
0.0
 10
266.152225
 20
485.577725
 30
0.0
 10
263.581299
 20
486.206265
 30
0.0
  0
SPLINE
  5
1d8
100
AcDbEntity
  8
0
 62
1
100
AcDbSpline
 70
8
 71
3
 72
8
 73
4
 74
0
 40
0
 40
0
 40
0
 40
0
 40
1
 40
1
 40
1
 40
1
 10
263.581299
 20
486.206265
 30
0.0
 10
259.732324
 20
487.142551
 30
0.0
 10
255.775523
 20
487.560483
 30
0.0
 10
251.815876
 20
487.448974
 30
0.0
  0
SPLINE
  5
1d9
100
AcDbEntity
  8
0
 62
1
100
AcDbSpline
 70
8
 71
3
 72
8
 73
4
 74
0
 40
0
 40
0
 40
0
 40
0
 40
1
 40
1
 40
1
 40
1
 10
251.815876
 20
487.448974
 30
0.0
 10
250.239720
 20
487.405140
 30
0.0
 10
248.662651
 20
487.405140
 30
0.0
 10
247.086496
 20
487.448974
 30
0.0
  0
SPLINE
  5
1da
100
AcDbEntity
  8
0
 62
1
100
AcDbSpline
 70
8
 71
3
 72
8
 73
4
 74
0
 40
0
 40
0
 40
0
 40
0
 40
1
 40
1
 40
1
 40
1
 10
247.086496
 20
487.448974
 30
0.0
 10
243.910798
 20
487.539543
 30
0.0
 10
240.741685
 20
487.109761
 30
0.0
 10
237.704811
 20
486.176672
 30
0.0
  0
SPLINE
  5
1db
100
AcDbEntity
  8
0
 62
1
100
AcDbSpline
 70
8
 71
3
 72
8
 73
4
 74
0
 40
0
 40
0
 40
0
 40
0
 40
1
 40
1
 40
1
 40
1
 10
237.704811
 20
486.176672
 30
0.0
 10
236.173366
 20
485.706975
 30
0.0
 10
234.622743
 20
485.302251
 30
0.0
 10
233.057098
 20
484.963585
 30
0.0
  0
SPLINE
  5
1dc
100
AcDbEntity
  8
0
 62
1
100
AcDbSpline
 70
8
 71
3
 72
8
 73
4
 74
0
 40
0
 40
0
 40
0
 40
0
 40
1
 40
1
 40
1
 40
1
 10
233.057098
 20
484.963585
 30
0.0
 10
230.837683
 20
483.692284
 30
0.0
 10
228.532686
 20
482.576597
 30
0.0
 10
226.158732
 20
481.624571
 30
0.0
  0
SPLINE
  5
1dd
100
AcDbEntity
  8
0
 62
1
100
AcDbSpline
 70
8
 71
3
 72
8
 73
4
 74
0
 40
0
 40
0
 40
0
 40
0
 40
1
 40
1
 40
1
 40
1
 10
226.158732
 20
481.624571
 30
0.0
 10
224.906751
 20
480.597427
 30
0.0
 10
223.719197
 20
479.494175
 30
0.0
 10
222.602811
 20
478.321075
 30
0.0
  0
SPLINE
  5
1de
100
AcDbEntity
  8
0
 62
1
100
AcDbSpline
 70
8
 71
3
 72
8
 73
4
 74
0
 40
0
 40
0
 40
0
 40
0
 40
1
 40
1
 40
1
 40
1
 10
222.602811
 20
478.321075
 30
0.0
 10
221.870349
 20
477.551019
 30
0.0
 10
221.148103
 20
476.771310
 30
0.0
 10
220.436263
 20
475.982152
 30
0.0
  0
SPLINE
  5
1df
100
AcDbEntity
  8
0
 62
1
100
AcDbSpline
 70
8
 71
3
 72
8
 73
4
 74
0
 40
0
 40
0
 40
0
 40
0
 40
1
 40
1
 40
1
 40
1
 10
220.436263
 20
475.982152
 30
0.0
 10
219.717006
 20
475.184616
 30
0.0
 10
218.752159
 20
474.649924
 30
0.0
 10
217.694622
 20
474.462811
 30
0.0
  0
SPLINE
  5
1e0
100
AcDbEntity
  8
0
 62
1
100
AcDbSpline
 70
8
 71
3
 72
8
 73
4
 74
0
 40
0
 40
0
 40
0
 40
0
 40
1
 40
1
 40
1
 40
1
 10
217.694622
 20
474.462811
 30
0.0
 10
216.146405
 20
474.189001
 30
0.0
 10
214.670376
 20
473.602030
 30
0.0
 10
213.356934
 20
472.737844
 30
0.0
  0
SPLINE
  5
1e1
100
AcDbEntity
  8
0
 62
1
100
AcDbSpline
 70
8
 71
3
 72
8
 73
4
 74
0
 40
0
 40
0
 40
0
 40
0
 40
1
 40
1
 40
1
 40
1
 10
213.356934
 20
472.737844
 30
0.0
 10
211.319107
 20
471.397192
 30
0.0
 10
209.232965
 20
470.131463
 30
0.0
 10
207.102685
 20
468.943189
 30
0.0
  0
SPLINE
  5
1e2
100
AcDbEntity
  8
0
 62
1
100
AcDbSpline
 70
8
 71
3
 72
8
 73
4
 74
0
 40
0
 40
0
 40
0
 40
0
 40
1
 40
1
 40
1
 40
1
 10
207.102685
 20
468.943189
 30
0.0
 10
203.032718
 20
466.673133
 30
0.0
 10
199.590693
 20
463.427209
 30
0.0
 10
197.086068
 20
459.497242
 30
0.0
  0
SPLINE
  5
1e3
100
AcDbEntity
  8
0
 62
1
100
AcDbSpline
 70
8
 71
3
 72
8
 73
4
 74
0
 40
0
 40
0
 40
0
 40
0
 40
1
 40
1
 40
1
 40
1
 10
197.086068
 20
459.497242
 30
0.0
 10
196.024013
 20
457.830489
 30
0.0
 10
194.976891
 20
456.154267
 30
0.0
 10
193.944827
 20
454.468779
 30
0.0
  0
SPLINE
  5
1e4
100
AcDbEntity
  8
0
 62
1
100
AcDbSpline
 70
8
 71
3
 72
8
 73
4
 74
0
 40
0
 40
0
 40
0
 40
0
 40
1
 40
1
 40
1
 40
1
 10
193.944827
 20
454.468779
 30
0.0
 10
191.647648
 20
450.717253
 30
0.0
 10
189.981870
 20
446.614080
 30
0.0
 10
189.013932
 20
442.322918
 30
0.0
  0
SPLINE
  5
1e5
100
AcDbEntity
  8
0
 62
1
100
AcDbSpline
 70
8
 71
3
 72
8
 73
4
 74
0
 40
0
 40
0
 40
0
 40
0
 40
1
 40
1
 40
1
 40
1
 10
189.013932
 20
442.322918
 30
0.0
 10
190.767243
 20
442.383442
 30
0.0
 10
192.522121
 20
442.383442
 30
0.0
 10
194.275431
 20
442.322918
 30
0.0
  0
SPLINE
  5
1e6
100
AcDbEntity
  8
0
 62
1
100
AcDbSpline
 70
8
 71
3
 72
8
 73
4
 74
0
 40
0
 40
0
 40
0
 40
0
 40
1
 40
1
 40
1
 40
1
 10
194.275431
 20
442.322918
 30
0.0
 10
195.422427
 20
442.281128
 30
0.0
 10
196.559813
 20
442.097268
 30
0.0
 10
197.661557
 20
441.775548
 30
0.0
  0
SPLINE
  5
1e7
100
AcDbEntity
  8
0
 62
1
100
AcDbSpline
 70
8
 71
3
 72
8
 73
4
 74
0
 40
0
 40
0
 40
0
 40
0
 40
1
 40
1
 40
1
 40
1
 10
197.661557
 20
441.775548
 30
0.0
 10
201.162904
 20
440.745915
 30
0.0
 10
204.770271
 20
440.119035
 30
0.0
 10
208.413709
 20
439.907063
 30
0.0
  0
SPLINE
  5
1e8
100
AcDbEntity
  8
0
 62
1
100
AcDbSpline
 70
8
 71
3
 72
8
 73
4
 74
0
 40
0
 40
0
 40
0
 40
0
 40
1
 40
1
 40
1
 40
1
 10
208.413709
 20
439.907063
 30
0.0
 10
211.136253
 20
439.748306
 30
0.0
 10
213.692100
 20
438.543492
 30
0.0
 10
215.547123
 20
436.544408
 30
0.0
  0
SPLINE
  5
1e9
100
AcDbEntity
  8
0
 62
1
100
AcDbSpline
 70
8
 71
3
 72
8
 73
4
 74
0
 40
0
 40
0
 40
0
 40
0
 40
1
 40
1
 40
1
 40
1
 10
215.547123
 20
436.544408
 30
0.0
 10
217.123400
 20
434.845854
 30
0.0
 10
219.246042
 20
433.754697
 30
0.0
 10
221.544666
 20
433.461334
 30
0.0
  0
SPLINE
  5
1ea
100
AcDbEntity
  8
0
 62
1
100
AcDbSpline
 70
8
 71
3
 72
8
 73
4
 74
0
 40
0
 40
0
 40
0
 40
0
 40
1
 40
1
 40
1
 40
1
 10
221.544666
 20
433.461334
 30
0.0
 10
223.099476
 20
432.195264
 30
0.0
 10
224.880228
 20
431.235455
 30
0.0
 10
226.792587
 20
430.632754
 30
0.0
  0
SPLINE
  5
1eb
100
AcDbEntity
  8
0
 62
1
100
AcDbSpline
 70
8
 71
3
 72
8
 73
4
 74
0
 40
0
 40
0
 40
0
 40
0
 40
1
 40
1
 40
1
 40
1
 10
226.792587
 20
430.632754
 30
0.0
 10
227.900926
 20
428.703421
 30
0.0
 10
229.941511
 20
427.498374
 30
0.0
 10
232.166197
 20
427.459425
 30
0.0
  0
SPLINE
  5
1ec
100
AcDbEntity
  8
0
 62
1
100
AcDbSpline
 70
8
 71
3
 72
8
 73
4
 74
0
 40
0
 40
0
 40
0
 40
0
 40
1
 40
1
 40
1
 40
1
 10
232.166197
 20
427.459425
 30
0.0
 10
233.717689
 20
425.355155
 30
0.0
 10
235.733494
 20
423.636967
 30
0.0
 10
238.056959
 20
422.438389
 30
0.0
  0
SPLINE
  5
1ed
100
AcDbEntity
  8
0
 62
1
100
AcDbSpline
 70
8
 71
3
 72
8
 73
4
 74
0
 40
0
 40
0
 40
0
 40
0
 40
1
 40
1
 40
1
 40
1
 10
238.056959
 20
422.438389
 30
0.0
 10
238.819787
 20
422.044849
 30
0.0
 10
239.322689
 20
421.282532
 30
0.0
 10
239.384282
 20
420.426386
 30
0.0
  0
SPLINE
  5
1ee
100
AcDbEntity
  8
0
 62
1
100
AcDbSpline
 70
8
 71
3
 72
8
 73
4
 74
0
 40
0
 40
0
 40
0
 40
0
 40
1
 40
1
 40
1
 40
1
 10
239.384282
 20
420.426386
 30
0.0
 10
239.439420
 20
419.663192
 30
0.0
 10
239.889431
 20
418.984321
 30
0.0
 10
240.570893
 20
418.636307
 30
0.0
  0
SPLINE
  5
1ef
100
AcDbEntity
  8
0
 62
1
100
AcDbSpline
 70
8
 71
3
 72
8
 73
4
 74
0
 40
0
 40
0
 40
0
 40
0
 40
1
 40
1
 40
1
 40
1
 10
240.570893
 20
418.636307
 30
0.0
 10
241.895456
 20
417.960092
 30
0.0
 10
243.146118
 20
417.147984
 30
0.0
 10
244.302704
 20
416.213082
 30
0.0
  0
SPLINE
  5
1f0
100
AcDbEntity
  8
0
 62
1
100
AcDbSpline
 70
8
 71
3
 72
8
 73
4
 74
0
 40
0
 40
0
 40
0
 40
0
 40
1
 40
1
 40
1
 40
1
 10
244.302704
 20
416.213082
 30
0.0
 10
245.919930
 20
414.905030
 30
0.0
 10
247.921755
 20
414.163887
 30
0.0
 10
250.000880
 20
414.103425
 30
0.0
  0
SPLINE
  5
1f1
100
AcDbEntity
  8
0
 62
1
100
AcDbSpline
 70
8
 71
3
 72
8
 73
4
 74
0
 40
0
 40
0
 40
0
 40
0
 40
1
 40
1
 40
1
 40
1
 10
250.000880
 20
414.103425
 30
0.0
 10
250.574162
 20
414.086790
 30
0.0
 10
251.113626
 20
413.828316
 30
0.0
 10
251.485801
 20
413.391951
 30
0.0
  0
SPLINE
  5
1f2
100
AcDbEntity
  8
0
 62
1
100
AcDbSpline
 70
8
 71
3
 72
8
 73
4
 74
0
 40
0
 40
0
 40
0
 40
0
 40
1
 40
1
 40
1
 40
1
 10
251.485801
 20
413.391951
 30
0.0
 10
251.857976
 20
412.955586
 30
0.0
 10
252.028094
 20
412.382096
 30
0.0
 10
251.954065
 20
411.813371
 30
0.0
  0
SPLINE
  5
1f3
100
AcDbEntity
  8
0
 62
1
100
AcDbSpline
 70
8
 71
3
 72
8
 73
4
 74
0
 40
0
 40
0
 40
0
 40
0
 40
1
 40
1
 40
1
 40
1
 10
251.954065
 20
411.813371
 30
0.0
 10
251.411758
 20
411.722189
 30
0.0
 10
250.915896
 20
411.451214
 30
0.0
 10
250.546266
 20
411.044049
 30
0.0
  0
SPLINE
  5
1f4
100
AcDbEntity
  8
0
 62
1
100
AcDbSpline
 70
8
 71
3
 72
8
 73
4
 74
0
 40
0
 40
0
 40
0
 40
0
 40
1
 40
1
 40
1
 40
1
 10
250.546266
 20
411.044049
 30
0.0
 10
250.187451
 20
410.654709
 30
0.0
 10
249.794535
 20
410.298240
 30
0.0
 10
249.372213
 20
409.978902
 30
0.0
  0
SPLINE
  5
1f5
100
AcDbEntity
  8
0
 62
1
100
AcDbSpline
 70
8
 71
3
 72
8
 73
4
 74
0
 40
0
 40
0
 40
0
 40
0
 40
1
 40
1
 40
1
 40
1
 10
249.372213
 20
409.978902
 30
0.0
 10
248.908888
 20
409.622825
 30
0.0
 10
248.321752
 20
409.468200
 30
0.0
 10
247.743142
 20
409.549878
 30
0.0
  0
SPLINE
  5
1f6
100
AcDbEntity
  8
0
 62
1
100
AcDbSpline
 70
8
 71
3
 72
8
 73
4
 74
0
 40
0
 40
0
 40
0
 40
0
 40
1
 40
1
 40
1
 40
1
 10
247.743142
 20
409.549878
 30
0.0
 10
247.257812
 20
409.619856
 30
0.0
 10
246.775998
 20
409.401737
 30
0.0
 10
246.508343
 20
408.990880
 30
0.0
  0
SPLINE
  5
1f7
100
AcDbEntity
  8
0
 62
1
100
AcDbSpline
 70
8
 71
3
 72
8
 73
4
 74
0
 40
0
 40
0
 40
0
 40
0
 40
1
 40
1
 40
1
 40
1
 10
246.508343
 20
408.990880
 30
0.0
 10
246.240689
 20
408.580024
 30
0.0
 10
246.235877
 20
408.051159
 30
0.0
 10
246.496011
 20
407.635500
 30
0.0
  0
SPLINE
  5
1f8
100
AcDbEntity
  8
0
 62
1
100
AcDbSpline
 70
8
 71
3
 72
8
 73
4
 74
0
 40
0
 40
0
 40
0
 40
0
 40
1
 40
1
 40
1
 40
1
 10
246.496011
 20
407.635500
 30
0.0
 10
247.654622
 20
405.787887
 30
0.0
 10
247.807315
 20
403.481741
 30
0.0
 10
246.902414
 20
401.497500
 30
0.0
  0
SPLINE
  5
1f9
100
AcDbEntity
  8
0
 62
1
100
AcDbSpline
 70
8
 71
3
 72
8
 73
4
 74
0
 40
0
 40
0
 40
0
 40
0
 40
1
 40
1
 40
1
 40
1
 10
246.902414
 20
401.497500
 30
0.0
 10
246.262669
 20
402.024368
 30
0.0
 10
245.502758
 20
402.385167
 30
0.0
 10
244.690115
 20
402.547878
 30
0.0
  0
SPLINE
  5
1fa
100
AcDbEntity
  8
0
 62
1
100
AcDbSpline
 70
8
 71
3
 72
8
 73
4
 74
0
 40
0
 40
0
 40
0
 40
0
 40
1
 40
1
 40
1
 40
1
 10
244.690115
 20
402.547878
 30
0.0
 10
244.477935
 20
402.590428
 30
0.0
 10
244.262678
 20
402.490397
 30
0.0
 10
244.158388
 20
402.300780
 30
0.0
  0
SPLINE
  5
1fb
100
AcDbEntity
  8
0
 62
1
100
AcDbSpline
 70
8
 71
3
 72
8
 73
4
 74
0
 40
0
 40
0
 40
0
 40
0
 40
1
 40
1
 40
1
 40
1
 10
244.158388
 20
402.300780
 30
0.0
 10
244.054098
 20
402.111163
 30
0.0
 10
244.084888
 20
401.875805
 30
0.0
 10
244.234446
 20
401.719397
 30
0.0
  0
SPLINE
  5
1fc
100
AcDbEntity
  8
0
 62
1
100
AcDbSpline
 70
8
 71
3
 72
8
 73
4
 74
0
 40
0
 40
0
 40
0
 40
0
 40
1
 40
1
 40
1
 40
1
 10
244.234446
 20
401.719397
 30
0.0
 10
245.732833
 20
400.144597
 30
0.0
 10
246.611715
 20
398.081402
 30
0.0
 10
246.709205
 20
395.909847
 30
0.0
  0
SPLINE
  5
1fd
100
AcDbEntity
  8
0
 62
1
100
AcDbSpline
 70
8
 71
3
 72
8
 73
4
 74
0
 40
0
 40
0
 40
0
 40
0
 40
1
 40
1
 40
1
 40
1
 10
246.709205
 20
395.909847
 30
0.0
 10
246.908741
 20
391.468459
 30
0.0
 10
246.908741
 20
387.020350
 30
0.0
 10
246.709205
 20
382.578962
 30
0.0
  0
SPLINE
  5
1fe
100
AcDbEntity
  8
0
 62
1
100
AcDbSpline
 70
8
 71
3
 72
8
 73
4
 74
0
 40
0
 40
0
 40
0
 40
0
 40
1
 40
1
 40
1
 40
1
 10
246.709205
 20
382.578962
 30
0.0
 10
246.658546
 20
381.449466
 30
0.0
 10
246.186263
 20
380.380006
 30
0.0
 10
245.385595
 20
379.581721
 30
0.0
  0
SPLINE
  5
1ff
100
AcDbEntity
  8
0
 62
1
100
AcDbSpline
 70
8
 71
3
 72
8
 73
4
 74
0
 40
0
 40
0
 40
0
 40
0
 40
1
 40
1
 40
1
 40
1
 10
245.385595
 20
379.581721
 30
0.0
 10
244.944931
 20
379.142382
 30
0.0
 10
244.667743
 20
378.565571
 30
0.0
 10
244.600030
 20
377.947009
 30
0.0
  0
SPLINE
  5
200
100
AcDbEntity
  8
0
 62
1
100
AcDbSpline
 70
8
 71
3
 72
8
 73
4
 74
0
 40
0
 40
0
 40
0
 40
0
 40
1
 40
1
 40
1
 40
1
 10
244.600030
 20
377.947009
 30
0.0
 10
244.372513
 20
375.863312
 30
0.0
 10
244.372513
 20
373.761037
 30
0.0
 10
244.600030
 20
371.677340
 30
0.0
  0
SPLINE
  5
201
100
AcDbEntity
  8
0
 62
1
100
AcDbSpline
 70
8
 71
3
 72
8
 73
4
 74
0
 40
0
 40
0
 40
0
 40
0
 40
1
 40
1
 40
1
 40
1
 10
244.600030
 20
371.677340
 30
0.0
 10
244.773956
 20
370.087991
 30
0.0
 10
245.589569
 20
368.638662
 30
0.0
 10
246.857882
 20
367.665182
 30
0.0
  0
SPLINE
  5
202
100
AcDbEntity
  8
0
 62
1
100
AcDbSpline
 70
8
 71
3
 72
8
 73
4
 74
0
 40
0
 40
0
 40
0
 40
0
 40
1
 40
1
 40
1
 40
1
 10
246.857882
 20
367.665182
 30
0.0
 10
247.999362
 20
366.789021
 30
0.0
 10
248.620936
 20
365.395485
 30
0.0
 10
248.510197
 20
363.960782
 30
0.0
  0
SPLINE
  5
203
100
AcDbEntity
  8
0
 62
1
100
AcDbSpline
 70
8
 71
3
 72
8
 73
4
 74
0
 40
0
 40
0
 40
0
 40
0
 40
1
 40
1
 40
1
 40
1
 10
248.510197
 20
363.960782
 30
0.0
 10
248.394207
 20
362.455589
 30
0.0
 10
248.026964
 20
360.980447
 30
0.0
 10
247.423706
 20
359.596562
 30
0.0
  0
SPLINE
  5
204
100
AcDbEntity
  8
0
 62
1
100
AcDbSpline
 70
8
 71
3
 72
8
 73
4
 74
0
 40
0
 40
0
 40
0
 40
0
 40
1
 40
1
 40
1
 40
1
 10
247.423706
 20
359.596562
 30
0.0
 10
246.952794
 20
358.516149
 30
0.0
 10
245.871578
 20
357.831254
 30
0.0
 10
244.693545
 20
357.867145
 30
0.0
  0
SPLINE
  5
205
100
AcDbEntity
  8
0
 62
1
100
AcDbSpline
 70
8
 71
3
 72
8
 73
4
 74
0
 40
0
 40
0
 40
0
 40
0
 40
1
 40
1
 40
1
 40
1
 10
244.693545
 20
357.867145
 30
0.0
 10
244.014246
 20
357.887793
 30
0.0
 10
243.436601
 20
357.375339
 30
0.0
 10
243.376143
 20
356.698420
 30
0.0
  0
SPLINE
  5
206
100
AcDbEntity
  8
0
 62
1
100
AcDbSpline
 70
8
 71
3
 72
8
 73
4
 74
0
 40
0
 40
0
 40
0
 40
0
 40
1
 40
1
 40
1
 40
1
 10
243.376143
 20
356.698420
 30
0.0
 10
243.289978
 20
355.751849
 30
0.0
 10
243.418888
 20
354.798044
 30
0.0
 10
243.753236
 20
353.908307
 30
0.0
  0
SPLINE
  5
207
100
AcDbEntity
  8
0
 62
1
100
AcDbSpline
 70
8
 71
3
 72
8
 73
4
 74
0
 40
0
 40
0
 40
0
 40
0
 40
1
 40
1
 40
1
 40
1
 10
243.753236
 20
353.908307
 30
0.0
 10
244.044269
 20
353.133358
 30
0.0
 10
243.857738
 20
352.259898
 30
0.0
 10
243.275542
 20
351.671431
 30
0.0
  0
SPLINE
  5
208
100
AcDbEntity
  8
0
 62
1
100
AcDbSpline
 70
8
 71
3
 72
8
 73
4
 74
0
 40
0
 40
0
 40
0
 40
0
 40
1
 40
1
 40
1
 40
1
 10
243.275542
 20
351.671431
 30
0.0
 10
242.707519
 20
351.097337
 30
0.0
 10
242.343916
 20
350.352472
 30
0.0
 10
242.240698
 20
349.551485
 30
0.0
  0
SPLINE
  5
209
100
AcDbEntity
  8
0
 62
1
100
AcDbSpline
 70
8
 71
3
 72
8
 73
4
 74
0
 40
0
 40
0
 40
0
 40
0
 40
1
 40
1
 40
1
 40
1
 10
242.240698
 20
349.551485
 30
0.0
 10
242.449824
 20
348.627335
 30
0.0
 10
242.357846
 20
347.660520
 30
0.0
 10
241.978209
 20
346.792382
 30
0.0
  0
SPLINE
  5
20a
100
AcDbEntity
  8
0
 62
1
100
AcDbSpline
 70
8
 71
3
 72
8
 73
4
 74
0
 40
0
 40
0
 40
0
 40
0
 40
1
 40
1
 40
1
 40
1
 10
241.978209
 20
346.792382
 30
0.0
 10
241.503528
 20
345.706415
 30
0.0
 10
240.736993
 20
344.773355
 30
0.0
 10
239.763813
 20
344.096918
 30
0.0
  0
SPLINE
  5
20b
100
AcDbEntity
  8
0
 62
1
100
AcDbSpline
 70
8
 71
3
 72
8
 73
4
 74
0
 40
0
 40
0
 40
0
 40
0
 40
1
 40
1
 40
1
 40
1
 10
239.763813
 20
344.096918
 30
0.0
 10
239.430309
 20
343.865116
 30
0.0
 10
239.206127
 20
343.506993
 30
0.0
 10
239.143337
 20
343.105727
 30
0.0
  0
SPLINE
  5
20c
100
AcDbEntity
  8
0
 62
1
100
AcDbSpline
 70
8
 71
3
 72
8
 73
4
 74
0
 40
0
 40
0
 40
0
 40
0
 40
1
 40
1
 40
1
 40
1
 10
239.143337
 20
343.105727
 30
0.0
 10
238.931183
 20
341.752455
 30
0.0
 10
238.931183
 20
340.374389
 30
0.0
 10
239.143337
 20
339.021116
 30
0.0
  0
SPLINE
  5
20d
100
AcDbEntity
  8
0
 62
1
100
AcDbSpline
 70
8
 71
3
 72
8
 73
4
 74
0
 40
0
 40
0
 40
0
 40
0
 40
1
 40
1
 40
1
 40
1
 10
239.143337
 20
339.021116
 30
0.0
 10
239.384417
 20
337.481164
 30
0.0
 10
238.961105
 20
335.911215
 30
0.0
 10
237.978539
 20
334.701200
 30
0.0
  0
SPLINE
  5
20e
100
AcDbEntity
  8
0
 62
1
100
AcDbSpline
 70
8
 71
3
 72
8
 73
4
 74
0
 40
0
 40
0
 40
0
 40
0
 40
1
 40
1
 40
1
 40
1
 10
237.978539
 20
334.701200
 30
0.0
 10
236.995973
 20
333.491185
 30
0.0
 10
235.546343
 20
332.754634
 30
0.0
 10
233.989696
 20
332.674486
 30
0.0
  0
SPLINE
  5
20f
100
AcDbEntity
  8
0
 62
1
100
AcDbSpline
 70
8
 71
3
 72
8
 73
4
 74
0
 40
0
 40
0
 40
0
 40
0
 40
1
 40
1
 40
1
 40
1
 10
233.989696
 20
332.674486
 30
0.0
 10
228.104882
 20
332.373564
 30
0.0
 10
222.207274
 20
332.427899
 30
0.0
 10
216.329003
 20
332.837195
 30
0.0
  0
SPLINE
  5
210
100
AcDbEntity
  8
0
 62
1
100
AcDbSpline
 70
8
 71
3
 72
8
 73
4
 74
0
 40
0
 40
0
 40
0
 40
0
 40
1
 40
1
 40
1
 40
1
 10
216.329003
 20
332.837195
 30
0.0
 10
216.136995
 20
331.461602
 30
0.0
 10
215.568648
 20
330.165805
 30
0.0
 10
214.686694
 20
329.092826
 30
0.0
  0
SPLINE
  5
211
100
AcDbEntity
  8
0
 62
1
100
AcDbSpline
 70
8
 71
3
 72
8
 73
4
 74
0
 40
0
 40
0
 40
0
 40
0
 40
1
 40
1
 40
1
 40
1
 10
214.686694
 20
329.092826
 30
0.0
 10
214.076838
 20
328.350940
 30
0.0
 10
214.076838
 20
327.281321
 30
0.0
 10
214.686694
 20
326.539434
 30
0.0
  0
SPLINE
  5
212
100
AcDbEntity
  8
0
 62
1
100
AcDbSpline
 70
8
 71
3
 72
8
 73
4
 74
0
 40
0
 40
0
 40
0
 40
0
 40
1
 40
1
 40
1
 40
1
 10
214.686694
 20
326.539434
 30
0.0
 10
216.398493
 20
324.456949
 30
0.0
 10
218.126908
 20
322.388178
 30
0.0
 10
219.871772
 20
320.333318
 30
0.0
  0
SPLINE
  5
213
100
AcDbEntity
  8
0
 62
1
100
AcDbSpline
 70
8
 71
3
 72
8
 73
4
 74
0
 40
0
 40
0
 40
0
 40
0
 40
1
 40
1
 40
1
 40
1
 10
219.871772
 20
320.333318
 30
0.0
 10
221.429255
 20
318.499013
 30
0.0
 10
222.465481
 20
316.280056
 30
0.0
 10
222.872159
 20
313.908338
 30
0.0
  0
SPLINE
  5
214
100
AcDbEntity
  8
0
 62
1
100
AcDbSpline
 70
8
 71
3
 72
8
 73
4
 74
0
 40
0
 40
0
 40
0
 40
0
 40
1
 40
1
 40
1
 40
1
 10
222.872159
 20
313.908338
 30
0.0
 10
222.952161
 20
313.445072
 30
0.0
 10
223.230432
 20
313.039821
 30
0.0
 10
223.634055
 20
312.798773
 30
0.0
  0
SPLINE
  5
215
100
AcDbEntity
  8
0
 62
1
100
AcDbSpline
 70
8
 71
3
 72
8
 73
4
 74
0
 40
0
 40
0
 40
0
 40
0
 40
1
 40
1
 40
1
 40
1
 10
223.634055
 20
312.798773
 30
0.0
 10
224.750985
 20
312.083698
 30
0.0
 10
225.692790
 20
311.126575
 30
0.0
 10
226.389756
 20
309.998256
 30
0.0
  0
SPLINE
  5
216
100
AcDbEntity
  8
0
 62
1
100
AcDbSpline
 70
8
 71
3
 72
8
 73
4
 74
0
 40
0
 40
0
 40
0
 40
0
 40
1
 40
1
 40
1
 40
1
 10
226.389756
 20
309.998256
 30
0.0
 10
227.032490
 20
308.957846
 30
0.0
 10
227.902776
 20
308.076724
 30
0.0
 10
228.935154
 20
307.421167
 30
0.0
  0
SPLINE
  5
217
100
AcDbEntity
  8
0
 62
1
100
AcDbSpline
 70
8
 71
3
 72
8
 73
4
 74
0
 40
0
 40
0
 40
0
 40
0
 40
1
 40
1
 40
1
 40
1
 10
228.935154
 20
307.421167
 30
0.0
 10
231.163239
 20
306.006446
 30
0.0
 10
232.690333
 20
303.716644
 30
0.0
 10
233.140153
 20
301.115979
 30
0.0
  0
SPLINE
  5
218
100
AcDbEntity
  8
0
 62
1
100
AcDbSpline
 70
8
 71
3
 72
8
 73
4
 74
0
 40
0
 40
0
 40
0
 40
0
 40
1
 40
1
 40
1
 40
1
 10
233.140153
 20
301.115979
 30
0.0
 10
233.511941
 20
298.966672
 30
0.0
 10
233.697957
 20
296.789340
 30
0.0
 10
233.696140
 20
294.608115
 30
0.0
  0
SPLINE
  5
219
100
AcDbEntity
  8
0
 62
1
100
AcDbSpline
 70
8
 71
3
 72
8
 73
4
 74
0
 40
0
 40
0
 40
0
 40
0
 40
1
 40
1
 40
1
 40
1
 10
233.696140
 20
294.608115
 30
0.0
 10
233.694451
 20
292.555103
 30
0.0
 10
234.151840
 20
290.527692
 30
0.0
 10
235.034830
 20
288.674266
 30
0.0
  0
SPLINE
  5
21a
100
AcDbEntity
  8
0
 62
1
100
AcDbSpline
 70
8
 71
3
 72
8
 73
4
 74
0
 40
0
 40
0
 40
0
 40
0
 40
1
 40
1
 40
1
 40
1
 10
235.034830
 20
288.674266
 30
0.0
 10
237.678142
 20
283.126066
 30
0.0
 10
239.243804
 20
277.126367
 30
0.0
 10
239.648613
 20
270.994014
 30
0.0
  0
SPLINE
  5
21b
100
AcDbEntity
  8
0
 62
1
100
AcDbSpline
 70
8
 71
3
 72
8
 73
4
 74
0
 40
0
 40
0
 40
0
 40
0
 40
1
 40
1
 40
1
 40
1
 10
239.648613
 20
270.994014
 30
0.0
 10
240.432215
 20
259.123723
 30
0.0
 10
240.600251
 20
247.220803
 30
0.0
 10
240.152046
 20
235.333123
 30
0.0
  0
LWPOLYLINE
  5
21c
100
AcDbEntity
  8
0
 62
1
100
AcDbPolyline
 90
1
 70
1
 10
115.755605
 20
123.348728
 30
0.0
  0
LWPOLYLINE
  5
21d
100
AcDbEntity
  8
0
 62
1
100
AcDbPolyline
 90
2
 70
0
 10
240.152046
 20
235.333123
 30
0.0
 10
314.650998
 20
235.316852
 30
0.0
  0
SPLINE
  5
21e
100
AcDbEntity
  8
0
 62
1
100
AcDbSpline
 70
8
 71
3
 72
8
 73
4
 74
0
 40
0
 40
0
 40
0
 40
0
 40
1
 40
1
 40
1
 40
1
 10
470.620715
 20
44.356337
 30
0.0
 10
475.324407
 20
45.889710
 30
0.0
 10
479.182352
 20
49.303752
 30
0.0
 10
481.276460
 20
53.786013
 30
0.0
  0
SPLINE
  5
21f
100
AcDbEntity
  8
0
 62
1
100
AcDbSpline
 70
8
 71
3
 72
8
 73
4
 74
0
 40
0
 40
0
 40
0
 40
0
 40
1
 40
1
 40
1
 40
1
 10
481.276460
 20
53.786013
 30
0.0
 10
486.246205
 20
64.422653
 30
0.0
 10
485.397333
 20
76.867415
 30
0.0
 10
479.029266
 20
86.730690
 30
0.0
  0
SPLINE
  5
220
100
AcDbEntity
  8
0
 62
1
100
AcDbSpline
 70
8
 71
3
 72
8
 73
4
 74
0
 40
0
 40
0
 40
0
 40
0
 40
1
 40
1
 40
1
 40
1
 10
479.029266
 20
86.730690
 30
0.0
 10
476.456335
 20
90.715227
 30
0.0
 10
472.037251
 20
93.121889
 30
0.0
 10
467.294202
 20
93.121682
 30
0.0
  0
SPLINE
  5
221
100
AcDbEntity
  8
0
 62
1
100
AcDbSpline
 70
8
 71
3
 72
8
 73
4
 74
0
 40
0
 40
0
 40
0
 40
0
 40
1
 40
1
 40
1
 40
1
 10
467.294202
 20
93.121682
 30
0.0
 10
467.294202
 20
93.121682
 30
0.0
 10
401.548450
 20
93.121682
 30
0.0
 10
401.548450
 20
93.121682
 30
0.0
  0
SPLINE
  5
222
100
AcDbEntity
  8
0
 62
1
100
AcDbSpline
 70
8
 71
3
 72
8
 73
4
 74
0
 40
0
 40
0
 40
0
 40
0
 40
1
 40
1
 40
1
 40
1
 10
401.548450
 20
93.121682
 30
0.0
 10
380.162540
 20
93.121755
 30
0.0
 10
361.716800
 20
108.140797
 30
0.0
 10
357.382460
 20
129.082876
 30
0.0
  0
SPLINE
  5
223
100
AcDbEntity
  8
0
 62
1
100
AcDbSpline
 70
8
 71
3
 72
8
 73
4
 74
0
 40
0
 40
0
 40
0
 40
0
 40
1
 40
1
 40
1
 40
1
 10
357.382460
 20
129.082876
 30
0.0
 10
354.881295
 20
141.166726
 30
0.0
 10
354.881295
 20
153.634780
 30
0.0
 10
357.382460
 20
165.718630
 30
0.0
  0
SPLINE
  5
224
100
AcDbEntity
  8
0
 62
1
100
AcDbSpline
 70
8
 71
3
 72
8
 73
4
 74
0
 40
0
 40
0
 40
0
 40
0
 40
1
 40
1
 40
1
 40
1
 10
357.382460
 20
165.718630
 30
0.0
 10
361.717419
 20
186.660111
 30
0.0
 10
380.163000
 20
201.678395
 30
0.0
 10
401.548450
 20
201.678321
 30
0.0
  0
LWPOLYLINE
  5
225
100
AcDbEntity
  8
0
 62
1
100
AcDbPolyline
 90
4
 70
0
 10
467.854980
 20
14.426674
 30
0.0
 10
240.452773
 20
14.426674
 30
0.0
 10
240.452773
 20
44.356337
 30
0.0
 10
470.620715
 20
44.356337
 30
0.0
  0
SPLINE
  5
226
100
AcDbEntity
  8
0
 62
1
100
AcDbSpline
 70
8
 71
3
 72
8
 73
4
 74
0
 40
0
 40
0
 40
0
 40
0
 40
1
 40
1
 40
1
 40
1
 10
401.548450
 20
172.009020
 30
0.0
 10
394.231170
 20
172.009031
 30
0.0
 10
387.919829
 20
166.870293
 30
0.0
 10
386.436671
 20
159.704901
 30
0.0
  0
SPLINE
  5
227
100
AcDbEntity
  8
0
 62
1
100
AcDbSpline
 70
8
 71
3
 72
8
 73
4
 74
0
 40
0
 40
0
 40
0
 40
0
 40
1
 40
1
 40
1
 40
1
 10
386.436671
 20
159.704901
 30
0.0
 10
384.756629
 20
151.588159
 30
0.0
 10
384.756629
 20
143.213346
 30
0.0
 10
386.436671
 20
135.096605
 30
0.0
  0
SPLINE
  5
228
100
AcDbEntity
  8
0
 62
1
100
AcDbSpline
 70
8
 71
3
 72
8
 73
4
 74
0
 40
0
 40
0
 40
0
 40
0
 40
1
 40
1
 40
1
 40
1
 10
386.436671
 20
135.096605
 30
0.0
 10
387.919818
 20
127.931202
 30
0.0
 10
394.231161
 20
122.792449
 30
0.0
 10
401.548450
 20
122.792457
 30
0.0
  0
LWPOLYLINE
  5
229
100
AcDbEntity
  8
0
 62
1
100
AcDbPolyline
 90
4
 70
0
 10
401.548450
 20
201.678321
 30
0.0
 10
502.881222
 20
201.678321
 30
0.0
 10
470.365115
 20
172.009020
 30
0.0
 10
401.548450
 20
172.009020
 30
0.0
  0
SPLINE
  5
22a
100
AcDbEntity
  8
0
 62
1
100
AcDbSpline
 70
8
 71
3
 72
8
 73
4
 74
0
 40
0
 40
0
 40
0
 40
0
 40
1
 40
1
 40
1
 40
1
 10
467.273707
 20
122.792457
 30
0.0
 10
485.613310
 20
122.792419
 30
0.0
 10
502.320122
 20
112.251583
 30
0.0
 10
510.216094
 20
95.698800
 30
0.0
  0
SPLINE
  5
22b
100
AcDbEntity
  8
0
 62
1
100
AcDbSpline
 70
8
 71
3
 72
8
 73
4
 74
0
 40
0
 40
0
 40
0
 40
0
 40
1
 40
1
 40
1
 40
1
 10
510.216094
 20
95.698800
 30
0.0
 10
518.490066
 20
78.353583
 30
0.0
 10
518.490066
 20
58.199831
 30
0.0
 10
510.216094
 20
40.854614
 30
0.0
  0
SPLINE
  5
22c
100
AcDbEntity
  8
0
 62
1
100
AcDbSpline
 70
8
 71
3
 72
8
 73
4
 74
0
 40
0
 40
0
 40
0
 40
0
 40
1
 40
1
 40
1
 40
1
 10
510.216094
 20
40.854614
 30
0.0
 10
502.456901
 20
24.588367
 30
0.0
 10
486.039357
 20
14.229964
 30
0.0
 10
468.017263
 20
14.229893
 30
0.0
  0
SPLINE
  5
22d
100
AcDbEntity
  8
0
 62
1
100
AcDbSpline
 70
8
 71
3
 72
8
 73
4
 74
0
 40
0
 40
0
 40
0
 40
0
 40
1
 40
1
 40
1
 40
1
 10
354.786633
 20
93.121682
 30
0.0
 10
346.809636
 20
101.392297
 30
0.0
 10
341.168874
 20
111.630612
 30
0.0
 10
338.439628
 20
122.792457
 30
0.0
  0
LWPOLYLINE
  5
22e
100
AcDbEntity
  8
0
 62
1
100
AcDbPolyline
 90
2
 70
0
 10
401.548450
 20
122.792457
 30
0.0
 10
467.273707
 20
122.792457
 30
0.0
  0
LWPOLYLINE
  5
22f
100
AcDbEntity
  8
0
 62
1
100
AcDbPolyline
 90
4
 70
0
 10
338.439628
 20
122.792457
 30
0.0
 10
240.433894
 20
122.792457
 30
0.0
 10
240.433894
 20
93.121682
 30
0.0
 10
354.786633
 20
93.121682
 30
0.0
  0
SPLINE
  5
230
100
AcDbEntity
  8
0
 62
1
100
AcDbSpline
 70
8
 71
3
 72
8
 73
4
 74
0
 40
0
 40
0
 40
0
 40
0
 40
1
 40
1
 40
1
 40
1
 10
354.786633
 20
201.678321
 30
0.0
 10
346.809862
 20
193.408118
 30
0.0
 10
341.169116
 20
183.170340
 30
0.0
 10
338.439628
 20
172.009020
 30
0.0
  0
LWPOLYLINE
  5
231
100
AcDbEntity
  8
0
 62
1
100
AcDbPolyline
 90
3
 70
0
 10
240.433894
 20
172.009020
 30
0.0
 10
240.433894
 20
201.678321
 30
0.0
 10
354.786633
 20
201.678321
 30
0.0
  0
SPLINE
  5
232
100
AcDbEntity
  8
0
 62
1
100
AcDbSpline
 70
8
 71
3
 72
8
 73
4
 74
0
 40
0
 40
0
 40
0
 40
0
 40
1
 40
1
 40
1
 40
1
 10
132.899685
 20
237.843356
 30
0.0
 10
133.188548
 20
238.085198
 30
0.0
 10
133.354830
 20
238.443026
 30
0.0
 10
133.353416
 20
238.819758
 30
0.0
  0
SPLINE
  5
233
100
AcDbEntity
  8
0
 62
1
100
AcDbSpline
 70
8
 71
3
 72
8
 73
4
 74
0
 40
0
 40
0
 40
0
 40
0
 40
1
 40
1
 40
1
 40
1
 10
133.353416
 20
238.819758
 30
0.0
 10
133.352591
 20
239.248953
 30
0.0
 10
133.506841
 20
239.663998
 30
0.0
 10
133.787767
 20
239.988482
 30
0.0
  0
SPLINE
  5
234
100
AcDbEntity
  8
0
 62
1
100
AcDbSpline
 70
8
 71
3
 72
8
 73
4
 74
0
 40
0
 40
0
 40
0
 40
0
 40
1
 40
1
 40
1
 40
1
 10
133.787767
 20
239.988482
 30
0.0
 10
134.120620
 20
240.375510
 30
0.0
 10
134.120620
 20
240.947704
 30
0.0
 10
133.787767
 20
241.334733
 30
0.0
  0
SPLINE
  5
235
100
AcDbEntity
  8
0
 62
1
100
AcDbSpline
 70
8
 71
3
 72
8
 73
4
 74
0
 40
0
 40
0
 40
0
 40
0
 40
1
 40
1
 40
1
 40
1
 10
133.787767
 20
241.334733
 30
0.0
 10
133.473564
 20
241.697941
 30
0.0
 10
133.319999
 20
242.172995
 30
0.0
 10
133.362145
 20
242.651396
 30
0.0
  0
SPLINE
  5
236
100
AcDbEntity
  8
0
 62
1
100
AcDbSpline
 70
8
 71
3
 72
8
 73
4
 74
0
 40
0
 40
0
 40
0
 40
0
 40
1
 40
1
 40
1
 40
1
 10
133.362145
 20
242.651396
 30
0.0
 10
133.531002
 20
244.495304
 30
0.0
 10
133.531002
 20
246.350786
 30
0.0
 10
133.362145
 20
248.194695
 30
0.0
  0
SPLINE
  5
237
100
AcDbEntity
  8
0
 62
1
100
AcDbSpline
 70
8
 71
3
 72
8
 73
4
 74
0
 40
0
 40
0
 40
0
 40
0
 40
1
 40
1
 40
1
 40
1
 10
133.362145
 20
248.194695
 30
0.0
 10
133.286098
 20
249.026854
 30
0.0
 10
133.381873
 20
249.865764
 30
0.0
 10
133.643526
 20
250.659370
 30
0.0
  0
SPLINE
  5
238
100
AcDbEntity
  8
0
 62
1
100
AcDbSpline
 70
8
 71
3
 72
8
 73
4
 74
0
 40
0
 40
0
 40
0
 40
0
 40
1
 40
1
 40
1
 40
1
 10
133.643526
 20
250.659370
 30
0.0
 10
134.046353
 20
251.881112
 30
0.0
 10
134.269898
 20
253.154809
 30
0.0
 10
134.307183
 20
254.440707
 30
0.0
  0
SPLINE
  5
239
100
AcDbEntity
  8
0
 62
1
100
AcDbSpline
 70
8
 71
3
 72
8
 73
4
 74
0
 40
0
 40
0
 40
0
 40
0
 40
1
 40
1
 40
1
 40
1
 10
134.307183
 20
254.440707
 30
0.0
 10
134.475243
 20
260.229790
 30
0.0
 10
134.397307
 20
266.023399
 30
0.0
 10
134.073586
 20
271.805865
 30
0.0
  0
SPLINE
  5
23a
100
AcDbEntity
  8
0
 62
1
100
AcDbSpline
 70
8
 71
3
 72
8
 73
4
 74
0
 40
0
 40
0
 40
0
 40
0
 40
1
 40
1
 40
1
 40
1
 10
134.073586
 20
271.805865
 30
0.0
 10
133.830030
 20
276.157420
 30
0.0
 10
134.884806
 20
280.483232
 30
0.0
 10
137.104042
 20
284.234277
 30
0.0
  0
SPLINE
  5
23b
100
AcDbEntity
  8
0
 62
1
100
AcDbSpline
 70
8
 71
3
 72
8
 73
4
 74
0
 40
0
 40
0
 40
0
 40
0
 40
1
 40
1
 40
1
 40
1
 10
137.104042
 20
284.234277
 30
0.0
 10
139.345019
 20
288.022116
 30
0.0
 10
141.198069
 20
292.026413
 30
0.0
 10
142.635032
 20
296.186322
 30
0.0
  0
SPLINE
  5
23c
100
AcDbEntity
  8
0
 62
1
100
AcDbSpline
 70
8
 71
3
 72
8
 73
4
 74
0
 40
0
 40
0
 40
0
 40
0
 40
1
 40
1
 40
1
 40
1
 10
142.635032
 20
296.186322
 30
0.0
 10
143.371297
 20
298.318036
 30
0.0
 10
144.830496
 20
300.124795
 30
0.0
 10
146.759516
 20
301.293200
 30
0.0
  0
SPLINE
  5
23d
100
AcDbEntity
  8
0
 62
1
100
AcDbSpline
 70
8
 71
3
 72
8
 73
4
 74
0
 40
0
 40
0
 40
0
 40
0
 40
1
 40
1
 40
1
 40
1
 10
146.759516
 20
301.293200
 30
0.0
 10
150.453971
 20
303.530825
 30
0.0
 10
152.607523
 20
307.628541
 30
0.0
 10
152.355157
 20
311.940417
 30
0.0
  0
SPLINE
  5
23e
100
AcDbEntity
  8
0
 62
1
100
AcDbSpline
 70
8
 71
3
 72
8
 73
4
 74
0
 40
0
 40
0
 40
0
 40
0
 40
1
 40
1
 40
1
 40
1
 10
152.355157
 20
311.940417
 30
0.0
 10
153.343897
 20
313.637900
 30
0.0
 10
154.029257
 20
315.494704
 30
0.0
 10
154.380480
 20
317.427500
 30
0.0
  0
SPLINE
  5
23f
100
AcDbEntity
  8
0
 62
1
100
AcDbSpline
 70
8
 71
3
 72
8
 73
4
 74
0
 40
0
 40
0
 40
0
 40
0
 40
1
 40
1
 40
1
 40
1
 10
154.380480
 20
317.427500
 30
0.0
 10
155.723492
 20
318.263593
 30
0.0
 10
156.855130
 20
319.398725
 30
0.0
 10
157.687080
 20
320.744307
 30
0.0
  0
SPLINE
  5
240
100
AcDbEntity
  8
0
 62
1
100
AcDbSpline
 70
8
 71
3
 72
8
 73
4
 74
0
 40
0
 40
0
 40
0
 40
0
 40
1
 40
1
 40
1
 40
1
 10
157.687080
 20
320.744307
 30
0.0
 10
158.885556
 20
322.682432
 30
0.0
 10
159.549637
 20
324.903267
 30
0.0
 10
159.611849
 20
327.181162
 30
0.0
  0
SPLINE
  5
241
100
AcDbEntity
  8
0
 62
1
100
AcDbSpline
 70
8
 71
3
 72
8
 73
4
 74
0
 40
0
 40
0
 40
0
 40
0
 40
1
 40
1
 40
1
 40
1
 10
159.611849
 20
327.181162
 30
0.0
 10
159.652985
 20
328.679525
 30
0.0
 10
158.952066
 20
330.101666
 30
0.0
 10
157.738696
 20
330.981732
 30
0.0
  0
SPLINE
  5
242
100
AcDbEntity
  8
0
 62
1
100
AcDbSpline
 70
8
 71
3
 72
8
 73
4
 74
0
 40
0
 40
0
 40
0
 40
0
 40
1
 40
1
 40
1
 40
1
 10
157.738696
 20
330.981732
 30
0.0
 10
157.216138
 20
331.360767
 30
0.0
 10
156.909582
 20
331.969469
 30
0.0
 10
156.916151
 20
332.614986
 30
0.0
  0
SPLINE
  5
243
100
AcDbEntity
  8
0
 62
1
100
AcDbSpline
 70
8
 71
3
 72
8
 73
4
 74
0
 40
0
 40
0
 40
0
 40
0
 40
1
 40
1
 40
1
 40
1
 10
156.916151
 20
332.614986
 30
0.0
 10
156.943910
 20
335.238376
 30
0.0
 10
156.943910
 20
337.861986
 30
0.0
 10
156.916151
 20
340.485376
 30
0.0
  0
SPLINE
  5
244
100
AcDbEntity
  8
0
 62
1
100
AcDbSpline
 70
8
 71
3
 72
8
 73
4
 74
0
 40
0
 40
0
 40
0
 40
0
 40
1
 40
1
 40
1
 40
1
 10
156.916151
 20
340.485376
 30
0.0
 10
156.909594
 20
341.111620
 30
0.0
 10
157.167195
 20
341.711645
 30
0.0
 10
157.625744
 20
342.138211
 30
0.0
  0
SPLINE
  5
245
100
AcDbEntity
  8
0
 62
1
100
AcDbSpline
 70
8
 71
3
 72
8
 73
4
 74
0
 40
0
 40
0
 40
0
 40
0
 40
1
 40
1
 40
1
 40
1
 10
157.625744
 20
342.138211
 30
0.0
 10
158.084292
 20
342.564777
 30
0.0
 10
158.701344
 20
342.778401
 30
0.0
 10
159.325482
 20
342.726662
 30
0.0
  0
SPLINE
  5
246
100
AcDbEntity
  8
0
 62
1
100
AcDbSpline
 70
8
 71
3
 72
8
 73
4
 74
0
 40
0
 40
0
 40
0
 40
0
 40
1
 40
1
 40
1
 40
1
 10
159.325482
 20
342.726662
 30
0.0
 10
160.597052
 20
342.621247
 30
0.0
 10
161.875164
 20
342.621247
 30
0.0
 10
163.146734
 20
342.726662
 30
0.0
  0
SPLINE
  5
247
100
AcDbEntity
  8
0
 62
1
100
AcDbSpline
 70
8
 71
3
 72
8
 73
4
 74
0
 40
0
 40
0
 40
0
 40
0
 40
1
 40
1
 40
1
 40
1
 10
163.146734
 20
342.726662
 30
0.0
 10
163.836275
 20
342.783981
 30
0.0
 10
164.529955
 20
342.687990
 30
0.0
 10
165.178019
 20
342.445576
 30
0.0
  0
SPLINE
  5
248
100
AcDbEntity
  8
0
 62
1
100
AcDbSpline
 70
8
 71
3
 72
8
 73
4
 74
0
 40
0
 40
0
 40
0
 40
0
 40
1
 40
1
 40
1
 40
1
 10
165.178019
 20
342.445576
 30
0.0
 10
165.974490
 20
342.146388
 30
0.0
 10
166.741932
 20
341.774993
 30
0.0
 10
167.470759
 20
341.336029
 30
0.0
  0
SPLINE
  5
249
100
AcDbEntity
  8
0
 62
1
100
AcDbSpline
 70
8
 71
3
 72
8
 73
4
 74
0
 40
0
 40
0
 40
0
 40
0
 40
1
 40
1
 40
1
 40
1
 10
167.470759
 20
341.336029
 30
0.0
 10
168.004602
 20
341.015404
 30
0.0
 10
168.674260
 20
341.026019
 30
0.0
 10
169.197673
 20
341.363403
 30
0.0
  0
SPLINE
  5
24a
100
AcDbEntity
  8
0
 62
1
100
AcDbSpline
 70
8
 71
3
 72
8
 73
4
 74
0
 40
0
 40
0
 40
0
 40
0
 40
1
 40
1
 40
1
 40
1
 10
169.197673
 20
341.363403
 30
0.0
 10
169.721086
 20
341.700786
 30
0.0
 10
170.007282
 20
342.306300
 30
0.0
 10
169.935715
 20
342.924901
 30
0.0
  0
SPLINE
  5
24b
100
AcDbEntity
  8
0
 62
1
100
AcDbSpline
 70
8
 71
3
 72
8
 73
4
 74
0
 40
0
 40
0
 40
0
 40
0
 40
1
 40
1
 40
1
 40
1
 10
169.935715
 20
342.924901
 30
0.0
 10
169.793162
 20
344.157569
 30
0.0
 10
169.793162
 20
345.402560
 30
0.0
 10
169.935715
 20
346.635228
 30
0.0
  0
SPLINE
  5
24c
100
AcDbEntity
  8
0
 62
1
100
AcDbSpline
 70
8
 71
3
 72
8
 73
4
 74
0
 40
0
 40
0
 40
0
 40
0
 40
1
 40
1
 40
1
 40
1
 10
169.935715
 20
346.635228
 30
0.0
 10
169.993720
 20
347.105629
 30
0.0
 10
169.696888
 20
347.547062
 30
0.0
 10
169.239363
 20
347.670805
 30
0.0
  0
SPLINE
  5
24d
100
AcDbEntity
  8
0
 62
1
100
AcDbSpline
 70
8
 71
3
 72
8
 73
4
 74
0
 40
0
 40
0
 40
0
 40
0
 40
1
 40
1
 40
1
 40
1
 10
169.239363
 20
347.670805
 30
0.0
 10
168.217973
 20
347.946103
 30
0.0
 10
167.258206
 20
348.412999
 30
0.0
 10
166.411141
 20
349.046644
 30
0.0
  0
SPLINE
  5
24e
100
AcDbEntity
  8
0
 62
1
100
AcDbSpline
 70
8
 71
3
 72
8
 73
4
 74
0
 40
0
 40
0
 40
0
 40
0
 40
1
 40
1
 40
1
 40
1
 10
166.411141
 20
349.046644
 30
0.0
 10
165.393649
 20
349.813426
 30
0.0
 10
164.184213
 20
350.284411
 30
0.0
 10
162.916126
 20
350.407689
 30
0.0
  0
SPLINE
  5
24f
100
AcDbEntity
  8
0
 62
1
100
AcDbSpline
 70
8
 71
3
 72
8
 73
4
 74
0
 40
0
 40
0
 40
0
 40
0
 40
1
 40
1
 40
1
 40
1
 10
162.916126
 20
350.407689
 30
0.0
 10
162.392142
 20
351.822875
 30
0.0
 10
162.251236
 20
353.351352
 30
0.0
 10
162.507664
 20
354.838482
 30
0.0
  0
SPLINE
  5
250
100
AcDbEntity
  8
0
 62
1
100
AcDbSpline
 70
8
 71
3
 72
8
 73
4
 74
0
 40
0
 40
0
 40
0
 40
0
 40
1
 40
1
 40
1
 40
1
 10
162.507664
 20
354.838482
 30
0.0
 10
161.344372
 20
356.071086
 30
0.0
 10
160.400461
 20
357.493567
 30
0.0
 10
159.716753
 20
359.044407
 30
0.0
  0
SPLINE
  5
251
100
AcDbEntity
  8
0
 62
1
100
AcDbSpline
 70
8
 71
3
 72
8
 73
4
 74
0
 40
0
 40
0
 40
0
 40
0
 40
1
 40
1
 40
1
 40
1
 10
159.716753
 20
359.044407
 30
0.0
 10
158.161862
 20
362.573231
 30
0.0
 10
156.221445
 20
365.919257
 30
0.0
 10
153.930892
 20
369.021458
 30
0.0
  0
SPLINE
  5
252
100
AcDbEntity
  8
0
 62
1
100
AcDbSpline
 70
8
 71
3
 72
8
 73
4
 74
0
 40
0
 40
0
 40
0
 40
0
 40
1
 40
1
 40
1
 40
1
 10
153.930892
 20
369.021458
 30
0.0
 10
150.129948
 20
374.168854
 30
0.0
 10
148.039805
 20
380.379078
 30
0.0
 10
147.954943
 20
386.777177
 30
0.0
  0
SPLINE
  5
253
100
AcDbEntity
  8
0
 62
1
100
AcDbSpline
 70
8
 71
3
 72
8
 73
4
 74
0
 40
0
 40
0
 40
0
 40
0
 40
1
 40
1
 40
1
 40
1
 10
147.954943
 20
386.777177
 30
0.0
 10
147.887379
 20
391.881112
 30
0.0
 10
147.770747
 20
396.984280
 30
0.0
 10
147.605065
 20
402.085973
 30
0.0
  0
SPLINE
  5
254
100
AcDbEntity
  8
0
 62
1
100
AcDbSpline
 70
8
 71
3
 72
8
 73
4
 74
0
 40
0
 40
0
 40
0
 40
0
 40
1
 40
1
 40
1
 40
1
 10
147.605065
 20
402.085973
 30
0.0
 10
147.501224
 20
405.281316
 30
0.0
 10
148.059473
 20
408.463596
 30
0.0
 10
149.244725
 20
411.432801
 30
0.0
  0
SPLINE
  5
255
100
AcDbEntity
  8
0
 62
1
100
AcDbSpline
 70
8
 71
3
 72
8
 73
4
 74
0
 40
0
 40
0
 40
0
 40
0
 40
1
 40
1
 40
1
 40
1
 10
149.244725
 20
411.432801
 30
0.0
 10
150.543255
 20
414.685638
 30
0.0
 10
151.602050
 20
418.029124
 30
0.0
 10
152.412631
 20
421.436481
 30
0.0
  0
SPLINE
  5
256
100
AcDbEntity
  8
0
 62
1
100
AcDbSpline
 70
8
 71
3
 72
8
 73
4
 74
0
 40
0
 40
0
 40
0
 40
0
 40
1
 40
1
 40
1
 40
1
 10
152.412631
 20
421.436481
 30
0.0
 10
152.698198
 20
422.638095
 30
0.0
 10
153.343575
 20
423.723985
 30
0.0
 10
154.262572
 20
424.549132
 30
0.0
  0
SPLINE
  5
257
100
AcDbEntity
  8
0
 62
1
100
AcDbSpline
 70
8
 71
3
 72
8
 73
4
 74
0
 40
0
 40
0
 40
0
 40
0
 40
1
 40
1
 40
1
 40
1
 10
154.262572
 20
424.549132
 30
0.0
 10
155.326926
 20
425.504578
 30
0.0
 10
156.414008
 20
426.434398
 30
0.0
 10
157.522881
 20
427.337795
 30
0.0
  0
SPLINE
  5
258
100
AcDbEntity
  8
0
 62
1
100
AcDbSpline
 70
8
 71
3
 72
8
 73
4
 74
0
 40
0
 40
0
 40
0
 40
0
 40
1
 40
1
 40
1
 40
1
 10
157.522881
 20
427.337795
 30
0.0
 10
158.692047
 20
428.290270
 30
0.0
 10
159.723206
 20
429.400570
 30
0.0
 10
160.586786
 20
430.636849
 30
0.0
  0
SPLINE
  5
259
100
AcDbEntity
  8
0
 62
1
100
AcDbSpline
 70
8
 71
3
 72
8
 73
4
 74
0
 40
0
 40
0
 40
0
 40
0
 40
1
 40
1
 40
1
 40
1
 10
160.586786
 20
430.636849
 30
0.0
 10
162.447343
 20
433.301348
 30
0.0
 10
165.142588
 20
435.270033
 30
0.0
 10
168.246776
 20
436.231927
 30
0.0
  0
SPLINE
  5
25a
100
AcDbEntity
  8
0
 62
1
100
AcDbSpline
 70
8
 71
3
 72
8
 73
4
 74
0
 40
0
 40
0
 40
0
 40
0
 40
1
 40
1
 40
1
 40
1
 10
168.246776
 20
436.231927
 30
0.0
 10
169.222348
 20
436.010651
 30
0.0
 10
170.244534
 20
436.136200
 30
0.0
 10
171.137562
 20
436.586983
 30
0.0
  0
SPLINE
  5
25b
100
AcDbEntity
  8
0
 62
1
100
AcDbSpline
 70
8
 71
3
 72
8
 73
4
 74
0
 40
0
 40
0
 40
0
 40
0
 40
1
 40
1
 40
1
 40
1
 10
171.137562
 20
436.586983
 30
0.0
 10
172.088181
 20
438.359244
 30
0.0
 10
173.665987
 20
439.712941
 30
0.0
 10
175.562156
 20
440.383114
 30
0.0
  0
SPLINE
  5
25c
100
AcDbEntity
  8
0
 62
1
100
AcDbSpline
 70
8
 71
3
 72
8
 73
4
 74
0
 40
0
 40
0
 40
0
 40
0
 40
1
 40
1
 40
1
 40
1
 10
175.562156
 20
440.383114
 30
0.0
 10
177.386391
 20
440.164305
 30
0.0
 10
179.232852
 20
440.214148
 30
0.0
 10
181.042625
 20
440.531054
 30
0.0
  0
SPLINE
  5
25d
100
AcDbEntity
  8
0
 62
1
100
AcDbSpline
 70
8
 71
3
 72
8
 73
4
 74
0
 40
0
 40
0
 40
0
 40
0
 40
1
 40
1
 40
1
 40
1
 10
181.042625
 20
440.531054
 30
0.0
 10
181.497720
 20
441.317709
 30
0.0
 10
182.300984
 20
441.839873
 30
0.0
 10
183.204645
 20
441.936481
 30
0.0
  0
SPLINE
  5
25e
100
AcDbEntity
  8
0
 62
1
100
AcDbSpline
 70
8
 71
3
 72
8
 73
4
 74
0
 40
0
 40
0
 40
0
 40
0
 40
1
 40
1
 40
1
 40
1
 10
183.204645
 20
441.936481
 30
0.0
 10
186.880226
 20
442.332852
 30
0.0
 10
190.579765
 20
442.461405
 30
0.0
 10
194.273994
 20
442.321124
 30
0.0
  0
SPLINE
  5
25f
100
AcDbEntity
  8
0
 62
1
100
AcDbSpline
 70
8
 71
3
 72
8
 73
4
 74
0
 40
0
 40
0
 40
0
 40
0
 40
1
 40
1
 40
1
 40
1
 10
194.273994
 20
442.321124
 30
0.0
 10
195.420991
 20
442.279332
 30
0.0
 10
196.558380
 20
442.095470
 30
0.0
 10
197.660126
 20
441.773747
 30
0.0
  0
SPLINE
  5
260
100
AcDbEntity
  8
0
 62
1
100
AcDbSpline
 70
8
 71
3
 72
8
 73
4
 74
0
 40
0
 40
0
 40
0
 40
0
 40
1
 40
1
 40
1
 40
1
 10
197.660126
 20
441.773747
 30
0.0
 10
201.161472
 20
440.744117
 30
0.0
 10
204.768840
 20
440.117239
 30
0.0
 10
208.412277
 20
439.905269
 30
0.0
  0
SPLINE
  5
261
100
AcDbEntity
  8
0
 62
1
100
AcDbSpline
 70
8
 71
3
 72
8
 73
4
 74
0
 40
0
 40
0
 40
0
 40
0
 40
1
 40
1
 40
1
 40
1
 10
208.412277
 20
439.905269
 30
0.0
 10
211.134818
 20
439.746505
 30
0.0
 10
213.690660
 20
438.541687
 30
0.0
 10
215.545676
 20
436.542601
 30
0.0
  0
SPLINE
  5
262
100
AcDbEntity
  8
0
 62
1
100
AcDbSpline
 70
8
 71
3
 72
8
 73
4
 74
0
 40
0
 40
0
 40
0
 40
0
 40
1
 40
1
 40
1
 40
1
 10
215.545676
 20
436.542601
 30
0.0
 10
217.121957
 20
434.844050
 30
0.0
 10
219.244600
 20
433.752897
 30
0.0
 10
221.543224
 20
433.459538
 30
0.0
  0
SPLINE
  5
263
100
AcDbEntity
  8
0
 62
1
100
AcDbSpline
 70
8
 71
3
 72
8
 73
4
 74
0
 40
0
 40
0
 40
0
 40
0
 40
1
 40
1
 40
1
 40
1
 10
221.543224
 20
433.459538
 30
0.0
 10
223.098033
 20
432.193459
 30
0.0
 10
224.878786
 20
431.233641
 30
0.0
 10
226.791147
 20
430.630932
 30
0.0
  0
SPLINE
  5
264
100
AcDbEntity
  8
0
 62
1
100
AcDbSpline
 70
8
 71
3
 72
8
 73
4
 74
0
 40
0
 40
0
 40
0
 40
0
 40
1
 40
1
 40
1
 40
1
 10
226.791147
 20
430.630932
 30
0.0
 10
227.899493
 20
428.701606
 30
0.0
 10
229.940078
 20
427.496569
 30
0.0
 10
232.164760
 20
427.457626
 30
0.0
  0
SPLINE
  5
265
100
AcDbEntity
  8
0
 62
1
100
AcDbSpline
 70
8
 71
3
 72
8
 73
4
 74
0
 40
0
 40
0
 40
0
 40
0
 40
1
 40
1
 40
1
 40
1
 10
232.164760
 20
427.457626
 30
0.0
 10
233.716248
 20
425.353342
 30
0.0
 10
235.732055
 20
423.635142
 30
0.0
 10
238.055525
 20
422.436554
 30
0.0
  0
SPLINE
  5
266
100
AcDbEntity
  8
0
 62
1
100
AcDbSpline
 70
8
 71
3
 72
8
 73
4
 74
0
 40
0
 40
0
 40
0
 40
0
 40
1
 40
1
 40
1
 40
1
 10
238.055525
 20
422.436554
 30
0.0
 10
238.818343
 20
422.043016
 30
0.0
 10
239.321241
 20
421.280710
 30
0.0
 10
239.382840
 20
420.424574
 30
0.0
  0
SPLINE
  5
267
100
AcDbEntity
  8
0
 62
1
100
AcDbSpline
 70
8
 71
3
 72
8
 73
4
 74
0
 40
0
 40
0
 40
0
 40
0
 40
1
 40
1
 40
1
 40
1
 10
239.382840
 20
420.424574
 30
0.0
 10
239.437983
 20
419.661381
 30
0.0
 10
239.888000
 20
418.982514
 30
0.0
 10
240.569464
 20
418.634504
 30
0.0
  0
SPLINE
  5
268
100
AcDbEntity
  8
0
 62
1
100
AcDbSpline
 70
8
 71
3
 72
8
 73
4
 74
0
 40
0
 40
0
 40
0
 40
0
 40
1
 40
1
 40
1
 40
1
 10
240.569464
 20
418.634504
 30
0.0
 10
241.894022
 20
417.958280
 30
0.0
 10
243.144677
 20
417.146163
 30
0.0
 10
244.301257
 20
416.211252
 30
0.0
  0
SPLINE
  5
269
100
AcDbEntity
  8
0
 62
1
100
AcDbSpline
 70
8
 71
3
 72
8
 73
4
 74
0
 40
0
 40
0
 40
0
 40
0
 40
1
 40
1
 40
1
 40
1
 10
244.301257
 20
416.211252
 30
0.0
 10
245.918484
 20
414.903217
 30
0.0
 10
247.920303
 20
414.162088
 30
0.0
 10
249.999419
 20
414.101633
 30
0.0
  0
SPLINE
  5
26a
100
AcDbEntity
  8
0
 62
1
100
AcDbSpline
 70
8
 71
3
 72
8
 73
4
 74
0
 40
0
 40
0
 40
0
 40
0
 40
1
 40
1
 40
1
 40
1
 10
249.999419
 20
414.101633
 30
0.0
 10
250.572709
 20
414.084997
 30
0.0
 10
251.112180
 20
413.826514
 30
0.0
 10
251.484354
 20
413.390137
 30
0.0
  0
SPLINE
  5
26b
100
AcDbEntity
  8
0
 62
1
100
AcDbSpline
 70
8
 71
3
 72
8
 73
4
 74
0
 40
0
 40
0
 40
0
 40
0
 40
1
 40
1
 40
1
 40
1
 10
251.484354
 20
413.390137
 30
0.0
 10
251.856528
 20
412.953761
 30
0.0
 10
252.026638
 20
412.380258
 30
0.0
 10
251.952593
 20
411.811527
 30
0.0
  0
SPLINE
  5
26c
100
AcDbEntity
  8
0
 62
1
100
AcDbSpline
 70
8
 71
3
 72
8
 73
4
 74
0
 40
0
 40
0
 40
0
 40
0
 40
1
 40
1
 40
1
 40
1
 10
251.952593
 20
411.811527
 30
0.0
 10
251.410293
 20
411.720354
 30
0.0
 10
250.914433
 20
411.449392
 30
0.0
 10
250.544799
 20
411.042241
 30
0.0
  0
SPLINE
  5
26d
100
AcDbEntity
  8
0
 62
1
100
AcDbSpline
 70
8
 71
3
 72
8
 73
4
 74
0
 40
0
 40
0
 40
0
 40
0
 40
1
 40
1
 40
1
 40
1
 10
250.544799
 20
411.042241
 30
0.0
 10
250.185986
 20
410.652895
 30
0.0
 10
249.793071
 20
410.296420
 30
0.0
 10
249.370749
 20
409.977075
 30
0.0
  0
SPLINE
  5
26e
100
AcDbEntity
  8
0
 62
1
100
AcDbSpline
 70
8
 71
3
 72
8
 73
4
 74
0
 40
0
 40
0
 40
0
 40
0
 40
1
 40
1
 40
1
 40
1
 10
249.370749
 20
409.977075
 30
0.0
 10
248.907426
 20
409.620998
 30
0.0
 10
248.320292
 20
409.466373
 30
0.0
 10
247.741682
 20
409.548050
 30
0.0
  0
SPLINE
  5
26f
100
AcDbEntity
  8
0
 62
1
100
AcDbSpline
 70
8
 71
3
 72
8
 73
4
 74
0
 40
0
 40
0
 40
0
 40
0
 40
1
 40
1
 40
1
 40
1
 10
247.741682
 20
409.548050
 30
0.0
 10
247.256364
 20
409.618015
 30
0.0
 10
246.774567
 20
409.399901
 30
0.0
 10
246.506916
 20
408.989058
 30
0.0
  0
SPLINE
  5
270
100
AcDbEntity
  8
0
 62
1
100
AcDbSpline
 70
8
 71
3
 72
8
 73
4
 74
0
 40
0
 40
0
 40
0
 40
0
 40
1
 40
1
 40
1
 40
1
 10
246.506916
 20
408.989058
 30
0.0
 10
246.239265
 20
408.578215
 30
0.0
 10
246.234440
 20
408.049368
 30
0.0
 10
246.494551
 20
407.633711
 30
0.0
  0
SPLINE
  5
271
100
AcDbEntity
  8
0
 62
1
100
AcDbSpline
 70
8
 71
3
 72
8
 73
4
 74
0
 40
0
 40
0
 40
0
 40
0
 40
1
 40
1
 40
1
 40
1
 10
246.494551
 20
407.633711
 30
0.0
 10
247.653164
 20
405.786091
 30
0.0
 10
247.805851
 20
403.479937
 30
0.0
 10
246.900941
 20
401.495694
 30
0.0
  0
SPLINE
  5
272
100
AcDbEntity
  8
0
 62
1
100
AcDbSpline
 70
8
 71
3
 72
8
 73
4
 74
0
 40
0
 40
0
 40
0
 40
0
 40
1
 40
1
 40
1
 40
1
 10
246.900941
 20
401.495694
 30
0.0
 10
246.261194
 20
402.022560
 30
0.0
 10
245.501281
 20
402.383357
 30
0.0
 10
244.688637
 20
402.546066
 30
0.0
  0
SPLINE
  5
273
100
AcDbEntity
  8
0
 62
1
100
AcDbSpline
 70
8
 71
3
 72
8
 73
4
 74
0
 40
0
 40
0
 40
0
 40
0
 40
1
 40
1
 40
1
 40
1
 10
244.688637
 20
402.546066
 30
0.0
 10
244.476467
 20
402.588594
 30
0.0
 10
244.261233
 20
402.488561
 30
0.0
 10
244.156951
 20
402.298957
 30
0.0
  0
SPLINE
  5
274
100
AcDbEntity
  8
0
 62
1
100
AcDbSpline
 70
8
 71
3
 72
8
 73
4
 74
0
 40
0
 40
0
 40
0
 40
0
 40
1
 40
1
 40
1
 40
1
 10
244.156951
 20
402.298957
 30
0.0
 10
244.052669
 20
402.109353
 30
0.0
 10
244.083447
 20
401.874012
 30
0.0
 10
244.232982
 20
401.717603
 30
0.0
  0
SPLINE
  5
275
100
AcDbEntity
  8
0
 62
1
100
AcDbSpline
 70
8
 71
3
 72
8
 73
4
 74
0
 40
0
 40
0
 40
0
 40
0
 40
1
 40
1
 40
1
 40
1
 10
244.232982
 20
401.717603
 30
0.0
 10
245.731375
 20
400.142792
 30
0.0
 10
246.610254
 20
398.079581
 30
0.0
 10
246.707732
 20
395.908013
 30
0.0
  0
SPLINE
  5
276
100
AcDbEntity
  8
0
 62
1
100
AcDbSpline
 70
8
 71
3
 72
8
 73
4
 74
0
 40
0
 40
0
 40
0
 40
0
 40
1
 40
1
 40
1
 40
1
 10
246.707732
 20
395.908013
 30
0.0
 10
246.907267
 20
391.466638
 30
0.0
 10
246.907267
 20
387.018544
 30
0.0
 10
246.707732
 20
382.577169
 30
0.0
  0
SPLINE
  5
277
100
AcDbEntity
  8
0
 62
1
100
AcDbSpline
 70
8
 71
3
 72
8
 73
4
 74
0
 40
0
 40
0
 40
0
 40
0
 40
1
 40
1
 40
1
 40
1
 10
246.707732
 20
382.577169
 30
0.0
 10
246.657076
 20
381.447666
 30
0.0
 10
246.184790
 20
380.378200
 30
0.0
 10
245.384116
 20
379.579912
 30
0.0
  0
SPLINE
  5
278
100
AcDbEntity
  8
0
 62
1
100
AcDbSpline
 70
8
 71
3
 72
8
 73
4
 74
0
 40
0
 40
0
 40
0
 40
0
 40
1
 40
1
 40
1
 40
1
 10
245.384116
 20
379.579912
 30
0.0
 10
244.943449
 20
379.140567
 30
0.0
 10
244.666263
 20
378.563747
 30
0.0
 10
244.598556
 20
377.945179
 30
0.0
  0
SPLINE
  5
279
100
AcDbEntity
  8
0
 62
1
100
AcDbSpline
 70
8
 71
3
 72
8
 73
4
 74
0
 40
0
 40
0
 40
0
 40
0
 40
1
 40
1
 40
1
 40
1
 10
244.598556
 20
377.945179
 30
0.0
 10
244.371038
 20
375.861476
 30
0.0
 10
244.371038
 20
373.759198
 30
0.0
 10
244.598556
 20
371.675496
 30
0.0
  0
SPLINE
  5
27a
100
AcDbEntity
  8
0
 62
1
100
AcDbSpline
 70
8
 71
3
 72
8
 73
4
 74
0
 40
0
 40
0
 40
0
 40
0
 40
1
 40
1
 40
1
 40
1
 10
244.598556
 20
371.675496
 30
0.0
 10
244.772491
 20
370.086158
 30
0.0
 10
245.588105
 20
368.636843
 30
0.0
 10
246.856411
 20
367.663372
 30
0.0
  0
SPLINE
  5
27b
100
AcDbEntity
  8
0
 62
1
100
AcDbSpline
 70
8
 71
3
 72
8
 73
4
 74
0
 40
0
 40
0
 40
0
 40
0
 40
1
 40
1
 40
1
 40
1
 10
246.856411
 20
367.663372
 30
0.0
 10
247.997892
 20
366.787207
 30
0.0
 10
248.619464
 20
365.393667
 30
0.0
 10
248.508720
 20
363.958963
 30
0.0
  0
SPLINE
  5
27c
100
AcDbEntity
  8
0
 62
1
100
AcDbSpline
 70
8
 71
3
 72
8
 73
4
 74
0
 40
0
 40
0
 40
0
 40
0
 40
1
 40
1
 40
1
 40
1
 10
248.508720
 20
363.958963
 30
0.0
 10
248.392737
 20
362.453771
 30
0.0
 10
248.025502
 20
360.978629
 30
0.0
 10
247.422251
 20
359.594742
 30
0.0
  0
SPLINE
  5
27d
100
AcDbEntity
  8
0
 62
1
100
AcDbSpline
 70
8
 71
3
 72
8
 73
4
 74
0
 40
0
 40
0
 40
0
 40
0
 40
1
 40
1
 40
1
 40
1
 10
247.422251
 20
359.594742
 30
0.0
 10
246.951335
 20
358.514323
 30
0.0
 10
245.870109
 20
357.829428
 30
0.0
 10
244.692069
 20
357.865328
 30
0.0
  0
SPLINE
  5
27e
100
AcDbEntity
  8
0
 62
1
100
AcDbSpline
 70
8
 71
3
 72
8
 73
4
 74
0
 40
0
 40
0
 40
0
 40
0
 40
1
 40
1
 40
1
 40
1
 10
244.692069
 20
357.865328
 30
0.0
 10
244.012770
 20
357.885976
 30
0.0
 10
243.435124
 20
357.373523
 30
0.0
 10
243.374666
 20
356.696604
 30
0.0
  0
SPLINE
  5
27f
100
AcDbEntity
  8
0
 62
1
100
AcDbSpline
 70
8
 71
3
 72
8
 73
4
 74
0
 40
0
 40
0
 40
0
 40
0
 40
1
 40
1
 40
1
 40
1
 10
243.374666
 20
356.696604
 30
0.0
 10
243.288498
 20
355.750023
 30
0.0
 10
243.417410
 20
354.796208
 30
0.0
 10
243.751764
 20
353.906462
 30
0.0
  0
SPLINE
  5
280
100
AcDbEntity
  8
0
 62
1
100
AcDbSpline
 70
8
 71
3
 72
8
 73
4
 74
0
 40
0
 40
0
 40
0
 40
0
 40
1
 40
1
 40
1
 40
1
 10
243.751764
 20
353.906462
 30
0.0
 10
244.042785
 20
353.131521
 30
0.0
 10
243.856253
 20
352.258076
 30
0.0
 10
243.274067
 20
351.669615
 30
0.0
  0
SPLINE
  5
281
100
AcDbEntity
  8
0
 62
1
100
AcDbSpline
 70
8
 71
3
 72
8
 73
4
 74
0
 40
0
 40
0
 40
0
 40
0
 40
1
 40
1
 40
1
 40
1
 10
243.274067
 20
351.669615
 30
0.0
 10
242.706041
 20
351.095512
 30
0.0
 10
242.342439
 20
350.350636
 30
0.0
 10
242.239229
 20
349.549639
 30
0.0
  0
SPLINE
  5
282
100
AcDbEntity
  8
0
 62
1
100
AcDbSpline
 70
8
 71
3
 72
8
 73
4
 74
0
 40
0
 40
0
 40
0
 40
0
 40
1
 40
1
 40
1
 40
1
 10
242.239229
 20
349.549639
 30
0.0
 10
242.448363
 20
348.625502
 30
0.0
 10
242.356400
 20
347.658699
 30
0.0
 10
241.976784
 20
346.790564
 30
0.0
  0
SPLINE
  5
283
100
AcDbEntity
  8
0
 62
1
100
AcDbSpline
 70
8
 71
3
 72
8
 73
4
 74
0
 40
0
 40
0
 40
0
 40
0
 40
1
 40
1
 40
1
 40
1
 10
241.976784
 20
346.790564
 30
0.0
 10
241.502091
 20
345.704594
 30
0.0
 10
240.735544
 20
344.771534
 30
0.0
 10
239.762349
 20
344.095104
 30
0.0
  0
SPLINE
  5
284
100
AcDbEntity
  8
0
 62
1
100
AcDbSpline
 70
8
 71
3
 72
8
 73
4
 74
0
 40
0
 40
0
 40
0
 40
0
 40
1
 40
1
 40
1
 40
1
 10
239.762349
 20
344.095104
 30
0.0
 10
239.428851
 20
343.863297
 30
0.0
 10
239.204675
 20
343.505173
 30
0.0
 10
239.141890
 20
343.103908
 30
0.0
  0
SPLINE
  5
285
100
AcDbEntity
  8
0
 62
1
100
AcDbSpline
 70
8
 71
3
 72
8
 73
4
 74
0
 40
0
 40
0
 40
0
 40
0
 40
1
 40
1
 40
1
 40
1
 10
239.141890
 20
343.103908
 30
0.0
 10
238.929736
 20
341.750634
 30
0.0
 10
238.929736
 20
340.372567
 30
0.0
 10
239.141890
 20
339.019294
 30
0.0
  0
SPLINE
  5
286
100
AcDbEntity
  8
0
 62
1
100
AcDbSpline
 70
8
 71
3
 72
8
 73
4
 74
0
 40
0
 40
0
 40
0
 40
0
 40
1
 40
1
 40
1
 40
1
 10
239.141890
 20
339.019294
 30
0.0
 10
239.382965
 20
337.479344
 30
0.0
 10
238.959650
 20
335.909400
 30
0.0
 10
237.977084
 20
334.699389
 30
0.0
  0
SPLINE
  5
287
100
AcDbEntity
  8
0
 62
1
100
AcDbSpline
 70
8
 71
3
 72
8
 73
4
 74
0
 40
0
 40
0
 40
0
 40
0
 40
1
 40
1
 40
1
 40
1
 10
237.977084
 20
334.699389
 30
0.0
 10
236.994519
 20
333.489378
 30
0.0
 10
235.544892
 20
332.752830
 30
0.0
 10
233.988249
 20
332.672682
 30
0.0
  0
SPLINE
  5
288
100
AcDbEntity
  8
0
 62
1
100
AcDbSpline
 70
8
 71
3
 72
8
 73
4
 74
0
 40
0
 40
0
 40
0
 40
0
 40
1
 40
1
 40
1
 40
1
 10
233.988249
 20
332.672682
 30
0.0
 10
228.103438
 20
332.371769
 30
0.0
 10
222.205834
 20
332.426112
 30
0.0
 10
216.327567
 20
332.835416
 30
0.0
  0
SPLINE
  5
289
100
AcDbEntity
  8
0
 62
1
100
AcDbSpline
 70
8
 71
3
 72
8
 73
4
 74
0
 40
0
 40
0
 40
0
 40
0
 40
1
 40
1
 40
1
 40
1
 10
216.327567
 20
332.835416
 30
0.0
 10
216.135556
 20
331.459828
 30
0.0
 10
215.567210
 20
330.164037
 30
0.0
 10
214.685259
 20
329.091063
 30
0.0
  0
SPLINE
  5
28a
100
AcDbEntity
  8
0
 62
1
100
AcDbSpline
 70
8
 71
3
 72
8
 73
4
 74
0
 40
0
 40
0
 40
0
 40
0
 40
1
 40
1
 40
1
 40
1
 10
214.685259
 20
329.091063
 30
0.0
 10
214.075378
 20
328.349168
 30
0.0
 10
214.075378
 20
327.279519
 30
0.0
 10
214.685259
 20
326.537624
 30
0.0
  0
SPLINE
  5
28b
100
AcDbEntity
  8
0
 62
1
100
AcDbSpline
 70
8
 71
3
 72
8
 73
4
 74
0
 40
0
 40
0
 40
0
 40
0
 40
1
 40
1
 40
1
 40
1
 10
214.685259
 20
326.537624
 30
0.0
 10
216.397059
 20
324.455155
 30
0.0
 10
218.125473
 20
322.386399
 30
0.0
 10
219.870337
 20
320.331555
 30
0.0
  0
SPLINE
  5
28c
100
AcDbEntity
  8
0
 62
1
100
AcDbSpline
 70
8
 71
3
 72
8
 73
4
 74
0
 40
0
 40
0
 40
0
 40
0
 40
1
 40
1
 40
1
 40
1
 10
219.870337
 20
320.331555
 30
0.0
 10
221.427830
 20
318.497240
 30
0.0
 10
222.464059
 20
316.278268
 30
0.0
 10
222.870731
 20
313.906535
 30
0.0
  0
SPLINE
  5
28d
100
AcDbEntity
  8
0
 62
1
100
AcDbSpline
 70
8
 71
3
 72
8
 73
4
 74
0
 40
0
 40
0
 40
0
 40
0
 40
1
 40
1
 40
1
 40
1
 10
222.870731
 20
313.906535
 30
0.0
 10
222.950737
 20
313.443277
 30
0.0
 10
223.229004
 20
313.038034
 30
0.0
 10
223.632621
 20
312.796988
 30
0.0
  0
SPLINE
  5
28e
100
AcDbEntity
  8
0
 62
1
100
AcDbSpline
 70
8
 71
3
 72
8
 73
4
 74
0
 40
0
 40
0
 40
0
 40
0
 40
1
 40
1
 40
1
 40
1
 10
223.632621
 20
312.796988
 30
0.0
 10
224.749543
 20
312.081916
 30
0.0
 10
225.691344
 20
311.124801
 30
0.0
 10
226.388308
 20
309.996490
 30
0.0
  0
SPLINE
  5
28f
100
AcDbEntity
  8
0
 62
1
100
AcDbSpline
 70
8
 71
3
 72
8
 73
4
 74
0
 40
0
 40
0
 40
0
 40
0
 40
1
 40
1
 40
1
 40
1
 10
226.388308
 20
309.996490
 30
0.0
 10
227.031037
 20
308.956074
 30
0.0
 10
227.901321
 20
308.074945
 30
0.0
 10
228.933698
 20
307.419381
 30
0.0
  0
SPLINE
  5
290
100
AcDbEntity
  8
0
 62
1
100
AcDbSpline
 70
8
 71
3
 72
8
 73
4
 74
0
 40
0
 40
0
 40
0
 40
0
 40
1
 40
1
 40
1
 40
1
 10
228.933698
 20
307.419381
 30
0.0
 10
231.161792
 20
306.004665
 30
0.0
 10
232.688895
 20
303.714862
 30
0.0
 10
233.138721
 20
301.114193
 30
0.0
  0
SPLINE
  5
291
100
AcDbEntity
  8
0
 62
1
100
AcDbSpline
 70
8
 71
3
 72
8
 73
4
 74
0
 40
0
 40
0
 40
0
 40
0
 40
1
 40
1
 40
1
 40
1
 10
233.138721
 20
301.114193
 30
0.0
 10
233.510498
 20
298.964884
 30
0.0
 10
233.696505
 20
296.787552
 30
0.0
 10
233.694678
 20
294.606327
 30
0.0
  0
SPLINE
  5
292
100
AcDbEntity
  8
0
 62
1
100
AcDbSpline
 70
8
 71
3
 72
8
 73
4
 74
0
 40
0
 40
0
 40
0
 40
0
 40
1
 40
1
 40
1
 40
1
 10
233.694678
 20
294.606327
 30
0.0
 10
233.692992
 20
292.553310
 30
0.0
 10
234.150387
 20
290.525895
 30
0.0
 10
235.033384
 20
288.672467
 30
0.0
  0
SPLINE
  5
293
100
AcDbEntity
  8
0
 62
1
100
AcDbSpline
 70
8
 71
3
 72
8
 73
4
 74
0
 40
0
 40
0
 40
0
 40
0
 40
1
 40
1
 40
1
 40
1
 10
235.033384
 20
288.672467
 30
0.0
 10
237.676697
 20
283.124261
 30
0.0
 10
239.242358
 20
277.124556
 30
0.0
 10
239.647163
 20
270.992197
 30
0.0
  0
SPLINE
  5
294
100
AcDbEntity
  8
0
 62
1
100
AcDbSpline
 70
8
 71
3
 72
8
 73
4
 74
0
 40
0
 40
0
 40
0
 40
0
 40
1
 40
1
 40
1
 40
1
 10
239.647163
 20
270.992197
 30
0.0
 10
240.430767
 20
259.121918
 30
0.0
 10
240.598805
 20
247.219010
 30
0.0
 10
240.150602
 20
235.331341
 30
0.0
  0
LWPOLYLINE
  5
295
100
AcDbEntity
  8
0
 62
1
100
AcDbPolyline
 90
2
 70
0
 10
338.439628
 20
172.009020
 30
0.0
 10
240.433894
 20
172.009020
 30
0.0
  0
LWPOLYLINE
  5
296
100
AcDbEntity
  8
0
 62
1
100
AcDbPolyline
 90
3
 70
0
 10
240.150602
 20
235.331341
 30
0.0
 10
132.899611
 20
235.331341
 30
0.0
 10
132.899685
 20
237.843356
 30
0.0
  0
ENDSEC
  0
SECTION
  2
OBJECTS
  0
DICTIONARY
  5
C
330
0
100
AcDbDictionary
  3
ACAD_GROUP
350
D
  3
ACAD_MLINESTYLE
350
17
  0
DICTIONARY
  5
D
330
C
100
AcDbDictionary
  0
DICTIONARY
  5
1A
330
C
100
AcDbDictionary
  0
DICTIONARY
  5
17
330
C
100
AcDbDictionary
  3
STANDARD
350
18
  0
DICTIONARY
  5
19
330
C
100
AcDbDictionary
  0
ENDSEC
  0
EOF
