<?xml version="1.0" encoding="UTF-8" standalone="no"?>
<!-- Created with Inkscape (http://www.inkscape.org/) -->

<svg
   xmlns:dc="http://purl.org/dc/elements/1.1/"
   xmlns:cc="http://creativecommons.org/ns#"
   xmlns:rdf="http://www.w3.org/1999/02/22-rdf-syntax-ns#"
   xmlns:svg="http://www.w3.org/2000/svg"
   xmlns="http://www.w3.org/2000/svg"
   xmlns:sodipodi="http://sodipodi.sourceforge.net/DTD/sodipodi-0.dtd"
   xmlns:inkscape="http://www.inkscape.org/namespaces/inkscape"
   width="1858.7773mm"
   height="1828.8004mm"
   viewBox="0 0 1858.7773 1828.8004"
   version="1.1"
   id="svg8"
   inkscape:version="0.92.2 (5c3e80d, 2017-08-06)"
   sodipodi:docname="logo 72in.svg">
  <defs
     id="defs2" />
  <sodipodi:namedview
     id="base"
     pagecolor="#ffffff"
     bordercolor="#666666"
     borderopacity="1.0"
     inkscape:pageopacity="0.0"
     inkscape:pageshadow="2"
     inkscape:zoom="0.061871843"
     inkscape:cx="2463.5177"
     inkscape:cy="4388.7385"
     inkscape:document-units="mm"
     inkscape:current-layer="layer1"
     showgrid="false"
     inkscape:window-width="2560"
     inkscape:window-height="1017"
     inkscape:window-x="-8"
     inkscape:window-y="-8"
     inkscape:window-maximized="1" />
  <metadata
     id="metadata5">
    <rdf:RDF>
      <cc:Work
         rdf:about="">
        <dc:format>image/svg+xml</dc:format>
        <dc:type
           rdf:resource="http://purl.org/dc/dcmitype/StillImage" />
        <dc:title></dc:title>
      </cc:Work>
    </rdf:RDF>
  </metadata>
  <g
     inkscape:label="Layer 1"
     inkscape:groupmode="layer"
     id="layer1"
     transform="translate(-193.0148,1624.2328)">
    <path
       inkscape:connector-curvature="0"
       id="path6043-7-3"
       style="fill:#7ec142;fill-opacity:1;stroke:#1a1a1a;stroke-width:5.39118338;stroke-miterlimit:4;stroke-dasharray:none"
       d="m 1323.909,-641.19006 a 277.26671,277.26671 0 0 1 -35.3569,-70.83485 487.18673,487.18673 0 0 0 -54.5045,-113.13264 102.07853,102.07853 0 0 0 0.02,-40.3995 26.088297,26.088297 0 0 0 -6.3077,-11.67102 276.29953,276.29953 0 0 0 -39.5295,-34.85389 398.31107,398.31107 0 0 0 -22.3619,-15.07934 4.8349217,4.8349217 0 0 1 -1.2649,-7.04525 18.935797,18.935797 0 0 0 3.3855,-7.03455 184.22837,184.22837 0 0 1 7.6255,-23.87391 284.16909,284.16909 0 0 0 11.6641,-36.43299 32.713604,32.713604 0 0 1 4.0059,-9.4698 3.1043015,3.1043015 0 0 1 4.083,-1.1166 66.156666,66.156666 0 0 0 19.607,6.6837 1027.7131,1027.7131 0 0 1 29.9869,5.65208 146.60201,146.60201 0 0 0 33.612,2.87118 1996.6558,1996.6558 0 0 0 23.0408,-0.79773 11.340008,11.340008 0 0 0 6.6862,-2.55223 68.939282,68.939282 0 0 0 16.5248,-19.5511 15.176159,15.176159 0 0 0 1.7348,-10.1186 63.449181,63.449181 0 0 1 -0.972,-11.4158 2162.6028,2162.6028 0 0 0 0,-23.6507 20.678488,20.678488 0 0 1 3.5823,-11.7454 51.047769,51.047769 0 0 1 9.2614,-10.278 7.8894016,7.8894016 0 0 0 2.7087,-7.2101 21.320903,21.320903 0 0 1 -0.3504,-6.5985 14.197967,14.197967 0 0 0 -1.9811,-7.6833 11.940525,11.940525 0 0 0 -5.378,-4.7854 1.0776232,1.0776232 0 0 1 0,-1.9673 180.61635,180.61635 0 0 1 7.6386,-3.2434 17.153814,17.153814 0 0 0 8.609,-7.4707 7.7639173,7.7639173 0 0 0 0.867,-5.349 38.407721,38.407721 0 0 1 -0.5389,-11.3255 87.701153,87.701153 0 0 0 0,-17.5997 2.2725425,2.2725425 0 0 1 1.7381,-2.4459 11.816264,11.816264 0 0 1 3.353,0 52.393376,52.393376 0 0 0 23.3577,-3.2434 49.498569,49.498569 0 0 0 16.6531,-10.5971 14.186695,14.186695 0 0 0 0.5054,-18.9449 414.93441,414.93441 0 0 1 -19.1608,-24.31 481.73979,481.73979 0 0 1 -34.9958,-55.5799 253.39114,253.39114 0 0 0 -3.0031,-5.4183 2.9464888,2.9464888 0 0 1 1.1102,-4.0409 18.346659,18.346659 0 0 0 8.4787,-10.4747 37.109702,37.109702 0 0 0 -4.1787,-31.1744 110.07379,110.07379 0 0 1 -13.2884,-29.4834 2079.5889,2079.5889 0 0 1 -7.8689,-28.5584 35.018154,35.018154 0 0 1 -1.0538,-12.1815 8.7716733,8.7716733 0 0 0 -2.0334,-6.4391 56.332678,56.332678 0 0 1 -9.6885,-16.5362 11.803822,11.803822 0 0 1 0,-8.8531 9.2633485,9.2633485 0 0 1 2.7336,-3.722 69.287181,69.287181 0 0 0 24.6515,-42.8666 70.184497,70.184497 0 0 0 0.8518,-12.3093 11.798185,11.798185 0 0 0 -9.6686,-11.3786 28.021075,28.021075 0 0 0 -10.105,0 22.834798,22.834798 0 0 1 -8.2346,0 1130.7616,1130.7616 0 0 0 -12.4907,-2.2332 140.83404,140.83404 0 0 1 -36.4942,-11.5488 32.00281,32.00281 0 0 0 -10.1921,-2.8713 51.516686,51.516686 0 0 1 -22.0764,-7.7896 22.437768,22.437768 0 0 0 -12.2828,-3.5093 24.689626,24.689626 0 0 1 -12.7063,-3.4029 33.892306,33.892306 0 0 0 -14.118,-4.5196 60.172765,60.172765 0 0 1 -21.177,-5.9286 89.516367,89.516367 0 0 1 -13.937,0.02 83.373008,83.373008 0 0 1 13.6556,-34.4656 7.2540043,7.2540043 0 0 1 3.0567,-5.1577 133.78703,133.78703 0 0 1 24.1772,-13.415 287.84504,287.84504 0 0 1 116.1067,-23.0339 128.86247,128.86247 0 0 1 89.7144,7.3217 112.39009,112.39009 0 0 1 38.4717,6.8803 80.68759,80.68759 0 0 0 27.8831,4.945 34.262909,34.262909 0 0 1 22.5887,8.4702 55.228416,55.228416 0 0 0 22.9417,12.0008 16.587273,16.587273 0 0 1 12.0003,11.82 55.067095,55.067095 0 0 1 1.8283,15.8184 75.950662,75.950662 0 0 1 -5.5881,26.3996 21.088013,21.088013 0 0 0 0,15.9248 49.319964,49.319964 0 0 1 3.5994,16.3662 88.73773,88.73773 0 0 0 11.977,40.6228 85.574197,85.574197 0 0 1 9.916,60.1793 2.4786345,2.4786345 0 0 0 2.0818,2.9777 21.393802,21.393802 0 0 0 8.6505,-0.5319 67.664499,67.664499 0 0 1 -6.4377,9.5974 5.6845994,5.6845994 0 0 0 0,7.1196 92.99718,92.99718 0 0 1 5.2872,7.2846 137.40141,137.40141 0 0 0 18.8693,22.9645 359.51228,359.51228 0 0 1 18.5745,19.5991 16.556274,16.556274 0 0 1 3.2472,16.2331 16.805542,16.805542 0 0 1 -7.059,8.8955 102.43296,102.43296 0 0 1 -19.0773,9.2572 7.2391163,7.2391163 0 0 0 -4.7707,6.79 71.911665,71.911665 0 0 1 -0.8243,10.7565 20.817584,20.817584 0 0 0 2.7107,13.8193 183.55257,183.55257 0 0 0 6.6325,10.2992 6.6346115,6.6346115 0 0 1 -1.2287,8.8903 46.320305,46.320305 0 0 0 -5.9252,5.8701 2.8009058,2.8009058 0 0 0 0,3.6156 49.479266,49.479266 0 0 0 4.0055,4.2005 10.577797,10.577797 0 0 1 0.4411,14.9945 64.037841,64.037841 0 0 0 -8.5151,9.6239 31.546599,31.546599 0 0 0 -5.0463,25.8785 39.850151,39.850151 0 0 1 -1.7671,24.3259 33.250687,33.250687 0 0 1 -16.6254,17.621 69.224278,69.224278 0 0 1 -22.0852,6.2317 387.32195,387.32195 0 0 1 -65.6488,1.5419 19.103553,19.103553 0 0 0 -18.0711,10.1664 446.77366,446.77366 0 0 1 -24.514,41.0482 85.153077,85.153077 0 0 0 -9.9389,20.0562 112.71316,112.71316 0 0 1 -10.6175,22.6031 44.095511,44.095511 0 0 0 -6.3509,26.7666 18.373671,18.373671 0 0 1 -1.0427,7.83218 30.184244,30.184244 0 0 0 -1.6877,13.14913 27.592727,27.592727 0 0 0 4.8168,13.17052 278.25739,278.25739 0 0 1 18.4351,30.51518 44.51934,44.51934 0 0 0 19.9092,19.43934 44.712724,44.712724 0 0 1 20.1862,19.90207 972.47961,972.47961 0 0 0 82.2471,133.86928 236.80413,236.80413 0 0 1 45.075,122.52277 z"
       inkscape:export-xdpi="299.98184"
       inkscape:export-ydpi="299.98184" />
    <path
       inkscape:connector-curvature="0"
       id="path6045-1-8"
       style="fill:#7ec142;fill-opacity:1;stroke:#1a1a1a;stroke-width:5.39118338;stroke-miterlimit:4;stroke-dasharray:none"
       d="m 811.76335,-33.558785 a 275.94242,275.94242 0 1 1 -0.94545,-296.621485 8.3096678,8.3096678 0 0 0 11.27523,2.65847 l 77.47941,-46.58869 a 8.3096678,8.3096678 0 0 0 2.74262,-11.55938 382.94105,382.94105 0 1 0 1.29786,407.07426 8.3096678,8.3096678 0 0 0 -2.81588,-11.5434832 L 823.02218,-36.233254 a 8.3096678,8.3096678 0 0 0 -11.25822,2.711757 z"
       inkscape:export-xdpi="299.98184"
       inkscape:export-ydpi="299.98184" />
    <path
       inkscape:connector-curvature="0"
       id="path6047-1-2"
       style="fill:#7ec142;fill-opacity:1;stroke:#1a1a1a;stroke-width:5.39118338;stroke-miterlimit:4;stroke-dasharray:none"
       d="M 609.05461,-238.76288 H 1009.556 v 106.99667 H 609.05461 a 8.3096678,8.3096678 0 0 1 -8.30959,-8.31071 v -90.37526 a 8.3096678,8.3096678 0 0 1 8.30959,-8.3107 z"
       inkscape:export-xdpi="299.98184"
       inkscape:export-ydpi="299.98184" />
    <path
       inkscape:connector-curvature="0"
       id="path6051-0-5"
       style="fill:#767474;fill-opacity:1;stroke:#1a1a1a;stroke-width:5.39118338;stroke-miterlimit:4;stroke-dasharray:none"
       d="m 1323.909,-641.19006 a 277.26671,277.26671 0 0 1 -35.3569,-70.83485 487.18673,487.18673 0 0 0 -54.5045,-113.13264 102.07853,102.07853 0 0 0 0.02,-40.3995 26.088297,26.088297 0 0 0 -6.3077,-11.67102 276.29953,276.29953 0 0 0 -39.5295,-34.85389 398.31107,398.31107 0 0 0 -22.3619,-15.07934 4.8349217,4.8349217 0 0 1 -1.2649,-7.04525 18.935797,18.935797 0 0 0 3.3855,-7.03455 184.22837,184.22837 0 0 1 7.6255,-23.87391 284.16909,284.16909 0 0 0 11.6641,-36.43299 32.713604,32.713604 0 0 1 4.0059,-9.4698 3.1043015,3.1043015 0 0 1 4.083,-1.1166 66.156666,66.156666 0 0 0 19.607,6.6837 1027.7131,1027.7131 0 0 1 29.9869,5.65208 146.60201,146.60201 0 0 0 33.612,2.87118 1996.6558,1996.6558 0 0 0 23.0408,-0.79773 11.340008,11.340008 0 0 0 6.6862,-2.55223 68.939282,68.939282 0 0 0 16.5248,-19.5511 15.176159,15.176159 0 0 0 1.7348,-10.1186 63.449181,63.449181 0 0 1 -0.972,-11.4158 2162.6028,2162.6028 0 0 0 0,-23.6507 20.678488,20.678488 0 0 1 3.5823,-11.7454 51.047769,51.047769 0 0 1 9.2614,-10.278 7.8894016,7.8894016 0 0 0 2.7087,-7.2101 21.320903,21.320903 0 0 1 -0.3504,-6.5985 14.197967,14.197967 0 0 0 -1.9811,-7.6833 11.940525,11.940525 0 0 0 -5.378,-4.7854 1.0776232,1.0776232 0 0 1 0,-1.9673 180.61635,180.61635 0 0 1 7.6386,-3.2434 17.153814,17.153814 0 0 0 8.609,-7.4707 7.7639173,7.7639173 0 0 0 0.867,-5.349 38.407721,38.407721 0 0 1 -0.5389,-11.3255 87.701153,87.701153 0 0 0 0,-17.5997 2.2725425,2.2725425 0 0 1 1.7381,-2.4459 11.816264,11.816264 0 0 1 3.353,0 52.393376,52.393376 0 0 0 23.3577,-3.2434 49.498569,49.498569 0 0 0 16.6531,-10.5971 14.186695,14.186695 0 0 0 0.5054,-18.9449 414.93441,414.93441 0 0 1 -19.1608,-24.31 481.73979,481.73979 0 0 1 -34.9958,-55.5799 253.39114,253.39114 0 0 0 -3.0031,-5.4183 2.9464888,2.9464888 0 0 1 1.1102,-4.0409 18.346659,18.346659 0 0 0 8.4787,-10.4747 37.109702,37.109702 0 0 0 -4.1787,-31.1744 110.07379,110.07379 0 0 1 -13.2884,-29.4834 2079.5889,2079.5889 0 0 1 -7.8689,-28.5584 35.018154,35.018154 0 0 1 -1.0538,-12.1815 8.7716733,8.7716733 0 0 0 -2.0334,-6.4391 56.332678,56.332678 0 0 1 -9.6885,-16.5362 11.803822,11.803822 0 0 1 0,-8.8531 9.2633485,9.2633485 0 0 1 2.7336,-3.722 69.287181,69.287181 0 0 0 24.6515,-42.8666 70.184497,70.184497 0 0 0 0.8518,-12.3093 11.798185,11.798185 0 0 0 -9.6686,-11.3786 28.021075,28.021075 0 0 0 -10.105,0 22.834798,22.834798 0 0 1 -8.2346,0 1130.7616,1130.7616 0 0 0 -12.4907,-2.2332 140.83404,140.83404 0 0 1 -36.4942,-11.5488 32.00281,32.00281 0 0 0 -10.1921,-2.8713 51.516686,51.516686 0 0 1 -22.0764,-7.7896 22.437768,22.437768 0 0 0 -12.2828,-3.5093 24.689626,24.689626 0 0 1 -12.7063,-3.4029 33.892306,33.892306 0 0 0 -14.118,-4.5196 60.172765,60.172765 0 0 1 -21.177,-5.9286 89.516367,89.516367 0 0 1 -28.2647,-2.2864 159.86474,159.86474 0 0 0 -42.2863,-4.4664 305.71863,305.71863 0 0 1 -16.998,0 104.64882,104.64882 0 0 0 -33.7189,4.5728 204.2133,204.2133 0 0 1 -16.7045,4.36 198.62292,198.62292 0 0 1 -24.7935,12.0008 141.80091,141.80091 0 0 0 -12.78046,11.8732 433.23324,433.23324 0 0 0 -7.78683,8.4063 17.336511,17.336511 0 0 1 -9.8538,5.4607 41.51851,41.51851 0 0 0 -15.59018,6.1998 359.83907,359.83907 0 0 1 -22.47853,13.6384 101.07342,101.07342 0 0 0 -36.00095,33.9499 1191.0082,1191.0082 0 0 0 -11.29001,18.0729 144.46712,144.46712 0 0 0 -17.72223,43.6538 274.06844,274.06844 0 0 1 18.91047,0 49.899478,49.899478 0 0 1 12.17015,1.9673 172.48868,172.48868 0 0 0 38.64455,6.7155 37.993303,37.993303 0 0 1 25.63836,12.0858 35.547369,35.547369 0 0 0 21.5559,11.081 57.010932,57.010932 0 0 0 18.86166,10.1662 22.732336,22.732336 0 0 0 19.3134,11.4054 61.11613,61.11613 0 0 0 21.1721,18.0462 8.8516963,8.8516963 0 0 1 4.7706,7.2314 7.8601572,7.8601572 0 0 0 4.2648,6.4337 77.10879,77.10879 0 0 1 13.4126,8.7094 34.144551,34.144551 0 0 0 20.48,7.5824 7.2925003,7.2925003 0 0 1 7.0199,8.2307 8.8057558,8.8057558 0 0 0 -5.0598,2.765 31.916459,31.916459 0 0 1 -4.2197,3.8283 7.8157594,7.8157594 0 0 1 -5.855,1.542 4.5258368,4.5258368 0 0 0 -4.4824,6.8805 23.315042,23.315042 0 0 1 1.4607,22.0607 18.096062,18.096062 0 0 0 -7.9513,-3.7752 1.7813458,1.7813458 0 0 0 -1.6377,2.9777 32.399415,32.399415 0 0 1 8.8946,20.8802 533.77188,533.77188 0 0 1 0,47.9128 16.239374,16.239374 0 0 1 -4.7572,10.7725 9.8028245,9.8028245 0 0 0 -2.8235,5.8753 103.80111,103.80111 0 0 0 0,22.534 21.067064,21.067064 0 0 0 8.115,14.4202 15.299676,15.299676 0 0 1 5.9387,13.314 48.596888,48.596888 0 0 1 -3.905,15.6856 10.359954,10.359954 0 0 1 -9.8126,6.2157 4.6130376,4.6130376 0 0 0 -4.7349,4.2006 22.666244,22.666244 0 0 0 1.3554,10.028 7.6213118,7.6213118 0 0 1 -1.7169,8.0396 13.23881,13.23881 0 0 0 -3.7194,7.6193 15.959054,15.959054 0 0 1 -0.9434,9.9166 23.032755,23.032755 0 0 1 -7.9588,9.6878 5.3447282,5.3447282 0 0 0 -2.2301,3.5625 47.393729,47.393729 0 0 0 0,14.6806 19.777765,19.777765 0 0 1 -18.5228,22.81052 526.63409,526.63409 0 0 1 -63.47469,-0.58479 27.091748,27.091748 0 0 1 -5.90266,13.45773 7.2259299,7.2259299 0 0 0 0,9.1772 1818.5398,1818.5398 0 0 0 18.63581,22.30554 48.285625,48.285625 0 0 1 10.78375,23.09216 5.7932286,5.7932286 0 0 0 2.73835,3.98792 31.785924,31.785924 0 0 1 9.90434,10.06539 29.070731,29.070731 0 0 0 9.1485,9.26237 33.634106,33.634106 0 0 1 15.1132,22.66163 136.55891,136.55891 0 0 1 1.9983,23.39002 49.492029,49.492029 0 0 0 4.8114,21.32698 174.45958,174.45958 0 0 1 16.5825,63.54498 1237.7915,1237.7915 0 0 1 1.8094,128.16961 z"
       inkscape:export-xdpi="299.98184"
       inkscape:export-ydpi="299.98184" />
    <path
       inkscape:connector-curvature="0"
       id="path6053-8-1"
       style="fill:#767474;fill-opacity:1;stroke:#1a1a1a;stroke-width:5.39118338;stroke-miterlimit:4;stroke-dasharray:none"
       d="M 1874.5429,152.7163 H 1057.2315 V 45.14543 h 827.2518 a 64.252227,64.252227 0 0 0 38.298,-33.891407 122.61143,122.61143 0 0 0 -8.0767,-118.407203 50.203674,50.203674 0 0 0 -42.1772,-22.97 h -236.2983 a 162.10272,162.10272 0 0 1 -158.738,-129.24893 324.81814,324.81814 0 0 1 0,-131.67339 162.10272,162.10272 0 0 1 158.738,-129.24353 h 364.2024 l -116.8669,106.6351 h -247.3355 a 55.464817,55.464817 0 0 0 -54.3136,44.22251 218.18024,218.18024 0 0 0 0,88.44523 55.464817,55.464817 0 0 0 54.3136,44.22261 h 236.2246 a 171.00111,171.00111 0 0 1 154.3402,97.37792 228.91696,228.91696 0 0 1 0,197.11671 168.04015,168.04015 0 0 1 -151.6677,95.69251"
       inkscape:export-xdpi="299.98184"
       inkscape:export-ydpi="299.98184" />
    <path
       inkscape:connector-curvature="0"
       id="path6055-0-6"
       style="fill:#767474;fill-opacity:1;stroke:#1a1a1a;stroke-width:5.39118338;stroke-linecap:round;stroke-miterlimit:4;stroke-dasharray:none"
       d="m 1468.1614,-130.12318 a 233.50379,233.50379 0 0 1 -58.7531,-106.6404 h -352.2447 v 106.6404 z"
       inkscape:export-xdpi="299.98184"
       inkscape:export-ydpi="299.98184" />
    <path
       inkscape:connector-curvature="0"
       id="path6057-1-3"
       style="fill:#767474;fill-opacity:1;stroke:#1a1a1a;stroke-width:5.39118338;stroke-linecap:round;stroke-miterlimit:4;stroke-dasharray:none"
       d="m 1057.1636,-413.65393 v -106.6351 h 410.9978 a 233.50379,233.50379 0 0 0 -58.7531,106.6351 z"
       inkscape:export-xdpi="299.98184"
       inkscape:export-ydpi="299.98184" />
    <g
       transform="matrix(-10.188063,0,0,10.188063,2188.6627,-2665.9415)"
       id="layer7-6-7"
       inkscape:export-xdpi="299.98184"
       inkscape:export-ydpi="299.98184"
       style="stroke:#1a1a1a;stroke-width:0.5291667;stroke-miterlimit:4;stroke-dasharray:none">
      <g
         style="fill:none;stroke:#1a1a1a;stroke-width:0.10139268;stroke-miterlimit:4;stroke-dasharray:none"
         transform="matrix(5.2189827,0,0,5.2189827,16.097833,-5576.9288)"
         id="g6063-2-7">
        <path
           inkscape:connector-curvature="0"
           id="path6061-2-6"
           style="fill:#ffffff;stroke:#1a1a1a;stroke-width:0.10139268;stroke-miterlimit:4;stroke-dasharray:none"
           d="m 25.464559,1106.4944 a 0.085658,0.085658 0 0 1 -0.03067,-0.066 0.120342,0.120342 0 0 0 -0.02936,-0.079 0.06978,0.06978 0 0 1 0,-0.091 0.119946,0.119946 0 0 0 0.02877,-0.089 2.054412,2.054412 0 0 1 0,-0.3747 0.412247,0.412247 0 0 0 -0.01902,-0.1666 0.899522,0.899522 0 0 1 -0.04486,-0.2556 13.823404,13.823404 0 0 1 0.01579,-1.1738 1.486712,1.486712 0 0 0 -0.204844,-0.8401 4.422374,4.422374 0 0 1 -0.373868,-0.8079 0.652709,0.652709 0 0 0 -0.278795,-0.3452 0.787613,0.787613 0 0 1 -0.378238,-0.7197 1.142892,1.142892 0 0 1 -0.136902,-0.3709 0.694016,0.694016 0 0 1 -0.22351,-0.2242 0.87258,0.87258 0 0 1 -0.130105,-0.4351 0.306953,0.306953 0 0 1 0.126616,-0.2569 0.134691,0.134691 0 0 0 0.0556,-0.1104 25.140282,25.140282 0 0 1 0,-0.532 0.150439,0.150439 0 0 0 -0.162859,-0.1515 1.563214,1.563214 0 0 1 -0.258298,0 0.316962,0.316962 0 0 0 -0.137305,0.019 0.943345,0.943345 0 0 0 -0.154978,0.075 0.110472,0.110472 0 0 1 -0.166619,-0.1074 1.09157,1.09157 0 0 0 0,-0.2508 0.064356,0.064356 0 0 1 0.04707,-0.07 0.564344,0.564344 0 0 0 0.191174,-0.093 0.467741,0.467741 0 0 1 0.236246,-0.092 0.579141,0.579141 0 0 0 0.02761,-0.2995 1.004724,1.004724 0 0 0 0.188652,-0.2843 3.535073,3.535073 0 0 1 0.391096,-0.6744 2.066605,2.066605 0 0 0 0.403945,-1.2002 53.83343,53.83343 0 0 1 0.02365,-1.0348 1.566902,1.566902 0 0 0 -0.110833,-0.6318 4.853697,4.853697 0 0 1 -0.214135,-0.6762 0.410244,0.410244 0 0 0 -0.125047,-0.2104 6.055947,6.055947 0 0 0 -0.220381,-0.1885 1.10048,1.10048 0 0 1 -0.207105,-0.223 0.988296,0.988296 0 0 0 -0.517778,-0.3782 0.290855,0.290855 0 0 1 -0.195403,-0.024 0.54577,0.54577 0 0 0 -0.299081,-0.2566 1.27052,1.27052 0 0 1 -0.370453,-0.01 0.192473,0.192473 0 0 0 -0.146142,-0.095 5.154441,5.154441 0 0 0 -0.748234,-0.026 0.938466,0.938466 0 0 0 -0.228886,0.037 3.244017,3.244017 0 0 1 -0.726793,0.1263 0.714545,0.714545 0 0 0 -0.482183,0.2273 0.668544,0.668544 0 0 1 -0.405405,0.2084 1.072212,1.072212 0 0 1 -0.354734,0.1912 0.42753,0.42753 0 0 1 -0.36323,0.2145 1.149419,1.149419 0 0 1 -0.398187,0.3394 0.166475,0.166475 0 0 0 -0.08972,0.136 0.147827,0.147827 0 0 1 -0.08021,0.121 1.450195,1.450195 0 0 0 -0.252251,0.1638 0.642161,0.642161 0 0 1 -0.385168,0.1426 0.137151,0.137151 0 0 0 -0.132025,0.1548 0.165611,0.165611 0 0 1 0.09516,0.052 0.600257,0.600257 0 0 0 0.07936,0.072 0.146992,0.146992 0 0 0 0.110117,0.029 0.085118,0.085118 0 0 1 0.0843,0.1294 0.438489,0.438489 0 0 0 -0.02747,0.4149 0.340335,0.340335 0 0 1 0.149541,-0.071 0.033502,0.033502 0 0 1 0.0308,0.056 0.60934,0.60934 0 0 0 -0.167281,0.3927 10.038717,10.038717 0 0 0 0,0.9011 0.305416,0.305416 0 0 0 0.08947,0.2026 0.184363,0.184363 0 0 1 0.0531,0.1105 1.952201,1.952201 0 0 1 0,0.4238 0.396211,0.396211 0 0 1 -0.15262,0.2712 0.287743,0.287743 0 0 0 -0.111688,0.2504 0.913968,0.913968 0 0 0 0.07344,0.295 0.194841,0.194841 0 0 0 0.184547,0.1169 0.086758,0.086758 0 0 1 0.08905,0.079 0.426287,0.426287 0 0 1 -0.02549,0.1886 0.143335,0.143335 0 0 0 0.03229,0.1512 0.248984,0.248984 0 0 1 0.06995,0.1433 0.300144,0.300144 0 0 0 0.01774,0.1865 0.43318,0.43318 0 0 0 0.149685,0.1822 0.100519,0.100519 0 0 1 0.04194,0.067 0.89134,0.89134 0 0 1 0,0.2761 0.371963,0.371963 0 0 0 0.348361,0.429 9.904476,9.904476 0 0 0 1.193776,-0.011 0.509518,0.509518 0 0 0 0.111012,0.2531 0.135899,0.135899 0 0 1 0,0.1726 34.201512,34.201512 0 0 1 -0.350486,0.4195 0.908114,0.908114 0 0 0 -0.202812,0.4343 0.108954,0.108954 0 0 1 -0.0515,0.075 0.597802,0.597802 0 0 0 -0.186271,0.1893 0.546737,0.546737 0 0 1 -0.172056,0.1742 0.632561,0.632561 0 0 0 -0.284239,0.4262 2.568281,2.568281 0 0 0 -0.03758,0.4399 0.930803,0.930803 0 0 1 -0.09049,0.4011 3.281084,3.281084 0 0 0 -0.311869,1.1951 23.279306,23.279306 0 0 0 -0.03403,2.4105 h 7.249644 z" />
      </g>
    </g>
  </g>
</svg>
