<?xml version="1.0" encoding="UTF-8" standalone="no"?>
<svg
   xmlns:osb="http://www.openswatchbook.org/uri/2009/osb"
   xmlns:dc="http://purl.org/dc/elements/1.1/"
   xmlns:cc="http://creativecommons.org/ns#"
   xmlns:rdf="http://www.w3.org/1999/02/22-rdf-syntax-ns#"
   xmlns:svg="http://www.w3.org/2000/svg"
   xmlns="http://www.w3.org/2000/svg"
   xmlns:xlink="http://www.w3.org/1999/xlink"
   id="svg1646"
   version="1.1"
   viewBox="0 0 32.39867 16.02046"
   height="16.02046mm"
   width="32.39867mm">
  <defs
     id="defs1640">
    <linearGradient
       y2="43.238213"
       x2="515.20532"
       y1="43.238213"
       x1="462.83377"
       gradientTransform="translate(-139.50187,7.2624058)"
       gradientUnits="userSpaceOnUse"
       id="linearGradient1160"
       xlink:href="#linearGradient7294" />
    <linearGradient
       osb:paint="solid"
       id="linearGradient7294">
      <stop
         id="stop7292"
         offset="0"
         style="stop-color:#ffffff;stop-opacity:1;" />
    </linearGradient>
    <linearGradient
       y2="43.238213"
       x2="514.72522"
       y1="43.238213"
       x1="463.31387"
       gradientTransform="translate(-139.50187,7.2624058)"
       gradientUnits="userSpaceOnUse"
       id="linearGradient1162"
       xlink:href="#linearGradient7306" />
    <linearGradient
       osb:paint="solid"
       id="linearGradient7306">
      <stop
         id="stop7304"
         offset="0"
         style="stop-color:#000000;stop-opacity:1;" />
    </linearGradient>
    <linearGradient
       gradientTransform="matrix(0.35277776,0,0,0.35277776,3.0086348,52.8909)"
       gradientUnits="userSpaceOnUse"
       y2="38.391376"
       x2="596.6767"
       y1="38.391376"
       x1="504.83792"
       id="linearGradient7320"
       xlink:href="#linearGradient7260" />
    <linearGradient
       osb:paint="solid"
       id="linearGradient7260">
      <stop
         id="stop7258"
         offset="0"
         style="stop-color:#7ec142;stop-opacity:1;" />
    </linearGradient>
    <linearGradient
       y2="43.238213"
       x2="515.20532"
       y1="43.238213"
       x1="462.83377"
       gradientTransform="translate(-139.50187,7.2624058)"
       gradientUnits="userSpaceOnUse"
       id="linearGradient1776"
       xlink:href="#linearGradient7294" />
    <linearGradient
       y2="43.238213"
       x2="514.72522"
       y1="43.238213"
       x1="463.31387"
       gradientTransform="translate(-139.50187,7.2624058)"
       gradientUnits="userSpaceOnUse"
       id="linearGradient1778"
       xlink:href="#linearGradient7306" />
    <linearGradient
       y2="43.238213"
       x2="515.20532"
       y1="43.238213"
       x1="462.83377"
       gradientTransform="translate(-139.50187,7.2624058)"
       gradientUnits="userSpaceOnUse"
       id="linearGradient1780"
       xlink:href="#linearGradient7294" />
    <linearGradient
       y2="43.238213"
       x2="514.72522"
       y1="43.238213"
       x1="463.31387"
       gradientTransform="translate(-139.50187,7.2624058)"
       gradientUnits="userSpaceOnUse"
       id="linearGradient1782"
       xlink:href="#linearGradient7306" />
    <linearGradient
       y2="43.238213"
       x2="515.20532"
       y1="43.238213"
       x1="462.83377"
       gradientTransform="translate(-139.50187,7.2624058)"
       gradientUnits="userSpaceOnUse"
       id="linearGradient1784"
       xlink:href="#linearGradient7294" />
    <linearGradient
       y2="43.238213"
       x2="514.72522"
       y1="43.238213"
       x1="463.31387"
       gradientTransform="translate(-139.50187,7.2624058)"
       gradientUnits="userSpaceOnUse"
       id="linearGradient1786"
       xlink:href="#linearGradient7306" />
  </defs>
  <metadata
     id="metadata1643">
    <rdf:RDF>
      <cc:Work
         rdf:about="">
        <dc:format>image/svg+xml</dc:format>
        <dc:type
           rdf:resource="http://purl.org/dc/dcmitype/StillImage" />
        <dc:title></dc:title>
      </cc:Work>
    </rdf:RDF>
  </metadata>
  <g
     transform="translate(-181.10424,-58.424294)"
     id="layer1">
    <g
       id="g1829">
      <path
         style="fill:url(#linearGradient7320);fill-opacity:1;stroke:#1a1a1a;stroke-width:0.0996684;stroke-miterlimit:4;stroke-dasharray:none;stroke-opacity:1"
         d="m 182.41338,58.474128 h 29.78038 c 0.69766,0 1.25931,0.561655 1.25931,1.259315 v 13.402161 c 0,0.697661 -0.56165,1.259315 -1.25931,1.259315 h -29.78038 c -0.69766,0 -1.25931,-0.561654 -1.25931,-1.259315 V 59.733443 c 0,-0.69766 0.56165,-1.259315 1.25931,-1.259315 z"
         id="rect7204" />
      <path
         style="fill:#ffffff;fill-opacity:1;stroke:#000000;stroke-width:0.09921875;stroke-linejoin:round;stroke-miterlimit:4;stroke-dasharray:none;stroke-opacity:1"
         d="m 182.42944,58.855502 h 29.74067 c 0.50333,0 0.90853,0.405203 0.90853,0.908526 v 2.068637 c 0,0.503323 -0.4052,0.908525 -0.90853,0.908525 h -29.74067 c -0.50332,0 -0.90852,-0.405202 -0.90852,-0.908525 v -2.068637 c 0,-0.503323 0.4052,-0.908526 0.90852,-0.908526 z"
         id="rect7290" />
      <g
         transform="matrix(0.35277777,0,0,0.35277777,57.523315,50.294943)"
         aria-label="Certified"
         style="font-style:normal;font-variant:normal;font-weight:normal;font-stretch:normal;font-size:10px;line-height:1.25;font-family:Tahoma;-inkscape-font-specification:Tahoma;letter-spacing:0px;word-spacing:0px;fill:#000000;fill-opacity:1;stroke:none;stroke-width:0.75"
         id="text7276">
        <path
           d="m 381.56836,33.652821 q -0.71289,0 -1.31348,-0.239258 -0.5957,-0.239258 -1.03027,-0.712891 -0.43457,-0.473633 -0.67383,-1.18164 -0.23926,-0.708008 -0.23926,-1.625977 0,-0.913086 0.2295,-1.591797 0.23437,-0.678711 0.67871,-1.181641 0.43457,-0.488281 1.03027,-0.742187 0.5957,-0.258789 1.33301,-0.258789 0.36621,0 0.68359,0.05371 0.32227,0.05371 0.5957,0.136719 0.23438,0.07324 0.47852,0.185546 0.24902,0.107422 0.48828,0.239258 v 1.166992 h -0.0781 q -0.12696,-0.117187 -0.32715,-0.283203 -0.2002,-0.166015 -0.48828,-0.327148 -0.27832,-0.151367 -0.60547,-0.249024 -0.32715,-0.09766 -0.75684,-0.09766 -0.46387,0 -0.8789,0.19043 -0.41504,0.19043 -0.72754,0.561523 -0.30762,0.371094 -0.47852,0.932618 -0.1709,0.561523 -0.1709,1.264648 0,0.74707 0.18067,1.289062 0.18066,0.53711 0.49316,0.908204 0.30274,0.361328 0.71289,0.546875 0.41016,0.180664 0.86914,0.180664 0.41992,0 0.77637,-0.102539 0.35644,-0.102539 0.63476,-0.258789 0.26856,-0.151368 0.46387,-0.307618 0.19531,-0.161132 0.30762,-0.273437 h 0.0732 v 1.152344 q -0.23926,0.112304 -0.4541,0.214843 -0.20996,0.102539 -0.5127,0.200196 -0.31738,0.102539 -0.59082,0.15625 -0.26855,0.05371 -0.70312,0.05371 z"
           style="stroke-width:0.75"
           id="path1454" />
        <path
           d="m 387.03711,33.647938 q -1.30371,0 -2.02637,-0.732422 -0.71777,-0.737305 -0.71777,-2.089844 0,-1.333008 0.69824,-2.11914 0.69824,-0.791016 1.82617,-0.791016 0.50782,0 0.89844,0.146484 0.39063,0.146485 0.68359,0.458985 0.29297,0.3125 0.44922,0.766601 0.15625,0.449219 0.15625,1.103516 v 0.498047 h -3.77929 q 0,0.952148 0.47851,1.455078 0.47852,0.50293 1.32324,0.50293 0.30274,0 0.59082,-0.06836 0.29297,-0.06836 0.52735,-0.175781 0.24902,-0.112305 0.41992,-0.214844 0.1709,-0.107422 0.2832,-0.200195 h 0.0537 v 1.000976 q -0.16113,0.06348 -0.40039,0.161133 -0.23925,0.09277 -0.42968,0.146485 -0.26856,0.07324 -0.48829,0.112304 -0.21484,0.03906 -0.54687,0.03906 z m 1.07422,-3.461914 q -0.01,-0.371094 -0.0879,-0.639649 -0.0781,-0.268554 -0.22461,-0.454101 -0.16113,-0.205078 -0.41504,-0.3125 -0.24902,-0.107422 -0.62012,-0.107422 -0.36621,0 -0.625,0.112305 -0.2539,0.107421 -0.46387,0.317382 -0.20507,0.214844 -0.3125,0.478516 -0.10742,0.258789 -0.13671,0.605469 z"
           style="stroke-width:0.75"
           id="path1456" />
        <path
           d="m 392.83301,29.053211 h -0.0488 q -0.10254,-0.0293 -0.21973,-0.03418 -0.1123,-0.0098 -0.27343,-0.0098 -0.3711,0 -0.73731,0.161133 -0.36621,0.161133 -0.69336,0.478515 v 3.872071 h -0.91797 v -5.454102 h 0.91797 v 0.810547 q 0.50293,-0.444336 0.87402,-0.625 0.37598,-0.185547 0.72754,-0.185547 0.14161,0 0.20996,0.0098 0.0732,0.0049 0.16114,0.01953 z"
           style="stroke-width:0.75"
           id="path1458" />
        <path
           d="m 395.20605,33.628407 q -0.75195,0 -1.17187,-0.424805 -0.41992,-0.429688 -0.41992,-1.352539 v -3.022461 h -0.62012 v -0.761719 h 0.62012 V 26.4995 h 0.91797 v 1.567383 h 1.68945 v 0.761719 h -1.68945 v 2.592773 q 0,0.415039 0.0146,0.639649 0.0146,0.224609 0.11231,0.419922 0.083,0.170898 0.26855,0.258789 0.18555,0.08301 0.50293,0.08301 0.22461,0 0.43457,-0.06348 0.20997,-0.06836 0.30274,-0.112305 h 0.0537 v 0.825196 q -0.25879,0.07324 -0.52734,0.112304 -0.26368,0.04395 -0.48829,0.04395 z"
           style="stroke-width:0.75"
           id="path1460" />
        <path
           d="m 397.83301,33.520985 h -0.91797 v -5.454102 h 0.91797 z m 0.0635,-6.367188 h -1.04492 v -0.952148 h 1.04492 z"
           style="stroke-width:0.75"
           id="path1462" />
        <path
           d="m 402.05176,26.802235 h -0.0488 q -0.12207,-0.04395 -0.35156,-0.08301 -0.2295,-0.04395 -0.41016,-0.04395 -0.58105,0 -0.83008,0.263671 -0.24414,0.258789 -0.24414,0.942383 v 0.185547 h 1.51856 v 0.761719 h -1.48926 v 4.692383 h -0.91797 v -4.692383 h -0.62012 v -0.761719 h 0.62012 v -0.180664 q 0,-0.986328 0.47363,-1.499023 0.47364,-0.512696 1.35742,-0.512696 0.25391,0 0.49805,0.0293 0.24414,0.02441 0.44434,0.05859 z"
           style="stroke-width:0.75"
           id="path1464" />
        <path
           d="m 403.30176,33.520985 h -0.91797 v -5.454102 h 0.91797 z m 0.0635,-6.367188 h -1.04492 v -0.952148 h 1.04492 z"
           style="stroke-width:0.75"
           id="path1466" />
        <path
           d="m 407.01758,33.647938 q -1.30371,0 -2.02637,-0.732422 -0.71777,-0.737305 -0.71777,-2.089844 0,-1.333008 0.69824,-2.11914 0.69824,-0.791016 1.82617,-0.791016 0.50781,0 0.89844,0.146484 0.39062,0.146485 0.68359,0.458985 0.29297,0.3125 0.44922,0.766601 0.15625,0.449219 0.15625,1.103516 v 0.498047 h -3.7793 q 0,0.952148 0.47852,1.455078 0.47852,0.50293 1.32324,0.50293 0.30274,0 0.59082,-0.06836 0.29297,-0.06836 0.52735,-0.175781 0.24902,-0.112305 0.41992,-0.214844 0.1709,-0.107422 0.2832,-0.200195 h 0.0537 v 1.000976 q -0.16113,0.06348 -0.40039,0.161133 -0.23926,0.09277 -0.42969,0.146485 -0.26855,0.07324 -0.48828,0.112304 -0.21484,0.03906 -0.54687,0.03906 z m 1.07422,-3.461914 q -0.01,-0.371094 -0.0879,-0.639649 -0.0781,-0.268554 -0.22461,-0.454101 -0.16114,-0.205078 -0.41504,-0.3125 -0.24903,-0.107422 -0.62012,-0.107422 -0.36621,0 -0.625,0.112305 -0.25391,0.107421 -0.46387,0.317382 -0.20507,0.214844 -0.3125,0.478516 -0.10742,0.258789 -0.13672,0.605469 z"
           style="stroke-width:0.75"
           id="path1468" />
        <path
           d="m 414.12207,33.520985 h -0.91797 v -0.556641 q -0.21484,0.180664 -0.37109,0.297852 -0.15625,0.117187 -0.36621,0.214843 -0.19532,0.09277 -0.40528,0.141602 -0.20996,0.05371 -0.48828,0.05371 -0.44433,0 -0.82519,-0.185547 -0.37598,-0.185547 -0.63965,-0.541992 -0.26856,-0.361328 -0.41504,-0.888672 -0.14649,-0.532227 -0.14649,-1.220703 0,-0.717774 0.18555,-1.240235 0.18555,-0.527343 0.5127,-0.917968 0.29785,-0.356446 0.71777,-0.556641 0.42481,-0.205078 0.88867,-0.205078 0.41016,0 0.71289,0.09277 0.30274,0.08789 0.63965,0.278321 v -2.363282 h 0.91797 z M 413.2041,32.19286 v -3.144532 q -0.3418,-0.166015 -0.61523,-0.229492 -0.26856,-0.06348 -0.58594,-0.06348 -0.70801,0 -1.1084,0.532226 -0.40039,0.527344 -0.40039,1.528321 0,0.961914 0.30762,1.474609 0.30761,0.507812 0.98633,0.507812 0.36132,0 0.72753,-0.161132 0.36622,-0.166016 0.68848,-0.444336 z"
           style="stroke-width:0.75"
           id="path1470" />
      </g>
      <path
         style="fill:#ffffff;fill-opacity:1;stroke:#000000;stroke-width:0.09921875;stroke-linejoin:round;stroke-miterlimit:4;stroke-dasharray:none;stroke-opacity:1"
         d="m 182.42944,70.149267 h 29.74067 c 0.50333,0 0.90853,0.405202 0.90853,0.908525 v 2.068638 c 0,0.503323 -0.4052,0.908525 -0.90853,0.908525 h -29.74067 c -0.50332,0 -0.90852,-0.405202 -0.90852,-0.908525 v -2.068638 c 0,-0.503323 0.4052,-0.908525 0.90852,-0.908525 z"
         id="rect7298" />
      <g
         transform="matrix(0.35277777,0,0,0.35277777,57.523315,50.294943)"
         aria-label="Women Business Enterprise"
         style="font-style:normal;font-variant:normal;font-weight:normal;font-stretch:normal;font-size:6.72106028px;line-height:1.25;font-family:Tahoma;-inkscape-font-specification:Tahoma;letter-spacing:0px;word-spacing:0px;fill:#000000;fill-opacity:1;stroke:none;stroke-width:0.50407952"
         id="text7280">
        <path
           d="m 361.04278,58.68434 -1.22738,4.886552 h -0.73184 l -0.99437,-4.056265 -0.9714,4.056265 h -0.71543 l -1.25035,-4.886552 h 0.6662 l 0.98453,4.062829 0.97796,-4.062829 h 0.65964 l 0.98781,4.10221 0.97797,-4.10221 z"
           style="stroke-width:0.50407952"
           id="path1406" />
        <path
           d="m 364.59365,61.739666 q 0,0.925458 -0.44632,1.430851 -0.44632,0.50211 -1.188,0.50211 -0.76465,0 -1.20441,-0.518519 -0.43647,-0.521801 -0.43647,-1.414442 0,-0.918895 0.4496,-1.427569 0.45288,-0.508674 1.19128,-0.508674 0.74168,0 1.188,0.508674 0.44632,0.505392 0.44632,1.427569 z m -0.63666,0 q 0,-0.712144 -0.25926,-1.056729 -0.25926,-0.347868 -0.7384,-0.347868 -0.48242,0 -0.74496,0.347868 -0.25926,0.344585 -0.25926,1.056729 0,0.689171 0.25926,1.046884 0.26254,0.354431 0.74496,0.354431 0.47586,0 0.73512,-0.347868 0.26254,-0.351149 0.26254,-1.053447 z"
           style="stroke-width:0.50407952"
           id="path1408" />
        <path
           d="M 369.38831,63.570892 V 61.45087 q 0,-0.252696 -0.0197,-0.466011 -0.0197,-0.216596 -0.082,-0.338022 -0.0656,-0.13127 -0.18706,-0.193624 -0.12143,-0.06235 -0.32818,-0.06235 -0.19034,0 -0.41022,0.118144 -0.2166,0.114862 -0.4496,0.33474 0.003,0.05579 0.007,0.134553 0.007,0.07548 0.007,0.180497 v 2.412099 h -0.61698 V 61.45087 q 0,-0.252696 -0.0197,-0.466011 -0.0197,-0.216596 -0.082,-0.338022 -0.0656,-0.13127 -0.18706,-0.193624 -0.12143,-0.06235 -0.32818,-0.06235 -0.20019,0 -0.42006,0.124708 -0.21988,0.124707 -0.42663,0.318331 v 2.736994 h -0.61698 v -3.665734 h 0.61698 v 0.406939 q 0.24285,-0.242851 0.47913,-0.374122 0.23957,-0.134552 0.52509,-0.134552 0.32489,0 0.57431,0.14768 0.25269,0.147679 0.38396,0.485701 0.27895,-0.311768 0.54478,-0.472574 0.26582,-0.160807 0.57759,-0.160807 0.23628,0 0.42991,0.07548 0.19362,0.0722 0.33802,0.236287 0.14768,0.16737 0.22644,0.416784 0.082,0.249415 0.082,0.626818 v 2.412099 z"
           style="stroke-width:0.50407952"
           id="path1410" />
        <path
           d="m 372.46333,63.656218 q -0.87623,0 -1.36193,-0.492265 -0.48242,-0.495547 -0.48242,-1.404596 0,-0.895923 0.46929,-1.424288 0.46929,-0.531646 1.22738,-0.531646 0.34131,0 0.60385,0.09845 0.26254,0.09845 0.45944,0.308486 0.19691,0.210033 0.30193,0.515238 0.10501,0.301922 0.10501,0.741679 v 0.334741 h -2.54008 q 0,0.639944 0.32161,0.977966 0.32161,0.338022 0.88936,0.338022 0.20347,0 0.39709,-0.04594 0.19691,-0.04594 0.35443,-0.118144 0.16737,-0.07548 0.28224,-0.144398 0.11486,-0.0722 0.19034,-0.134552 h 0.0361 v 0.672762 q -0.1083,0.04266 -0.26911,0.108298 -0.1608,0.06235 -0.28879,0.09845 -0.1805,0.04923 -0.32818,0.07548 -0.1444,0.02625 -0.36756,0.02625 z m 0.72199,-2.326773 q -0.007,-0.249414 -0.0591,-0.429912 -0.0525,-0.180497 -0.15096,-0.305204 -0.1083,-0.137834 -0.27895,-0.210033 -0.16737,-0.0722 -0.41679,-0.0722 -0.24613,0 -0.42006,0.07548 -0.17066,0.0722 -0.31177,0.213315 -0.13784,0.144397 -0.21003,0.321613 -0.0722,0.173933 -0.0919,0.406939 z"
           style="stroke-width:0.50407952"
           id="path1412" />
        <path
           d="m 377.29738,63.570892 h -0.61698 v -2.087204 q 0,-0.252696 -0.0263,-0.469293 -0.023,-0.219878 -0.0919,-0.351149 -0.0755,-0.137834 -0.21003,-0.203469 -0.13456,-0.06892 -0.36756,-0.06892 -0.22972,0 -0.47586,0.124708 -0.24285,0.121425 -0.47585,0.318331 v 2.736994 h -0.61698 v -3.665734 h 0.61698 v 0.406939 q 0.27566,-0.246133 0.54477,-0.377403 0.2691,-0.131271 0.56775,-0.131271 0.54149,0 0.84669,0.357713 0.30521,0.354431 0.30521,1.030475 z"
           style="stroke-width:0.50407952"
           id="path1414" />
        <path
           d="m 383.63447,62.071124 q 0,0.364277 -0.13783,0.643227 -0.13784,0.27895 -0.37084,0.459447 -0.27567,0.216597 -0.59072,0.308487 -0.31505,0.08861 -0.81388,0.08861 h -1.40132 V 58.68434 h 1.2963 q 0.5218,0 0.78106,0.0361 0.26254,0.03282 0.50211,0.160806 0.26254,0.141116 0.38397,0.37084 0.12143,0.226442 0.12143,0.534928 0,0.344586 -0.18378,0.616972 -0.1805,0.272387 -0.50211,0.42663 v 0.02625 q 0.43647,0.118144 0.67604,0.433194 0.23957,0.311768 0.23957,0.78106 z m -0.90577,-2.19222 q 0,-0.177216 -0.0591,-0.305205 -0.0591,-0.13127 -0.19034,-0.206751 -0.15753,-0.08861 -0.35115,-0.108298 -0.19363,-0.01969 -0.53493,-0.01969 h -0.62354 v 1.430851 h 0.7384 q 0.30521,0 0.4496,-0.02954 0.1444,-0.03282 0.29864,-0.131271 0.14768,-0.09517 0.21004,-0.249414 0.0623,-0.154243 0.0623,-0.380685 z m 0.22973,2.218475 q 0,-0.275669 -0.0788,-0.452884 -0.0788,-0.180498 -0.31833,-0.305205 -0.15424,-0.08204 -0.33802,-0.105016 -0.1805,-0.02297 -0.51524,-0.02297 h -0.7384 v 1.804973 h 0.52837 q 0.42663,0 0.67276,-0.03938 0.24613,-0.03938 0.43319,-0.16737 0.18378,-0.127989 0.26911,-0.288795 0.0853,-0.164089 0.0853,-0.423348 z"
           style="stroke-width:0.50407952"
           id="path1416" />
        <path
           d="m 387.09017,63.570892 h -0.61697 v -0.406939 q -0.28552,0.249414 -0.54149,0.380685 -0.25598,0.127989 -0.57103,0.127989 -0.23957,0 -0.45289,-0.07876 -0.21003,-0.07876 -0.36755,-0.249415 -0.15753,-0.170652 -0.24614,-0.429911 -0.0853,-0.25926 -0.0853,-0.6301 V 59.90516 h 0.61697 v 2.087204 q 0,0.292077 0.0197,0.485702 0.023,0.190342 0.0985,0.33474 0.0755,0.141116 0.20347,0.206751 0.13127,0.06564 0.37412,0.06564 0.22645,0 0.48242,-0.127989 0.25598,-0.127989 0.4693,-0.31505 v -2.736994 h 0.61697 z"
           style="stroke-width:0.50407952"
           id="path1418" />
        <path
           d="m 388.98047,63.6595 q -0.36756,0 -0.68917,-0.09845 -0.31834,-0.09845 -0.52837,-0.210033 v -0.692453 h 0.0328 q 0.0788,0.06235 0.18378,0.137834 0.1083,0.07548 0.28551,0.157525 0.15753,0.0722 0.34459,0.127989 0.19034,0.05579 0.39381,0.05579 0.14768,0 0.31505,-0.03282 0.16737,-0.0361 0.24941,-0.08861 0.11487,-0.07548 0.16409,-0.160807 0.0525,-0.08533 0.0525,-0.255978 0,-0.219878 -0.12143,-0.331458 -0.11814,-0.111581 -0.42334,-0.187061 -0.11815,-0.02954 -0.30849,-0.06892 -0.19034,-0.03938 -0.35115,-0.08533 -0.42006,-0.121426 -0.61041,-0.374122 -0.19034,-0.255978 -0.19034,-0.616972 0,-0.495547 0.37412,-0.807315 0.37412,-0.311768 0.99438,-0.311768 0.3052,0 0.61369,0.07548 0.30848,0.07548 0.51852,0.190342 v 0.659636 h -0.0328 q -0.23629,-0.187061 -0.52837,-0.29536 -0.28879,-0.108298 -0.58415,-0.108298 -0.3052,0 -0.51524,0.127989 -0.21003,0.127989 -0.21003,0.387249 0,0.229723 0.12471,0.344585 0.1247,0.11158 0.40037,0.183779 0.13784,0.0361 0.30521,0.0722 0.17065,0.03282 0.35771,0.07876 0.40694,0.101734 0.61041,0.338022 0.20675,0.236287 0.20675,0.643226 0,0.236287 -0.0952,0.449602 -0.0919,0.210033 -0.27239,0.360995 -0.1969,0.164088 -0.44632,0.249414 -0.24613,0.08533 -0.62025,0.08533 z"
           style="stroke-width:0.50407952"
           id="path1420" />
        <path
           d="m 391.62557,63.570892 h -0.61697 v -3.665734 h 0.61697 z m 0.0427,-4.279425 h -0.7023 v -0.639944 h 0.7023 z"
           style="stroke-width:0.50407952"
           id="path1422" />
        <path
           d="m 395.41273,63.570892 h -0.61697 v -2.087204 q 0,-0.252696 -0.0262,-0.469293 -0.023,-0.219878 -0.0919,-0.351149 -0.0755,-0.137834 -0.21003,-0.203469 -0.13456,-0.06892 -0.36756,-0.06892 -0.22973,0 -0.47586,0.124708 -0.24285,0.121425 -0.47586,0.318331 v 2.736994 h -0.61697 v -3.665734 h 0.61697 v 0.406939 q 0.27567,-0.246133 0.54478,-0.377403 0.2691,-0.131271 0.56774,-0.131271 0.5415,0 0.8467,0.357713 0.3052,0.354431 0.3052,1.030475 z"
           style="stroke-width:0.50407952"
           id="path1424" />
        <path
           d="m 397.87734,63.656218 q -0.87623,0 -1.36193,-0.492265 -0.48242,-0.495547 -0.48242,-1.404596 0,-0.895923 0.46929,-1.424288 0.46929,-0.531646 1.22738,-0.531646 0.34131,0 0.60385,0.09845 0.26254,0.09845 0.45944,0.308486 0.19691,0.210033 0.30193,0.515238 0.10501,0.301922 0.10501,0.741679 v 0.334741 h -2.54008 q 0,0.639944 0.32161,0.977966 0.32161,0.338022 0.88936,0.338022 0.20347,0 0.39709,-0.04594 0.19691,-0.04594 0.35443,-0.118144 0.16737,-0.07548 0.28223,-0.144398 0.11487,-0.0722 0.19035,-0.134552 h 0.0361 v 0.672762 q -0.1083,0.04266 -0.26911,0.108298 -0.16081,0.06235 -0.28879,0.09845 -0.1805,0.04923 -0.32818,0.07548 -0.1444,0.02625 -0.36756,0.02625 z m 0.72199,-2.326773 q -0.007,-0.249414 -0.0591,-0.429912 -0.0525,-0.180497 -0.15096,-0.305204 -0.1083,-0.137834 -0.27895,-0.210033 -0.16737,-0.0722 -0.41679,-0.0722 -0.24613,0 -0.42006,0.07548 -0.17066,0.0722 -0.31177,0.213315 -0.13784,0.144397 -0.21004,0.321613 -0.0722,0.173933 -0.0919,0.406939 z"
           style="stroke-width:0.50407952"
           id="path1426" />
        <path
           d="m 400.82109,63.6595 q -0.36756,0 -0.68918,-0.09845 -0.31833,-0.09845 -0.52836,-0.210033 v -0.692453 h 0.0328 q 0.0788,0.06235 0.18378,0.137834 0.10829,0.07548 0.28551,0.157525 0.15752,0.0722 0.34459,0.127989 0.19034,0.05579 0.39381,0.05579 0.14768,0 0.31505,-0.03282 0.16737,-0.0361 0.24941,-0.08861 0.11486,-0.07548 0.16409,-0.160807 0.0525,-0.08533 0.0525,-0.255978 0,-0.219878 -0.12143,-0.331458 -0.11814,-0.111581 -0.42335,-0.187061 -0.11814,-0.02954 -0.30848,-0.06892 -0.19034,-0.03938 -0.35115,-0.08533 -0.42007,-0.121426 -0.61041,-0.374122 -0.19034,-0.255978 -0.19034,-0.616972 0,-0.495547 0.37412,-0.807315 0.37412,-0.311768 0.99438,-0.311768 0.3052,0 0.61369,0.07548 0.30848,0.07548 0.51852,0.190342 v 0.659636 h -0.0328 q -0.23629,-0.187061 -0.52837,-0.29536 -0.28879,-0.108298 -0.58415,-0.108298 -0.30521,0 -0.51524,0.127989 -0.21003,0.127989 -0.21003,0.387249 0,0.229723 0.1247,0.344585 0.12471,0.11158 0.40038,0.183779 0.13783,0.0361 0.3052,0.0722 0.17066,0.03282 0.35772,0.07876 0.40694,0.101734 0.61041,0.338022 0.20675,0.236287 0.20675,0.643226 0,0.236287 -0.0952,0.449602 -0.0919,0.210033 -0.27239,0.360995 -0.19691,0.164088 -0.44632,0.249414 -0.24613,0.08533 -0.62025,0.08533 z"
           style="stroke-width:0.50407952"
           id="path1428" />
        <path
           d="m 403.82718,63.6595 q -0.36755,0 -0.68917,-0.09845 -0.31833,-0.09845 -0.52836,-0.210033 v -0.692453 h 0.0328 q 0.0788,0.06235 0.18378,0.137834 0.10829,0.07548 0.28551,0.157525 0.15752,0.0722 0.34459,0.127989 0.19034,0.05579 0.39381,0.05579 0.14768,0 0.31505,-0.03282 0.16737,-0.0361 0.24941,-0.08861 0.11486,-0.07548 0.16409,-0.160807 0.0525,-0.08533 0.0525,-0.255978 0,-0.219878 -0.12143,-0.331458 -0.11814,-0.111581 -0.42335,-0.187061 -0.11814,-0.02954 -0.30848,-0.06892 -0.19034,-0.03938 -0.35115,-0.08533 -0.42007,-0.121426 -0.61041,-0.374122 -0.19034,-0.255978 -0.19034,-0.616972 0,-0.495547 0.37412,-0.807315 0.37412,-0.311768 0.99437,-0.311768 0.30521,0 0.6137,0.07548 0.30848,0.07548 0.51851,0.190342 v 0.659636 h -0.0328 q -0.23629,-0.187061 -0.52837,-0.29536 -0.28879,-0.108298 -0.58415,-0.108298 -0.30521,0 -0.51524,0.127989 -0.21003,0.127989 -0.21003,0.387249 0,0.229723 0.1247,0.344585 0.12471,0.11158 0.40038,0.183779 0.13783,0.0361 0.3052,0.0722 0.17066,0.03282 0.35772,0.07876 0.40694,0.101734 0.61041,0.338022 0.20675,0.236287 0.20675,0.643226 0,0.236287 -0.0952,0.449602 -0.0919,0.210033 -0.27239,0.360995 -0.19691,0.164088 -0.44632,0.249414 -0.24613,0.08533 -0.62026,0.08533 z"
           style="stroke-width:0.50407952"
           id="path1430" />
        <path
           d="M 407.99175,63.570892 V 58.68434 h 3.05532 v 0.577591 h -2.40553 v 1.338962 h 2.24144 v 0.577591 h -2.24144 v 1.814817 h 2.40553 v 0.577591 z"
           style="stroke-width:0.50407952"
           id="path1432" />
        <path
           d="m 414.59138,63.570892 h -0.61697 v -2.087204 q 0,-0.252696 -0.0263,-0.469293 -0.023,-0.219878 -0.0919,-0.351149 -0.0755,-0.137834 -0.21003,-0.203469 -0.13456,-0.06892 -0.36756,-0.06892 -0.22973,0 -0.47586,0.124708 -0.24285,0.121425 -0.47586,0.318331 v 2.736994 h -0.61697 v -3.665734 h 0.61697 v 0.406939 q 0.27567,-0.246133 0.54478,-0.377403 0.2691,-0.131271 0.56774,-0.131271 0.5415,0 0.8467,0.357713 0.3052,0.354431 0.3052,1.030475 z"
           style="stroke-width:0.50407952"
           id="path1434" />
        <path
           d="m 416.57357,63.643091 q -0.50539,0 -0.78762,-0.285514 -0.28224,-0.288795 -0.28224,-0.909049 v -2.031414 h -0.41678 v -0.511956 h 0.41678 V 58.85171 h 0.61698 v 1.053448 h 1.13549 v 0.511956 h -1.13549 v 1.742618 q 0,0.27895 0.01,0.429912 0.01,0.150961 0.0755,0.282232 0.0558,0.114862 0.1805,0.173933 0.12471,0.05579 0.33802,0.05579 0.15096,0 0.29208,-0.04266 0.14112,-0.04595 0.20347,-0.07548 h 0.0361 v 0.554619 q -0.17394,0.04923 -0.35443,0.07548 -0.17722,0.02954 -0.32818,0.02954 z"
           style="stroke-width:0.50407952"
           id="path1436" />
        <path
           d="m 419.30072,63.656218 q -0.87623,0 -1.36193,-0.492265 -0.48242,-0.495547 -0.48242,-1.404596 0,-0.895923 0.46929,-1.424288 0.46929,-0.531646 1.22738,-0.531646 0.3413,0 0.60384,0.09845 0.26255,0.09845 0.45945,0.308486 0.19691,0.210033 0.30192,0.515238 0.10502,0.301922 0.10502,0.741679 v 0.334741 h -2.54009 q 0,0.639944 0.32162,0.977966 0.32161,0.338022 0.88936,0.338022 0.20346,0 0.39709,-0.04594 0.19691,-0.04594 0.35443,-0.118144 0.16737,-0.07548 0.28223,-0.144398 0.11486,-0.0722 0.19034,-0.134552 h 0.0361 v 0.672762 q -0.10829,0.04266 -0.2691,0.108298 -0.16081,0.06235 -0.2888,0.09845 -0.18049,0.04923 -0.32817,0.07548 -0.1444,0.02625 -0.36756,0.02625 z m 0.72199,-2.326773 q -0.007,-0.249414 -0.0591,-0.429912 -0.0525,-0.180497 -0.15097,-0.305204 -0.10829,-0.137834 -0.27895,-0.210033 -0.16737,-0.0722 -0.41678,-0.0722 -0.24613,0 -0.42007,0.07548 -0.17065,0.0722 -0.31176,0.213315 -0.13784,0.144397 -0.21004,0.321613 -0.0722,0.173933 -0.0919,0.406939 z"
           style="stroke-width:0.50407952"
           id="path1438" />
        <path
           d="m 423.19618,60.568075 h -0.0328 q -0.0689,-0.01969 -0.14768,-0.02297 -0.0755,-0.0066 -0.18378,-0.0066 -0.24941,0 -0.49554,0.108298 -0.24614,0.108299 -0.46601,0.321614 v 2.602441 h -0.61698 v -3.665734 h 0.61698 v 0.544773 q 0.33802,-0.298641 0.58743,-0.420066 0.2527,-0.124707 0.48899,-0.124707 0.0952,0 0.14111,0.0066 0.0492,0.0033 0.1083,0.01313 z"
           style="stroke-width:0.50407952"
           id="path1440" />
        <path
           d="m 426.75689,61.641213 q 0,0.915613 -0.43975,1.460387 -0.43648,0.541491 -1.10596,0.541491 -0.27239,0 -0.48242,-0.06235 -0.21003,-0.06235 -0.42991,-0.193625 v 1.535868 h -0.61697 v -5.017823 h 0.61697 v 0.383967 q 0.22972,-0.206752 0.50867,-0.344586 0.28224,-0.141116 0.61369,-0.141116 0.6301,0 0.98125,0.498829 0.35443,0.498828 0.35443,1.338961 z m -0.63666,0.06892 q 0,-0.626818 -0.20019,-0.971403 -0.20018,-0.347868 -0.64979,-0.347868 -0.26254,0 -0.50867,0.118144 -0.24285,0.114862 -0.46273,0.298641 v 2.077359 q 0.24285,0.118144 0.4135,0.160806 0.17394,0.04266 0.3971,0.04266 0.47914,0 0.74496,-0.351149 0.26582,-0.351149 0.26582,-1.027193 z"
           style="stroke-width:0.50407952"
           id="path1442" />
        <path
           d="m 429.33965,60.568075 h -0.0328 q -0.0689,-0.01969 -0.14768,-0.02297 -0.0755,-0.0066 -0.18378,-0.0066 -0.24941,0 -0.49554,0.108298 -0.24614,0.108299 -0.46601,0.321614 v 2.602441 h -0.61698 v -3.665734 h 0.61698 v 0.544773 q 0.33802,-0.298641 0.58743,-0.420066 0.2527,-0.124707 0.48899,-0.124707 0.0952,0 0.14111,0.0066 0.0492,0.0033 0.1083,0.01313 z"
           style="stroke-width:0.50407952"
           id="path1444" />
        <path
           d="m 430.45545,63.570892 h -0.61697 v -3.665734 h 0.61697 z m 0.0427,-4.279425 h -0.7023 v -0.639944 h 0.7023 z"
           style="stroke-width:0.50407952"
           id="path1446" />
        <path
           d="m 432.35231,63.6595 q -0.36756,0 -0.68917,-0.09845 -0.31833,-0.09845 -0.52837,-0.210033 v -0.692453 h 0.0328 q 0.0788,0.06235 0.18378,0.137834 0.1083,0.07548 0.28551,0.157525 0.15753,0.0722 0.34459,0.127989 0.19034,0.05579 0.39381,0.05579 0.14768,0 0.31505,-0.03282 0.16737,-0.0361 0.24941,-0.08861 0.11487,-0.07548 0.16409,-0.160807 0.0525,-0.08533 0.0525,-0.255978 0,-0.219878 -0.12142,-0.331458 -0.11815,-0.111581 -0.42335,-0.187061 -0.11815,-0.02954 -0.30849,-0.06892 -0.19034,-0.03938 -0.35115,-0.08533 -0.42006,-0.121426 -0.61041,-0.374122 -0.19034,-0.255978 -0.19034,-0.616972 0,-0.495547 0.37412,-0.807315 0.37412,-0.311768 0.99438,-0.311768 0.3052,0 0.61369,0.07548 0.30849,0.07548 0.51852,0.190342 v 0.659636 h -0.0328 q -0.23629,-0.187061 -0.52836,-0.29536 -0.2888,-0.108298 -0.58416,-0.108298 -0.3052,0 -0.51524,0.127989 -0.21003,0.127989 -0.21003,0.387249 0,0.229723 0.12471,0.344585 0.12471,0.11158 0.40037,0.183779 0.13784,0.0361 0.30521,0.0722 0.17065,0.03282 0.35771,0.07876 0.40694,0.101734 0.61041,0.338022 0.20675,0.236287 0.20675,0.643226 0,0.236287 -0.0952,0.449602 -0.0919,0.210033 -0.27239,0.360995 -0.1969,0.164088 -0.44632,0.249414 -0.24613,0.08533 -0.62025,0.08533 z"
           style="stroke-width:0.50407952"
           id="path1448" />
        <path
           d="m 435.95898,63.656218 q -0.87624,0 -1.36194,-0.492265 -0.48242,-0.495547 -0.48242,-1.404596 0,-0.895923 0.46929,-1.424288 0.4693,-0.531646 1.22739,-0.531646 0.3413,0 0.60384,0.09845 0.26254,0.09845 0.45945,0.308486 0.1969,0.210033 0.30192,0.515238 0.10502,0.301922 0.10502,0.741679 v 0.334741 h -2.54009 q 0,0.639944 0.32161,0.977966 0.32162,0.338022 0.88936,0.338022 0.20347,0 0.3971,-0.04594 0.1969,-0.04594 0.35443,-0.118144 0.16737,-0.07548 0.28223,-0.144398 0.11486,-0.0722 0.19034,-0.134552 h 0.0361 v 0.672762 q -0.1083,0.04266 -0.2691,0.108298 -0.16081,0.06235 -0.2888,0.09845 -0.1805,0.04923 -0.32818,0.07548 -0.14439,0.02625 -0.36755,0.02625 z m 0.72198,-2.326773 q -0.007,-0.249414 -0.0591,-0.429912 -0.0525,-0.180497 -0.15096,-0.305204 -0.1083,-0.137834 -0.27895,-0.210033 -0.16737,-0.0722 -0.41678,-0.0722 -0.24614,0 -0.42007,0.07548 -0.17065,0.0722 -0.31177,0.213315 -0.13783,0.144397 -0.21003,0.321613 -0.0722,0.173933 -0.0919,0.406939 z"
           style="stroke-width:0.50407952"
           id="path1450" />
      </g>
      <g
         aria-label="WBE"
         transform="matrix(0.39731529,0,0,0.31323272,57.523315,50.294943)"
         style="font-style:normal;font-variant:normal;font-weight:normal;font-stretch:normal;font-size:25.60564232px;line-height:1.25;font-family:Tahoma;-inkscape-font-specification:Tahoma;letter-spacing:0px;word-spacing:0px;fill:url(#linearGradient1160);fill-opacity:1;stroke:url(#linearGradient1162);stroke-width:0.27900001;stroke-miterlimit:4;stroke-dasharray:none"
         id="text7302">
        <path
           d="m 347.45469,42.855182 v 0.462602 q -0.66265,0 -1.07524,0.237552 -0.41259,0.237553 -0.78767,0.887696 -0.25006,0.437596 -0.78767,2.08796 l -4.72605,13.665511 h -0.50011 l -3.86335,-10.839888 -3.83834,10.839888 h -0.4501 l -5.03861,-14.078102 q -0.56263,-1.575347 -0.71266,-1.86291 -0.25006,-0.475105 -0.68765,-0.700155 -0.4251,-0.237552 -1.16276,-0.237552 v -0.462602 h 6.27639 v 0.462602 h -0.30007 q -0.66265,0 -1.01272,0.300066 -0.35008,0.300066 -0.35008,0.72516 0,0.437596 0.55012,2.012944 l 3.33824,9.514596 2.81312,-8.089282 -0.50011,-1.425314 -0.40009,-1.137751 q -0.26256,-0.625138 -0.58763,-1.100243 -0.16254,-0.237552 -0.40009,-0.400088 -0.31257,-0.225049 -0.62514,-0.325071 -0.23755,-0.07502 -0.75016,-0.07502 v -0.462602 h 6.60145 v 0.462602 h -0.4501 q -0.70015,0 -1.02522,0.300066 -0.32508,0.300066 -0.32508,0.812679 0,0.637641 0.56263,2.225491 l 3.25071,9.21453 3.22572,-9.339558 q 0.55012,-1.550341 0.55012,-2.150474 0,-0.287563 -0.18754,-0.537618 -0.17504,-0.250055 -0.4501,-0.350077 -0.47511,-0.175039 -1.23778,-0.175039 v -0.462602 z"
           style="font-style:normal;font-variant:normal;font-weight:normal;font-stretch:normal;font-family:'Times New Roman';-inkscape-font-specification:'Times New Roman, ';fill:url(#linearGradient1776);fill-opacity:1;stroke:url(#linearGradient1778);stroke-width:0.27900001;stroke-miterlimit:4;stroke-dasharray:none"
           id="path1399" />
        <path
           d="m 359.46984,51.157012 q 1.76289,0.375082 2.63808,1.200264 1.21277,1.150253 1.21277,2.81312 0,1.262778 -0.80018,2.425534 -0.80018,1.150254 -2.20049,1.687872 -1.3878,0.525116 -4.25093,0.525116 h -8.00177 v -0.462602 h 0.63765 q 1.06273,0 1.52533,-0.675149 0.28756,-0.437596 0.28756,-1.86291 V 45.855843 q 0,-1.575347 -0.36258,-1.987938 -0.4876,-0.550121 -1.45031,-0.550121 h -0.63765 v -0.462602 h 7.32662 q 2.05045,0 3.28822,0.300066 1.87542,0.450099 2.86313,1.600353 0.98772,1.137751 0.98772,2.625578 0,1.275282 -0.77517,2.288005 -0.77517,1.00022 -2.288,1.487828 z m -6.55145,-0.675149 q 0.46261,0.08752 1.05024,0.13753 0.60013,0.03751 1.31278,0.03751 1.82541,0 2.73811,-0.387585 0.9252,-0.400088 1.41281,-1.212767 0.48761,-0.812679 0.48761,-1.775392 0,-1.487827 -1.21277,-2.538059 -1.21277,-1.050231 -3.53828,-1.050231 -1.25028,0 -2.2505,0.27506 z m 0,8.101785 q 1.45032,0.337574 2.86313,0.337574 2.263,0 3.45076,-1.012723 1.18777,-1.025226 1.18777,-2.525556 0,-0.987718 -0.53762,-1.900419 -0.53762,-0.912701 -1.75039,-1.437817 -1.21276,-0.525116 -3.00066,-0.525116 -0.77517,0 -1.32529,0.02501 -0.55012,0.02501 -0.8877,0.08752 z"
           style="font-style:normal;font-variant:normal;font-weight:normal;font-stretch:normal;font-family:'Times New Roman';-inkscape-font-specification:'Times New Roman, ';fill:url(#linearGradient1780);fill-opacity:1;stroke:url(#linearGradient1782);stroke-width:0.27900001;stroke-miterlimit:4;stroke-dasharray:none"
           id="path1401" />
        <path
           d="m 370.09718,43.780386 v 6.701477 h 3.72582 q 1.45032,0 1.93793,-0.437597 0.65014,-0.575126 0.72516,-2.025446 h 0.4626 v 5.9013 h -0.4626 q -0.17504,-1.237772 -0.35008,-1.58785 -0.22505,-0.437596 -0.73766,-0.687651 -0.51261,-0.250055 -1.57535,-0.250055 h -3.72582 v 5.588731 q 0,1.125248 0.10002,1.375303 0.10003,0.237553 0.35008,0.387586 0.25006,0.13753 0.95021,0.13753 h 2.87563 q 1.43782,0 2.08796,-0.200044 0.65015,-0.200044 1.25028,-0.787674 0.77517,-0.77517 1.58785,-2.338015 h 0.50011 l -1.46282,4.250937 h -13.06538 v -0.462602 h 0.60013 q 0.60013,0 1.13775,-0.287563 0.40009,-0.200044 0.53762,-0.600133 0.15003,-0.400088 0.15003,-1.63786 V 45.805832 q 0,-1.612855 -0.32507,-1.987938 -0.4501,-0.50011 -1.50033,-0.50011 h -0.60013 v -0.462602 h 13.06538 l 0.18754,3.713318 h -0.48761 q -0.26256,-1.337794 -0.58763,-1.837905 -0.31257,-0.50011 -0.93771,-0.762668 -0.50011,-0.187541 -1.76288,-0.187541 z"
           style="font-style:normal;font-variant:normal;font-weight:normal;font-stretch:normal;font-family:'Times New Roman';-inkscape-font-specification:'Times New Roman, ';fill:url(#linearGradient1784);fill-opacity:1;stroke:url(#linearGradient1786);stroke-width:0.27900001;stroke-miterlimit:4;stroke-dasharray:none"
           id="path1403" />
      </g>
    </g>
  </g>
</svg>
